<svg xmlns="http://www.w3.org/2000/svg" viewBox="0 0 703.25 482.86"><defs><style>.cls-1{fill:#333;}.cls-2{fill:#d7d4c1;}.cls-3{fill:#1a1a1a;}.cls-4{fill:#666;}.cls-5{fill:#310c4e;}.cls-6{fill:#9f9289;}.cls-7{fill:#b0bcaf;}.cls-8{fill:#1b1924;}.cls-9{fill:#4d4d4d;}.cls-10{fill:#706e6d;}.cls-11{fill:gray;}</style></defs><title>img_1</title><g id="Layer_2" data-name="Layer 2"><g id="Layer_3" data-name="Layer 3"><polygon class="cls-1" points="113.44 97.79 94.36 112.59 261.41 191.92 301.42 211.23 331.23 179.1 113.44 97.79"/><polygon class="cls-2" points="61.23 137.96 27.11 170.56 52.57 185.83 74.47 165.97 65.81 159.86 69.89 155.79 77.81 160.55 87.39 151.4 61.23 137.96"/><polygon class="cls-1" points="69.89 160.37 69.89 155.79 77.81 160.55 85.41 170.72 69.89 160.37"/><polygon class="cls-1" points="69.89 160.37 68.4 161.69 65.81 159.86 69.89 155.79 69.89 160.37"/><polygon class="cls-3" points="69.89 160.37 85.41 170.72 81.39 175.69 74.47 165.97 68.4 161.69 69.89 160.37"/><polygon class="cls-4" points="52.57 185.83 67.85 203.66 98.28 172.21 87.39 151.4 77.81 160.55 85.41 170.72 81.39 175.69 74.47 165.97 52.57 185.83"/><polygon class="cls-1" points="38.62 186.99 27.11 170.56 52.57 185.83 67.85 203.66 38.62 186.99"/><polygon class="cls-2" points="181.07 10.97 150.42 46.85 177.3 59.47 197.07 37.49 187.84 32.29 191.48 27.83 199.85 31.76 208.45 21.69 181.07 10.97"/><polygon class="cls-1" points="191.95 32.39 191.48 27.83 199.85 31.76 208.44 41.11 191.95 32.39"/><polygon class="cls-1" points="191.95 32.39 190.6 33.85 187.84 32.29 191.48 27.83 191.95 32.39"/><polygon class="cls-3" points="191.95 32.39 208.44 41.11 204.95 46.47 197.07 37.49 190.6 33.85 191.95 32.39"/><polygon class="cls-4" points="177.3 59.47 194.3 75.66 221.4 41.3 208.45 21.69 199.85 31.76 208.44 41.11 204.95 46.47 197.07 37.49 177.3 59.47"/><polygon class="cls-5" points="163.53 62.03 150.42 46.85 177.3 59.47 194.3 75.66 163.53 62.03"/><polygon class="cls-1" points="494.59 340.09 500.93 440.86 519.37 457.53 519.37 375.76 494.59 340.09"/><polygon class="cls-6" points="501.06 365.31 505.03 428.52 516.6 438.98 516.6 387.68 501.06 365.31"/><polygon class="cls-1" points="531.37 391.76 532.48 467.31 548.03 482.86 552.03 421.09 531.37 391.76"/><polygon class="cls-6" points="535.15 408.41 535.85 456.34 545.72 466.21 548.26 427.02 535.15 408.41"/><polygon class="cls-2" points="316.14 242.31 261.41 191.92 457.26 286.43 494.59 340.09 316.14 242.31"/><polygon class="cls-1" points="307.6 278.1 307.6 299.2 470.62 393.43 479.93 375.53 307.6 278.1"/><polygon class="cls-7" points="307.6 299.2 292.6 312.43 458.11 417.46 470.62 393.43 307.6 299.2"/><polygon class="cls-8" points="307.6 278.1 292.6 312.43 307.6 299.2 307.6 278.1"/><polygon class="cls-9" points="292.6 312.43 292.6 338.45 466.9 448.33 458.11 417.46 292.6 312.43"/><polygon class="cls-9" points="458.11 417.46 500.93 440.86 500.93 440.86 466.9 448.33 458.11 417.46"/><polygon class="cls-2" points="497.44 385.43 500.93 440.86 458.11 417.46 479.93 375.53 307.6 278.1 331.08 250.5 494.59 340.09 497.44 385.43"/><polygon class="cls-1" points="531.37 391.76 519.37 375.76 519.37 457.53 532.48 467.31 531.37 391.76"/><polygon class="cls-3" points="548.03 482.86 514.17 481.48 466.9 448.33 500.93 440.86 519.37 457.53 532.48 467.31 548.03 482.86"/><polygon class="cls-1" points="471.73 307.23 490.26 317.76 484.5 325.59 471.73 307.23"/><polygon class="cls-4" points="490.26 317.76 522.59 363.76 516.6 371.77 484.5 325.59 490.26 317.76"/><polygon class="cls-1" points="460.96 291.75 497.35 234.04 474.52 226.6 494.59 247.22 473.93 278.1 410.93 251.54 410.93 240.34 391.97 231.99 379.47 248.89 457.26 286.43 460.96 291.75"/><polygon class="cls-9" points="497.35 234.04 537.59 292.76 508.83 345.68 490.26 317.76 471.73 307.23 460.96 291.75 497.35 234.04"/><polygon class="cls-2" points="433.59 205.44 466.69 218.59 445.81 248.89 410.93 236.1 433.59 205.44"/><polygon class="cls-6" points="445.83 248.89 473.94 278.1 494.61 247.22 466.71 218.59 445.83 248.89"/><polygon class="cls-2" points="366.32 242.54 387.2 217.1 415.96 229.29 427.87 213.19 402.92 203.43 412.93 193.49 389.6 185.1 346.68 233.07 366.32 242.54"/><polygon class="cls-4" points="387.2 217.1 388.3 226.31 410.93 236.1 415.96 229.29 387.2 217.1"/><polygon class="cls-4" points="410.93 236.1 410.93 251.54 473.93 278.1 445.81 248.89 410.93 236.1"/><polygon class="cls-4" points="388.3 226.31 372.9 245.72 366.32 242.54 387.2 217.1 388.3 226.31"/><polygon class="cls-3" points="379.47 248.89 391.97 231.99 410.93 240.34 410.93 236.1 388.3 226.31 372.9 245.72 379.47 248.89"/><polygon class="cls-4" points="408.96 205.79 412.84 201.77 412.93 193.49 402.92 203.43 408.96 205.79"/><polygon class="cls-2" points="158.34 101.91 487.81 220.43 570.03 220.43 168.74 92.94 158.34 101.91"/><polygon class="cls-2" points="329.59 144.04 383.26 113.77 680.25 194.59 570.03 220.43 329.59 144.04"/><polygon class="cls-6" points="570.03 220.43 593.95 265.66 686.32 229.34 680.25 194.59 570.03 220.43"/><polygon class="cls-6" points="604.59 284.76 622.92 320.43 703.25 274.1 692.25 246.65 604.59 284.76"/><polyline class="cls-1" points="604.59 284.76 528.32 279.24 537.59 292.76 527.38 311.56 622.92 320.43"/><polygon class="cls-3" points="692.25 246.65 662.96 238.53 593.95 265.66 524.41 267.56 530.61 279.4 604.59 284.76 692.25 246.65"/><polygon class="cls-1" points="487.81 220.43 497.35 234.04 520.4 267.68 593.95 265.66 570.03 220.43 487.81 220.43"/><polygon class="cls-3" points="412.93 193.49 412.84 201.76 408.96 205.79 427.87 213.18 433.6 205.44 466.7 218.59 474.52 226.6 497.35 234.03 487.82 220.43 412.93 193.49"/><polygon class="cls-8" points="216.99 266.18 245.45 237.76 261.41 191.92 220.94 226.31 216.99 266.18"/><polygon class="cls-9" points="89.5 181.28 82.05 188.99 220.94 284.87 216.99 266.18 89.5 181.28"/><polygon class="cls-7" points="276.57 304.57 293.6 270.8 297.99 265.25 245.45 237.76 216.99 266.18 276.57 304.57"/><polygon class="cls-10" points="245.45 237.76 261.41 191.92 316.14 242.31 297.99 265.25 245.45 237.76"/><polygon class="cls-2" points="307.6 278.1 331.08 250.5 316.14 242.31 293.6 270.8 307.6 278.1"/><polygon class="cls-9" points="276.57 304.57 292.6 312.7 292.6 338.45 276.57 326.44 276.57 304.57"/><polygon class="cls-10" points="276.57 304.57 292.6 312.7 307.6 278.1 293.6 270.8 276.57 304.57"/><polygon class="cls-10" points="220.94 226.31 101.93 160.33 98.28 172.21 89.5 181.28 216.99 266.18 220.94 226.31"/><polygon class="cls-2" points="101.93 160.33 103.32 155.79 128.27 128.69 261.41 191.92 220.94 226.31 101.93 160.33"/><polygon class="cls-1" points="358.27 103.77 370.33 121.07 354.24 130.14 329.59 144.04 301.77 135.21 321.94 116.44 358.27 103.77"/><polygon class="cls-2" points="358.27 103.77 201.46 66.57 194.3 75.66 181.31 82.11 168.74 92.94 301.77 135.21 321.94 116.44 358.27 103.77"/><polygon class="cls-9" points="216.99 266.18 276.57 304.57 276.57 326.44 220.94 284.87 216.99 266.18"/><polygon class="cls-2" points="193.46 144.04 206.79 149.77 203.47 153.24 189.32 147.39 193.46 144.04"/><polygon class="cls-8" points="203.47 153.24 211.09 160.66 213.76 156.51 206.79 149.77 203.47 153.24"/><polygon class="cls-10" points="189.32 147.39 195.31 154.58 211.09 160.66 203.47 153.24 189.32 147.39"/><polygon class="cls-2" points="203.77 133.74 217.1 139.46 213.78 142.94 199.62 137.08 203.77 133.74"/><polygon class="cls-8" points="213.78 142.94 221.4 150.35 224.06 146.21 217.1 139.46 213.78 142.94"/><polygon class="cls-10" points="199.62 137.08 205.62 144.28 221.4 150.35 213.78 142.94 199.62 137.08"/><polygon class="cls-2" points="254.32 151.85 267.65 157.57 264.33 161.05 250.18 155.19 254.32 151.85"/><polygon class="cls-8" points="264.33 161.05 271.95 168.46 274.61 164.31 267.65 157.57 264.33 161.05"/><polygon class="cls-10" points="250.18 155.19 256.17 162.39 271.95 168.46 264.33 161.05 250.18 155.19"/><polygon class="cls-2" points="242.93 163.24 256.26 168.96 252.94 172.44 238.78 166.58 242.93 163.24"/><polygon class="cls-8" points="252.94 172.44 260.56 179.85 263.22 175.71 256.26 168.96 252.94 172.44"/><polygon class="cls-10" points="238.78 166.58 244.78 173.78 260.56 179.85 252.94 172.44 238.78 166.58"/><polygon class="cls-4" points="389.6 185.1 346.68 233.07 301.42 211.23 331.23 179.1 389.6 185.1"/><polygon class="cls-11" points="331.23 179.1 389.6 185.1 158.34 101.91 149.64 109.4 152.66 112.59 203.47 131.4 331.23 179.1"/><polygon class="cls-2" points="117.32 112.59 129.02 117.48 143.54 102.96 130.43 99.11 117.32 112.59"/><polygon class="cls-9" points="129.02 117.48 151.83 139.46 164.72 125.33 143.54 102.96 129.02 117.48"/><polygon class="cls-10" points="117.32 112.59 136.76 131.84 151.83 139.46 129.02 117.48 117.32 112.59"/><polygon class="cls-6" points="61.23 137.96 76.9 138.34 99.1 150.35 87.39 151.4 61.23 137.96"/><polygon class="cls-6" points="76.9 138.34 125.81 119.12 130.43 121.21 99.1 150.35 76.9 138.34"/><polygon class="cls-1" points="99.1 150.35 103.32 155.79 98.28 172.21 87.39 151.4 99.1 150.35"/><polygon class="cls-1" points="130.43 121.21 99.1 150.35 103.32 155.79 132.87 123.7 130.43 121.21"/><polygon class="cls-6" points="150.42 46.85 150.42 63.85 171.24 73.03 177.3 59.47 150.42 46.85"/><polygon class="cls-1" points="177.3 59.47 194.3 75.66 181.31 82.11 171.24 73.03 177.3 59.47"/><polygon class="cls-6" points="150.42 63.85 140.4 102.03 143.54 102.96 147.6 107.24 171.24 73.03 150.42 63.85"/><polygon class="cls-1" points="181.31 82.11 149.64 109.4 147.6 107.24 171.24 73.03 181.31 82.11"/><polygon class="cls-2" points="151.8 126.9 165.13 132.63 161.81 136.1 147.65 130.25 151.8 126.9"/><polygon class="cls-8" points="161.81 136.1 169.43 143.51 172.09 139.37 165.13 132.63 161.81 136.1"/><polygon class="cls-10" points="147.65 130.25 153.65 137.44 169.43 143.51 161.81 136.1 147.65 130.25"/><polygon class="cls-2" points="158.87 117.13 172.21 122.85 168.88 126.32 154.73 120.47 158.87 117.13"/><polygon class="cls-8" points="168.88 126.32 176.5 133.74 179.17 129.59 172.21 122.85 168.88 126.32"/><polygon class="cls-10" points="154.73 120.47 160.73 127.67 176.5 133.74 168.88 126.32 154.73 120.47"/><polygon class="cls-2" points="103.67 117.01 76.9 138.34 116.13 122.92 103.67 117.01"/><polygon class="cls-10" points="123.21 101.43 133.72 93.05 141.98 96.02 140.4 102.03 130.43 99.11 126.84 102.79 123.21 101.43"/><polygon class="cls-2" points="141.98 96.02 133.72 93.05 145.15 83.95 141.98 96.02"/><polygon class="cls-9" points="321.94 116.44 358.27 103.77 201.46 66.57 194.3 75.66 191.28 77.15 321.94 116.44"/><polygon class="cls-2" points="94.36 197.48 0 358.62 68.44 403.5 215.91 281.4 94.36 197.48"/><polygon class="cls-6" points="68.44 403.5 224.06 287.2 215.91 281.4 68.44 403.5"/><polygon class="cls-2" points="228.69 73.03 372.9 0 444.15 10.97 354.83 102.96 228.69 73.03"/><polygon class="cls-6" points="444.15 10.97 362.19 109.4 358.27 103.77 354.83 102.96 444.15 10.97"/></g></g></svg>