<svg xmlns="http://www.w3.org/2000/svg" xmlns:xlink="http://www.w3.org/1999/xlink" viewBox="0 0 1688.83 1177.62"><defs><style>.cls-1{fill:url(#linear-gradient);}.cls-2{mask:url(#mask);}.cls-3{fill:url(#linear-gradient-2);}.cls-4{fill:#e5856d;}.cls-5{fill:#9d3b1e;}.cls-6{fill:#862c12;}.cls-7{fill:#faf5d8;}.cls-8{fill:#c3a688;}.cls-9{fill:#c3a686;}.cls-10{fill:#996b54;}.cls-11{fill:#834b3a;}.cls-12{fill:#71535d;}.cls-13{fill:#efc690;}.cls-14{fill:#a9441f;}</style><linearGradient id="linear-gradient" x1="687.35" y1="1214.68" x2="1276.99" y2="-198.76" gradientUnits="userSpaceOnUse"><stop offset="0.27"/><stop offset="0.36" stop-color="#1a1a1a"/><stop offset="0.55" stop-color="#5b5b5b"/><stop offset="0.82" stop-color="#c4c4c4"/><stop offset="0.97" stop-color="#fff"/></linearGradient><mask id="mask" x="0" y="0" width="1688.83" height="1421.13" maskUnits="userSpaceOnUse"><rect class="cls-1" x="27.48" y="341.13" width="1598.03" height="1080"/></mask><linearGradient id="linear-gradient-2" x1="712.63" y1="-4862.77" x2="712.63" y2="-5993.12" gradientTransform="matrix(1, 0, 0, -1, 133.53, -4835.74)" gradientUnits="userSpaceOnUse"><stop offset="0.1" stop-color="#244b63"/><stop offset="0.58" stop-color="#9c756a"/><stop offset="0.88" stop-color="#ea916e"/></linearGradient></defs><title>text_background</title><g id="Layer_2" data-name="Layer 2"><g id="Layer_2-2" data-name="Layer 2"><g class="cls-2"><path class="cls-3" d="M3.49,0H1688.83a0,0,0,0,1,0,0V1101.91a75.71,75.71,0,0,1-75.71,75.71H79.2a75.71,75.71,0,0,1-75.71-75.71V0a0,0,0,0,1,0,0Z"/><path class="cls-4" d="M0,653.82s2.62-8.63,30.86-9.41,233.82,77.67,295.8,77.67,189.88-71.4,240.88-71.4,232.24,85.53,319.27,85.53c69.39,0,193.73-64.78,269.88-64.78s60.13,80.47,414.77,80.47l29.67,20.57H0Z"/><path class="cls-5" d="M612.57,1021.54S492.41,903.63,475.05,836l-88-48.8L373,715,319.6,701.18s-110.74,189.67-171,219.72l-14,46.26L277.23,1108.9H566Z"/><path class="cls-6" d="M1688.83,371.38,1634.09,464s9.41,134.4-60.68,232.49c0,0,8.37,318.83-181,418.21s-618.28-249-618.28-249l-61.72,4.6s-50.22,182.66-215.51,197.3S261.54,987,261.54,987s-193.19-5-258-104.61v295.21H1688.83Z"/><polygon class="cls-7" points="1262.06 358.02 1374.26 478.46 1223.82 421.1 1212.45 370.01 1262.06 358.02"/><polygon class="cls-7" points="1383.77 663.2 1383.77 702.47 1324.04 671.43 1502.03 811.28 1376.86 794.37 1288.47 681.54 1289.52 603.08 1383.77 663.2"/><polygon class="cls-8" points="1361.91 701.18 1366.37 693.43 1324.04 671.43 1361.91 701.18"/><path class="cls-9" d="M1146.13,706.27l30.27-20L1129,592.12l-102.77,35.39a126.6,126.6,0,0,1,219.58-109l-21.67-97.41,150.43,57.36L1262.32,358l143.41-35,53.53,209.41L1383.77,663.2l-94.25-60.12-1,78.46,49.32,63-86.68,152.35-25.93-37.21s55.71-65.91,55.19-98.6c-.13-7.58,10.46-19.61,22-23,0,0-18.39-11.19-41.06,17.52-7.84,9.94-.52,33.22-19.26,53.27-26.59,28.44-57.51,56.34-57.51,56.34L1174,810.92l35.22-32.08-48.13,14.64-20.51-42.55,43-32.14"/><path class="cls-7" d="M1070.45,612.26l-44.27,15.25a132.42,132.42,0,0,1-2.71-26.67,126.59,126.59,0,0,1,74.74-115.51A144.12,144.12,0,0,0,1066,576.28,148.67,148.67,0,0,0,1070.45,612.26Z"/><polygon class="cls-7" points="611.71 701.18 614.06 699.58 611.71 701.18 611.71 701.18"/><polygon class="cls-7" points="614.89 699.01 614.89 699.01 614.06 699.58 614.89 699.01"/><path class="cls-7" d="M1146.13,706.27l37.5,12.52-43,32.14L1161,793.2l-.13.28.22-.08,0,.08,48.13-14.64L1174,810.92l10.49,54.25s30.92-27.9,57.51-56.34c18.74-20.05,11.42-43.33,19.26-53.27,22.67-28.71,41.06-17.52,41.06-17.52-11.5,3.4-22.09,15.43-22,23,.48,30.24-47.14,88.9-54.29,97.52-.75.71-1.16,1.08-1.16,1.08l32.95,46.82-40.19-36.27,21.78,56-21.78,12.32-18.83-56.84-2.79,55.44-110.89,1.4S1073,921.11,1036,921.11s-48.47,23.37-48.47,23.37,3.87-60.17,45.33-64.52c34.09-3.57,46.73,17.79,46.73,17.79l.35-19.18,68.7-1.4L1107.84,744l47.42-14L1112,726.63Z"/><path class="cls-10" d="M1459.26,532.47,1383.77,663.2v39.27l-17.4-9-4.46,7.75L1502,811.28l-125.17-16.91-39.07-49.86-86.68,152.35,6.76,9.61-8.06-7.28-12.35,21.87,2,5.17-7.77,4.39-15.83,27.61s76.27-24.22,76.27-44.18l.79,57.28,249.55-88.1-65.14-276.71-27,6.5L1443,587l27.71-10Z"/><polygon class="cls-9" points="1249.81 899.26 1249.81 899.26 1237.37 920.9 1217.68 870.27 1249.81 899.26"/><path class="cls-9" d="M1036,921.18c37,0,49.17,17.43,49.17,17.43l110.89-1.39,2.79-55.45,18.83,56.84,14.07-8-7.33,12.65-50,21.62.59,6.47H1083.6l-7.32-26.85H987.53S999,921.18,1036,921.18Z"/><path class="cls-7" d="M1224.42,943.3l-8.56,14.93s76.27-24.22,76.27-44.18h0l.79,57.28,249.55-88.1,4.07,17.31-330.68,112.63,86.47-21.62,31.83,24.76-97.65,13.25,13.3,15.7s-65.64,30.88-78.9,132.36h-38.62s12.64-94.35,65.87-128.18L1175,971.39l-.59-6.47Z"/><line class="cls-7" x1="1292.92" y1="971.33" x2="1542.47" y2="883.23"/><path class="cls-10" d="M1546.54,900.54l36.53,155.16-180.57,46.14-6.45-13.87-124.38,89.65H1170.91c13.26-101.48,78.9-132.36,78.9-132.36l-13.3-15.7,97.65-13.25-31.83-24.76-86.47,21.62Z"/><path class="cls-11" d="M1391.94,1090.94s.71,43.26,32.09,86.68H1295s-1.55-4.22-2.4-15.11Z"/><circle class="cls-12" cx="500.1" cy="303.11" r="148.19"/><circle class="cls-13" cx="1294.87" cy="207.38" r="5.49"/><circle class="cls-13" cx="1273.49" cy="186" r="5.49"/><circle class="cls-13" cx="1153.18" cy="214.42" r="5.49"/><circle class="cls-13" cx="1193.98" cy="179.55" r="5.49"/><circle class="cls-13" cx="1214.91" cy="147.46" r="5.49"/><circle class="cls-13" cx="1281.16" cy="128.28" r="5.49"/><circle class="cls-13" cx="1260.68" cy="230.07" r="5.49"/><circle class="cls-13" cx="1280.42" cy="242.88" r="5.49"/><circle class="cls-13" cx="1280.42" cy="267.73" r="5.49"/><circle class="cls-13" cx="1224.63" cy="286.75" r="5.49"/><circle class="cls-13" cx="1122.98" cy="260.08" r="5.49"/><circle class="cls-13" cx="1086.71" cy="225.4" r="5.49"/><circle class="cls-13" cx="1179.12" cy="241.05" r="5.49"/><circle class="cls-13" cx="1227.94" cy="307.66" r="5.49"/><circle class="cls-13" cx="1208.76" cy="295.62" r="5.49"/><circle class="cls-13" cx="1059.51" cy="325.09" r="5.49"/><circle class="cls-13" cx="1006.33" cy="365.89" r="5.49"/><circle class="cls-13" cx="1041.9" cy="425.52" r="5.49"/><circle class="cls-13" cx="979.39" cy="466.19" r="5.49"/><circle class="cls-13" cx="990.38" cy="435.46" r="5.49"/><circle class="cls-13" cx="913.75" cy="419.38" r="5.49"/><circle class="cls-13" cx="967.04" cy="403.55" r="5.49"/><circle class="cls-13" cx="961.55" cy="450.76" r="5.49"/><circle class="cls-13" cx="1018.62" cy="465.01" r="5.49"/><circle class="cls-13" cx="1063.61" cy="447.75" r="5.49"/><circle class="cls-13" cx="1003.89" cy="344.44" r="5.49"/><circle class="cls-13" cx="930.14" cy="288.21" r="5.49"/><circle class="cls-13" cx="854.55" cy="275.79" r="5.49"/><circle class="cls-13" cx="835.09" cy="312.1" r="5.49"/><circle class="cls-13" cx="884.13" cy="350.96" r="5.49"/><circle class="cls-13" cx="834.04" cy="337.86" r="5.49"/><circle class="cls-13" cx="802.92" cy="360.88" r="5.49"/><circle class="cls-13" cx="720.54" cy="357.87" r="5.49"/><circle class="cls-13" cx="663.89" cy="460.39" r="5.49"/><circle class="cls-13" cx="737.12" cy="523.95" r="5.49"/><circle class="cls-13" cx="825.91" cy="537.29" r="5.49"/><circle class="cls-13" cx="712.34" cy="562.89" r="5.49"/><circle class="cls-13" cx="758.74" cy="546.53" r="5.49"/><circle class="cls-13" cx="683.24" cy="533.36" r="5.49"/><circle class="cls-13" cx="606.88" cy="552.37" r="5.49"/><circle class="cls-13" cx="554.05" cy="476" r="5.49"/><circle class="cls-13" cx="541.49" cy="525.6" r="5.49"/><circle class="cls-13" cx="656.39" cy="548.27" r="5.49"/><circle class="cls-13" cx="827.48" cy="290.44" r="5.49"/><circle class="cls-13" cx="778.58" cy="295.93" r="5.49"/><circle class="cls-13" cx="755.43" cy="279.45" r="5.49"/><circle class="cls-13" cx="714.11" cy="269.38" r="5.49"/><circle class="cls-13" cx="725.09" cy="219.3" r="5.49"/><circle class="cls-13" cx="734.11" cy="187.78" r="5.49"/><circle class="cls-13" cx="658.53" cy="172.75" r="5.49"/><circle class="cls-13" cx="621.91" cy="135.61" r="5.49"/><circle class="cls-13" cx="465.69" cy="108.76" r="5.49"/><circle class="cls-13" cx="356.11" cy="115.29" r="5.49"/><circle class="cls-13" cx="297.26" cy="229.19" r="5.49"/><circle class="cls-13" cx="286.27" cy="279.8" r="5.49"/><circle class="cls-13" cx="334.92" cy="284.25" r="5.49"/><circle class="cls-13" cx="242.99" cy="258.36" r="5.49"/><circle class="cls-13" cx="189.77" cy="234.69" r="5.49"/><circle class="cls-13" cx="159.17" cy="208.4" r="5.49"/><circle class="cls-13" cx="146.61" cy="258.36" r="5.49"/><circle class="cls-13" cx="183.36" cy="281.76" r="5.49"/><circle class="cls-13" cx="233.71" cy="313.41" r="5.49"/><circle class="cls-13" cx="212" cy="424.69" r="5.49"/><circle class="cls-13" cx="268.75" cy="295.23" r="5.49"/><circle class="cls-13" cx="305.76" cy="330.41" r="5.49"/><circle class="cls-13" cx="381.15" cy="482.43" r="5.49"/><circle class="cls-13" cx="414.89" cy="453.92" r="5.49"/><circle class="cls-13" cx="445.22" cy="482.43" r="5.49"/><circle class="cls-13" cx="402.33" cy="504.79" r="5.49"/><circle class="cls-13" cx="438.74" cy="531.1" r="5.49"/><circle class="cls-13" cx="441.89" cy="516.98" r="5.49"/><circle class="cls-13" cx="305.76" cy="461.53" r="5.49"/><circle class="cls-13" cx="300.27" cy="507.03" r="5.49"/><circle class="cls-13" cx="326.94" cy="491.86" r="5.49"/><circle class="cls-13" cx="357.4" cy="520.11" r="5.49"/><circle class="cls-13" cx="127.52" cy="234.69" r="5.49"/><circle class="cls-13" cx="102.15" cy="273.66" r="5.49"/><circle class="cls-13" cx="72.47" cy="243.71" r="5.49"/><circle class="cls-13" cx="50.63" cy="213.89" r="5.49"/><circle class="cls-13" cx="45.14" cy="259.92" r="5.49"/><circle class="cls-13" cx="712.93" cy="157.05" r="5.49"/><circle class="cls-13" cx="753.73" cy="127.5" r="5.49"/><circle class="cls-13" cx="787.99" cy="179.15" r="5.49"/><circle class="cls-13" cx="821.34" cy="151.56" r="5.49"/><circle class="cls-13" cx="839.64" cy="76.24" r="5.49"/><circle class="cls-13" cx="876.78" cy="191.84" r="5.49"/><circle class="cls-13" cx="666.9" cy="284.95" r="5.49"/><circle class="cls-13" cx="706.26" cy="204.91" r="5.49"/><circle class="cls-13" cx="781.19" cy="261.15" r="5.49"/><circle class="cls-13" cx="714.11" cy="247.68" r="5.49"/><circle class="cls-13" cx="764.71" cy="217.34" r="5.49"/><circle class="cls-13" cx="809.44" cy="200.99" r="5.49"/><circle class="cls-13" cx="775.7" cy="336.47" r="5.49"/><circle class="cls-13" cx="745.75" cy="381.45" r="5.49"/><circle class="cls-13" cx="674.88" cy="365.24" r="5.49"/><circle class="cls-13" cx="943.34" cy="238.52" r="5.49"/><circle class="cls-13" cx="992.91" cy="206.48" r="5.49"/><circle class="cls-13" cx="974.95" cy="69.26" r="5.49"/><circle class="cls-13" cx="908.95" cy="267.81" r="5.49"/><circle class="cls-13" cx="834.15" cy="245.19" r="5.49"/><circle class="cls-13" cx="896.4" cy="306.61" r="5.49"/><circle class="cls-13" cx="965.84" cy="323.91" r="5.49"/><circle class="cls-13" cx="882.93" cy="304.69" r="5.49"/><circle class="cls-13" cx="996.17" cy="278.8" r="5.49"/><circle class="cls-13" cx="1104.7" cy="293.71" r="5.49"/><circle class="cls-13" cx="1074.31" cy="263.78" r="5.49"/><circle class="cls-13" cx="1052.34" cy="243.73" r="5.49"/><circle class="cls-13" cx="1059.49" cy="187.24" r="5.49"/><circle class="cls-13" cx="1022.7" cy="304.69" r="5.49"/><circle class="cls-13" cx="1059.51" cy="301.12" r="5.49"/><circle class="cls-13" cx="1142.2" cy="314.11" r="5.49"/><circle class="cls-13" cx="1364.11" cy="256.74" r="5.49"/><circle class="cls-13" cx="1457.98" cy="275.46" r="5.49"/><circle class="cls-13" cx="1549.52" cy="291.94" r="5.49"/><circle class="cls-13" cx="1631.48" cy="281.26" r="5.49"/><circle class="cls-13" cx="1523.11" cy="264.48" r="5.49"/><circle class="cls-13" cx="1563.99" cy="230.07" r="5.49"/><circle class="cls-13" cx="1494.08" cy="310.71" r="5.49"/><circle class="cls-13" cx="1424.18" cy="294.23" r="5.49"/><circle class="cls-13" cx="1429.67" cy="351.88" r="5.49"/><circle class="cls-13" cx="1344.06" cy="201.89" r="5.49"/><circle class="cls-13" cx="1400.21" cy="183.05" r="5.49"/><circle class="cls-13" cx="1415.11" cy="121.33" r="5.49"/><circle class="cls-13" cx="1307.97" cy="166.84" r="5.49"/><circle class="cls-13" cx="1374.23" cy="154.81" r="5.49"/><circle class="cls-13" cx="1429.67" cy="236.58" r="5.49"/><circle class="cls-13" cx="1483.09" cy="172.07" r="5.49"/><circle class="cls-13" cx="1344.06" cy="287.84" r="5.49"/><circle class="cls-13" cx="1302.22" cy="323.06" r="5.49"/><circle class="cls-13" cx="1411.19" cy="339.11" r="5.49"/><circle class="cls-13" cx="1362.63" cy="299.72" r="5.49"/><circle class="cls-13" cx="1328.98" cy="350.09" r="5.49"/><path class="cls-14" d="M1026.18,627.51,1129,592.12l47.45,94.19-22,14.5-8.29,5.46-17.33,10.34-16.81,10C1068,711.92,1034.92,673.94,1026.18,627.51Z"/><polygon class="cls-6" points="1154.42 700.81 1146.13 706.27 1139.5 710.23 1118.78 688.79 1129.59 681.82 1094.37 632.65 1099.95 671.01 1071.81 611.8 1091.21 605.11 1154.42 700.81"/><polygon class="cls-6" points="1175.32 687.05 1120.82 626.86 1162.83 695.26 1175.32 687.05"/><path class="cls-6" d="M1071.81,690.66s-26.53-32.13-32.84-67.56l19.38-6.69s3.31,25.81,27.25,67.13Z"/><path class="cls-6" d="M1092.05,693.12l-12.27,8.39s11.93,13.08,37.81,21.78l8.2-4.89S1101.91,707.18,1092.05,693.12Z"/><polygon class="cls-6" points="1159.39 652.54 1105.91 600.05 1128.95 592.12 1159.39 652.54"/></g></g></g></svg>