<svg xmlns="http://www.w3.org/2000/svg" viewBox="0 0 939.48 720"><defs><style>.cls-1{fill:#26282d;}.cls-2{fill:#706e6d;}.cls-3{fill:#fff;stroke-width:5px;}.cls-3,.cls-4,.cls-5{stroke:#fff799;stroke-miterlimit:10;}.cls-3,.cls-4{stroke-linecap:round;}.cls-4,.cls-5{fill:none;}.cls-4{stroke-width:10px;}.cls-5{stroke-width:3px;}</style></defs><title>資產 2</title><g id="圖層_2" data-name="圖層 2"><g id="Layer_2" data-name="Layer 2"><path class="cls-1" d="M95.47,507.3a14.48,14.48,0,0,0,20.7,13.08L538.63,319.71a21.73,21.73,0,0,1,9.26-2.07h75.3a36.21,36.21,0,0,1,36.21,36.21v125a51.38,51.38,0,0,0,51.38,51.38h0a51.39,51.39,0,0,0,51.39-51.39V220.58a51.39,51.39,0,0,0-51.39-51.39H578a60,60,0,0,0-25.57,5.72L116.65,380.2a36.9,36.9,0,0,0-21.18,33.39Z"/><path class="cls-2" d="M283.45,566.81A11.24,11.24,0,0,0,299.51,577l327.8-155.7a16.86,16.86,0,0,1,7.19-1.61h58.42a28.1,28.1,0,0,1,28.1,28.1v97a39.87,39.87,0,0,0,39.87,39.87h0a39.87,39.87,0,0,0,39.87-39.87V344.34a39.87,39.87,0,0,0-39.87-39.87H660.84a60,60,0,0,0-25.57,5.72l-335.38,158a28.64,28.64,0,0,0-16.43,25.9Z"/></g><g id="Layer_3" data-name="Layer 3"><line class="cls-3" x1="594.99" y1="539.44" x2="936.98" y2="539.44"/><line class="cls-4" x1="353.72" y1="304.47" x2="5" y2="304.47"/><polyline class="cls-5" points="199.56 117.5 200 1.5 746.37 1.5 746.37 411.63"/><polyline class="cls-5" points="201.32 369.47 200.88 718.5 747.25 718.5 747.25 606.32"/></g></g></svg>