<svg xmlns="http://www.w3.org/2000/svg" viewBox="0 0 705.29 415.4"><defs><style>.cls-1{fill:#26282d;}.cls-2{fill:#706e6d;}</style></defs><title>資產 1</title><g id="圖層_2" data-name="圖層 2"><g id="Layer_2" data-name="Layer 2"><path class="cls-1" d="M0,338.11a14.48,14.48,0,0,0,20.7,13.08L443.16,150.52a21.73,21.73,0,0,1,9.26-2.07h75.3a36.21,36.21,0,0,1,36.21,36.21v125A51.38,51.38,0,0,0,615.31,361h0a51.39,51.39,0,0,0,51.39-51.39V51.39A51.39,51.39,0,0,0,615.31,0H482.49a60,60,0,0,0-25.57,5.72L21.18,211A36.9,36.9,0,0,0,0,244.4Z"/><path class="cls-2" d="M188,397.62A11.24,11.24,0,0,0,204,407.77l327.8-155.7a16.86,16.86,0,0,1,7.19-1.61h58.42a28.1,28.1,0,0,1,28.1,28.1v97a39.87,39.87,0,0,0,39.87,39.87h0a39.87,39.87,0,0,0,39.87-39.87V175.15a39.87,39.87,0,0,0-39.87-39.87H565.36A60,60,0,0,0,539.79,141L204.41,299A28.64,28.64,0,0,0,188,324.91Z"/></g></g></svg>