<svg xmlns="http://www.w3.org/2000/svg" viewBox="0 0 114 114"><defs><style>.cls-1{fill:#fff;}.cls-2{fill:none;stroke:#fff799;stroke-miterlimit:10;stroke-width:3px;}</style></defs><title>資產 13</title><g id="圖層_2" data-name="圖層 2"><g id="Layer_2" data-name="Layer 2"><path class="cls-1" d="M94,8H20A12,12,0,0,0,8,20V94a12,12,0,0,0,12,12H39V72.43C39,62.67,46.59,54.36,56.34,54A18,18,0,0,1,75,72v34H91a15,15,0,0,0,15-15V20A12,12,0,0,0,94,8ZM57,51A13,13,0,1,1,70,38,13,13,0,0,1,57,51Z"/><rect class="cls-2" x="1.5" y="1.5" width="111" height="111" rx="21.05" ry="21.05"/></g></g></svg>