<svg xmlns="http://www.w3.org/2000/svg" viewBox="0 0 162.29 162.15"><defs><style>.cls-1{fill:#fff;}</style></defs><title>Asset 34</title><g id="Layer_2" data-name="Layer 2"><g id="Layer_3" data-name="Layer 3"><path class="cls-1" d="M161.72,44c-1.73-7.15-9.91-11.7-17.11-10-4.27,1-7.32,3.58-9.77,7-2.14,3-4.42,5.95-6.78,9.15a11.85,11.85,0,0,1-.07-1.88q0-22.86,0-45.71A3.65,3.65,0,0,0,127.51,0H10.13a3.33,3.33,0,0,0-.5,2.42c0,4.63,0,9.27,0,13.91,0,1.66-.17,1.8-1.82,1.83-1.89,0-3.79,0-5.69,0a3,3,0,0,0-2.1.5v9.49a2.87,2.87,0,0,0,2.09.48c1.94,0,3.88,0,5.82,0,1.17,0,1.75.43,1.73,1.66,0,1.84,0,3.67,0,5.51,0,1.23-.56,1.67-1.73,1.66H2.09A2.93,2.93,0,0,0,0,38v9.49A3,3,0,0,0,2.1,48c2,0,4,0,6,0,1,0,1.56.36,1.55,1.47,0,1.94,0,3.88,0,5.83,0,1.06-.5,1.51-1.54,1.52-2,0-4,0-6,0a3,3,0,0,0-2.1.49v9.49a3,3,0,0,0,2.1.49q3,0,6,0c1,0,1.54.4,1.53,1.49,0,1.85,0,3.69,0,5.53,0,1.1-.49,1.5-1.53,1.49q-3,0-6,0a3,3,0,0,0-2.1.48v9.5a3,3,0,0,0,2.1.48c1.94,0,3.89,0,5.83,0,1.19,0,1.73.47,1.71,1.68,0,1.84-.05,3.68,0,5.52,0,1.27-.56,1.65-1.72,1.63-1.94,0-3.89,0-5.83,0a3,3,0,0,0-2.1.48v9.5a3,3,0,0,0,2.09.48c1.94,0,3.88,0,5.82,0,1.17,0,1.75.43,1.73,1.66,0,1.83,0,3.67,0,5.5,0,1.24-.56,1.68-1.73,1.67q-2.91,0-5.82,0a2.93,2.93,0,0,0-2.09.49v9.49a3,3,0,0,0,2.1.48q3,0,6,0c1,0,1.56.36,1.55,1.46,0,2,0,3.89,0,5.84,0,1.06-.5,1.51-1.54,1.52-2,0-4,0-6,0a3,3,0,0,0-2.1.49v9.49a2.75,2.75,0,0,0,2,.47H7.48c2.08,0,2.16.08,2.17,2.11,0,4.54,0,9.07,0,13.61,0,2.23.11,2.31,2.29,2.31H124.71c3.27,0,3.27,0,3.27-3.23q0-28.47,0-56.94a6.2,6.2,0,0,1,1.2-4l15.77-21.19c4.72-6.34,9.35-12.75,14.19-19C162.36,53.62,162.89,48.86,161.72,44Zm-45,108.52q-42.48-.09-84.95-.1c-3.64,0-7.28-.06-10.91,0-1.14,0-1.44-.35-1.4-1.43.08-2.06.09-4.12,0-6.17-.05-1.08.35-1.31,1.34-1.28,2.63.06,5.27,0,7.91,0,.91,0,1.17-.28,1.15-1.17-.05-2.42-.07-4.85,0-7.27,0-1-.37-1.1-1.19-1.09-2.53,0-5.07,0-7.6,0-1.17,0-1.69-.18-1.62-1.52.12-2.32.08-4.64,0-7,0-1,.21-1.36,1.28-1.32,2.64.08,5.27,0,7.91,0,.81,0,1.24-.1,1.21-1.08q-.11-3.72,0-7.43c0-.93-.38-1-1.11-1-2.69,0-5.38,0-8.07,0-1,0-1.24-.27-1.22-1.24.07-2.47.06-4.95,0-7.43,0-.9.25-1.17,1.15-1.15,2.63.06,5.27,0,7.91,0,1,0,1.38-.15,1.34-1.26-.1-2.37-.07-4.74,0-7.11,0-.92-.28-1.16-1.16-1.14-2.69,0-5.38,0-8.07,0-.86,0-1.19-.18-1.17-1.11q.11-3.72,0-7.44c0-1,.32-1.25,1.27-1.23,2.69.06,5.38,0,8.07,0,.84,0,1.08-.24,1.06-1.07-.05-2.42-.07-4.85,0-7.27,0-1-.39-1.21-1.29-1.19-2.53,0-5.07,0-7.6,0-1.11,0-1.58-.17-1.52-1.43.12-2.32.08-4.64,0-7,0-1,.22-1.37,1.29-1.33,2.58.08,5.17,0,7.75,0,1,0,1.41-.16,1.37-1.28-.09-2.37-.07-4.74,0-7.11,0-.91-.26-1.16-1.15-1.14-2.69,0-5.38,0-8.07,0-.89,0-1.19-.25-1.17-1.16q.08-3.79,0-7.59c0-.86.29-1,1.08-1,2.74,0,5.48,0,8.22,0,.8,0,1.11-.17,1.09-1-.06-2.47-.05-5,0-7.43,0-.82-.21-1.08-1.05-1.06-2.69.05-5.38,0-8.07,0-.89,0-1.32-.1-1.28-1.17.08-2.48.07-5,0-7.43,0-1,.36-1.22,1.28-1.2,2.64.06,5.28,0,7.91.05,1,0,1.24-.28,1.21-1.24-.07-2.32-.09-4.64,0-7,.05-1.18-.4-1.37-1.45-1.35-2.58.08-5.16,0-7.75.05-1,0-1.24-.27-1.21-1.23.07-2.32.06-4.64,0-7,0-.84.25-1.16,1.07-1a4.42,4.42,0,0,0,.63,0q47.7,0,95.39,0c1.51,0,1.65.51,1.65,1.77q-.06,25.71,0,51.42a4.48,4.48,0,0,1-1,2.87q-11,14.61-21.83,29.26A2.55,2.55,0,0,1,93,95.93c-15.61,0-31.22,0-46.82-.06-1.44,0-1.78.39-1.7,1.75a60.56,60.56,0,0,1,0,6.32c0,1.16.24,1.49,1.45,1.48,9.86-.06,19.72,0,29.58,0H87.42c-2.35,3.15-4.54,6-6.67,9-.49.66-1.09.51-1.69.51-11.18,0-22.36,0-33.54,0-1.16,0-1.67.17-1.59,1.5a60.89,60.89,0,0,1,0,6.48c0,1.2.23,1.57,1.51,1.57,11.08-.06,22.15,0,33.22-.07,1.28,0,1.71.25,1.66,1.61-.17,4.27-.14,8.55-.27,12.81,0,1.2.11,1.56,1.39,1.08,7.07-2.69,14.17-5.31,21.27-7.93a3.52,3.52,0,0,0,1.67-1.35q6.44-8.7,12.92-17.38l.59-.78c.42.41.27.85.27,1.22,0,12.5,0,25,0,37.49C118.22,152.37,117.82,152.53,116.71,152.53Zm12-70.6q-15.27,20.41-30.46,40.89a2.2,2.2,0,0,1-1,1c-2.46.89-4.91,1.83-7.44,2.78,0-2.81,0-5.49,0-8.16,0-.55.36-.86.64-1.23q15.29-20.49,30.57-41c.59-.81,1-1,1.8-.29,1.81,1.52,3.7,2.95,5.61,4.36C129.18,80.76,129.39,81.08,128.76,81.93Zm10.75-14.49c-1.34,1.76-2.65,3.53-3.95,5.32-.35.47-.6.56-1.11.14-2.26-1.8-4.56-3.56-6.91-5.38,1.47-2,2.92-3.9,4.35-5.86.35-.48.6-.52,1.08-.14,2.1,1.67,4.23,3.3,6.37,4.93C139.74,66.75,139.86,67,139.51,67.44ZM151.74,50.9c-1.82,2.63-3.8,5.16-5.69,7.74-.35.49-.6.58-1.11.17-2.05-1.63-4.14-3.22-6.23-4.81-.52-.4-.6-.7-.17-1.26,1.89-2.46,3.69-5,5.59-7.43a4.33,4.33,0,0,1,3.57-1.7A4.54,4.54,0,0,1,151.86,46,4.39,4.39,0,0,1,151.74,50.9Z"/><path class="cls-1" d="M82.28,53.87c0,4.8,0,9.6,0,14.4,0,3.15,2,5.31,4.81,5.31s4.74-2.11,4.79-5.32-.17-6.54.18-9.8A15.17,15.17,0,0,1,105.6,45.52c1.12-.07,1.42.21,1.38,1.33-.09,2.37,0,4.74,0,7.11,0,.66-.08,1-.88,1.12-3,.54-4.65,2.62-4.7,5.81,0,2.84.08,5.7-.08,8.53C101,75.41,98,79.73,92.48,82S81.7,83.2,77.25,79.12a13.8,13.8,0,0,1-4.46-10.6q0-14.23,0-28.47a4.65,4.65,0,0,0-2.51-4.42,4.48,4.48,0,0,0-4.8.18,4.77,4.77,0,0,0-2.19,4.3A68.67,68.67,0,0,1,63.12,49C62,56.85,55.88,62,47.82,62.05c-2.44,0-2.44,0-2.44-2.36,0-2,0-4,0-6,0-.91.29-1.22,1.18-1.13a14.42,14.42,0,0,0,1.74,0A5.54,5.54,0,0,0,53.8,47c.11-3.2-.28-6.43.25-9.62C55.28,30,61.84,25,69.57,25.63A14.19,14.19,0,0,1,82.25,39.48c.07,4.8,0,9.6,0,14.39Z"/><path class="cls-1" d="M57.75,143.63c-4,0-7.91,0-11.86,0-1.14,0-1.41-.32-1.37-1.41.08-2.31.06-4.64,0-6.95,0-.85.13-1.19,1.09-1.19q12.18.06,24.36,0c.83,0,1.07.23,1,1.06,0,2.42-.07,4.85,0,7.27,0,1-.33,1.21-1.27,1.2C65.76,143.6,61.75,143.63,57.75,143.63Z"/></g></g></svg>