<svg xmlns="http://www.w3.org/2000/svg" viewBox="0 0 162 162"><defs><style>.cls-1{fill:#fefefe;}.cls-2{fill:#393939;}.cls-3{fill:#323232;}.cls-4{fill:#0b0b0b;}.cls-5{fill:#5a5a5a;}.cls-6{fill:#444;}.cls-7{fill:#8a8a8a;}.cls-8{fill:#7a7a7a;}.cls-9{fill:#8e8e8e;}.cls-10{fill:#737373;}.cls-11{fill:#7c7c7c;}.cls-12{fill:#898989;}.cls-13{fill:#626262;}.cls-14{fill:#313131;}.cls-15{fill:#484848;}.cls-16{fill:#656565;}.cls-17{fill:#848484;}.cls-18{fill:#9d9d9d;}</style></defs><title>Asset 33</title><g id="Layer_2" data-name="Layer 2"><g id="Layer_3" data-name="Layer 3"><path class="cls-1" d="M86.06,0c1.19.62,2.52.4,3.77.58,2.56.36,5.11.71,7.63,1.28a4.68,4.68,0,0,1,3.83,5.6,4.67,4.67,0,0,1-5.69,3.67A75.53,75.53,0,0,0,75.47,9.77,69.06,69.06,0,0,0,36.89,25C22.65,36.44,13.61,51.16,10.61,69.19c-3.44,20.66,1.68,39.34,14.34,56,.13.16.28.3.62.66-.18-1.25-.31-2.25-.46-3.24-.5-3.13,1.17-5.61,4.08-6,2.63-.4,4.9,1.58,5.33,4.6.8,5.58,1.5,11.18,2.44,16.73.81,4.79-2.83,7.12-6.51,6.24-6-1.46-12.18-2.41-18.28-3.6C9.26,140,7.5,137.6,8,135c.51-2.79,3-4.34,6.07-3.78l4.09.74A84.55,84.55,0,0,1,9.7,119.15,80.77,80.77,0,0,1,.39,72.93c3-31,25.11-58.71,54.56-68.58a83.57,83.57,0,0,1,18.94-4c.29,0,.66.09.78-.33h1.27c.17.2.41.16.63.16s.46,0,.64-.16h1.58a7.86,7.86,0,0,0,3.48,0h1c.25.26.58.13.88.16s.5,0,.7-.16Z"/><path class="cls-1" d="M75,162c-1-.7-2.19-.42-3.28-.62-2.38-.44-4.79-.73-7.16-1.23a4.71,4.71,0,1,1,1.74-9.26,80.46,80.46,0,0,0,15.55,1.54c34.18-.57,62.69-24.19,69.24-57.85,4.11-21.16-.81-40.42-13.83-57.6-.11-.16-.24-.31-.48-.6-.27,1.38.22,2.51.28,3.67.17,2.91-1.43,5.07-4.1,5.45a4.78,4.78,0,0,1-5.33-4.26q-1.38-9.06-2.57-18.14a4.77,4.77,0,0,1,5.77-5.3q9.6,1.85,19.21,3.72a4.79,4.79,0,0,1,4,5.78,4.84,4.84,0,0,1-5.81,3.58L144,30.05a93.42,93.42,0,0,1,6.64,9.61,81.46,81.46,0,0,1,11.08,34.23c0,.28-.12.66.32.78v1c-.22.21-.15.48-.16.73v1.38c0,.25-.06.53.16.74v2.84a3.26,3.26,0,0,0,0,2.22v1c-.21.19-.15.44-.16.68v.54c0,.24-.05.49.16.68v1.26c-.43,2.22-.31,4.49-.69,6.72A80.27,80.27,0,0,1,144.43,132c-12.13,15-27.79,24.44-46.65,28.6A96.58,96.58,0,0,1,86.7,162h-.64c-.19-.22-.45-.15-.69-.17s-.63-.09-.89.17H82.27a9,9,0,0,0-3.8,0h-1a.72.72,0,0,0-1,0Z"/><path class="cls-2" d="M78.47,162a4.91,4.91,0,0,1,3.8,0Z"/><path class="cls-3" d="M82.27,0a4.19,4.19,0,0,1-3.48,0Z"/><path class="cls-4" d="M162,83.53a1.83,1.83,0,0,1,0-2.22Z"/><path class="cls-5" d="M84.18.27c-.36,0-.73.15-1-.27h1c.09.06.13.11.1.18S84.21.27,84.18.27Z"/><path class="cls-6" d="M161.72,77.82v-.95c.1-.13.2-.12.29,0v1C161.9,78,161.81,78,161.72,77.82Z"/><path class="cls-7" d="M76.57,162c.32-.56.64-.44,1,0Z"/><path class="cls-8" d="M84.48,162c.22-.45.61-.31,1-.28.1.07.13.13.09.19s-.06.09-.1.09Z"/><path class="cls-9" d="M76.56.26C76.3.3,76,.39,75.94,0h.63c.11.06.14.12.1.18A.12.12,0,0,1,76.56.26Z"/><path class="cls-10" d="M76.56.26a2.17,2.17,0,0,0,0-.26h.64C77.1.35,76.83.32,76.56.26Z"/><path class="cls-11" d="M84.18.27a1.22,1.22,0,0,1,0-.27h.63C84.72.38,84.44.31,84.18.27Z"/><path class="cls-12" d="M161.72,76.24c0-.26-.11-.55.28-.62v.63C161.9,76.39,161.81,76.4,161.72,76.24Z"/><path class="cls-13" d="M161.72,76.24H162v.63h-.15l-.14,0C161.71,76.66,161.72,76.45,161.72,76.24Z"/><path class="cls-14" d="M161.72,77.82H162v.64A.56.56,0,0,1,161.72,77.82Z"/><path class="cls-15" d="M161.74,85.13c-.05-.27,0-.52.26-.65v.63C161.92,85.25,161.83,85.25,161.74,85.13Z"/><path class="cls-16" d="M161.74,85.13l.26,0v.63c-.08.14-.17.15-.27,0Z"/><path class="cls-17" d="M161.73,85.76l.27,0v.64C161.61,86.3,161.69,86,161.73,85.76Z"/><path class="cls-18" d="M85.43,162a2.62,2.62,0,0,1,0-.28c.27,0,.55-.13.62.28Z"/><path class="cls-1" d="M81.13,31.86a49.42,49.42,0,1,0,49.25,49.61A49.47,49.47,0,0,0,81.13,31.86ZM81,121.18a39.9,39.9,0,1,1,39.9-39.87A40,40,0,0,1,81,121.18Z"/><path class="cls-1" d="M82.09,76.53c2,.12,4.36-.21,6.72.28a13.73,13.73,0,0,1-.72,27c-2.3.34-2.29.34-2.31,2.68a11.87,11.87,0,0,1-.14,2.67,4.66,4.66,0,0,1-5.1,3.53,4.73,4.73,0,0,1-4.24-4.38c-.09-1.36.44-3.16-.25-4s-2.53-.47-3.85-.73a14.53,14.53,0,0,1-5.58-2.47,4.75,4.75,0,0,1-1.41-6.42,4.62,4.62,0,0,1,6.34-1.65,10.42,10.42,0,0,0,6,1.47c2.63-.07,5.27,0,7.9,0,2.93,0,4.79-1.73,4.77-4.32S88.38,86.11,85.52,86c-3.89-.09-7.81.37-11.68-.25A13.71,13.71,0,0,1,75,58.59c1-.08,1.35-.35,1.27-1.35a18.78,18.78,0,0,1,0-3,4.85,4.85,0,0,1,4.85-4.48,4.77,4.77,0,0,1,4.63,4.67c0,1.26-.41,2.79.15,3.72s2.3.5,3.49.83a16.52,16.52,0,0,1,7.44,4.27,4.8,4.8,0,0,1,.27,6.92,4.74,4.74,0,0,1-6.8,0A7.34,7.34,0,0,0,84.77,68c-2.79.07-5.58,0-8.38,0s-4.54,1.77-4.56,4.21a4.31,4.31,0,0,0,4.51,4.28C78.13,76.56,79.92,76.53,82.09,76.53Z"/></g></g></svg>