<svg xmlns="http://www.w3.org/2000/svg" viewBox="0 0 157.49 162"><defs><style>.cls-1{fill:#fff;}.cls-2{fill:#fefefe;}</style></defs><title>Asset 32</title><g id="Layer_2" data-name="Layer 2"><g id="Layer_3" data-name="Layer 3"><path class="cls-1" d="M157.41,112.69c0-9.38-.17-18.77.07-28.15.14-5.3-2.08-9-6.27-11.77a37.92,37.92,0,0,0-5.26-2.9c-8.75-3.89-18.07-5.37-27.5-6.18-1.51-.13-1.8-.59-1.7-2a53.24,53.24,0,0,0-1-15.32A58.5,58.5,0,0,0,45.28,1.46C14.73,8.24-5.39,39.68,1.28,70.2c5.69,26,26.89,44.5,53.43,46.43,1.62.11,2.11.46,2.08,2.15-.1,7.52.07,15.05-.09,22.57a11.64,11.64,0,0,0,4.72,9.83,35.58,35.58,0,0,0,12.73,6.23c19.72,5.73,39.64,5.85,59.64,1.7,6.34-1.32,12.5-3.32,17.88-7.14,3.81-2.7,5.92-6.18,5.8-11.12C157.26,131.47,157.41,122.08,157.41,112.69ZM117,69.69c9.37.72,18.58,2.15,27.22,6.08a20.23,20.23,0,0,1,4.89,3.07c2.87,2.49,2.9,4.78,0,7.26-3.63,3.14-8.08,4.68-12.58,6-10.53,3-21.33,3.76-32.22,3.54-.12,0-.23-.13-.51-.31a71.93,71.93,0,0,0,5.88-8.82,58.11,58.11,0,0,0,5.72-15.14C115.61,70.49,115.58,69.58,117,69.69Zm34.25,32.53c0,1.74-1.22,2.82-2.44,3.8-3.79,3-8.28,4.61-12.88,5.83-13.24,3.5-26.7,4-40.28,2.85a116.47,116.47,0,0,1-13-2,1.51,1.51,0,0,1-1.12-.69,55.61,55.61,0,0,0,15.42-9.82,3.53,3.53,0,0,1,2.88-.72c12.69.55,25.26-.13,37.59-3.49a50.83,50.83,0,0,0,13.84-5.87C151.24,95.71,151.27,99,151.23,102.22Zm-92.71,8.49a52.35,52.35,0,1,1,52.34-52.47A52.31,52.31,0,0,1,58.52,110.71Zm4.19,10c.31-3.89.12-3.68,3.87-4.48,3-.65,5.71-.05,8.6.82,13.71,4.16,27.79,5,42,4,9.15-.63,18.15-2.12,26.77-5.49a57.11,57.11,0,0,0,7.29-3.66c0,4.09,0,8,0,11.8,0,1.91-1.5,3-2.86,4a31.87,31.87,0,0,1-10,4.74c-13.51,4.14-27.37,4.67-41.34,3.77-8.48-.55-16.84-1.91-24.8-5.1a45.11,45.11,0,0,1-5-2.44C64.08,126.92,62.41,124.5,62.71,120.66Zm88.49,22.26c-.11,2.26-1.94,3.45-3.6,4.56a39,39,0,0,1-12.08,5c-13.05,3.39-26.31,3.84-39.68,2.84A83.14,83.14,0,0,1,73,150.69a25.45,25.45,0,0,1-8.14-4.52,5.44,5.44,0,0,1-2.07-4.48c.07-2.46,0-4.92,0-7.37,0-.91.14-1.24,1.12-.71,15.79,8.57,33,9.45,50.33,8.83a93.58,93.58,0,0,0,28-5,54.13,54.13,0,0,0,9-4.28C151.23,136.57,151.34,139.75,151.2,142.92Z"/><path class="cls-2" d="M59.33,54.7a32.73,32.73,0,0,1,5.22.22,10.64,10.64,0,0,1,8.52,10.69A10.53,10.53,0,0,1,64,75.91c-1.78.27-1.77.27-1.79,2.08a9.58,9.58,0,0,1-.11,2.08,3.63,3.63,0,0,1-4,2.75,3.67,3.67,0,0,1-3.29-3.41c-.08-1.06.33-2.45-.2-3.08s-2-.37-3-.57a11.45,11.45,0,0,1-4.34-1.92,3.69,3.69,0,0,1-1.09-5,3.59,3.59,0,0,1,4.92-1.28,8.07,8.07,0,0,0,4.68,1.14c2,0,4.09,0,6.14,0,2.28,0,3.72-1.35,3.7-3.36s-1.44-3.2-3.66-3.25c-3-.07-6.07.29-9.08-.19a10.65,10.65,0,0,1,.92-21.14c.82-.06,1-.27,1-1a16.47,16.47,0,0,1,0-2.33A3.78,3.78,0,0,1,58.6,33.9a3.72,3.72,0,0,1,3.6,3.63c0,1-.32,2.17.12,2.89s1.78.39,2.71.65a12.81,12.81,0,0,1,5.78,3.31A3.74,3.74,0,0,1,71,49.76a3.68,3.68,0,0,1-5.28,0,5.73,5.73,0,0,0-4.32-1.67c-2.17.06-4.34,0-6.51,0a3.3,3.3,0,0,0-3.55,3.27,3.35,3.35,0,0,0,3.5,3.33C56.26,54.72,57.65,54.7,59.33,54.7Z"/></g></g></svg>