<svg xmlns="http://www.w3.org/2000/svg" viewBox="0 0 162 115.08"><defs><style>.cls-1{fill:#fff;}</style></defs><title>Asset 31</title><g id="Layer_2" data-name="Layer 2"><g id="Layer_3" data-name="Layer 3"><path class="cls-1" d="M114.82,21.7a4.34,4.34,0,0,0-.62-.06h0c-.07-.28-.14-.56-.22-.84h0l0-18.09h0c0-.3,0-.6,0-.9h0c0-.21,0-.42-.08-.63A.93.93,0,0,0,114,.11L89.62,0l.06,1.81h0v22.6l1.78-.07c0-.28,0-.55,0-.83h.91c1-1.25,2.43-.89,3.73-.89,6.24,0,12.48,0,18.72,0C114.81,22.34,114.81,22,114.82,21.7Z"/><path class="cls-1" d="M113.13,47.86a1.29,1.29,0,0,0,.63,1.49c-1.11,2.44-.44,5.08-.61,7.62v57.77l19.54,0a.92.92,0,0,0,1.26.16l-.11-.14q.15-22.44.31-44.88l-.25-.24h0v-.13c.09.12.17.25.25.37,6.62-.07,13.23-.17,19.84-.2,8,0,8,0,8-7.76q0-7,0-14C145.71,47.42,129.42,47.47,113.13,47.86Zm15.9,33-.06.38V79.64s0-.07.07-.1C129,80,129,80.39,129,80.81Z"/><path class="cls-1" d="M2.81,70.59h0l-.9,0h0a1.19,1.19,0,0,0-.81,0c0,.27-.05.54-.09.81H1c-1.82,2.23-.58,4.8-.8,7.21h0c0,2.71,0,5.42,0,8.13h0c0,1.76,0,3.51,0,5.27H4.63l14,0a5.79,5.79,0,0,0,1.32.53c1.37.14,1.43,1.11,1.38,2.16.31,6.67-.64,13.37.53,20l.41,0,.41-.11,1.8.09h2.73c4.8.07,9.6.09,14.39.25,2.16.07,2.84-.8,2.82-2.91-.12-13.81-.14-27.63-.19-41.44Zm.91,9.16v.14c-.38.24-.1-.52.19-.15Zm1.81,7.06h0l0,0s0,0,0,0v0Zm19.9,20.76,0,.05h0l.06-.07Z"/><path class="cls-1" d="M21.91,114.79v0h0Z"/><path class="cls-1" d="M89.08,32.91c0-5.89-.89-6.67-6.92-6.68q-35.65,0-71.32,0c-1.77,0-3.65-.4-5.21.9l0,.89q0,7.69,0,15.38h0a1.3,1.3,0,0,0,0,.89v.91l0,.92h0c1.07,2,3,1,4.42,1,18.94.11,37.87.11,56.81.14h0a1.56,1.56,0,0,0,.35.76A4.12,4.12,0,0,1,68,51.25a16.86,16.86,0,0,0-.1,2.66c0,2.48,0,5,0,7.43q0,6.33,0,12.66,0,10.4,0,20.79c0,4.2-.11,8.39-.25,12.58-.19,2.47-.57,4.95.25,7.39l2.71,0a105.13,105.13,0,0,0,15.37,0l1.8,0c1.41-1.46,1.27-3.32,1.27-5.11Q89.14,71.29,89.08,32.91Zm-19.34,15Z"/></g></g></svg>