<svg xmlns="http://www.w3.org/2000/svg" viewBox="0 0 98.59 118.7"><defs><style>.cls-1,.cls-2{fill:none;stroke:#fff;stroke-miterlimit:10;}.cls-1{stroke-width:2px;}.cls-3{fill:#fff;}</style></defs><title>遊戲點數</title><g id="圖層_2" data-name="圖層 2"><g id="圖層_4" data-name="圖層 4"><circle class="cls-1" cx="18.36" cy="18.36" r="17.36"/><path class="cls-2" d="M12.21,30.45V7.7S25,6.2,25.21,13,13.46,19,13.46,19"/><path class="cls-1" d="M41.46,21S80.21,17,70.71,65.7"/><path class="cls-1" d="M91.52,117.7h-5A9,9,0,0,1,79.26,114l-6-8.29H56l-6.54,8.48a9,9,0,0,1-7.15,3.52H35.16A6.07,6.07,0,0,1,29.31,110l5.57-20.37a16.58,16.58,0,0,1,16-12.21H75.81a16.58,16.58,0,0,1,16,12.21L97.37,110A6.07,6.07,0,0,1,91.52,117.7Z"/><polygon class="cls-3" points="69.16 73.96 80.84 60.45 70.87 64.89 61.84 57.7 69.16 73.96"/><polygon class="cls-2" points="46.78 85.7 50.28 85.7 50.28 89.2 53.72 89.2 53.72 92.7 50.25 92.7 50.25 96.2 46.78 96.2 46.78 92.7 43.28 92.7 43.28 89.2 46.78 89.2 46.78 85.7"/><circle class="cls-2" cx="73.71" cy="91.53" r="2.5"/><circle class="cls-2" cx="84.65" cy="91.53" r="2.5"/><circle class="cls-2" cx="79.18" cy="97" r="2.5"/><circle class="cls-2" cx="79.18" cy="86.06" r="2.5"/></g></g></svg>