<svg xmlns="http://www.w3.org/2000/svg" viewBox="0 0 128.5 101.33"><defs><style>.cls-1,.cls-2,.cls-3{fill:none;stroke:#fff;stroke-miterlimit:10;}.cls-2{stroke-width:3px;}.cls-3{stroke-width:0.75px;}.cls-4{fill:#fff;}</style></defs><title>信用卡綁定</title><g id="圖層_2" data-name="圖層 2"><g id="圖層_4" data-name="圖層 4"><rect class="cls-1" x="0.5" y="0.5" width="127.5" height="75.7" rx="12" ry="12"/><circle class="cls-1" cx="26.74" cy="23.29" r="13.16"/><path class="cls-2" d="M107.76,88.91A6.27,6.27,0,0,1,99,87.66L86.69,71.27a6.27,6.27,0,0,1,1.25-8.76h0a6.27,6.27,0,0,1,8.76,1.25L109,80.15"/><path class="cls-2" d="M103.73,72.19a6.27,6.27,0,0,1,8.76,1.25L124.8,89.83a6.27,6.27,0,0,1-1.25,8.76h0a6.27,6.27,0,0,1-8.76-1.25L102.49,81"/><polyline class="cls-3" points="17.54 19.95 26.74 19.95 26.74 31.17"/><polyline class="cls-3" points="16.9 24.91 22.46 24.91 22.46 31.17"/><polyline class="cls-3" points="37.23 21.68 32.03 21.68 32.03 31.17"/><rect class="cls-4" x="27.3" y="17.07" width="2.3" height="2.3"/></g></g></svg>