<svg xmlns="http://www.w3.org/2000/svg" viewBox="0 0 121 128.31"><defs><style>.cls-1{fill:none;stroke:#fff;stroke-miterlimit:10;stroke-width:4px;}.cls-2{fill:#fff;}</style></defs><title>交易金錢流</title><g id="圖層_2" data-name="圖層 2"><g id="圖層_4" data-name="圖層 4"><path class="cls-1" d="M79.5,41.14s-28.35-18.93-38.15,0c-11.16,21.57,28,19.32,38.15,27.61,8.31,6.77-1.55,30-40.73,16.17"/><line class="cls-1" x1="63" y1="23.39" x2="63" y2="100.61"/><path class="cls-2" d="M119.64,12.51,104.5,0V8.36H82.23V22H104.5v8.36l15.14-12.51A3.47,3.47,0,0,0,121,15.17h0A3.47,3.47,0,0,0,119.64,12.51Z"/><path class="cls-2" d="M1.36,110.49,16.5,98v8.36H38.77v13.61H16.5v8.36L1.36,115.8A3.47,3.47,0,0,1,0,113.15H0A3.47,3.47,0,0,1,1.36,110.49Z"/></g></g></svg>