<svg xmlns="http://www.w3.org/2000/svg" viewBox="0 0 119.94 140.63"><defs><style>.cls-1{fill:none;stroke:#fff;stroke-miterlimit:10;}.cls-2{fill:#fff;}</style></defs><title>社群記帳</title><g id="圖層_2" data-name="圖層 2"><g id="圖層_4" data-name="圖層 4"><circle class="cls-1" cx="15.9" cy="68.42" r="15.4"/><path class="cls-1" d="M15.9,83.82h0a15.4,15.4,0,0,1,15.4,15.4v40.91a0,0,0,0,1,0,0H.5a0,0,0,0,1,0,0V99.22A15.4,15.4,0,0,1,15.9,83.82Z"/><circle class="cls-1" cx="104.04" cy="68.42" r="15.4"/><path class="cls-1" d="M104,83.82h0a15.4,15.4,0,0,1,15.4,15.4v40.91a0,0,0,0,1,0,0H88.64a0,0,0,0,1,0,0V99.22A15.4,15.4,0,0,1,104,83.82Z"/><circle class="cls-1" cx="59.65" cy="77.83" r="11.02"/><path class="cls-1" d="M59.65,88.85h0a11,11,0,0,1,11,11v29.26a0,0,0,0,1,0,0h-22a0,0,0,0,1,0,0V99.86a11,11,0,0,1,11-11Z"/><rect class="cls-1" x="46.65" y="3.46" width="25.7" height="31.1"/><path class="cls-2" d="M14.65,47.07A29.45,29.45,0,0,1,15.49,36,24.82,24.82,0,0,1,20.7,25.9a22.28,22.28,0,0,1,4.37-3.75,21.94,21.94,0,0,1,5.2-2.38A26.28,26.28,0,0,1,41.4,19a38.69,38.69,0,0,0-10.61,2.24,22.1,22.1,0,0,0-8.58,6,22.54,22.54,0,0,0-3,4.32A32.15,32.15,0,0,0,17,36.42,46.19,46.19,0,0,0,14.65,47.07Z"/><path class="cls-2" d="M59.65,37.38a48.8,48.8,0,0,1,.71,6.18c.13,2.06.18,4.12.16,6.17s-.12,4.11-.28,6.17a48.26,48.26,0,0,1-.84,6.16,48.26,48.26,0,0,1-.72-6.18c-.12-2.06-.18-4.12-.16-6.17s.12-4.11.28-6.17A48.8,48.8,0,0,1,59.65,37.38Z"/><path class="cls-2" d="M77.65,19a24.14,24.14,0,0,1,11.51.13,20.35,20.35,0,0,1,10.1,6A23.33,23.33,0,0,1,102.59,30a28.62,28.62,0,0,1,1.12,2.73c.15.47.33.92.47,1.39l.35,1.42a34,34,0,0,1,.62,11.49A56.72,56.72,0,0,0,103,36a30.59,30.59,0,0,0-2.11-5.09,22.58,22.58,0,0,0-3.13-4.44,21.24,21.24,0,0,0-9.07-5.84A32.85,32.85,0,0,0,77.65,19Z"/><polygon class="cls-2" points="84.06 1.7 70.2 26.6 66.42 29.79 67.14 24.9 81.01 0 84.06 1.7"/><path class="cls-1" d="M63.4,11.18s-6.87-4.59-9.25,0c-2.71,5.23,6.78,4.69,9.25,6.69,2,1.64-.37,7.27-9.87,3.92"/><line class="cls-1" x1="59.4" y1="6.87" x2="59.4" y2="25.6"/></g></g></svg>