<svg xmlns="http://www.w3.org/2000/svg" viewBox="0 0 1920 276.71"><defs><style>.cls-1{fill:#26282d;}.cls-2{fill:#fff;}</style></defs><title>Asset 26</title><g id="Layer_2" data-name="Layer 2"><g id="Layer_2-2" data-name="Layer 2"><rect class="cls-1" width="1920" height="276.71"/><path class="cls-2" d="M678.88,106.7h10.17v-1.48h-6.89v-2.35c-.45.6-.92,1.17-1.4,1.72a22.83,22.83,0,0,0-2.35-1.74,23.15,23.15,0,0,0,3.67-5.44H680.9V87.73h18.58v9.68h-7.14v1.43h8.15v2.53h-8.15v1.41h7.5v2.44h-7.5v1.48h9.18v2.53H678.88Zm3.34-3.92h6.83v-1.41h-5.83C682.9,101.86,682.57,102.33,682.22,102.78Zm3-4.83c-.16.31-.31.6-.47.89h4.31V97.41h-5.12Zm11-7.64H684.13v1.24h12.12Zm0,4.53V93.59H684.13v1.25Z"/><path class="cls-2" d="M710.15,100.91q.35,4.55-2.67,5a7.68,7.68,0,0,1-1,0,23.62,23.62,0,0,0-.31-2.42V110h-2.69V87.87h6.89v2.3l-1.71,6.49a9,9,0,0,1,1.19,2.63,15.81,15.81,0,0,0,2.61-2.42l-1.18-1.26c-.15.25-.32.49-.49.73a14.28,14.28,0,0,0-1.17-2.3,32.52,32.52,0,0,0,3.16-6.82l2.23.42q-.21.7-.45,1.38h3c0-.4-.1-.82-.14-1.26l2.32-.33c0,.55.1,1.07.16,1.57h5.53v2.39l-2.72,4.27a14.7,14.7,0,0,0,3.14,2.69c-.4,1-.78,2.09-1.12,3.17-.3-.19-.58-.39-.84-.59v2h-4.41v4c0,1.76-.82,2.71-2.32,2.86a24.32,24.32,0,0,1-2.56.11,23.27,23.27,0,0,0-.58-3,10.44,10.44,0,0,0,1.55.14c.78,0,1.14-.43,1.1-1.38v-2.7h-4.34v-2.06q-.51.54-1,1c-.43-.76-.84-1.46-1.25-2.08A8.08,8.08,0,0,1,710.15,100.91Zm-3.38,2q1,0,1-1.83a8.68,8.68,0,0,0-1.52-4.1l1.45-6.38h-1.5v12.24A3.57,3.57,0,0,0,706.77,102.9Zm6.5.28,2.15,1.83c-1.7,1.78-3.22,3.23-4.54,4.36-.57-.8-1.15-1.53-1.74-2.21A28,28,0,0,0,713.27,103.18Zm.35-7.81a7.89,7.89,0,0,0,.51-.77c-.51-.53-1-1-1.43-1.38l-.49.87C712.73,94.54,713.2,95,713.62,95.37Zm1.43,3.4V97.48a30.23,30.23,0,0,1-2.35,2.91h10.46A13.85,13.85,0,0,1,720.88,98v.77Zm-1.53-7.19c.63.48,1.15.9,1.57,1.24.25-.53.48-1.08.68-1.64h-2.08A2.83,2.83,0,0,1,713.52,91.58Zm2.21,4.83h4.15a19.65,19.65,0,0,1-1.93-5A26,26,0,0,1,715.73,96.41Zm6.18,6.75c1.5,1.43,2.86,2.78,4.08,4l-2.2,2.08q-1.87-2.35-3.77-4.31Zm1-11.93h-2.56a14.88,14.88,0,0,0,1,2.39Z"/><path class="cls-2" d="M730.09,86.89h2.54v3.94h2.74v11.29c0,1.8-.46,2.75-1.36,2.84-.14,0-.48,0-1,.05a19.46,19.46,0,0,0-.37-2.58v7.64h-2.54V93.64h-.93v11.58H727.3V90.83h2.79Zm3,15.45c.29,0,.44-.29.44-.85V93.64h-.93v8.67Zm9.58,3.51c0,.25.28,1.2.68,2.86a29.2,29.2,0,0,0-6.35,1.64l-1.24-2.62a2.94,2.94,0,0,0,.77-2.32v-4.34h-.72V98.49h1.4V87.71h11.63v2.51h-8.72v1.31h8.11v2.18h-8.11v1.34h8.11V97.2h-8.11v1.29h9.47v2.58h-1.81l1.55,2.3-2.88,1.92a7.62,7.62,0,0,0,3.42,1.45q-.3.58-1.29,3.21a12.3,12.3,0,0,1-7.83-8.88h-1.31v5.58Zm5.09-4.78h-4.22a10.71,10.71,0,0,0,1.2,2.34C745.77,102.68,746.77,101.9,747.79,101.07Z"/><path class="cls-2" d="M678.46,145.08h6.08v1.13h-6.08Zm.52,2.62h5v1.13h-5Zm0,2.62h5v1.12h-5Zm.09,2.72H684v6.3h-1.13v-1.08H680.2v1.08h-1.13Zm3.76,1.13H680.2v3h2.63Zm-2.55-11.43,1.15-.49c.46.87.85,1.62,1.14,2.27l-1.18.49A16.88,16.88,0,0,0,680.28,142.74Zm5.12,11.15,1.25.31a32.85,32.85,0,0,1-1.22,4c-.43-.19-.86-.35-1.28-.49A15.65,15.65,0,0,0,685.4,153.89Zm.17-9.23v-1.2H695c0,2.12-.12,3.93-.2,5.42,0,2-.75,3-2.12,2.93a22.89,22.89,0,0,1-2.32,0,11.64,11.64,0,0,0-.27-1.46,11.92,11.92,0,0,0,2.39.18c.6,0,.93-.6,1-1.73.09-1.35.13-2.72.15-4.11h-3a15.1,15.1,0,0,1-.32,2.64q-.72,3.44-4.78,5.15a9.38,9.38,0,0,0-.86-1.18c2.39-.87,3.82-2.27,4.3-4.22a12.29,12.29,0,0,0,.34-2.39Zm.88.9,1.11.45a31.1,31.1,0,0,1-1.67,3.31,9.21,9.21,0,0,0-1.12-.62A18.19,18.19,0,0,0,686.45,145.56Zm1,7.62h1.27v3.89c0,.67.32,1,1,1h1.11c.94,0,1.44-.27,1.51-.86a9.08,9.08,0,0,0,.18-1.79,13.27,13.27,0,0,0,1.3.51,15.5,15.5,0,0,1-.25,1.75,1.8,1.8,0,0,1-2,1.6H689.3c-1.25,0-1.88-.71-1.88-2.14Zm1.92-.47,1-.58c.61.87,1.16,1.7,1.64,2.5l-1.18.68C690.29,154.32,689.79,153.45,689.34,152.71Zm4.2,1.37,1.21-.4c.48,1.27.9,2.5,1.27,3.69l-1.29.44A34.83,34.83,0,0,0,693.54,154.08Z"/><path class="cls-2" d="M702.13,146h-5.8V144.8h2.43a19.74,19.74,0,0,0-1.09-2l1.25-.63c.49.76.92,1.47,1.28,2.14l-.83.44h2.76Zm-.59,2.78H697v-1.16h4.58Zm0,2.74H697v-1.16h4.58Zm-4.5,7.86v-6.28h4.39v6.14h-1.16v-.94H698.2v1.08Zm3.23-5.12H698.2v2.88h2.07Zm6.45,4.33a14.7,14.7,0,0,0,2.78-2.68,40.75,40.75,0,0,1-.62-6.25h-6.82v-1.13h3.68a26.09,26.09,0,0,0,1-2.76l1.14.42c-.35.92-.68,1.7-1,2.34h2q0-1,0-6.12h1.23q0,3.51,0,6.12h3.6v1.13h-3.57c0,1.46.15,3.07.35,4.83a18.46,18.46,0,0,0,1.73-3.81l1.08.45a19.8,19.8,0,0,1-2.46,5,5.43,5.43,0,0,0,.81,1.69c.21.28.38.4.51.37s.25-.28.3-.65.11-1.26.19-2.76c.54.22,1,.38,1.24.47-.15,1.42-.26,2.4-.36,3-.17.92-.61,1.4-1.3,1.45-1,0-1.77-.82-2.32-2.31a17.31,17.31,0,0,1-2.34,2.27A4.68,4.68,0,0,0,706.72,158.55Zm-4.17-14.19h2.18c-.16-.4-.36-.89-.61-1.48l1.21-.45c.33.75.59,1.39.79,1.93h2.27v1.09h-5.84Zm0,6.42h5.24v6.32h-4.12v1h-1.12Zm.49-4.59,1-.42c.07.2.35.92.85,2.16l-1.08.35A15.65,15.65,0,0,0,703.08,146.19Zm3.62,5.68h-3v1.51h3Zm0,4.14v-1.54h-3V156Zm3.91-11.67,1-.56c.63,1.07,1.2,2.07,1.69,3l-1.18.63C711.57,146.13,711.05,145.1,710.61,144.34Z"/><path class="cls-2" d="M714.86,157.67h8v-1.73h-5.73v-1.26h5.73v-1.62h-5.12a22.45,22.45,0,0,1-2.21,2.76c-.28-.32-.62-.66-1-1a17.46,17.46,0,0,0,3.36-4.67l1.33.56c-.21.39-.42.76-.64,1.13h4.3v-1.57h1.41v1.57h6.61v1.26h-6.61v1.62h6.13v1.26h-6.13v1.73h7.41v1.26h-16.8Zm1.76-14.59h13.22v7.38H728.5v-.62H716.62Zm11.88,1.23H718v1.54H728.5ZM718,148.61H728.5v-1.56H718Z"/><path class="cls-2" d="M737.76,152.46c.31,2.27-.2,3.53-1.51,3.8a5.36,5.36,0,0,1-1.58.05,11.43,11.43,0,0,0-.35-1.37v4.71h-1.23V143.32h4.66v1.23c-.13.46-.6,2-1.39,4.75A6.4,6.4,0,0,1,737.76,152.46Zm-2,2.54c.75-.17,1-1,.78-2.5a7.57,7.57,0,0,0-1.48-3c.41-1.49.85-3.15,1.34-5h-2.13v10.3A4.11,4.11,0,0,0,735.81,155Zm1.27-7a16.42,16.42,0,0,0,3-5.29l1.14.34c-.15.37-.31.74-.46,1.1h3.08v1.09a12.39,12.39,0,0,1-5.31,7.26,10.77,10.77,0,0,0-.83-1.05,11.33,11.33,0,0,0,2.36-1.76,18.55,18.55,0,0,0-1.46-1.18l.65-.77c.53.39,1,.79,1.51,1.2a10.78,10.78,0,0,0,.63-.88,15.59,15.59,0,0,0-1.67-1.2l.57-.75c.6.37,1.13.73,1.61,1.09a12,12,0,0,0,.81-2h-2.48a22.68,22.68,0,0,1-2.35,3.65A11.32,11.32,0,0,0,737.08,148Zm3.39,7.19,1,.81c-.67.78-1.68,1.8-3,3.08a9.47,9.47,0,0,0-1-.95A21.56,21.56,0,0,0,740.47,155.15Zm-1.76-1.86h10.34v1.09h-4.54v3.3a1.59,1.59,0,0,1-1.82,1.78h-1.62c0-.36-.11-.79-.21-1.27.62.06,1.1.09,1.46.09.66,0,1-.3,1-.89v-3h-4.61Zm2.39-2.95h5.36v1.09H741.1ZM744,143l1.1-.26c0,.52.09,1,.16,1.46h4.19v1.18c-.75,1-1.59,2.12-2.52,3.25a8.27,8.27,0,0,0,3.13,2.34,13.75,13.75,0,0,0-.77,1.18Q744.38,149.65,744,143Zm4.14,2.29h-2.67a9.7,9.7,0,0,0,.85,2.36C747,146.86,747.6,146.07,748.13,145.31Zm-1.49,9.91q1.22,1,3.06,2.73l-1,1.05a25,25,0,0,0-3-2.9Z"/><path class="cls-2" d="M757.21,145.45v8.65a1.23,1.23,0,0,1-.39,1.11,3,3,0,0,1-1.62.29c-.07-.38-.17-.84-.3-1.37.74.17,1.11,0,1.11-.4v-7.14h-1.23v13h-1.23v-13h-1.23v9.07h-1.2V145.45h2.43v-3.08h1.23v3.08Zm9.26,7.61.77,1c-.77.51-1.73,1.13-2.88,1.84a6.73,6.73,0,0,0,3.57,2.15c-.38.6-.64,1-.79,1.35-2.89-1.1-4.78-3.36-5.7-6.78H760v5.18c1.08-.45,2-.85,2.66-1.17,0,.56,0,1,.08,1.4a29.33,29.33,0,0,0-3.9,1.67l-.54-1.28a1.14,1.14,0,0,0,.47-1v-4.8h-1v-1.23h1.31v-8.18h7.72v1.2h-6.49V146h6.12v1.16h-6.12v1.54h6.16v1.16h-6.16v1.57h7.4v1.23h-5.08a9.18,9.18,0,0,0,1,2.37C764.61,154.44,765.53,153.79,766.47,153.06Z"/><path class="cls-2" d="M687,178.63l-1.09,1.16c-.89-.83-1.77-1.62-2.62-2.38a16.05,16.05,0,0,1-4.16,3.79c-.24-.37-.52-.79-.85-1.25a14,14,0,0,0,4-3.46c-1-.9-2-1.73-3-2.5q.74-2.43,1.3-5.08h-2.17v-1.33h2.44c.23-1.19.44-2.4.62-3.64l1.48.21c-.2,1.2-.41,2.34-.63,3.43h3.88v1.3a18.42,18.42,0,0,1-2,7.36Zm-2.25-9.72H682c-.38,1.68-.79,3.23-1.22,4.64l2.25,1.81A15.93,15.93,0,0,0,684.78,168.91Zm3-2.9h6.92v14.42h-1.37v-1.37h-4.18v1.51h-1.37Zm5.55,1.3h-4.18v10.48h4.18Z"/><path class="cls-2" d="M696.24,172.52a28.77,28.77,0,0,0,3.85-8.56l1.41.42c-.45,1.36-.91,2.63-1.41,3.81v13.05h-1.35V171a27.32,27.32,0,0,1-1.86,3A13.92,13.92,0,0,0,696.24,172.52Zm5.79-7.28h11.79v1.3h-1.54v11.9c0,1.74-.8,2.61-2.4,2.62-.55,0-1.48,0-2.79,0-.07-.43-.16-.93-.28-1.51,1,.09,1.91.14,2.76.14s1.33-.46,1.33-1.46V166.54H702Zm.49,3.76h6v7h-4.69v.89h-1.27Zm4.69,1.25h-3.42v4.5h3.42Z"/><path class="cls-2" d="M714.35,172.45a28.56,28.56,0,0,0,3.66-8.53l1.3.39a42,42,0,0,1-1.59,4.38v12.56h-1.24v-10a26.06,26.06,0,0,1-1.6,2.56C714.7,173.36,714.53,172.89,714.35,172.45Zm6.12,2.92,1.17-.66a8.64,8.64,0,0,0,2,2.35,6.44,6.44,0,0,0,.87-2.93H720V169.3h4.74v-1.74h-5.62v-1.19h5.62V164h1.36v2.38h5.67v1.19h-5.67v1.74h4.73v5.59h-1.34v-.76h-3.54a8.76,8.76,0,0,1-1.07,3.7v0a15.83,15.83,0,0,0,7,1.86c-.36.5-.68,1-1,1.46a16.76,16.76,0,0,1-7-2.29,13.81,13.81,0,0,1-4.51,2.43c-.27-.38-.58-.77-.92-1.18a12.77,12.77,0,0,0,4.29-2.08A10.47,10.47,0,0,1,720.47,175.37Zm4.18-2.41c0-.56.05-1.39.05-2.48h-3.41V173Zm1.35,0h3.45v-2.48h-3.39C726.06,170.94,726,171.76,726,173Z"/><path class="cls-2" d="M740.77,180.94v-5.59h-5.12a11.2,11.2,0,0,1-2.12,6.06c-.31-.38-.65-.79-1-1.21a9.45,9.45,0,0,0,1.55-3.59,29.36,29.36,0,0,0,.38-5.38V165h14.33v14c0,1.4-.66,2.1-2,2.1-.8,0-1.71,0-2.72-.06-.06-.38-.15-.87-.26-1.46,1,.07,1.84.11,2.47.11s1.09-.35,1.09-1v-3.23h-5.16v5.59Zm-5-6.86h5v-3.29h-4.94A27.33,27.33,0,0,1,735.75,174.08Zm.08-7.82v3.27h4.94v-3.27Zm11.51,0h-5.16v3.27h5.16Zm-5.16,7.82h5.16v-3.29h-5.16Z"/><path class="cls-2" d="M685.4,189.11h-7V188h3.5a11.71,11.71,0,0,0-1.23-1.95l1.12-.58a15,15,0,0,1,1.31,2l-1,.57h3.29Zm-6.35,13.34v-6.38H685v6.24h-1.25v-.93H680.3v1.07Zm5.7-10.64h-5.59v-1.16h5.59Zm0,2.71h-5.61v-1.16h5.61Zm-1,2.71H680.3v3h3.43Zm2.85-4.48h6.66v-4.68h-7v-1.23h8.33v7.77h-1.33V194h-5.33v5.52a1.16,1.16,0,0,0,1.34,1.35h3.29c1.05,0,1.62-.4,1.72-1.23.1-.67.2-1.4.28-2.18a13.87,13.87,0,0,0,1.35.53c-.13.88-.27,1.66-.42,2.35-.26,1.2-1.17,1.81-2.74,1.83H689a2.15,2.15,0,0,1-2.42-2.46Z"/><path class="cls-2" d="M696.54,187h17.09v1.44h-8.54v3.84l.8-1.13c2.69,1.58,4.94,3,6.75,4.27l-1,1.43a75.16,75.16,0,0,0-6.52-4.42v10.32h-1.6V188.4h-7Z"/><path class="cls-2" d="M714.31,194.21a27.89,27.89,0,0,0,4.26-8.74l1.44.42c-.53,1.48-1.08,2.86-1.67,4.12v12.76H717v-10.1a25,25,0,0,1-2.06,3.08A12.23,12.23,0,0,0,714.31,194.21Zm9.15-.22c-.79,1.93-1.66,3.93-2.62,6a13.72,13.72,0,0,0-1.32-.58,58.24,58.24,0,0,0,2.6-5.88Zm5.5-1.58,1.12-2.74h-7.39a27.07,27.07,0,0,1-1.78,3c-.36-.3-.72-.6-1.09-.89a24.85,24.85,0,0,0,3.16-6.28l1.35.51c-.32.81-.65,1.58-1,2.3h8.17v1.46l-1.29,3.1Q729.5,192.59,729,192.41ZM725.09,191h1.37v9.28q0,2.39-2.16,2.34c-.66,0-1.42,0-2.3,0-.07-.44-.17-.94-.29-1.51a21.7,21.7,0,0,0,2.22.14c.77,0,1.16-.37,1.16-1.19Zm4.1,2.53c.82,1.64,1.71,3.56,2.69,5.75l-1.34.62Q729.4,197,728,194Z"/><path class="cls-2" d="M733.09,188.42h1.77c.44-1.06.79-2,1.08-2.92l1.47.43c-.37.89-.72,1.72-1.07,2.49h3.52v14h-1.41V201h-4v1.5h-1.4Zm5.36,1.32h-4V194h4Zm-4,10h4v-4.44h-4Zm5.63-7.69a25.84,25.84,0,0,0,2.79-6.53l1.48.37c-.3.89-.6,1.72-.91,2.5h5.66q-.21,9-.35,11.37a2.58,2.58,0,0,1-2.91,2.76c-1.06,0-2.15,0-3.25-.1a11.74,11.74,0,0,0-.28-1.57h0a22.66,22.66,0,0,0,3.22.25,1.57,1.57,0,0,0,1.72-1.69q.2-2.62.29-9.7h-4.72a24.28,24.28,0,0,1-1.58,3A6.1,6.1,0,0,0,740.12,192Zm1.55,1.19,1.07-.79a49.15,49.15,0,0,1,3.11,4l-1.3.91A41.69,41.69,0,0,0,741.67,193.22Z"/><path class="cls-2" d="M761.35,185.43h1.52c-.26.58-.53,1.13-.81,1.66h5.53v1.09h-4.43c.51.49,1,1,1.45,1.54l-1,.76h2.27v4.69h-1.35v-.63h-4.78v1.76h7.06c0,1-.1,2-.17,3a2.05,2.05,0,0,1-2.25,2.22l-2.66,0c-.08-.43-.18-.9-.3-1.39,1.15.06,2.05.09,2.69.09a1,1,0,0,0,1.13-1c.06-.55.1-1.11.12-1.67h-5.62v5.38h-1.41v-5a15.25,15.25,0,0,1-7.38,4.54c-.21-.34-.46-.72-.74-1.13a15.25,15.25,0,0,0,6.8-3.83h-5.34V196.3l.84-3h5.82v-1.67h-6.15v-1.19h3.45c-.48-.63-1-1.23-1.45-1.78l.7-.52h-1.29a15.72,15.72,0,0,1-2.41,2.56c-.24-.28-.53-.6-.88-1a12.07,12.07,0,0,0,3.42-4.36h1.52a15.53,15.53,0,0,1-.9,1.66h5.1v1.09h-4.22c.47.47.94,1,1.42,1.53l-1,.77h7.91c-.48-.64-.94-1.23-1.41-1.76l.75-.54h-1.49a15.17,15.17,0,0,1-1.47,2,9.65,9.65,0,0,0-1.07-.86A12.28,12.28,0,0,0,761.35,185.43Zm-8.24,10.87h5.22v-1.76H753.6Zm11.41-4.63h-4.78v1.67h4.78Z"/><path class="cls-2" d="M768.37,192.87h17.47v1.55H768.37Z"/><path class="cls-2" d="M791.8,190.58c-.45-.58-.93-1.18-1.46-1.79l.79-.56H789.5a13.81,13.81,0,0,1-2.25,2.27c-.24-.29-.53-.61-.88-1a12.47,12.47,0,0,0,3.35-4h1.52a18.71,18.71,0,0,1-1,1.65h5.15v1.09h-4.1c.53.51,1,1,1.5,1.56Zm-5,9.34H794v-1.29h-5.86v-1H794v-1.27h-6v-1.05h6v-1.21h-7.28V193H794v-1.21h-5.7v-1.06H794v-1.33h1.26v1.33h6.19V193h2.07v1.06h-2.07v2.7h-1.27v-.44h-4.92v1.27h6.47v1h-6.47v1.29h8.25V201h-8.25v1.95H794V201h-7.19Zm13.32-9.34c-.36-.46-.88-1.07-1.55-1.81l.76-.54h-1.81c-.4.61-.83,1.2-1.28,1.77a9,9,0,0,0-1.08-.86,13.76,13.76,0,0,0,2.31-3.65H799q-.37.84-.81,1.65h5.62v1.09h-4.2c.58.55,1.09,1.06,1.53,1.55Zm0,1.2h-4.92V193h4.92Zm-4.92,3.48h4.92v-1.21h-4.92Z"/><path class="cls-2" d="M804.24,198.85a24.66,24.66,0,0,0,2.78-5.77h-2.55V192h2.69v-6.4h1.16V192h2.27v1.12h-2.27v2.18l.65-.53c1,1,1.78,1.77,2.38,2.46l-.92.85c-.74-.91-1.44-1.71-2.11-2.41v7.22h-1.16v-7.4a28.08,28.08,0,0,1-2.37,4.82C804.6,199.74,804.42,199.27,804.24,198.85Zm.27-11.62,1-.37q.65,1.77,1.2,3.57l-1.11.45C805.23,189.45,804.86,188.23,804.51,187.23Zm4.15,3.23a24.19,24.19,0,0,0,1.28-3.59l1.12.41c-.43,1.3-.89,2.51-1.37,3.64Zm2.42,1.23h4.55v-1.21h-3.81v-1.11h3.81v-1.18h-4.27v-1.1h4.27V185.5h1.27v1.59h4.62v1.1H816.9v1.18H821v1.11h-4.1v1.21h4.87v1.11H811.08Zm2.08,11.09h-1.27v-8.91h8.84v6.86a1.71,1.71,0,0,1-2,1.91H815.9q-.09-.55-.27-1.35c1.09.07,2,.1,2.69.1s1.15-.31,1.15-.94v-.81h-6.31Zm6.31-7.78h-6.31v1.23h6.31Zm-6.31,3.55h6.31v-1.23h-6.31Z"/><path class="cls-2" d="M828.85,196.38c1,.78,2.11,1.6,3.22,2.47l-.88,1.12c-1-.88-2-1.76-3.07-2.64v5.47h-1.31v-6a20.72,20.72,0,0,1-3.44,4.24c-.22-.22-.58-.54-1.06-.93a16,16,0,0,0,4.24-5.05H823v-1.3h3.85v-1.37h1.31v1.37h3.6v1.3h-3.6v2.18ZM823,188c-.08-.4-.19-.83-.31-1.29q5.15-.24,9.28-.56l.31,1.27Q828.86,187.7,823,188Zm0,1.52,1-.58c.55.92,1.09,1.84,1.6,2.76l-1.14.65C824,191.52,823.53,190.57,823,189.56Zm3.23-.65,1.07-.56c.57,1,1.09,2,1.57,2.88l-1.18.62A32,32,0,0,0,826.18,188.91Zm3.06,3.06c.63-1.05,1.29-2.29,2-3.71l1.18.64c-.51.92-1.19,2.13-2.06,3.62Zm1.14,9.65a18.4,18.4,0,0,0,8.28-6l1.07.92a20.67,20.67,0,0,1-8.43,6.22A12.9,12.9,0,0,0,830.38,201.62Zm8.42-14.57a21.42,21.42,0,0,1-6.11,4.8c-.33-.45-.63-.83-.88-1.14a15.66,15.66,0,0,0,5.82-4.42Zm.39,4.83a21.41,21.41,0,0,1-6.15,4.73q-.31-.51-.81-1.17a16,16,0,0,0,5.85-4.42Z"/><path class="cls-2" d="M1055.3,94.62v2.91h-6.17v2.32H1058v2.91h-8.82v2.6q.07,4.17-3.14,4.36c-1.2.08-2.84.13-4.92.16-.27-1.33-.55-2.52-.84-3.58,1.17,0,2.36.07,3.56.09s1.94-.59,1.87-1.94v-1.69h-10V99.85h10V97.53h-7.33V94.62Zm-10.88-7.21,3.89-.52c.16.63.38,1.51.66,2.65h8.55v4.57h-3.32V92.45h-14.72v1.66h-3.33V89.54H1045C1044.79,88.7,1044.59,88,1044.42,87.41Z"/><path class="cls-2" d="M1068.16,87.24l4-.4c.24.68.52,1.54.85,2.61h8.66v5.41h-3.28V92.37h-15.28v2.49h-3.28V89.45h9.21C1068.73,88.57,1068.42,87.84,1068.16,87.24Zm.94,6.14h3.47v2.23h7.78V110h-3.28v-1.33H1064.6V110h-3.28V95.61h7.78Zm-4.5,7.39h4.5v-2.4h-4.5Zm0,5.15h4.5v-2.39h-4.5Zm12.47-7.55h-4.5v2.4h4.5Zm-4.5,7.55h4.5v-2.39h-4.5Z"/><path class="cls-2" d="M1096.36,93.71l1.9-.28c-.1-2.09-.15-4.27-.17-6.52H1101q0,3.57.14,6.07l4.64-.72.33,2.53-4.81.75c.11,1.64.27,3.12.47,4.43a27.77,27.77,0,0,0,2.11-3.66l2.25,1.13a33.38,33.38,0,0,1-3.61,6.16,10.94,10.94,0,0,0,1,2.6.48.48,0,0,0,.47.31q.2,0,.36-.45a38.27,38.27,0,0,0,.25-4c.61.35,1.27.69,2,1a15.68,15.68,0,0,1-.82,5.39,2.24,2.24,0,0,1-2.18,1.57c-1.3,0-2.4-1.29-3.33-3.89a37.51,37.51,0,0,1-3,2.77,20.46,20.46,0,0,0-1.62-1.71h-3.94v2.83h-2.81v-2.83h-5.41v-2.44h5.41v-1.17h-4.41V94.51h11.63v9.14h-4.41v1.17h5.42v.42c.78-.73,1.5-1.47,2.15-2.2a49.2,49.2,0,0,1-.91-7.08l-1.64.26Zm-12.42-5.81h5.93v5.6h-5.93Zm3.79,2.11h-1.66v1.5h1.66Zm-.63,8.11h1.83v-1.5h-1.83Zm0,3.42h1.83V100h-1.83Zm3.7-13.64h5.93v5.6h-5.93Zm2.77,8.72h-1.83v1.5h1.83Zm0,4.92V100h-1.83v1.5Zm1-11.53h-1.66v1.5h1.66Zm8.37-2.67q1.66,1.47,2.79,2.64l-1.83,1.74q-1.2-1.38-2.7-2.91Z"/><path class="cls-2" d="M1110.42,86.75l2.84.4c-.19.65-.4,1.32-.63,2h2.55V106.6c0,1.75-.56,2.77-1.64,3.05a20.72,20.72,0,0,1-2.6.16,29.32,29.32,0,0,0-.64-3.07c.9.1,1.47.14,1.74.14.62,0,.94-.44.94-1.33V99.71h-2.53a32.42,32.42,0,0,1-1.5,10.48,20.54,20.54,0,0,0-1.86-2.82,28,28,0,0,0,1.11-7.66h-.94V97.23h1V89.14h1.64C1110.09,88.37,1110.27,87.58,1110.42,86.75Zm2.56,4.9h-2.51v5.58H1113Zm-.92,8.9c.38,1.33.66,2.5.85,3.52l-1.62.54c-.25-1.2-.52-2.4-.82-3.59Zm0-7.94c.28,1,.54,2.1.79,3.21l-1.71.47c-.25-1.39-.47-2.47-.65-3.24Zm3.35,14.11h.82V101.4h13.29v5.32h.91v2.53h-15Zm8.69-19.13V89.8h-1.73v1.68h1.38v4a44.51,44.51,0,0,0,2-8.42l2.58.52c-.18,1-.36,1.86-.57,2.74h2.63v2.95h-3.35c-.18.64-.36,1.27-.54,1.88l.91-.59q1.2,1.86,2.53,4.06l-2.18,1.59c-.58-1.13-1.18-2.24-1.83-3.35-.21.59-.43,1.16-.65,1.71l-1.62-2h-1.31v1.71h2.13v2.2h-8.3V87.59Zm-5.53,3.89h1.67V89.8h-1.67Zm3,3.29V93.24h-3v1.53Zm-3,3.49h1.67V96.55h-1.67Zm.07,8.46h1.69v-3h-1.69Zm3.4,0h1.71v-3h-1.71Zm5.06-3h-1.68v3h1.68Z"/><path class="cls-2" d="M1034.92,150.72a26.85,26.85,0,0,0,3.37-8.31l1.3.33c-.37,1.37-.78,2.66-1.23,3.85v13.06h-1.19V149.33a24.39,24.39,0,0,1-1.69,2.87C1035.32,151.73,1035.13,151.24,1034.92,150.72Zm5-.08h2v-3.5h-2.8v-1.2h2.8v-3.41h1.3v3.41H1046v1.2h-2.79v3.5h2.11v6.45h-4.15v1.21H1040Zm4.14,1.16h-2.88v4.13h2.88Zm3.61-9.39,1.28.21c-.21,1.11-.45,2.16-.72,3.13h4.17v1.14h-.9a21.06,21.06,0,0,1-1.78,8.18,9.27,9.27,0,0,0,2.87,3.09c-.31.43-.58.87-.83,1.3a12,12,0,0,1-2.77-3.13,17.86,17.86,0,0,1-3.1,3.48,11.75,11.75,0,0,0-.88-1.11,14.84,14.84,0,0,0,3.25-3.67,16.77,16.77,0,0,1-1.44-5.47c-.28.6-.58,1.16-.89,1.69a10.47,10.47,0,0,0-.78-1.12A22.55,22.55,0,0,0,1047.7,142.41Zm2.53,4.48h-2.32c-.05.14-.1.28-.14.41a19.77,19.77,0,0,0,1.26,6.27A20.18,20.18,0,0,0,1050.23,146.89Z"/><path class="cls-2" d="M1060.48,156.37l-1,1.1q-1-.93-2-1.8a15.45,15.45,0,0,1-3.49,3.68q-.36-.54-.81-1.14a12.78,12.78,0,0,0,3.32-3.42c-.92-.8-1.8-1.55-2.65-2.26a53.2,53.2,0,0,0,1.16-5.2h-1.86V146h2.08c.19-1.16.37-2.39.54-3.71l1.42.2q-.32,1.94-.6,3.51h3.33v1.15a19.73,19.73,0,0,1-1.73,7.32C1059,155.1,1059.71,155.73,1060.48,156.37Zm-1.94-9h-2.2c-.42,2.24-.78,3.85-1.08,4.84l1.86,1.46A17,17,0,0,0,1058.54,147.33Zm1.34,2.88h4.83v-2.74l3.18-2.67h-7.38v-1.28h9.34v1.39l-3.75,3.18v2.12h4.47v1.29h-4.47v5.62c0,1.43-.75,2.15-2.27,2.15l-2.3,0c-.06-.44-.13-.92-.23-1.42,1.06.09,1.84.14,2.34.16a.93.93,0,0,0,1.07-1V151.5h-4.83Z"/><path class="cls-2" d="M1072,144.64v-1.19h7v1.21a18.8,18.8,0,0,1-7.35,6.8c-.22-.4-.47-.81-.74-1.23a19.27,19.27,0,0,0,3-1.83c-.74-.76-1.49-1.51-2.27-2.25l.83-.82c.88.79,1.69,1.55,2.43,2.26a13.09,13.09,0,0,0,2.49-3Zm-.78,13.26h5.89c-.42-.41-1-1-1.84-1.71l.84-.84c.72.58,1.44,1.21,2.16,1.88l-.72.67h4.22l-.6-.6a27.2,27.2,0,0,0,2-2l1.07.88c-.55.55-1.17,1.13-1.85,1.73h6v1.19h-17.2Zm2.73-7.48h11.58v5.42h-1.33v-.63h-8.92v.63H1074Zm10.25,1.16h-8.92v2.47h8.92Zm-7.49-3.84h6v1.16h-6Zm4.45-5.23a15.58,15.58,0,0,0,.89,2,38,38,0,0,0,3.38-2l.86,1.11c-1.1.65-2.29,1.32-3.57,2a8.79,8.79,0,0,0,1,1.28c1.23-.68,2.37-1.37,3.43-2.07l.87,1.12c-1,.6-2.06,1.23-3.28,1.89a9.14,9.14,0,0,0,3.93,1.75c-.34.47-.66.95-1,1.43a12.46,12.46,0,0,1-7.82-8Z"/><path class="cls-2" d="M1089.09,150.23h1.23v-6h1.32a12.89,12.89,0,0,0,.58-2l1.23.35c-.2.58-.39,1.11-.58,1.6H1095v13.57a1.28,1.28,0,0,1-.86,1.39,6.45,6.45,0,0,1-2.3.07c0-.36-.1-.77-.19-1.21a11.93,11.93,0,0,0,1.58.12c.45,0,.68-.26.68-.77v-6.12h-2.48v1.81a12.3,12.3,0,0,1-1.49,6.52,4.66,4.66,0,0,0-.9-1,10.38,10.38,0,0,0,1.3-5.79v-1.58h-1.23Zm4.8-4.87h-2.48v4.87h2.48Zm-1.23,1.06c.37,1,.67,1.79.92,2.53l-1,.42c-.2-.79-.47-1.66-.81-2.62Zm0,5.73q.63,1.75.93,2.88l-1,.44c-.19-.82-.46-1.82-.81-3Zm2.6,5.78h1v-4.34h9.37v4.34h1v1.13h-11.27Zm.81-14.48h5.66v1.05h-2v1.71h1.67V150h-1v-.3h-.64v1.73h2.18v1h-5.85Zm1.05,2.76h1.59V144.5h-1.59Zm3.26,2.47v-1.45h-3.26v1.45Zm-3.26,2.75h1.6V149.7h-1.6Zm.22,6.5H1099v-3.25h-1.65Zm2.74,0h1.65v-3.25h-1.65Zm1.42-8.4A33.87,33.87,0,0,0,1103,143l1.18.14c-.13.88-.28,1.74-.46,2.57h2.85v1.16h-3.09c-.26,1.14-.55,2.23-.87,3.29A9.11,9.11,0,0,0,1101.52,149.53Zm3,5.15h-1.67v3.25h1.67Zm-1.11-5.91,1-.56c.65,1.11,1.24,2.21,1.79,3.3l-1.07.66C1104.69,151.16,1104.11,150,1103.4,148.77Z"/><path class="cls-2" d="M1107.39,146.63l.74-1.06c.91.5,1.9,1.05,2.95,1.67l-.84,1.2C1109.36,147.82,1108.41,147.21,1107.39,146.63Zm.06,8.52h7.91v-1.32h1.37v1.32h7.59v1.2h-7.59v3.29h-1.37v-3.29h-7.91Zm.49-1.17q1.33-2.43,2.44-4.82c.41.25.82.47,1.21.68q-1.26,2.44-2.32,4.79Zm.63-10.66.74-1c1.14.64,2.08,1.23,2.85,1.77l-.79,1.13C1110.49,144.54,1109.55,143.92,1108.57,143.32Zm2.78,4.45a26.59,26.59,0,0,0,3.44-5.48l1.29.38c-.3.57-.6,1.12-.92,1.67h3.75q-.51-.74-1.11-1.53l1-.61c.47.6.89,1.16,1.28,1.7l-.75.44h4.43v1.13h-4.19v1.44h3.73V148h-3.73v1.45h3.73v1.12h-3.73v1.58H1124v1.13h-9.46V154h-1.23v-6.65c-.38.54-.78,1.07-1.17,1.6A12.41,12.41,0,0,0,1111.35,147.77Zm3.14-.86h3.87v-1.44h-3.87Zm0,2.57h3.87V148h-3.87Zm0,2.7h3.87V150.6h-3.87Z"/><path class="cls-2" d="M1125,151.08a30.55,30.55,0,0,0,3.83-8.58l1.3.38c-.46,1.46-1,2.81-1.47,4.06v12.59h-1.32v-9.77a26.26,26.26,0,0,1-1.74,2.83A14.35,14.35,0,0,0,1125,151.08Zm4.69-3.78h3.4v-1.69h-2.67v-1.13h2.67v-1.86h1.23v1.86h3.81v-1.86h1.23v1.86h2.6v1.13h-2.6v1.69h3.18v1.12H1134c-.25.49-.54,1-.84,1.44h8.45v7.51q0,2-1.77,2h-1.57a10,10,0,0,0-.26-1.3,12.73,12.73,0,0,0,1.35.07.9.9,0,0,0,1-1v-.79h-3.18v2.41H1136v-2.41h-3.15v3.11h-1.23V152a20.73,20.73,0,0,1-1.41,1.55,9.21,9.21,0,0,0-1.09-.86,13.93,13.93,0,0,0,3.52-4.24h-2.87Zm3.08,5.3H1136V151h-3.15Zm0,2.73H1136v-1.64h-3.15Zm1.55-8h3.81v-1.69h-3.81Zm6,3.69h-3.18v1.61h3.18Zm-3.18,4.34h3.18v-1.64h-3.18Z"/><path class="cls-2" d="M1043.76,178.63l-1.09,1.16c-.9-.83-1.77-1.62-2.63-2.38a15.74,15.74,0,0,1-4.16,3.79c-.23-.37-.51-.79-.84-1.25a14.13,14.13,0,0,0,4-3.46c-1-.9-2-1.73-3-2.5.49-1.62.93-3.31,1.3-5.08h-2.16v-1.33h2.44c.23-1.19.44-2.4.62-3.64l1.48.21c-.2,1.2-.41,2.34-.64,3.43h3.89v1.3a18.59,18.59,0,0,1-2.05,7.36Zm-2.25-9.72h-2.79c-.37,1.68-.78,3.23-1.22,4.64l2.25,1.81A15.92,15.92,0,0,0,1041.51,168.91Zm3-2.9h6.92v14.42h-1.37v-1.37h-4.18v1.51h-1.37Zm5.55,1.3h-4.18v10.48h4.18Z"/><path class="cls-2" d="M1053,172.52a29.29,29.29,0,0,0,3.85-8.56l1.41.42q-.68,2-1.41,3.81v13.05h-1.35V171a25.91,25.91,0,0,1-1.87,3A12.1,12.1,0,0,0,1053,172.52Zm5.78-7.28h11.8v1.3H1069v11.9c0,1.74-.79,2.61-2.39,2.62-.55,0-1.48,0-2.79,0-.07-.43-.17-.93-.28-1.51,1,.09,1.91.14,2.75.14s1.34-.46,1.34-1.46V166.54h-8.88Zm.5,3.76h6v7h-4.7v.89h-1.26Zm4.69,1.25h-3.43v4.5h3.43Z"/><path class="cls-2" d="M1078.55,179.85a18.65,18.65,0,0,0,3.62-3.18,27.34,27.34,0,0,1-1.21-8.37h-6.63V171h5.06c-.07,2.24-.16,4.12-.28,5.64s-.93,2.43-2.36,2.43c-.48,0-1.12,0-1.91-.07-.07-.43-.17-.92-.28-1.46a14.58,14.58,0,0,0,2,.18c.68,0,1.06-.47,1.15-1.41s.16-2.41.21-4h-3.65c-.09,4.07-.92,7.09-2.47,9-.29-.4-.6-.81-.91-1.22q2-2.62,2-8.33V167h8c0-.93-.08-1.93-.11-3h1.46c0,.83,0,1.83,0,3h6.06v1.3h-6a31.09,31.09,0,0,0,.87,7.07,21.51,21.51,0,0,0,2.81-5.24l1.39.58a26.37,26.37,0,0,1-3.63,6.22c.86,1.75,1.7,2.63,2.52,2.63.3,0,.53-.27.68-.82.17-.86.3-1.73.39-2.64.51.2,1,.37,1.34.5a28.5,28.5,0,0,1-.58,3.07,1.64,1.64,0,0,1-1.48,1.39,2.91,2.91,0,0,1-2.06-.72,6.77,6.77,0,0,1-1.81-2.25,19.91,19.91,0,0,1-3.23,2.81C1079.24,180.55,1078.91,180.2,1078.55,179.85Zm5-15,.74-.91c1,.56,1.9,1.15,2.76,1.76l-.84,1.05C1085.4,166.08,1084.52,165.45,1083.59,164.85Z"/><path class="cls-2" d="M1089.69,167.7h4.87a39.28,39.28,0,0,0,.86-3.87h1.41c-.25,1.35-.54,2.64-.86,3.87h8.28l-.67,3.31h1.35l-.4,3.32h1.35c-.1,2.2-.18,3.61-.23,4.23,0,1.65-.81,2.47-2.3,2.47-.81,0-1.77,0-2.88,0,0-.5-.11-1-.18-1.42.93.08,1.79.12,2.6.12s1.4-.39,1.44-1.18.12-1.67.18-3h-11.62a23,23,0,0,1-3,4.17,11.26,11.26,0,0,0-.84-1.22,26,26,0,0,0,5.15-9.58h-4.54Zm1-2.65,1-.71a23.11,23.11,0,0,1,1.9,2.25l-1.14.78C1091.82,166.43,1091.21,165.66,1090.68,165.05Zm2.88,11.83,1.23.4a29.14,29.14,0,0,1-1.46,3.34,5.53,5.53,0,0,0-1.21-.49A19,19,0,0,0,1093.56,176.88Zm10-4.73h-9c-.3.76-.63,1.49-1,2.18h9.7Zm-.81-3.31h-7c-.21.75-.45,1.47-.72,2.17h7.33Zm-6,8.3c.3.74.63,1.68,1,2.81l-1.23.35c-.25-1-.53-2-.83-2.83Zm2.67-.56a19.23,19.23,0,0,1,1.21,2.49l-1.12.43c-.43-1.06-.81-1.9-1.13-2.52Zm2.78-.48a20,20,0,0,1,1.19,2.2l-1.12.49a22.72,22.72,0,0,0-1.11-2.21Z"/><path class="cls-2" d="M1107.09,171.27h17.48v1.55h-17.48Z"/><path class="cls-2" d="M1125,172.43a29.09,29.09,0,0,0,3.8-8.53l1.49.37c-.48,1.49-1,2.88-1.56,4.17v12.83h-1.32V171.19a28.92,28.92,0,0,1-1.74,2.86C1125.54,173.6,1125.32,173.06,1125,172.43Zm4.8,6.61h6.86q1.27-3.39,2.93-9.65l1.58.47q-1.07,3.27-3,9.18h4.39v1.3h-12.74Zm.37-11.95h6.2a18.28,18.28,0,0,0-1.74-2.45l1.2-.82c.51.59,1.15,1.4,1.92,2.4l-1.31.87h5.79v1.3h-12.06Zm2.39,2.47c.77,2.11,1.62,4.67,2.53,7.67l-1.46.42c-.79-2.87-1.6-5.41-2.41-7.63Z"/><path class="cls-2" d="M1143,172.29a26.7,26.7,0,0,0,4.08-8.25l1.21.37a35,35,0,0,1-1.81,4.49v12.18h-1.23v-9.86a27.75,27.75,0,0,1-1.77,2.65C1143.39,173.44,1143.23,172.91,1143,172.29Zm4.57,6.29a11.63,11.63,0,0,0,3.43-2.72h1.28c-.15.2-.31.39-.47.58h6.68v.74a13.13,13.13,0,0,1-2.88,2.07,25.89,25.89,0,0,0,4.92.83l-.6,1.1a21.22,21.22,0,0,1-5.75-1.31,38.85,38.85,0,0,1-6.75,1.52,11.6,11.6,0,0,0-.7-1.1,35.43,35.43,0,0,0,6.17-1,8.76,8.76,0,0,1-2.23-1.64,15.53,15.53,0,0,1-2.38,1.78C1148.09,179.14,1147.85,178.86,1147.59,178.58Zm5.28-5.43.51-.56h-4.52v1.23h-1.13v-2.13h1.76v-5.08h3l.35-1h-4.33v-.88h11.71v.88h-6.17c-.12.28-.26.61-.44,1h5.19v5.08h1.46v2.13h-1.13v-1.23h-5.61c.51.31,1,.65,1.57,1l-.62.74C1154,173.94,1153.45,173.54,1152.87,173.15Zm-3.36.23,1,.47a28.9,28.9,0,0,1-1.73,2.45,9.57,9.57,0,0,0-.89-.64A15.79,15.79,0,0,0,1149.51,173.38Zm8.21-6h-7.09v.88h7.09Zm-7.09,2.58h7.09v-.86h-7.09Zm0,1.69h7.09v-.86h-7.09Zm.29,1.23h1.16v1.23c0,.42.32.64,1,.64h1.71c.76,0,1.2-.19,1.32-.55a4.1,4.1,0,0,0,.22-.77,8,8,0,0,0,1.13.44l-.3.79c-.3.65-1,1-2.11,1h-2.37c-1.15,0-1.72-.47-1.72-1.41Zm5.9,4.43h-5.06a9.17,9.17,0,0,0,2.55,1.46A11.49,11.49,0,0,0,1156.82,177.35Zm.67-3.57.79-.54c.69.72,1.33,1.43,1.9,2.11l-.9.67C1158.7,175.23,1158.1,174.49,1157.49,173.78Z"/><path class="cls-2" d="M1168.39,164.26l1.28-.51c.37.62.7,1.25,1,1.89l-.84.36h6.35v8.17h-1.34v-.39h-5.61a9.39,9.39,0,0,0,2.32,3c1.87-.91,3.59-1.84,5.19-2.82l.88,1.18q-2.16,1.2-4.89,2.5a14.9,14.9,0,0,0,5.84,2,12.43,12.43,0,0,0-.9,1.46q-7.34-1.46-9.84-7.33h-3.34v5.47q2.79-.74,4.74-1.34a11.88,11.88,0,0,0,.11,1.36c-1.75.5-3.41,1-5,1.51a5.14,5.14,0,0,0-1.1.6l-.87-1.23a2,2,0,0,0,.73-1.48V166h6.17C1169,165.39,1168.71,164.81,1168.39,164.26Zm6.45,3h-10.35v2h10.35Zm0,5.22v-2h-10.35v2Z"/><path class="cls-2" d="M1179.09,171.83h1.23v-6h1.32a12.89,12.89,0,0,0,.58-2l1.23.35c-.2.58-.39,1.11-.58,1.6H1185v13.57a1.28,1.28,0,0,1-.86,1.39,6.45,6.45,0,0,1-2.3.07c0-.36-.1-.77-.19-1.21a11.93,11.93,0,0,0,1.58.12c.45,0,.68-.26.68-.77v-6.12h-2.48v1.81a12.3,12.3,0,0,1-1.49,6.52,4.93,4.93,0,0,0-.9-1,10.38,10.38,0,0,0,1.3-5.79v-1.58h-1.23Zm4.8-4.87h-2.48v4.87h2.48Zm-1.23,1.06c.37.95.67,1.79.92,2.53l-1,.42c-.2-.78-.47-1.66-.81-2.62Zm0,5.73q.63,1.75.93,2.88l-1,.44c-.19-.82-.46-1.82-.81-3Zm2.6,5.78h1v-4.34h9.37v4.34h1v1.13h-11.27Zm.81-14.48h5.66v1h-2v1.71h1.67v3.79h-1v-.3h-.64V173h2.18v1.05h-5.85Zm1.05,2.76h1.59V166.1h-1.59Zm3.26,2.48v-1.46h-3.26v1.46Zm-3.26,2.74h1.6V171.3h-1.6Zm.22,6.5H1189v-3.25h-1.65Zm2.74,0h1.65v-3.25h-1.65Zm1.42-8.4a33.87,33.87,0,0,0,1.46-6.58l1.18.15c-.13.87-.28,1.73-.46,2.56h2.85v1.16h-3.09c-.26,1.14-.55,2.23-.87,3.29A9.11,9.11,0,0,0,1191.52,171.13Zm3,5.15h-1.67v3.25h1.67Zm-1.11-5.91,1-.56c.65,1.11,1.24,2.22,1.79,3.31l-1.07.65C1194.69,172.76,1194.11,171.63,1193.4,170.37Z"/><path class="cls-2" d="M1212.23,174.35l.93,1.21-4.27,2.06a15.16,15.16,0,0,0,5.73,2.14c-.38.5-.7,1-1,1.37a15.81,15.81,0,0,1-6.59-3.2,11.37,11.37,0,0,1-2.76-3.76h-3v5.29q2.3-.81,4.45-1.62c0,.62,0,1.15,0,1.59-1.5.49-2.94,1-4.31,1.49a7.24,7.24,0,0,0-1.23.58l-.88-1.34a1.27,1.27,0,0,0,.55-1.07v-4.92h-2.59V173h3.18v-8.22h12v1.16h-10.67v1.58h10.32v1.16h-10.32v1.58h10.41v1.16h-10.41V173h12.6v1.2h-8.73a9.81,9.81,0,0,0,2.07,2.6C1209.35,176,1210.83,175.17,1212.23,174.35Z"/><path class="cls-2" d="M1036,186.24h6.83v5.84h-5.59v10.7H1036Zm5.64,1h-4.4v1.41h4.4Zm0,3.8v-1.41h-4.4v1.41Zm-3.61,5.45h2.78c0-.59.06-1.29.07-2.11h-1.84v-1.09h9.52v1.09h-2v2.11h3v1.09h-3v4.13h-1.23V197.6H1042a5.82,5.82,0,0,1-3,4.3,6,6,0,0,0-1-1,4.49,4.49,0,0,0,2.75-3.27h-2.68Zm4,0h3.31V194.4h-3.22C1042.13,195.1,1042.1,195.8,1042.05,196.51Zm2.76-10.27h6.84v14a2.14,2.14,0,0,1-2.44,2.41l-1.85,0a11.45,11.45,0,0,0-.28-1.32c.75.06,1.43.09,2,.1a1.15,1.15,0,0,0,1.3-1.3v-8h-5.59Zm1.18,1v1.41h4.41v-1.41Zm0,3.8h4.41v-1.41H1046Z"/><path class="cls-2" d="M1060.23,199.85l-1,1.16c-.64-.65-1.27-1.29-1.91-1.9a16.86,16.86,0,0,1-3.4,3.55c-.24-.36-.51-.74-.8-1.14a13.32,13.32,0,0,0,3.23-3.32c-.84-.79-1.68-1.55-2.51-2.27q.62-2.37,1.13-5.29h-1.8v-1.32h2c.19-1.19.37-2.43.54-3.75l1.42.22c-.19,1.27-.39,2.44-.58,3.53h3.27v1.3a19.34,19.34,0,0,1-1.76,7.23C1058.85,198.55,1059.57,199.21,1060.23,199.85Zm-1.77-9.21h-2.16c-.37,1.94-.73,3.55-1.1,4.83.64.52,1.25,1,1.82,1.49A16.79,16.79,0,0,0,1058.46,190.64Zm9-2.78a57.9,57.9,0,0,1,3.09,5.52l-1.39.65c-.24-.56-.5-1.12-.76-1.67-1.85.11-4.07.29-6.64.53a5.78,5.78,0,0,0-1.25.3l-.65-1.27a3.53,3.53,0,0,0,1.06-1,35.21,35.21,0,0,0,2.88-5.47l1.48.47q-1.61,3.06-3.18,5.56,3.51-.23,5.71-.33c-.48-.93-1-1.85-1.49-2.75Zm-6.72,7h8.48v7.91h-1.34v-1.23h-5.8v1.25h-1.34Zm7.14,1.23h-5.8v4.25h5.8Z"/><path class="cls-2" d="M1071.59,200.87h8v-1.73h-5.73v-1.26h5.73v-1.62h-5.12a22.45,22.45,0,0,1-2.21,2.76c-.28-.31-.62-.66-1-1a17.65,17.65,0,0,0,3.35-4.67l1.34.56c-.21.39-.42.76-.64,1.13h4.3v-1.57h1.4V195h6.61v1.26H1081v1.62h6.14v1.26H1081v1.73h7.42v1.26h-16.8Zm1.75-14.59h13.22v7.38h-1.33V193h-11.89Zm11.89,1.23h-10.55v1.54h10.55Zm-10.55,4.3h10.55v-1.56h-10.55Z"/><path class="cls-2" d="M1094.49,195.66c.3,2.27-.2,3.53-1.51,3.8a5.37,5.37,0,0,1-1.58,0,11.44,11.44,0,0,0-.36-1.37v4.71h-1.23V186.52h4.66v1.23q-.2.69-1.39,4.75A6.34,6.34,0,0,1,1094.49,195.66Zm-2,2.54c.75-.17,1-1,.77-2.5a7.4,7.4,0,0,0-1.47-3q.62-2.23,1.33-5H1091v10.3A4.17,4.17,0,0,0,1092.54,198.2Zm1.26-7a16.24,16.24,0,0,0,3-5.29l1.15.34c-.16.37-.31.74-.46,1.1h3.07v1.09a12.33,12.33,0,0,1-5.3,7.26,12.55,12.55,0,0,0-.83-1,11.6,11.6,0,0,0,2.36-1.76,18.55,18.55,0,0,0-1.46-1.18l.65-.77c.52.39,1,.79,1.51,1.2a10.78,10.78,0,0,0,.63-.88,16.68,16.68,0,0,0-1.67-1.2l.56-.75c.6.37,1.14.73,1.62,1.09a12,12,0,0,0,.81-2H1097a22.68,22.68,0,0,1-2.35,3.65A11.64,11.64,0,0,0,1093.8,191.16Zm3.4,7.19,1,.81c-.67.78-1.68,1.8-3,3.08a8.52,8.52,0,0,0-1-1A21.07,21.07,0,0,0,1097.2,198.35Zm-1.76-1.86h10.34v1.09h-4.54v3.3a1.59,1.59,0,0,1-1.83,1.78h-1.62a9.26,9.26,0,0,0-.21-1.27c.63.06,1.11.09,1.46.09.67,0,1-.3,1-.89v-3h-4.6Zm2.39-3h5.36v1.09h-5.36Zm2.88-7.32,1.11-.26c0,.52.09,1,.16,1.46h4.18v1.18c-.75,1-1.59,2.12-2.51,3.25a8.19,8.19,0,0,0,3.13,2.34,11.92,11.92,0,0,0-.78,1.18Q1101.1,192.85,1100.71,186.22Zm4.15,2.29h-2.67a9.71,9.71,0,0,0,.84,2.36C1103.71,190.06,1104.32,189.27,1104.86,188.51Zm-1.49,9.91q1.22,1,3.06,2.73l-1,1a25.81,25.81,0,0,0-3-2.9Z"/><path class="cls-2" d="M1107.18,193.34h1.06v-5.92h1.82c.15-.71.29-1.39.41-2l1.28.23-.59,1.79h2.63v13.34c0,1.19-.53,1.78-1.58,1.78q-1,0-1.71-.06a8.83,8.83,0,0,0-.21-1.21,12.37,12.37,0,0,0,1.62.12c.46,0,.69-.27.69-.8v-6.05h-3.17v1.88a12.14,12.14,0,0,1-1.44,6.28,6,6,0,0,0-1-1,10.2,10.2,0,0,0,1.22-5.41v-1.76h-1.06Zm5.42-4.72h-3.17v4.72h3.17ZM1110,190l1-.41c.3.64.64,1.48,1,2.54l-1.09.4A18.26,18.26,0,0,0,1110,190Zm0,6.12,1-.41c.37.88.74,1.91,1.11,3.08l-1.09.4A30.13,30.13,0,0,0,1110,196.09Zm7.35-3a29.93,29.93,0,0,1-.44,6.26,7.71,7.71,0,0,1-1.73,3.46,13.82,13.82,0,0,0-1-1.17,6.32,6.32,0,0,0,1.53-3,25.36,25.36,0,0,0,.4-5.26v-1.56h5.54v8.4c0,.42.19.63.56.63h.33c.36,0,.54-.31.57-1s.1-1.61.16-3c.43.2.89.39,1.38.58-.08,1.17-.15,2.16-.22,3-.12,1.21-.67,1.81-1.64,1.81h-1c-1,0-1.46-.57-1.46-1.72v-7.44Zm-2.89-4.88h9.6v1.3h-9.6Zm3.08-2.34,1.18-.55c.45.74.86,1.45,1.21,2.13l-1.19.56A17.82,17.82,0,0,0,1117.5,185.91Z"/><path class="cls-2" d="M1125.09,196a21.32,21.32,0,0,0,5-6.27l1.23.75a30.2,30.2,0,0,1-1.91,2.93v9.31h-1.46v-7.5a27,27,0,0,1-2.2,2.21A15.4,15.4,0,0,0,1125.09,196Zm.09-5.57a18,18,0,0,0,4.5-5l1.27.78a24.6,24.6,0,0,1-5.07,5.6C1125.67,191.37,1125.44,190.92,1125.18,190.46Zm6.28,1.64h11.12v1.31h-3.41v6.88a1.93,1.93,0,0,1-2.19,2.18l-3,0c-.07-.47-.16-1-.26-1.58.91.09,1.83.14,2.76.14a1.06,1.06,0,0,0,1.21-1.2v-6.4h-6.22Zm1-5.31h9.12v1.32h-9.12Z"/><path class="cls-2" d="M164.54,101q0,6.09-5.66,6.09-5.48,0-5.47-5.93V93.26h2.91v7.93q0,3.41,2.68,3.41c1.76,0,2.64-1.1,2.64-3.28V93.26h2.9Z"/><path class="cls-2" d="M170.42,93.26v13.61h-2.9V93.26Z"/><path class="cls-2" d="M173.56,106.87V93.26h4.71q7.24,0,7.25,6.63a6.64,6.64,0,0,1-2,5.07,7.36,7.36,0,0,1-5.24,1.91Zm2.9-11.24v8.87h1.59a4.29,4.29,0,0,0,3.24-1.23,4.64,4.64,0,0,0,1.18-3.33,4.1,4.1,0,0,0-1.23-3.17,4.53,4.53,0,0,0-3.2-1.14Z"/><path class="cls-2" d="M187.81,106.87V93.26h4.7q7.26,0,7.25,6.63a6.6,6.6,0,0,1-2,5.07,7.34,7.34,0,0,1-5.23,1.91Zm2.9-11.24v8.87h1.58a4.3,4.3,0,0,0,3.25-1.23,4.63,4.63,0,0,0,1.17-3.33,4.1,4.1,0,0,0-1.23-3.17,4.51,4.51,0,0,0-3.2-1.14Z"/><path class="cls-2" d="M207,102.66h-5.19v-2H207Z"/><path class="cls-2" d="M217.68,95.63h-4.86v3.5h4.47v2.37h-4.47v5.37h-2.9V93.26h7.76Z"/><path class="cls-2" d="M231.19,106.87h-3.34l-2.13-3.54a5.44,5.44,0,0,0-1.08-1.42,1.47,1.47,0,0,0-.9-.31h-.88v5.27H220V93.26h4.77q4.86,0,4.86,3.69a3.65,3.65,0,0,1-.81,2.38,4.34,4.34,0,0,1-2.24,1.4v0a4.85,4.85,0,0,1,2.09,2.08Zm-8.33-11.41v3.92h1.43a2.24,2.24,0,0,0,1.63-.59,2,2,0,0,0,.62-1.48c0-1.23-.73-1.85-2.2-1.85Z"/><path class="cls-2" d="M231.47,100.24a7.35,7.35,0,0,1,1.87-5.2,6.43,6.43,0,0,1,4.94-2A6.06,6.06,0,0,1,243,95a7.09,7.09,0,0,1,1.78,5,7.25,7.25,0,0,1-1.85,5.17,6.88,6.88,0,0,1-9.6.06A6.88,6.88,0,0,1,231.47,100.24Zm3.05-.15a5.2,5.2,0,0,0,1,3.24,3.14,3.14,0,0,0,2.63,1.27,3.18,3.18,0,0,0,2.65-1.21,5.09,5.09,0,0,0,1-3.25,5.45,5.45,0,0,0-.92-3.36,3,3,0,0,0-2.6-1.24,3.21,3.21,0,0,0-2.69,1.27A5.2,5.2,0,0,0,234.52,100.09Z"/><path class="cls-2" d="M259.16,106.87h-3l-5.77-8.81a12.55,12.55,0,0,1-.65-1.1h0c.05.47.08,1.19.08,2.17v7.74h-2.75V93.26h3.16l5.56,8.56c.37.57.59.93.67,1.08h.05a12.68,12.68,0,0,1-.09-1.88V93.26h2.75Z"/><path class="cls-2" d="M271.72,95.63h-3.89v11.24h-2.9V95.63h-3.88V93.26h10.67Z"/><path class="cls-2" d="M281.64,106.87h-8.06V93.26h7.75v2.37h-4.85v3.21H281v2.36h-4.5v3.3h5.16Z"/><path class="cls-2" d="M295.11,106.87h-3.34l-2.14-3.54a5.44,5.44,0,0,0-1.08-1.42,1.47,1.47,0,0,0-.9-.31h-.87v5.27h-2.9V93.26h4.77q4.86,0,4.86,3.69a3.61,3.61,0,0,1-.82,2.38,4.31,4.31,0,0,1-2.23,1.4v0a4.9,4.9,0,0,1,2.08,2.08Zm-8.33-11.41v3.92h1.42a2.26,2.26,0,0,0,1.64-.59,2,2,0,0,0,.62-1.48c0-1.23-.74-1.85-2.21-1.85Z"/><path class="cls-2" d="M310.66,97.15l-3.22,4.74,3.19,5h-3.28l-1.45-2.68a6.1,6.1,0,0,1-.41-.87h0a6.31,6.31,0,0,1-.39.84l-1.48,2.71h-3.26l3.29-4.83-3.1-4.89h3.29l1.44,2.8a8.38,8.38,0,0,1,.4.89h0a5.89,5.89,0,0,1,.41-.9l1.48-2.79Z"/><path class="cls-2" d="M317.7,106.87V93.26h4.83a6,6,0,0,1,3.43.84,2.7,2.7,0,0,1,1.2,2.34,2.81,2.81,0,0,1-.75,1.94,3.77,3.77,0,0,1-1.88,1.15v0a3.83,3.83,0,0,1,2.3,1.05,3,3,0,0,1,.88,2.21,3.64,3.64,0,0,1-1.32,3,5.48,5.48,0,0,1-3.61,1.09Zm2.9-11.45v3.37H322a2.35,2.35,0,0,0,1.56-.48,1.64,1.64,0,0,0,.57-1.33q0-1.56-2.28-1.56Zm0,5.55v3.74h1.72a2.65,2.65,0,0,0,1.72-.51,1.74,1.74,0,0,0,.62-1.41,1.6,1.6,0,0,0-.62-1.34,2.78,2.78,0,0,0-1.75-.48Z"/><path class="cls-2" d="M330,97.74a6,6,0,0,1,1.76-.6,9.64,9.64,0,0,1,1.88-.23c2.72,0,4.08,1.37,4.08,4.09v5.87H335v-1.41h0a3.19,3.19,0,0,1-2.91,1.65,3.05,3.05,0,0,1-2.21-.79,2.78,2.78,0,0,1-.83-2.14c0-1.86,1.11-3,3.33-3.25l2.67-.36c0-1.13-.59-1.7-1.77-1.7A5.61,5.61,0,0,0,330,99.93Zm3.2,4.73c-1,.13-1.53.6-1.53,1.39a1.13,1.13,0,0,0,.37.88,1.46,1.46,0,0,0,1,.33,1.85,1.85,0,0,0,1.43-.61,2.22,2.22,0,0,0,.56-1.53v-.7Z"/><path class="cls-2" d="M349.35,106.87h-2.82v-5.42c0-1.57-.56-2.36-1.69-2.36a1.71,1.71,0,0,0-1.35.63,2.39,2.39,0,0,0-.53,1.61v5.54h-2.84V97.15H343V98.7h0a3.43,3.43,0,0,1,3.13-1.79c2.16,0,3.23,1.34,3.23,4Z"/><path class="cls-2" d="M361.33,106.87h-3.44l-3.24-4.81h0v4.81h-2.84V92.48h2.84v9.16h0l3-4.49h3.38l-3.6,4.59Z"/><path class="cls-2" d="M367.53,103.44a5.69,5.69,0,0,0,3.73,1.37,3.2,3.2,0,0,0,1.79-.41,1.23,1.23,0,0,0,.6-1.05,1.5,1.5,0,0,0-.48-1,8.94,8.94,0,0,0-2.5-1.34q-3.19-1.35-3.19-3.93a3.44,3.44,0,0,1,1.44-3,6.39,6.39,0,0,1,3.83-1,9.32,9.32,0,0,1,3.35.52v2.72a5.58,5.58,0,0,0-3.21-.93,3.26,3.26,0,0,0-1.71.39,1.18,1.18,0,0,0-.64,1,1.35,1.35,0,0,0,.43,1,8.1,8.1,0,0,0,2.18,1.2,7.09,7.09,0,0,1,2.79,1.84,3.64,3.64,0,0,1,.76,2.3,3.51,3.51,0,0,1-1.39,3,6.52,6.52,0,0,1-3.95,1,8.4,8.4,0,0,1-3.83-.76Z"/><path class="cls-2" d="M378.45,94a1.36,1.36,0,0,1,.46-1.06,1.71,1.71,0,0,1,1.18-.41,1.68,1.68,0,0,1,1.19.42,1.35,1.35,0,0,1,.46,1.05,1.38,1.38,0,0,1-.46,1.07,1.85,1.85,0,0,1-2.37,0A1.39,1.39,0,0,1,378.45,94Zm.21,12.86V97.15h2.83v9.72Z"/><path class="cls-2" d="M393.26,106.87h-2.82v-5.42c0-1.57-.56-2.36-1.69-2.36a1.71,1.71,0,0,0-1.35.63,2.39,2.39,0,0,0-.53,1.61v5.54H384V97.15h2.84V98.7h0A3.43,3.43,0,0,1,390,96.91c2.16,0,3.23,1.34,3.23,4Z"/><path class="cls-2" d="M395.11,102.05a4.94,4.94,0,0,1,1.44-3.76,5.32,5.32,0,0,1,3.86-1.38,5.11,5.11,0,0,1,3.73,1.35,4.85,4.85,0,0,1,1.38,3.63,5.43,5.43,0,0,1-9,3.86A4.92,4.92,0,0,1,395.11,102.05Zm2.87,0c0,1.94.79,2.91,2.38,2.91s2.27-1,2.27-3-.76-2.85-2.29-2.85a2.12,2.12,0,0,0-1.74.77A3.37,3.37,0,0,0,398,102Z"/><path class="cls-2" d="M410.7,102.12v4.75h-2.9V93.26h4.69c3.38,0,5.08,1.43,5.08,4.3a4.14,4.14,0,0,1-1.54,3.36,5.59,5.59,0,0,1-3.83,1.2Zm0-6.61V99.9H412c1.7,0,2.56-.74,2.56-2.22s-.85-2.17-2.54-2.17Z"/><path class="cls-2" d="M419.09,97.74a6,6,0,0,1,1.76-.6,9.64,9.64,0,0,1,1.88-.23c2.72,0,4.08,1.37,4.08,4.09v5.87h-2.7v-1.41h0a3.19,3.19,0,0,1-2.91,1.65,3.05,3.05,0,0,1-2.21-.79,2.78,2.78,0,0,1-.83-2.14c0-1.86,1.11-3,3.33-3.25l2.67-.36c0-1.13-.59-1.7-1.77-1.7a5.61,5.61,0,0,0-3.27,1.06Zm3.2,4.73c-1,.13-1.53.6-1.53,1.39a1.13,1.13,0,0,0,.37.88,1.46,1.46,0,0,0,1,.33,1.85,1.85,0,0,0,1.43-.61,2.22,2.22,0,0,0,.56-1.53v-.7Z"/><path class="cls-2" d="M436.53,106.51a5.75,5.75,0,0,1-2.9.6,4.89,4.89,0,0,1-3.59-1.35,4.72,4.72,0,0,1-1.37-3.51,5.2,5.2,0,0,1,1.47-3.91,5.45,5.45,0,0,1,3.94-1.43,5.15,5.15,0,0,1,2.46.46V99.8a3.56,3.56,0,0,0-2.13-.71,2.83,2.83,0,0,0-2.08.79,2.92,2.92,0,0,0-.79,2.17,2.88,2.88,0,0,0,.75,2.11,2.71,2.71,0,0,0,2,.77,4,4,0,0,0,2.21-.72Z"/><path class="cls-2" d="M163.26,171.18a8.76,8.76,0,0,1-3.87.73,6.58,6.58,0,0,1-4.89-1.84,6.73,6.73,0,0,1-1.8-4.91,7.2,7.2,0,0,1,2-5.28,7,7,0,0,1,5.2-2,9.22,9.22,0,0,1,3.34.52v2.8a6.06,6.06,0,0,0-3.13-.81,4.17,4.17,0,0,0-3.19,1.28,4.7,4.7,0,0,0-1.19,3.33,4.57,4.57,0,0,0,1.13,3.22,4,4,0,0,0,3.07,1.22,6.44,6.44,0,0,0,3.31-.87Z"/><path class="cls-2" d="M164.81,166.86a5,5,0,0,1,1.44-3.78,5.37,5.37,0,0,1,3.86-1.37,5.11,5.11,0,0,1,3.73,1.35,4.85,4.85,0,0,1,1.38,3.63,5.43,5.43,0,0,1-9,3.86A4.91,4.91,0,0,1,164.81,166.86Zm2.87,0c0,1.94.79,2.91,2.38,2.91s2.27-1,2.27-3-.76-2.85-2.29-2.85a2.12,2.12,0,0,0-1.74.77A3.37,3.37,0,0,0,167.68,166.82Z"/><path class="cls-2" d="M180.06,170.5v5.64h-2.84V162h2.84v1.49h0a3.81,3.81,0,0,1,6.06-.43,5.44,5.44,0,0,1,1,3.53,5.93,5.93,0,0,1-1.22,3.9,3.93,3.93,0,0,1-3.18,1.47,3,3,0,0,1-2.71-1.41Zm-.05-3.13a2.51,2.51,0,0,0,.57,1.7,1.82,1.82,0,0,0,1.46.66,1.91,1.91,0,0,0,1.65-.83,3.93,3.93,0,0,0,.6-2.34c0-1.78-.7-2.67-2.09-2.67a1.94,1.94,0,0,0-1.57.74,2.88,2.88,0,0,0-.62,1.9Z"/><path class="cls-2" d="M198.3,162l-4,10.59q-1.39,3.69-4.19,3.69a4.79,4.79,0,0,1-1.7-.23v-2.27a2.46,2.46,0,0,0,1.26.32,1.66,1.66,0,0,0,1.63-1.12l.54-1.28L187.9,162H191l1.9,6.09a6.16,6.16,0,0,1,.26,1.24h.05a8.19,8.19,0,0,1,.29-1.22l1.94-6.11Z"/><path class="cls-2" d="M205.74,164.53a2.47,2.47,0,0,0-1.26-.3A1.83,1.83,0,0,0,203,165a3.27,3.27,0,0,0-.57,2v4.67h-2.84V162h2.84v1.83h0a2.59,2.59,0,0,1,2.56-2,1.91,1.91,0,0,1,.76.12Z"/><path class="cls-2" d="M207,158.81a1.36,1.36,0,0,1,.46-1.06,1.72,1.72,0,0,1,1.18-.4,1.7,1.7,0,0,1,1.2.41,1.44,1.44,0,0,1,0,2.12,1.83,1.83,0,0,1-2.36,0A1.38,1.38,0,0,1,207,158.81Zm.21,12.86V162H210v9.72Z"/><path class="cls-2" d="M222,170.6a5.48,5.48,0,0,1-1.55,4.17,6.18,6.18,0,0,1-4.44,1.46,7.37,7.37,0,0,1-3.13-.56v-2.43a6,6,0,0,0,3,.88,3.32,3.32,0,0,0,2.38-.81,3,3,0,0,0,.86-2.25v-.81h0a3.35,3.35,0,0,1-3.06,1.66,3.67,3.67,0,0,1-2.94-1.31,5.29,5.29,0,0,1-1.1-3.51,5.92,5.92,0,0,1,1.22-3.91,3.93,3.93,0,0,1,3.19-1.47,3,3,0,0,1,2.69,1.4h0V162H222Zm-2.81-4.41a2.36,2.36,0,0,0-.58-1.63,1.86,1.86,0,0,0-1.47-.67,1.91,1.91,0,0,0-1.64.82,3.7,3.7,0,0,0-.61,2.28,3.2,3.2,0,0,0,.58,2,1.89,1.89,0,0,0,1.54.73,1.94,1.94,0,0,0,1.58-.75,3,3,0,0,0,.6-1.94Z"/><path class="cls-2" d="M233.71,171.67h-2.83v-5.54c0-1.49-.55-2.24-1.64-2.24a1.71,1.71,0,0,0-1.35.63,2.4,2.4,0,0,0-.53,1.61v5.54h-2.84V157.28h2.84v6.13h0a3.43,3.43,0,0,1,3-1.7q3.32,0,3.31,4Z"/><path class="cls-2" d="M241.86,171.56a4.19,4.19,0,0,1-1.94.35c-2.06,0-3.09-1.09-3.09-3.25v-4.59h-1.6V162h1.6v-2.14l2.82-.8V162h2.21v2.12h-2.21v4.09q0,1.56,1.23,1.56a2,2,0,0,0,1-.28Z"/><path class="cls-2" d="M251.88,169.31h5.78v2.36H248.6v-1a4.55,4.55,0,0,1,.4-1.94,6.34,6.34,0,0,1,1.07-1.64,13.3,13.3,0,0,1,2.13-1.78,8.25,8.25,0,0,0,1.84-1.75,2.7,2.7,0,0,0,.53-1.61c0-1.22-.67-1.83-2-1.83a5,5,0,0,0-3.36,1.4V159a7.23,7.23,0,0,1,4-1.15,4.72,4.72,0,0,1,3.22,1,3.59,3.59,0,0,1,1.19,2.87,4.71,4.71,0,0,1-.34,1.84,5.28,5.28,0,0,1-1,1.54,12.88,12.88,0,0,1-2.08,1.74,11.89,11.89,0,0,0-1.85,1.51A1.53,1.53,0,0,0,251.88,169.31Z"/><path class="cls-2" d="M259.45,165.09a9.36,9.36,0,0,1,1.3-5.4,4.31,4.31,0,0,1,3.76-1.86q4.69,0,4.7,6.94a9.28,9.28,0,0,1-1.28,5.28,4.19,4.19,0,0,1-3.68,1.86C261.05,171.91,259.45,169.63,259.45,165.09Zm2.87-.07c0,3.14.68,4.71,2,4.71s2-1.62,2-4.85-.64-4.87-1.92-4.87S262.32,161.68,262.32,165Z"/><path class="cls-2" d="M274.08,169.31h5.78v2.36h-9.05v-1a4.7,4.7,0,0,1,.39-1.94,6.34,6.34,0,0,1,1.07-1.64,13.3,13.3,0,0,1,2.13-1.78,8.58,8.58,0,0,0,1.85-1.75,2.76,2.76,0,0,0,.52-1.61c0-1.22-.66-1.83-2-1.83a5,5,0,0,0-3.36,1.4V159a7.23,7.23,0,0,1,4-1.15,4.77,4.77,0,0,1,3.23,1,3.61,3.61,0,0,1,1.18,2.87,4.71,4.71,0,0,1-.34,1.84,5.46,5.46,0,0,1-1,1.54,13.52,13.52,0,0,1-2.09,1.74,12.42,12.42,0,0,0-1.85,1.51A1.53,1.53,0,0,0,274.08,169.31Z"/><path class="cls-2" d="M281.65,165.09a9.36,9.36,0,0,1,1.3-5.4,4.31,4.31,0,0,1,3.76-1.86q4.69,0,4.7,6.94a9.28,9.28,0,0,1-1.28,5.28,4.18,4.18,0,0,1-3.68,1.86C283.25,171.91,281.65,169.63,281.65,165.09Zm2.88-.07q0,4.71,2,4.71t2-4.85c0-3.25-.65-4.87-1.93-4.87S284.53,161.68,284.53,165Z"/><path class="cls-2" d="M296.06,169.31l-1.42,4.78h-2.2l1-4.78Z"/><path class="cls-2" d="M165.65,193.27h-3l-5.76-8.81a8.93,8.93,0,0,1-.65-1.1h-.05a19.36,19.36,0,0,1,.08,2.17v7.74h-2.75V179.66h3.16l5.56,8.56c.37.57.59.93.68,1.08h0a12.68,12.68,0,0,1-.09-1.88v-7.76h2.75Z"/><path class="cls-2" d="M168.77,184.14a6.07,6.07,0,0,1,1.77-.6,9.64,9.64,0,0,1,1.88-.23c2.72,0,4.08,1.37,4.08,4.09v5.87h-2.7v-1.41h0a3.21,3.21,0,0,1-2.91,1.65,3.05,3.05,0,0,1-2.21-.79,2.78,2.78,0,0,1-.83-2.14c0-1.86,1.11-3,3.33-3.25l2.67-.36c0-1.13-.59-1.7-1.77-1.7a5.67,5.67,0,0,0-3.28,1.06Zm3.21,4.73c-1,.13-1.54.6-1.54,1.39a1.14,1.14,0,0,0,.38.88,1.45,1.45,0,0,0,1,.33,1.88,1.88,0,0,0,1.44-.62,2.19,2.19,0,0,0,.56-1.52v-.7Z"/><path class="cls-2" d="M184.66,193.16a4.27,4.27,0,0,1-1.95.35c-2.06,0-3.09-1.09-3.09-3.25v-4.59H178v-2.12h1.6v-2.13l2.82-.81v2.94h2.22v2.12h-2.22v4.09q0,1.56,1.23,1.56a2,2,0,0,0,1-.28Z"/><path class="cls-2" d="M186.13,180.41a1.39,1.39,0,0,1,.46-1.06,1.73,1.73,0,0,1,1.19-.4,1.67,1.67,0,0,1,1.19.41,1.35,1.35,0,0,1,.46,1,1.39,1.39,0,0,1-.47,1.07,1.65,1.65,0,0,1-1.18.43,1.69,1.69,0,0,1-1.18-.43A1.42,1.42,0,0,1,186.13,180.41Zm.21,12.86v-9.72h2.83v9.72Z"/><path class="cls-2" d="M191.13,188.46a5,5,0,0,1,1.44-3.78,5.39,5.39,0,0,1,3.86-1.37,5.1,5.1,0,0,1,3.73,1.35,4.85,4.85,0,0,1,1.38,3.63,5.42,5.42,0,0,1-9,3.86A4.91,4.91,0,0,1,191.13,188.46Zm2.88,0q0,2.91,2.37,2.91c1.52,0,2.28-1,2.28-3s-.77-2.85-2.3-2.85a2.1,2.1,0,0,0-1.73.77A3.31,3.31,0,0,0,194,188.42Z"/><path class="cls-2" d="M212.78,193.27H210v-5.42c0-1.57-.57-2.36-1.7-2.36a1.69,1.69,0,0,0-1.34.63,2.39,2.39,0,0,0-.54,1.61v5.54h-2.84v-9.72h2.84v1.55h0a3.43,3.43,0,0,1,3.13-1.79q3.22,0,3.23,4Z"/><path class="cls-2" d="M215.44,184.14a6.07,6.07,0,0,1,1.77-.6,9.64,9.64,0,0,1,1.88-.23c2.72,0,4.08,1.37,4.08,4.09v5.87h-2.7v-1.41h0a3.21,3.21,0,0,1-2.91,1.65,3.05,3.05,0,0,1-2.21-.79,2.78,2.78,0,0,1-.83-2.14c0-1.86,1.11-3,3.33-3.25l2.67-.36c0-1.13-.59-1.7-1.77-1.7a5.67,5.67,0,0,0-3.28,1.06Zm3.21,4.73c-1,.13-1.54.6-1.54,1.39a1.14,1.14,0,0,0,.38.88,1.45,1.45,0,0,0,1,.33,1.88,1.88,0,0,0,1.44-.62,2.19,2.19,0,0,0,.56-1.52v-.7Z"/><path class="cls-2" d="M225.56,193.27V178.88h2.83v14.39Z"/><path class="cls-2" d="M246.28,192.78a8.76,8.76,0,0,1-3.87.73,6.54,6.54,0,0,1-4.88-1.84,6.7,6.7,0,0,1-1.81-4.91,7.2,7.2,0,0,1,2-5.28,7,7,0,0,1,5.2-2,9.22,9.22,0,0,1,3.34.52v2.8a6,6,0,0,0-3.12-.81,4.2,4.2,0,0,0-3.2,1.28,4.7,4.7,0,0,0-1.19,3.33,4.57,4.57,0,0,0,1.13,3.22A4,4,0,0,0,243,191a6.45,6.45,0,0,0,3.31-.88Z"/><path class="cls-2" d="M257.6,193.27h-2.83v-5.54c0-1.49-.55-2.24-1.64-2.24a1.71,1.71,0,0,0-1.35.63,2.4,2.4,0,0,0-.53,1.61v5.54h-2.84V178.88h2.84V185h0a3.43,3.43,0,0,1,3-1.7c2.2,0,3.31,1.33,3.31,4Z"/><path class="cls-2" d="M268.66,189.21h-6.4c.1,1.51,1,2.26,2.73,2.26a5.12,5.12,0,0,0,2.84-.79v2.08a7.07,7.07,0,0,1-3.48.75,4.85,4.85,0,0,1-3.61-1.31,5,5,0,0,1-1.29-3.65,5.3,5.3,0,0,1,1.37-3.78,4.55,4.55,0,0,1,3.45-1.46,4.2,4.2,0,0,1,3.23,1.26,4.87,4.87,0,0,1,1.16,3.44ZM266,187.44c0-1.46-.59-2.18-1.77-2.18a1.73,1.73,0,0,0-1.29.59,2.85,2.85,0,0,0-.71,1.59Z"/><path class="cls-2" d="M279.74,193.27h-2.82v-5.42c0-1.57-.56-2.36-1.69-2.36a1.71,1.71,0,0,0-1.35.63,2.39,2.39,0,0,0-.53,1.61v5.54h-2.84v-9.72h2.84v1.55h0a3.43,3.43,0,0,1,3.13-1.79c2.16,0,3.23,1.34,3.23,4Z"/><path class="cls-2" d="M291.57,192.2a5.48,5.48,0,0,1-1.55,4.17,6.18,6.18,0,0,1-4.44,1.46,7.19,7.19,0,0,1-3.13-.56v-2.43a6,6,0,0,0,3.05.88,3.33,3.33,0,0,0,2.38-.81,3,3,0,0,0,.86-2.25v-.81h-.05a3.35,3.35,0,0,1-3.06,1.66,3.67,3.67,0,0,1-2.94-1.31,5.29,5.29,0,0,1-1.1-3.51,5.92,5.92,0,0,1,1.22-3.91,3.93,3.93,0,0,1,3.19-1.47,3,3,0,0,1,2.69,1.4h.05v-1.16h2.83Zm-2.81-4.41a2.36,2.36,0,0,0-.58-1.63,1.86,1.86,0,0,0-1.47-.67,1.91,1.91,0,0,0-1.64.82,3.7,3.7,0,0,0-.61,2.28,3.2,3.2,0,0,0,.58,2,1.89,1.89,0,0,0,1.54.73,1.94,1.94,0,0,0,1.58-.75,3,3,0,0,0,.6-1.94Z"/><path class="cls-2" d="M310.88,193.27H307.2l-4.12-6a3.51,3.51,0,0,1-.36-.71h-.05v6.66h-2.9V179.66h2.9v6.43h.05a6.91,6.91,0,0,1,.39-.73l3.9-5.7h3.46l-4.87,6.49Z"/><path class="cls-2" d="M321.05,193.27h-2.82v-1.48h0a3.38,3.38,0,0,1-3,1.72q-3.39,0-3.39-4.1v-5.86h2.83v5.6c0,1.45.57,2.18,1.71,2.18a1.69,1.69,0,0,0,1.36-.6,2.42,2.42,0,0,0,.51-1.62v-5.56h2.82Z"/><path class="cls-2" d="M332.87,193.27H330v-5.42c0-1.57-.56-2.36-1.69-2.36a1.71,1.71,0,0,0-1.35.63,2.44,2.44,0,0,0-.53,1.61v5.54h-2.84v-9.72h2.84v1.55h0a3.43,3.43,0,0,1,3.13-1.79q3.24,0,3.24,4Z"/><path class="cls-2" d="M344.69,192.2a5.48,5.48,0,0,1-1.55,4.17,6.18,6.18,0,0,1-4.44,1.46,7.22,7.22,0,0,1-3.13-.56v-2.43a6,6,0,0,0,3.05.88,3.32,3.32,0,0,0,2.38-.81,3,3,0,0,0,.86-2.25v-.81h-.05a3.35,3.35,0,0,1-3.06,1.66,3.67,3.67,0,0,1-2.94-1.31,5.29,5.29,0,0,1-1.1-3.51,5.92,5.92,0,0,1,1.22-3.91,3.93,3.93,0,0,1,3.19-1.47,3,3,0,0,1,2.69,1.4h.05v-1.16h2.83Zm-2.81-4.41a2.36,2.36,0,0,0-.58-1.63,1.86,1.86,0,0,0-1.47-.67,1.91,1.91,0,0,0-1.64.82,3.77,3.77,0,0,0-.61,2.28,3.14,3.14,0,0,0,.59,2,1.86,1.86,0,0,0,1.53.73,1.94,1.94,0,0,0,1.58-.75,3,3,0,0,0,.6-1.94Z"/><path class="cls-2" d="M363.88,187.42c0,4.06-1.88,6.09-5.66,6.09s-5.47-2-5.47-5.93v-7.92h2.91v7.93c0,2.27.9,3.41,2.68,3.41s2.64-1.1,2.64-3.28v-8.06h2.9Z"/><path class="cls-2" d="M375.83,193.27H373v-5.42c0-1.57-.56-2.36-1.69-2.36a1.71,1.71,0,0,0-1.35.63,2.44,2.44,0,0,0-.53,1.61v5.54h-2.84v-9.72h2.84v1.55h0a3.43,3.43,0,0,1,3.13-1.79q3.24,0,3.24,4Z"/><path class="cls-2" d="M378,180.41a1.36,1.36,0,0,1,.46-1.06,2,2,0,0,1,2.38,0,1.46,1.46,0,0,1,0,2.12,1.67,1.67,0,0,1-1.19.43,1.71,1.71,0,0,1-1.18-.43A1.41,1.41,0,0,1,378,180.41Zm.21,12.86v-9.72H381v9.72Z"/><path class="cls-2" d="M392.66,183.55,389,193.27H385.8l-3.47-9.72h3l1.79,6.12a7.68,7.68,0,0,1,.32,1.68h0a9.65,9.65,0,0,1,.35-1.63l1.82-6.17Z"/><path class="cls-2" d="M402.4,189.21H396c.1,1.51,1,2.26,2.72,2.26a5.12,5.12,0,0,0,2.84-.79v2.08a7.07,7.07,0,0,1-3.48.75,4.85,4.85,0,0,1-3.61-1.31,5,5,0,0,1-1.29-3.65,5.3,5.3,0,0,1,1.37-3.78,4.56,4.56,0,0,1,3.45-1.46,4.18,4.18,0,0,1,3.23,1.26A4.83,4.83,0,0,1,402.4,188Zm-2.64-1.77c0-1.46-.59-2.18-1.77-2.18a1.76,1.76,0,0,0-1.29.59,2.85,2.85,0,0,0-.7,1.59Z"/><path class="cls-2" d="M410.45,186.13a2.5,2.5,0,0,0-1.26-.3,1.79,1.79,0,0,0-1.53.74,3.22,3.22,0,0,0-.57,2v4.67h-2.84v-9.72h2.84v1.83h0a2.6,2.6,0,0,1,2.56-2,1.93,1.93,0,0,1,.77.12Z"/><path class="cls-2" d="M411.73,190.66a5.48,5.48,0,0,0,2.86.89c1.17,0,1.75-.31,1.75-.94,0-.45-.48-.82-1.45-1.12a6.06,6.06,0,0,1-2.48-1.25,2.56,2.56,0,0,1-.68-1.87,2.6,2.6,0,0,1,1.16-2.24,5.13,5.13,0,0,1,3-.82,8.59,8.59,0,0,1,2.58.4v2.23a4.9,4.9,0,0,0-2.5-.67,2.07,2.07,0,0,0-1.09.25.7.7,0,0,0-.41.63q0,.67,1.23,1.08a13.62,13.62,0,0,1,2,.8,2.58,2.58,0,0,1,1,.95,2.85,2.85,0,0,1-.86,3.7,5.57,5.57,0,0,1-3.21.83,8.42,8.42,0,0,1-2.93-.5Z"/><path class="cls-2" d="M420.62,180.41a1.36,1.36,0,0,1,.46-1.06,1.71,1.71,0,0,1,1.18-.4,1.67,1.67,0,0,1,1.19.41,1.35,1.35,0,0,1,.46,1,1.38,1.38,0,0,1-.46,1.07,1.85,1.85,0,0,1-2.37,0A1.41,1.41,0,0,1,420.62,180.41Zm.21,12.86v-9.72h2.83v9.72Z"/><path class="cls-2" d="M431.92,193.16a4.25,4.25,0,0,1-1.94.35c-2.07,0-3.1-1.09-3.1-3.25v-4.59h-1.6v-2.12h1.6v-2.13l2.82-.81v2.94h2.22v2.12H429.7v4.09q0,1.56,1.23,1.56a2,2,0,0,0,1-.28Z"/><path class="cls-2" d="M442.74,183.55l-4,10.59c-.93,2.46-2.33,3.69-4.18,3.69a4.85,4.85,0,0,1-1.71-.23v-2.27a2.56,2.56,0,0,0,1.26.32,1.65,1.65,0,0,0,1.63-1.12l.54-1.28-3.93-9.7h3.15l1.89,6.09a6.16,6.16,0,0,1,.26,1.24h.05a8.19,8.19,0,0,1,.29-1.22l1.94-6.11Z"/><rect class="cls-2" x="1429.7" y="86.45" width="4" height="118.11"/><path class="cls-2" d="M1661.9,94.67a3.1,3.1,0,0,0-1.1-.23c-1,0-1.46.54-1.46,1.62v1.09h2.21v2.12h-2.21v7.6h-2.84v-7.6h-1.63V97.15h1.63V95.9a3.42,3.42,0,0,1,1.08-2.65,4,4,0,0,1,2.84-1,5.11,5.11,0,0,1,1.48.18Z"/><path class="cls-2" d="M1663.26,97.74a6.1,6.1,0,0,1,1.76-.6,9.73,9.73,0,0,1,1.89-.23c2.72,0,4.07,1.37,4.07,4.09v5.87h-2.69v-1.41h0a3.19,3.19,0,0,1-2.91,1.65,3.05,3.05,0,0,1-2.21-.79,2.82,2.82,0,0,1-.83-2.14c0-1.86,1.11-3,3.33-3.25l2.67-.36a1.53,1.53,0,0,0-1.76-1.7,5.64,5.64,0,0,0-3.28,1.06Zm3.21,4.73c-1,.13-1.54.6-1.54,1.39a1.13,1.13,0,0,0,.37.88,1.48,1.48,0,0,0,1,.33,1.84,1.84,0,0,0,1.43-.61,2.17,2.17,0,0,0,.56-1.53v-.7Z"/><path class="cls-2" d="M1680.71,106.51a5.79,5.79,0,0,1-2.91.6,4.89,4.89,0,0,1-3.59-1.35,4.75,4.75,0,0,1-1.37-3.51,5.17,5.17,0,0,1,1.48-3.91,5.41,5.41,0,0,1,3.93-1.43,5.15,5.15,0,0,1,2.46.46V99.8a3.56,3.56,0,0,0-2.12-.71,2.84,2.84,0,0,0-2.09.79,2.92,2.92,0,0,0-.79,2.17,2.88,2.88,0,0,0,.75,2.11,2.71,2.71,0,0,0,2,.77,4,4,0,0,0,2.22-.72Z"/><path class="cls-2" d="M1691.35,102.81H1685c.1,1.51,1,2.26,2.72,2.26a5.1,5.1,0,0,0,2.84-.79v2.08a7,7,0,0,1-3.48.75,4.82,4.82,0,0,1-3.6-1.31,5,5,0,0,1-1.29-3.65,5.26,5.26,0,0,1,1.37-3.78,4.53,4.53,0,0,1,3.44-1.46,4.17,4.17,0,0,1,3.23,1.26,4.83,4.83,0,0,1,1.17,3.44ZM1688.7,101c0-1.46-.59-2.18-1.76-2.18a1.73,1.73,0,0,0-1.3.59,2.92,2.92,0,0,0-.7,1.59Z"/><path class="cls-2" d="M1696,105.7v1.17h-2.84V92.48H1696v6.16h0a3.57,3.57,0,0,1,3.18-1.73,3.51,3.51,0,0,1,2.88,1.29,5.47,5.47,0,0,1,1,3.54,6,6,0,0,1-1.2,3.89,3.85,3.85,0,0,1-3.17,1.48,3,3,0,0,1-2.73-1.41Zm0-3a2.35,2.35,0,0,0,.57,1.61,1.85,1.85,0,0,0,1.45.65,1.94,1.94,0,0,0,1.66-.83,4,4,0,0,0,.59-2.33,3.18,3.18,0,0,0-.54-2,1.82,1.82,0,0,0-1.54-.71,2,2,0,0,0-1.57.71,2.72,2.72,0,0,0-.62,1.83Z"/><path class="cls-2" d="M1704.6,102.05a4.94,4.94,0,0,1,1.44-3.76,5.35,5.35,0,0,1,3.86-1.38,5.1,5.1,0,0,1,3.73,1.35,4.85,4.85,0,0,1,1.38,3.63,5.42,5.42,0,0,1-9,3.86A4.92,4.92,0,0,1,1704.6,102.05Zm2.88,0q0,2.91,2.37,2.91c1.52,0,2.28-1,2.28-3s-.77-2.85-2.3-2.85a2.1,2.1,0,0,0-1.73.77A3.31,3.31,0,0,0,1707.48,102Z"/><path class="cls-2" d="M1716.43,102.05a4.94,4.94,0,0,1,1.44-3.76,5.35,5.35,0,0,1,3.86-1.38,5.1,5.1,0,0,1,3.73,1.35,4.85,4.85,0,0,1,1.38,3.63,5.42,5.42,0,0,1-9,3.86A4.92,4.92,0,0,1,1716.43,102.05Zm2.88,0q0,2.91,2.37,2.91c1.52,0,2.28-1,2.28-3s-.77-2.85-2.3-2.85a2.1,2.1,0,0,0-1.73.77A3.31,3.31,0,0,0,1719.31,102Z"/><path class="cls-2" d="M1738.4,106.87H1735l-3.23-4.81h0v4.81h-2.84V92.48h2.84v9.16h0l3-4.49h3.38l-3.6,4.59Z"/><path class="cls-2" d="M1672.85,204.45a4.22,4.22,0,0,1-1.94.35q-3.09,0-3.09-3.25V197h-1.6v-2.12h1.6v-2.13l2.82-.81v2.94h2.21V197h-2.21v4.1c0,1,.41,1.55,1.23,1.55a2,2,0,0,0,1-.28Z"/><path class="cls-2" d="M1688.45,194.84l-2.81,9.72h-3l-1.49-5.83a5,5,0,0,1-.16-1.21H1681a7.14,7.14,0,0,1-.19,1.17l-1.61,5.87h-2.94l-2.77-9.72h2.9l1.42,6.45a8.59,8.59,0,0,1,.14,1.07h.06a5.1,5.1,0,0,1,.17-1.1l1.74-6.42h2.69l1.55,6.46a8.65,8.65,0,0,1,.13,1.07h.07a8.51,8.51,0,0,1,.15-1.07l1.36-6.46Z"/><path class="cls-2" d="M1689.66,191.71a1.33,1.33,0,0,1,.46-1.06,1.68,1.68,0,0,1,1.18-.41,1.76,1.76,0,0,1,1.2.41,1.46,1.46,0,0,1,0,2.12,1.85,1.85,0,0,1-2.37,0A1.39,1.39,0,0,1,1689.66,191.71Zm.21,12.85v-9.72h2.83v9.72Z"/><path class="cls-2" d="M1701,204.45a4.25,4.25,0,0,1-1.94.35c-2.06,0-3.1-1.08-3.1-3.25V197h-1.6v-2.12h1.6v-2.13l2.83-.81v2.94H1701V197h-2.21v4.1c0,1,.41,1.55,1.23,1.55a2,2,0,0,0,1-.28Z"/><path class="cls-2" d="M1708.41,204.45a4.19,4.19,0,0,1-1.94.35q-3.09,0-3.09-3.25V197h-1.6v-2.12h1.6v-2.13l2.82-.81v2.94h2.21V197h-2.21v4.1c0,1,.41,1.55,1.23,1.55a2,2,0,0,0,1-.28Z"/><path class="cls-2" d="M1718.7,200.5h-6.4c.1,1.51,1,2.26,2.72,2.26a5.12,5.12,0,0,0,2.84-.79v2.08a7,7,0,0,1-3.48.75,4.85,4.85,0,0,1-3.61-1.31,5,5,0,0,1-1.28-3.65,5.26,5.26,0,0,1,1.37-3.78,4.52,4.52,0,0,1,3.44-1.45,4.18,4.18,0,0,1,3.23,1.25,4.83,4.83,0,0,1,1.17,3.44Zm-2.65-1.77c0-1.46-.59-2.18-1.77-2.18a1.74,1.74,0,0,0-1.29.6,2.78,2.78,0,0,0-.7,1.58Z"/><path class="cls-2" d="M1726.74,197.42a2.5,2.5,0,0,0-1.26-.3,1.84,1.84,0,0,0-1.53.74,3.24,3.24,0,0,0-.57,2v4.67h-2.84v-9.72h2.84v1.83h0a2.57,2.57,0,0,1,2.55-2,2,2,0,0,1,.77.11Z"/><path class="cls-2" d="M1651.7,142a1.38,1.38,0,0,1,.46-1.06,1.73,1.73,0,0,1,1.18-.41,1.69,1.69,0,0,1,1.2.42A1.39,1.39,0,0,1,1655,142a1.4,1.4,0,0,1-.47,1.07,1.7,1.7,0,0,1-1.19.42,1.64,1.64,0,0,1-1.17-.43A1.38,1.38,0,0,1,1651.7,142Zm.21,12.86V145.1h2.83v9.72Z"/><path class="cls-2" d="M1666.52,154.82h-2.82v-5.43c0-1.57-.57-2.35-1.7-2.35a1.67,1.67,0,0,0-1.34.63,2.37,2.37,0,0,0-.54,1.6v5.55h-2.84V145.1h2.84v1.54h0a3.44,3.44,0,0,1,3.13-1.78q3.23,0,3.23,4Z"/><path class="cls-2" d="M1668.69,152.21a5.51,5.51,0,0,0,2.86.89c1.17,0,1.75-.32,1.75-.95,0-.44-.48-.81-1.45-1.11a6.18,6.18,0,0,1-2.48-1.25,2.57,2.57,0,0,1-.68-1.87,2.6,2.6,0,0,1,1.16-2.25,5.2,5.2,0,0,1,3-.81,8.28,8.28,0,0,1,2.58.4v2.23a4.8,4.8,0,0,0-2.5-.67,2.17,2.17,0,0,0-1.09.24.74.74,0,0,0-.41.64q0,.66,1.23,1.08a12.57,12.57,0,0,1,2,.8,2.58,2.58,0,0,1,1,.95,2.62,2.62,0,0,1,.35,1.36,2.65,2.65,0,0,1-1.21,2.33,5.5,5.5,0,0,1-3.21.83,8.2,8.2,0,0,1-2.93-.5Z"/><path class="cls-2" d="M1683.55,154.7a4.07,4.07,0,0,1-1.94.35q-3.09,0-3.09-3.25v-4.59h-1.6V145.1h1.6V143l2.82-.81v2.95h2.21v2.11h-2.21v4.1q0,1.56,1.23,1.56a2.12,2.12,0,0,0,1-.28Z"/><path class="cls-2" d="M1685.52,145.69a6.1,6.1,0,0,1,1.76-.6,9.82,9.82,0,0,1,1.89-.23q4.08,0,4.08,4.09v5.87h-2.7V153.4h0a3.19,3.19,0,0,1-2.91,1.65,3.11,3.11,0,0,1-2.21-.78,2.83,2.83,0,0,1-.83-2.14c0-1.86,1.11-2.95,3.33-3.25l2.68-.36c0-1.14-.59-1.7-1.77-1.7a5.73,5.73,0,0,0-3.28,1.05Zm3.21,4.72c-1,.14-1.54.6-1.54,1.39a1.14,1.14,0,0,0,.37.88,1.48,1.48,0,0,0,1,.34,1.85,1.85,0,0,0,1.43-.62,2.16,2.16,0,0,0,.57-1.53v-.69Z"/><path class="cls-2" d="M1705.08,153.75a5.48,5.48,0,0,1-1.55,4.17,6.2,6.2,0,0,1-4.44,1.46,7.37,7.37,0,0,1-3.13-.56v-2.43a6,6,0,0,0,3,.88,3.32,3.32,0,0,0,2.38-.81,3,3,0,0,0,.86-2.26v-.81h0a3.35,3.35,0,0,1-3.06,1.66,3.66,3.66,0,0,1-2.94-1.3,5.32,5.32,0,0,1-1.1-3.51,6,6,0,0,1,1.22-3.92,4,4,0,0,1,3.19-1.46,3,3,0,0,1,2.69,1.4h0V145.1h2.83Zm-2.81-4.42a2.39,2.39,0,0,0-.58-1.63,1.88,1.88,0,0,0-1.47-.66,1.94,1.94,0,0,0-1.64.81,3.77,3.77,0,0,0-.6,2.28,3.14,3.14,0,0,0,.58,2,1.85,1.85,0,0,0,1.53.73,1.93,1.93,0,0,0,1.58-.74,3,3,0,0,0,.6-1.94Z"/><path class="cls-2" d="M1713.84,147.67a2.47,2.47,0,0,0-1.26-.3,1.84,1.84,0,0,0-1.53.74,3.24,3.24,0,0,0-.57,2v4.68h-2.84V145.1h2.84v1.83h0a2.59,2.59,0,0,1,2.56-2,2.14,2.14,0,0,1,.76.11Z"/><path class="cls-2" d="M1715.51,145.69a6.1,6.1,0,0,1,1.76-.6,9.82,9.82,0,0,1,1.89-.23q4.08,0,4.08,4.09v5.87h-2.7V153.4h0a3.19,3.19,0,0,1-2.91,1.65,3.11,3.11,0,0,1-2.21-.78,2.83,2.83,0,0,1-.83-2.14c0-1.86,1.11-2.95,3.33-3.25l2.67-.36c0-1.14-.58-1.7-1.76-1.7a5.73,5.73,0,0,0-3.28,1.05Zm3.21,4.72c-1,.14-1.54.6-1.54,1.39a1.11,1.11,0,0,0,.37.88,1.48,1.48,0,0,0,1,.34,1.85,1.85,0,0,0,1.43-.62,2.16,2.16,0,0,0,.56-1.53v-.69Z"/><path class="cls-2" d="M1740.92,154.82h-2.83v-5.55c0-1.49-.54-2.23-1.63-2.23a1.5,1.5,0,0,0-1.25.68,2.65,2.65,0,0,0-.5,1.65v5.45h-2.83V149.2c0-1.44-.54-2.16-1.61-2.16a1.49,1.49,0,0,0-1.28.65,2.79,2.79,0,0,0-.48,1.7v5.43h-2.84V145.1h2.84v1.52h0a3.54,3.54,0,0,1,1.36-1.3,3.6,3.6,0,0,1,1.77-.46,2.79,2.79,0,0,1,2.81,1.84,3.6,3.6,0,0,1,3.27-1.84q3.16,0,3.17,3.92Z"/></g></g></svg>