<svg xmlns="http://www.w3.org/2000/svg" xmlns:xlink="http://www.w3.org/1999/xlink" viewBox="0 0 1655.87 1182.76"><defs><style>.cls-1{fill:url(#linear-gradient);}.cls-2{fill:none;}.cls-3{mask:url(#mask);}.cls-4{clip-path:url(#clip-path);}.cls-5{fill:#2e477b;}.cls-6{fill:#1a3259;}.cls-7{fill:#325088;}.cls-8{fill:#233f6c;}.cls-9{fill:#254170;}.cls-10{fill:#223d69;}.cls-11{fill:#2a4879;}.cls-12{fill:#324f80;}.cls-13{fill:#38588e;}.cls-14{fill:#39588f;}.cls-15{fill:#3f6099;}.cls-16{fill:#355385;}.cls-17{fill:#2c4772;}.cls-18{fill:#2c4875;}.cls-19{fill:#335282;}.cls-20{fill:#1c355d;}.cls-21{fill:#1b345a;}.cls-22{fill:#fff;}.cls-23{fill:#334e81;}.cls-24{fill:#223a61;}.cls-25{fill:#38578e;}.cls-26{fill:#2a4471;}.cls-27{fill:#314f80;}.cls-28{fill:#385586;}.cls-29{fill:#3e5e94;}.cls-30{fill:#fbfdff;}.cls-31{fill:#3f5c8d;}.cls-32{fill:#314970;}.cls-33{fill:#446399;}.cls-34{fill:#37517e;}.cls-35{fill:#446292;}.cls-36{fill:#f3f8fd;}.cls-37{fill:#4f6c9d;}.cls-38{fill:#425d84;}.cls-39{fill:#486490;}.cls-40{fill:#5371a1;}.cls-41{fill:#e9f2fa;}.cls-42{fill:#5e7dad;}.cls-43{fill:#557098;}.cls-44{fill:#5a76a2;}.cls-45{fill:#6281b1;}.cls-46{fill:#a2c5e9;}.cls-47{fill:#5c8cc1;}.cls-48{fill:#6091c8;}.cls-49{fill:#7faedd;}.cls-50{fill:#659ed5;}.cls-51{fill:#c2dcf3;}.cls-52{fill:#3b88c8;}.cls-53{fill:#5372a7;}.cls-54{fill:#6382b4;}.cls-55{fill:#2b4673;}.cls-56{fill:#405e95;}.cls-57{fill:#385482;}.cls-58{fill:#4b699f;}.cls-59{fill:#496794;}.cls-60{fill:#5978ad;}.cls-61{fill:#5978a4;}.cls-62{fill:#dfebf8;}.cls-63{fill:#395585;}.cls-64{fill:#466597;}.cls-65{fill:#324b72;}.cls-66{fill:#7eb8e4;}.cls-67{fill:#314971;}.cls-68{fill:#365078;}.cls-69{fill:#526e95;}.cls-70{fill:#3f5c87;}.cls-71{fill:#3d5b8c;}.cls-72{fill:#496b9e;}.cls-73{fill:#3d5985;}.cls-74{fill:#436292;}.cls-75{fill:#4e6fa3;}.cls-76{fill:#5774a0;}.cls-77{fill:#47719e;}.cls-78{fill:#5381b7;}</style><linearGradient id="linear-gradient" x1="1000.52" y1="945.39" x2="287.66" y2="-333.52" gradientUnits="userSpaceOnUse"><stop offset="0.15"/><stop offset="0.23" stop-color="#060606"/><stop offset="0.33" stop-color="#181818"/><stop offset="0.46" stop-color="#343434"/><stop offset="0.59" stop-color="#5c5c5c"/><stop offset="0.74" stop-color="#909090"/><stop offset="0.89" stop-color="#cecece"/><stop offset="1" stop-color="#fff"/></linearGradient><mask id="mask" x="-1.02" y="0" width="1660.12" height="1182.76" maskUnits="userSpaceOnUse"><rect class="cls-1" x="-1.02" y="97.73" width="1660.12" height="1080"/></mask><clipPath id="clip-path"><rect class="cls-2" x="0.14" y="0.05" width="1655.73" height="1182.72"/></clipPath></defs><title>img_background</title><g id="Layer_2" data-name="Layer 2"><g id="Layer_2-2" data-name="Layer 2"><g class="cls-3"><g class="cls-4"><polyline class="cls-5" points="1655.87 1182.76 0 1182.76 0 0 1655.87 0 1655.87 1182.76"/><path class="cls-6" d="M1225.33,1182.76H953.52c-23-12.84-45.63-26.12-67.46-39.78,26.88-17.25,132.07-91.9,129.9-98-.1-.27-.41-.41-.93-.41-12.24,0-137.09,74.81-143.66,77.14a13.11,13.11,0,0,0-7.62,7c-49.12-32.16-93.41-66.25-128.29-101.52C705.63,997,659.28,979.76,602.3,972.12,573.73,917,545.6,880.87,515,858.38c10.46-7.35,21.4-15.11,32.52-23.08a402.35,402.35,0,0,0,238.57-5c31.78,22.74,75.13,45.29,133.9,69.56,169.2,69.89,272.63,175.05,305.34,282.86M930.83,984.49a22.85,22.85,0,1,0,22.85,22.85,22.85,22.85,0,0,0-22.85-22.85M0,1182.76H0V0H446.36c38.05,17.27,75.83,38.33,110.47,64A398.77,398.77,0,0,0,403.19,143.2C354.11,91.48,299.49,43,246.36,0H0V689.74c58.17,4.39,119.86,7.38,179.87,7.38,55,0,108.69-2.51,157-8.78A401.4,401.4,0,0,0,501.53,818.88l-29.61,17c-19.11-6.43-39.46-9.15-61.62-9.15-48.31,0-105.16,12.95-176.24,28.7A104.73,104.73,0,0,0,84.39,885.48C57.83,890,29.73,894.15,0,897.78v285m293-469a22.85,22.85,0,1,0,22.85,22.85A22.85,22.85,0,0,0,293,713.72m637.88,304.76A11.15,11.15,0,1,1,942,1007.34a11.14,11.14,0,0,1-11.15,11.14M293,747.71a11.15,11.15,0,1,1,11.15-11.14A11.15,11.15,0,0,1,293,747.71"/><path class="cls-7" d="M1149.35,708.8c-50-24.9-85.55-69.34-110.6-132.11a399.63,399.63,0,0,0,20.17-125.78q0-16-1.26-31.74v0a397.61,397.61,0,0,0-80.25-210.24C949,91.79,867.51,30.72,777.32,0H980.61C1206.94,65.27,1108.24,546.43,1380,546.49a273.07,273.07,0,0,0,43.17-3.64,521.75,521.75,0,0,0,91.74,54.24c25.57,11.78,52.13,23.42,79.23,35.09-30.78,18.52-64.51,36-92,46.24q-33,12.3-63.32,21.76A165.78,165.78,0,0,0,1394,650.4a164.55,164.55,0,0,0-68.14-29.3,165.26,165.26,0,0,0-176.48,87.7m186.79-141.75A22.85,22.85,0,1,0,1359,589.9a22.85,22.85,0,0,0-22.86-22.85M1078.3,167.28a22.85,22.85,0,1,0,22.85,22.85,22.85,22.85,0,0,0-22.85-22.85m257.84,433.77a11.15,11.15,0,1,1,11.16-11.15,11.15,11.15,0,0,1-11.16,11.15M1078.3,201.27a11.15,11.15,0,1,1,11.15-11.14,11.14,11.14,0,0,1-11.15,11.14"/><path class="cls-8" d="M0,1182.76H0v-285c29.73-3.63,57.83-7.82,84.39-12.3a104.21,104.21,0,0,0-15.75,55.25A105.42,105.42,0,0,0,70,957.8c-24,7.13-47.62,15.1-70,23.26v201.7M337.78,984c-1.15-2-2.25-4.06-3.32-6-11.6-21.54-31.38-34.75-56.5-41.68,0-1.3-.13-2.59-.23-3.87h0a103.9,103.9,0,0,0-7.54-31.57,105.15,105.15,0,0,0-34.94-44.56l-1.19-.87c71.08-15.75,127.93-28.7,176.24-28.7,22.16,0,42.51,2.72,61.62,9.15-28.18,16.16-48.58,27.78-52,29a24.53,24.53,0,1,0,16.38,46.24c4.49-1.59,37.71-23.9,78.68-52.7,30.6,22.49,58.73,58.66,87.3,113.74a594.21,594.21,0,0,0-78.78-4.8c-57,0-120.2,6.3-185.74,16.69"/><path class="cls-5" d="M334.46,978C290,895.38,125.46,935.38,0,981.06v201.7H484.75c-62.56-75.07-121.89-152-150.29-204.79"/><path class="cls-9" d="M1380,546.49C1108.24,546.43,1206.94,65.27,980.61,0h176a865.56,865.56,0,0,0,29.3,175.33c-6.93,3.87-11.49,6.29-12.91,6.8a23.19,23.19,0,1,0,15.49,43.71c1.29-.45,5.1-2.73,10.87-6.43,42,125.12,114.9,243.08,223.8,323.44a273.07,273.07,0,0,1-43.17,3.64"/><path class="cls-10" d="M179.87,697.12c-60,0-121.7-3-179.87-7.38V0H246.36c53.13,43,107.75,91.48,156.83,143.2a401.67,401.67,0,0,0-105.78,136C250.43,183.37,90.19,106,0,68.73V444.12H0V623.4c100-3.7,204.84-13.34,283.13-34.79a398.09,398.09,0,0,0,48.7,92.79c1.64,2.33,3.32,4.65,5,6.94-48.28,6.27-101.92,8.78-157,8.78"/><path class="cls-11" d="M0,444.12H0V68.73C90.19,106,250.43,183.37,297.41,279.19a397.5,397.5,0,0,0-27.82,79q-6.49,2.49-13.09,5.05C182.53,324.21,90,286,0,252.53V444.12"/><path class="cls-6" d="M1655.87,1182.76H1293.49C1289.35,987.82,1095,920.85,880.13,784.28A401.93,401.93,0,0,0,1019.7,623.89c23.52,34,55.16,69.61,98,105.88a227.92,227.92,0,0,0,18.59,14.17,164.93,164.93,0,1,0,325.08,39.46c0-4.39-.17-8.76-.53-13.08v0a163.53,163.53,0,0,0-9.13-42.64c52.7-26.83,102.87-60.6,146.39-93.77,19.06,8.2,38.36,16.41,57.76,24.68v524.19m-91.59-275.07c-19.84,0-222.17,121.23-232.82,125a21.32,21.32,0,0,0,7.12,41.41,21.09,21.09,0,0,0,7.12-1.23c11.1-3.93,224-153.42,220.09-164.52-.17-.44-.67-.66-1.51-.66"/><path class="cls-12" d="M0,623.4V444.12c17.3,1.11,34.45,1.9,51.26,2.32A28,28,0,0,0,72,493.32a28.31,28.31,0,0,0,5.6-.57c5.84-1.18,54.59-24.95,112.16-54.6,27.45-5,51.46-12.43,70.64-22.82q-1.56,17.58-1.56,35.58a400,400,0,0,0,24.34,137.7C204.84,610.06,100,619.7,0,623.4"/><path class="cls-13" d="M51.26,446.44c-16.81-.42-34-1.21-51.26-2.32V252.53C90,286,182.53,324.21,256.5,363.22c-85.94,33.26-181.82,72.95-190.09,74.62a27.94,27.94,0,0,0-15.15,8.6m138.45-8.29c23.39-12,48.24-25.06,72.26-37.92q-1,7.5-1.62,15.1c-19.18,10.39-43.19,17.81-70.64,22.82"/></g><path class="cls-14" d="M1598.11,633.89l-4-1.71c11.44-6.87,22.46-13.89,32.6-20.73-9.17,7.39-18.71,14.9-28.63,22.44"/><g class="cls-4"><path class="cls-15" d="M1594.14,632.18c-27.1-11.67-53.66-23.31-79.23-35.09a521.75,521.75,0,0,1-91.74-54.24c48.87-7.85,107.76-28.74,179.47-66.2,12.78-6.67,24.65-14,36-21.43,5.67-.2,11.4-.51,17.23-1v133c-9.18,7.82-18.9,15.91-29.13,24.15-10.14,6.84-21.16,13.86-32.6,20.73"/><path class="cls-16" d="M1423.17,542.85c-108.9-80.36-181.84-198.32-223.8-323.44,17.14-11,51.56-34.73,88.6-61.16,44.58,144.6,138.68,297.18,337.16,297.2,4.46,0,8.95-.08,13.51-.23-11.35,7.39-23.22,14.76-36,21.43-71.71,37.46-130.6,58.35-179.47,66.2M1185.92,175.33A865.56,865.56,0,0,1,1156.62,0h98.24a967.28,967.28,0,0,0,23.08,122.79c-38.14,21.72-73.53,42.25-92,52.54"/></g><path class="cls-17" d="M1655.87,658.57c-19.4-8.27-38.7-16.48-57.76-24.68,9.92-7.54,19.46-15,28.63-22.44,10.94-7.38,20.84-14.54,29.13-21.11v68.23"/><path class="cls-18" d="M1626.74,611.45c10.23-8.24,20-16.33,29.13-24.15v3c-8.29,6.57-18.19,13.73-29.13,21.11"/><path class="cls-17" d="M953.52,1182.76H694.64q-23.55-48.45-44.35-101.88c-16.46-42.55-32.29-78.5-48-108.76,57,7.64,103.33,24.9,133.16,55.06,34.88,35.27,79.17,69.36,128.29,101.52a13.15,13.15,0,0,0,12,18.52,13,13,0,0,0,4.39-.76,49.27,49.27,0,0,0,5.91-3.48c21.83,13.66,44.45,26.94,67.46,39.78"/><g class="cls-4"><path class="cls-19" d="M694.64,1182.76H484.75c-60.21-72.25-117.43-146.27-147-198.75,65.54-10.39,128.75-16.69,185.74-16.69a594.21,594.21,0,0,1,78.78,4.8c15.7,30.26,31.53,66.21,48,108.76q20.69,53.46,44.35,101.88"/><path class="cls-14" d="M484.75,1182.76H0V1062.45c38.19-11.07,78.08-22,118.76-32.35a104.76,104.76,0,0,0,142.45-32.39c25.7-5.09,51.33-9.7,76.57-13.7,29.54,52.48,86.76,126.5,147,198.75h0"/><path class="cls-20" d="M1638.64,455.22c5.86-3.83,11.59-7.66,17.23-11.4v10.45c-5.83.44-11.56.75-17.23,1"/><path class="cls-21" d="M1625.13,455.45c-198.48,0-292.58-152.6-337.16-297.2,66.94-47.77,142.44-104.46,140-111.4-.18-.49-.73-.72-1.64-.72-11.89,0-84,40-148.37,76.66A967.28,967.28,0,0,1,1254.86,0h401V443.82c-5.64,3.74-11.37,7.57-17.23,11.4-4.56.15-9.05.23-13.51.23m-118.79-150.8a18.25,18.25,0,1,0,18.24,18.24,18.25,18.25,0,0,0-18.24-18.24m0,27.14a8.9,8.9,0,1,1,8.9-8.9,8.89,8.89,0,0,1-8.9,8.9"/></g><path class="cls-22" d="M1165.67,508l4.08,16.29a12.06,12.06,0,0,0,8.75,8.76l16.3,4.07-16.3,4.08a12.06,12.06,0,0,0-8.75,8.76l-4.08,16.29L1161.6,550a12.06,12.06,0,0,0-8.76-8.76l-16.29-4.08,16.29-4.07a12.06,12.06,0,0,0,8.76-8.76l4.07-16.29Z"/><path class="cls-22" d="M1402.93,848l4.09,16.3a12,12,0,0,0,8.75,8.75l16.3,4.08-16.3,4.08a12,12,0,0,0-8.75,8.75l-4.09,16.3-4.08-16.3a12,12,0,0,0-8.75-8.75l-16.28-4.08L1390.1,873a12,12,0,0,0,8.75-8.75l4.08-16.3"/><path class="cls-22" d="M1436.05,128.83l4.08,16.3a12,12,0,0,0,8.76,8.75l16.29,4.08L1448.89,162a12,12,0,0,0-8.76,8.75l-4.08,16.3-4.08-16.3a12,12,0,0,0-8.75-8.75L1406.93,158l16.29-4.08a12,12,0,0,0,8.75-8.75l4.08-16.3Z"/><path class="cls-22" d="M1100.15,987.1l3.29,13.15a9.72,9.72,0,0,0,7.06,7.07l13.16,3.29-13.16,3.29a9.73,9.73,0,0,0-7.06,7.06l-3.29,13.16-3.29-13.16a9.72,9.72,0,0,0-7.07-7.06l-13.15-3.29,13.15-3.29a9.72,9.72,0,0,0,7.07-7.07l3.29-13.15Z"/><path class="cls-22" d="M382.69,210l4.07,16.3a12,12,0,0,0,8.75,8.75l16.3,4.08-16.3,4.08a12,12,0,0,0-8.75,8.75l-4.07,16.29-4.08-16.29a12,12,0,0,0-8.76-8.75l-16.29-4.08L369.85,235a12,12,0,0,0,8.76-8.75l4.08-16.3"/><path class="cls-22" d="M897.06,633.15l1.75,7a5.13,5.13,0,0,0,3.74,3.74l7,1.75-7,1.74a5.14,5.14,0,0,0-3.74,3.74l-1.75,7-1.74-7a5.14,5.14,0,0,0-3.74-3.74l-7-1.74,7-1.75a5.13,5.13,0,0,0,3.74-3.74l1.74-7"/><path class="cls-22" d="M168.51,152.39l3.78,15.09a11.15,11.15,0,0,0,8.1,8.1l15.09,3.77-15.09,3.78a11.14,11.14,0,0,0-8.1,8.1l-3.78,15.09-3.77-15.09a11.14,11.14,0,0,0-8.1-8.1l-15.09-3.78,15.09-3.77a11.15,11.15,0,0,0,8.1-8.1l3.77-15.09Z"/><path class="cls-22" d="M484.72,698.36l1.85,7.4a5.47,5.47,0,0,0,4,4l7.39,1.85-7.39,1.85a5.47,5.47,0,0,0-4,4l-1.85,7.39-1.85-7.39a5.47,5.47,0,0,0-4-4l-7.4-1.85,7.4-1.85a5.48,5.48,0,0,0,4-4l1.85-7.4"/><path class="cls-22" d="M220.21,907l3,12a8.88,8.88,0,0,0,6.46,6.46l12,3-12,3a8.88,8.88,0,0,0-6.46,6.45l-3,12-3-12a8.88,8.88,0,0,0-6.46-6.45l-12-3,12-3A8.88,8.88,0,0,0,217.2,919l3-12"/><path class="cls-23" d="M786.09,830.34a247.64,247.64,0,0,1-38.25-33.17A355.46,355.46,0,0,0,842,757.9a303.56,303.56,0,0,0,24.75,17.8c4.46,2.88,8.93,5.75,13.37,8.58a398.87,398.87,0,0,1-94,46.06M1019.7,623.89A415.64,415.64,0,0,1,992.62,579a355.06,355.06,0,0,0,21.1-85.24c6.86,30.44,15.13,58.13,25,82.92a398.45,398.45,0,0,1-19,47.2m-30-308.42-.3-.72a358.36,358.36,0,0,0-182-189,353,353,0,0,0-84.93-26.62,361.37,361.37,0,0,0-124.09-.56A460.6,460.6,0,0,0,556.83,64a403.81,403.81,0,0,1,173.26-6.8,398.71,398.71,0,0,1,165.29,71.07,402.41,402.41,0,0,1,82,80.64,385.72,385.72,0,0,1,10,70q1,18.64,2.29,36.58"/><path class="cls-24" d="M658.83,851a400.13,400.13,0,0,1-111.31-15.7c15.16-10.85,30.63-22.06,45.49-33a360.58,360.58,0,0,0,154.83-5.12,247.64,247.64,0,0,0,38.25,33.17A399.69,399.69,0,0,1,658.83,851m-157.3-32.12A401.4,401.4,0,0,1,336.84,688.34c16.71-2.17,32.79-4.79,48-7.91a357.71,357.71,0,0,0,164.88,111c-16.5,9.34-32.9,18.7-48.23,27.49M432,174.71q-14-15.93-28.83-31.51A398.77,398.77,0,0,1,556.83,64,460.6,460.6,0,0,1,598.4,98.61,356,356,0,0,0,432,174.71"/><path class="cls-25" d="M1038.75,576.69c-9.9-24.79-18.17-52.48-25-82.92a361,361,0,0,0,2.54-42.86q0-14.3-1.12-28.35v0a354.57,354.57,0,0,0-25.44-107q-1.28-17.94-2.29-36.58a385.72,385.72,0,0,0-10-70,397.61,397.61,0,0,1,80.25,210.24v0q1.26,15.72,1.26,31.74a399.63,399.63,0,0,1-20.17,125.78"/><path class="cls-26" d="M336.84,688.34c-1.69-2.29-3.37-4.61-5-6.94a398.09,398.09,0,0,1-48.7-92.79,424.16,424.16,0,0,0,40.61-13.19,356,356,0,0,0,43,81.4q8.6,12.2,18.18,23.61c-15.25,3.12-31.33,5.74-48,7.91M306.37,391.46c-3.44-2.11-6.93-4.22-10.5-6.33q1.72-2.47,3.24-5.07,5.38-3,10.59-5.86-1.87,8.55-3.33,17.26m3.87-48.61c2.07-21.91-2.8-43.21-12.83-63.66a401.67,401.67,0,0,1,105.78-136Q418,158.77,432,174.71a359.32,359.32,0,0,0-46.63,46.08L382.69,210l-4.08,16.3a12,12,0,0,1-8.76,8.75l-16.29,4.08,14.71,3.68a356.26,356.26,0,0,0-49.15,96.82l-8.88,3.25"/><path class="cls-27" d="M295.87,385.13l-2.89-1.7,6.13-3.37q-1.51,2.6-3.24,5.07m-26.28-27a397.5,397.5,0,0,1,27.82-79c10,20.45,14.9,41.75,12.83,63.66-12.83,4.73-26.53,9.9-40.65,15.32"/><path class="cls-24" d="M880.13,784.28c-4.44-2.83-8.91-5.7-13.37-8.58A303.56,303.56,0,0,1,842,757.9,358.67,358.67,0,0,0,992.62,579a415.64,415.64,0,0,0,27.08,44.88A401.93,401.93,0,0,1,880.13,784.28"/><path class="cls-28" d="M283.13,588.61a400,400,0,0,1-24.34-137.7q0-18,1.56-35.58c15-8.15,27.12-18.13,35.52-30.2,3.57,2.11,7.06,4.22,10.5,6.33a360.2,360.2,0,0,0,2.73,133.28,354.65,354.65,0,0,0,14.64,50.68,424.16,424.16,0,0,1-40.61,13.19"/><path class="cls-29" d="M260.35,415.33q.66-7.59,1.62-15.1c10.56-5.66,21-11.29,31-16.8l2.89,1.7c-8.4,12.07-20.47,22.05-35.52,30.2"/><path class="cls-30" d="M368.27,242.78l-14.71-3.68L369.85,235a12,12,0,0,0,8.76-8.75l4.08-16.3,2.7,10.82q-9,10.65-17.12,22"/><path class="cls-31" d="M747.84,797.17a160.2,160.2,0,0,1-27.32-39.92,310.15,310.15,0,0,0,87.67-31.86A252,252,0,0,0,842,757.9a355.46,355.46,0,0,1-94.17,39.27M992.62,579a386,386,0,0,1-27.28-67.23,313.81,313.81,0,0,0,5.92-60.87q0-12.5-1-24.78v0a310.09,310.09,0,0,0-22.49-94.21A313.68,313.68,0,0,0,843.56,199a311.54,311.54,0,0,0-129.08-55.49,314,314,0,0,0-55.64-4.94q-11.43,0-22.68.81A394.87,394.87,0,0,0,598.4,98.61a361.37,361.37,0,0,1,124.09.56,356.42,356.42,0,0,1,147.67,63.48A358.92,358.92,0,0,1,989.4,314.75l.3.72c4.78,67.18,12.39,126.73,24,178.3A355.06,355.06,0,0,1,992.62,579"/><path class="cls-32" d="M658.84,808.34A359.58,359.58,0,0,1,593,802.29c18.86-13.9,36.76-27.38,51.92-39.26q6.92.3,13.91.31a314.15,314.15,0,0,0,61.68-6.09,160.2,160.2,0,0,0,27.32,39.92,358.2,358.2,0,0,1-89,11.17m-109.08-17a357.71,357.71,0,0,1-164.88-111,440,440,0,0,0,49-12.76,313.92,313.92,0,0,0,47.67,40.51,5.56,5.56,0,0,1-2.65,1.55l-7.4,1.85,7.4,1.85a5.47,5.47,0,0,1,4,4l1.85,7.39,1.85-7.39a5.47,5.47,0,0,1,3.22-3.73,310.29,310.29,0,0,0,117.82,45.48c-18.3,10-38.15,21.08-57.85,32.23M461,209.16c-9.28-11.59-19-23.09-29-34.45A356,356,0,0,1,598.4,98.61a394.87,394.87,0,0,1,37.76,40.72A310.86,310.86,0,0,0,461,209.16"/><path class="cls-33" d="M1013.72,493.77c-11.63-51.57-19.24-111.12-24-178.3a354.57,354.57,0,0,1,25.44,107v0q1.13,14,1.12,28.35a361,361,0,0,1-2.54,42.86"/><path class="cls-34" d="M384.88,680.43q-9.56-11.4-18.18-23.61a356,356,0,0,1-43-81.4,234,234,0,0,0,40.66-19.89,309.64,309.64,0,0,0,14.86,34.9,313.3,313.3,0,0,0,54.62,77.24,440,440,0,0,1-49,12.76M348,419.63c-12.31-9.35-26.27-18.75-41.62-28.17q1.45-8.7,3.33-17.26c22.11-12.31,41.76-23.68,56.53-32.92A310.66,310.66,0,0,0,348,419.63m-28.87-80a356.26,356.26,0,0,1,49.15-96.82l1.58.4a12,12,0,0,1,8.76,8.75l4.08,16.29,4.07-16.29a12,12,0,0,1,8.75-8.75l16.3-4.08L395.51,235a12,12,0,0,1-8.75-8.75l-1.37-5.48A359.32,359.32,0,0,1,432,174.71c10,11.36,19.69,22.86,29,34.45a313.55,313.55,0,0,0-86.39,112c-13.41,3.66-32.82,10.24-55.48,18.47"/><path class="cls-32" d="M842,757.9a252,252,0,0,1-33.82-32.51,313.91,313.91,0,0,0,87.91-71.2l1,3.87,1.75-7c0-.05,0-.1,0-.16.88-1,1.75-2.11,2.61-3.17a6,6,0,0,1,1.09-.41l7-1.74-5.28-1.32a311.16,311.16,0,0,0,61.1-132.51A386,386,0,0,0,992.62,579,358.67,358.67,0,0,1,842,757.9"/><path class="cls-35" d="M323.74,575.42a357.53,357.53,0,0,1-22.3-124.51,359.51,359.51,0,0,1,4.93-59.45c15.35,9.42,29.31,18.82,41.62,28.17q-1.53,15.44-1.55,31.28a312.92,312.92,0,0,0,18,104.62,234,234,0,0,1-40.66,19.89"/><path class="cls-36" d="M382.69,268.22l-4.08-16.29a12,12,0,0,0-8.76-8.75l-1.58-.4q8.14-11.34,17.12-22l1.37,5.48a12,12,0,0,0,8.75,8.75l16.3,4.08-16.3,4.08a12,12,0,0,0-8.75,8.75l-4.07,16.29"/><path class="cls-36" d="M897.06,658.06l-1-3.87c.92-1.08,1.84-2.16,2.75-3.26,0,.06,0,.11,0,.16l-1.75,7m4.4-10.3c.94-1.15,1.86-2.31,2.78-3.47l5.28,1.32-7,1.74a6,6,0,0,0-1.09.41"/><path class="cls-36" d="M484.72,724.8l-1.85-7.39a5.47,5.47,0,0,0-4-4l-7.4-1.85,7.4-1.85a5.56,5.56,0,0,0,2.65-1.55c2.71,1.87,5.47,3.71,8.24,5.5a5.47,5.47,0,0,0-3.22,3.73l-1.85,7.39"/><path class="cls-37" d="M720.52,757.25c-7.37-15.51-11.86-31.87-14.34-49.48a259.45,259.45,0,0,0,73.27-25.19,214.52,214.52,0,0,0,28.74,42.81,310.15,310.15,0,0,1-87.67,31.86M965.34,511.78c-28.28-94-10.86-162.25-51.06-177.06a24.07,24.07,0,0,0-8.37-1.41,39.91,39.91,0,0,0-12.71,2.33,262.38,262.38,0,0,0-80-95.32,260.32,260.32,0,0,0-107.88-46.38,263.18,263.18,0,0,0-35.21-3.89,350.24,350.24,0,0,0-34-50.72q11.24-.81,22.68-.81a314,314,0,0,1,55.64,4.94A311.54,311.54,0,0,1,843.56,199,313.68,313.68,0,0,1,947.79,331.89a310.09,310.09,0,0,1,22.49,94.21v0q1,12.27,1,24.78a313.81,313.81,0,0,1-5.92,60.87"/><path class="cls-38" d="M658.84,763.34q-7,0-13.91-.31c27.47-21.5,45.93-37.68,44.66-41.27-.19-.52-.77-.77-1.74-.77-7.83,0-40.37,16.42-80.24,38.17a310.29,310.29,0,0,1-117.82-45.48,6.15,6.15,0,0,1,.76-.25l7.39-1.85-7.39-1.85a5.47,5.47,0,0,1-4-4l-1.85-7.4-1.85,7.4a5.47,5.47,0,0,1-1.32,2.42,313.92,313.92,0,0,1-47.67-40.51C453,661.4,470,654,484.37,645.18A260.09,260.09,0,0,0,658.84,712a262.8,262.8,0,0,0,47.34-4.27c2.48,17.61,7,34,14.34,49.48a314.15,314.15,0,0,1-61.68,6.09m-167-513.14q-14.52-20.7-30.85-41a310.86,310.86,0,0,1,175.17-69.83,350.24,350.24,0,0,1,34,50.72c-3.75-.16-7.51-.24-11.3-.24a260,260,0,0,0-167,60.39"/><path class="cls-39" d="M433.88,667.67a313.3,313.3,0,0,1-54.62-77.24,309.64,309.64,0,0,1-14.86-34.9c17.68-11.17,30.61-24,37.48-38.88a43.45,43.45,0,0,0,2.53-6.89,259.86,259.86,0,0,0,41,91.59,262.45,262.45,0,0,0,39,43.83C470,654,453,661.4,433.88,667.67M398.64,472.82c-9.2-17.22-26.8-35.09-50.65-53.19a310.66,310.66,0,0,1,18.24-78.35c17.83-11.16,28.56-19.23,28-22.13-.17-.84-1.25-1.23-3.17-1.23-3.25,0-8.89,1.14-16.43,3.21a313.55,313.55,0,0,1,86.39-112q16.29,20.33,30.85,41a260.58,260.58,0,0,0-94.1,200.72q0,11.06.9,21.9"/><path class="cls-38" d="M808.19,725.39a214.52,214.52,0,0,1-28.74-42.81A261.09,261.09,0,0,0,920,450.92q0-10.46-.82-20.72v0a258.83,258.83,0,0,0-18.8-78.73q-3.32-8-7.15-15.8a39.91,39.91,0,0,1,12.71-2.33,24.07,24.07,0,0,1,8.37,1.41c40.2,14.81,22.78,83,51.06,177.06a311.16,311.16,0,0,1-61.1,132.51l-1.69-.43a5.13,5.13,0,0,1-3.74-3.74l-1.75-7-1.74,7a5.13,5.13,0,0,1-3.74,3.74l-7,1.75,7,1.74a5.14,5.14,0,0,1,3.74,3.74l.78,3.1a313.91,313.91,0,0,1-87.91,71.2"/><path class="cls-40" d="M364.4,555.53a312.92,312.92,0,0,1-18-104.62q0-15.84,1.55-31.28c23.85,18.1,41.45,36,50.65,53.19a257.54,257.54,0,0,0,4.69,32c.35,1.64.71,3.27,1.08,4.9a43.45,43.45,0,0,1-2.53,6.89c-6.87,14.83-19.8,27.71-37.48,38.88"/><path class="cls-38" d="M898.85,650.93a5.14,5.14,0,0,1,2.61-3.17c-.86,1.06-1.73,2.12-2.61,3.17"/><path class="cls-41" d="M896.1,654.19l-.78-3.1a5.14,5.14,0,0,0-3.74-3.74l-7-1.74,7-1.75a5.13,5.13,0,0,0,3.74-3.74l1.74-7,1.75,7a5.13,5.13,0,0,0,3.74,3.74l1.69.43c-.92,1.16-1.84,2.32-2.78,3.47a5.14,5.14,0,0,0-2.61,3.17c-.91,1.1-1.83,2.18-2.75,3.26"/><path class="cls-41" d="M489.79,713.68c-2.77-1.79-5.53-3.63-8.24-5.5a5.47,5.47,0,0,0,1.32-2.42l1.85-7.4,1.85,7.4a5.47,5.47,0,0,0,4,4l7.39,1.85-7.39,1.85a6.15,6.15,0,0,0-.76.25"/><path class="cls-42" d="M706.18,707.77a279.91,279.91,0,0,1-2.53-34.13,225.23,225.23,0,0,0,63-22.73,205.33,205.33,0,0,0,12.85,31.67,259.45,259.45,0,0,1-73.27,25.19M863.87,353.06a227.84,227.84,0,0,0-110.6-108.75h0l-.59-.27a224.82,224.82,0,0,0-53.39-16.65q-6.09-1.09-12.31-1.86a333,333,0,0,0-16.84-35.48,263.18,263.18,0,0,1,35.21,3.89,260.32,260.32,0,0,1,107.88,46.38,262.38,262.38,0,0,1,80,95.32c-9,3.05-19,9-29.33,17.42"/><path class="cls-43" d="M658.84,712a260.09,260.09,0,0,1-174.47-66.86,134,134,0,0,0,27.2-21.36A226.12,226.12,0,0,0,654.51,678h4.33a228.82,228.82,0,0,0,44.81-4.41,279.91,279.91,0,0,0,2.53,34.13A262.8,262.8,0,0,1,658.84,712M510.78,278.7q-9-14.31-18.94-28.5a260,260,0,0,1,167-60.39c3.79,0,7.55.08,11.3.24A333,333,0,0,1,687,225.53a229.23,229.23,0,0,0-28.14-1.73,226.2,226.2,0,0,0-148.06,54.9"/><path class="cls-44" d="M484.37,645.18a262.11,262.11,0,0,1-59.2-77.65,258.81,258.81,0,0,1-20.76-57.77c3.24-11.86,1-24.22-5.77-36.94q-.9-10.83-.9-21.9a260.58,260.58,0,0,1,94.1-200.72q9.95,14.18,18.94,28.5a227.11,227.11,0,0,0,.79,345.12,134,134,0,0,1-27.2,21.36"/><path class="cls-43" d="M779.45,682.58a205.33,205.33,0,0,1-12.85-31.67A227.07,227.07,0,0,0,886,450.92h0q0-9.09-.71-18v0h0a225.47,225.47,0,0,0-16.36-68.49q-2.37-5.75-5-11.33c10.36-8.4,20.34-14.37,29.33-17.42q3.82,7.75,7.15,15.8a258.83,258.83,0,0,1,18.8,78.73v0q.83,10.26.82,20.72A261.09,261.09,0,0,1,779.45,682.58"/><path class="cls-45" d="M404.41,509.76c-.37-1.63-.73-3.26-1.08-4.9a257.54,257.54,0,0,1-4.69-32c6.8,12.72,9,25.08,5.77,36.94"/><path class="cls-46" d="M886,450.92c0,125.44-101.69,227.13-227.14,227.13A226.92,226.92,0,0,1,431.73,450.92c0-125.43,101.69-227.12,227.11-227.12a228.53,228.53,0,0,1,40.45,3.59,226.42,226.42,0,0,1,93.85,40.35,228,228,0,0,1,75.77,96.65,225.47,225.47,0,0,1,16.36,68.49v0q.71,8.93.71,18"/><path class="cls-47" d="M658.84,678.05h0a228.82,228.82,0,0,0,44.81-4.41h0a228.82,228.82,0,0,1-44.81,4.41"/><path class="cls-47" d="M658.56,678.05h0m-.23,0h0m-.22,0h0m-.23,0h0m-.21,0h0m-.22,0h0m-.22,0h0m-.22,0h0m-.21,0h0m-.22,0h0m-.57,0h0m-.2,0h0m-.21,0h0m-.22,0h0m-.21,0h0m-.21,0h0m-.22,0h0m-.21,0h0"/><path class="cls-48" d="M753.27,244.31l-.59-.27.59.27"/><path class="cls-49" d="M658.84,678.05h-4.33A226.55,226.55,0,0,1,484,595.78,226.37,226.37,0,0,0,565.82,611C691.27,611,793,509.3,793,383.86q0-9.09-.71-18v0A225.55,225.55,0,0,0,740.75,239q6,2.34,11.93,5l.59.27h0a226.85,226.85,0,0,1,132,188.57v0h0q.71,8.93.71,18A226.84,226.84,0,0,1,658.84,678.05"/><path class="cls-46" d="M720.37,456.69a62.24,62.24,0,1,1-62.24-62.23,62.25,62.25,0,0,1,62.24,62.23Z"/><path class="cls-50" d="M658.13,394.46c-1.36,0-2.71.06-4,.14A55.84,55.84,0,0,1,606,490.71a62.23,62.23,0,1,0,52.11-96.25Z"/><path class="cls-51" d="M600.7,458.3a62.23,62.23,0,0,1,79.55-59.78,62.24,62.24,0,1,0-39.44,118A62.26,62.26,0,0,1,600.7,458.3Z"/><path class="cls-46" d="M605.54,324.74A45.84,45.84,0,1,1,559.7,278.9a45.83,45.83,0,0,1,45.84,45.84Z"/><path class="cls-50" d="M559.7,278.9c-1,0-2,0-3,.11A41.12,41.12,0,0,1,529,350.52a41.51,41.51,0,0,1-7.69-.73A45.84,45.84,0,1,0,559.7,278.9Z"/><path class="cls-51" d="M517.41,325.92a45.84,45.84,0,0,1,58.59-44,45.84,45.84,0,1,0-29,86.87,45.84,45.84,0,0,1-29.54-42.84Z"/><path class="cls-46" d="M793.14,267.74a52.5,52.5,0,0,1-51.73,43.52,51.42,51.42,0,0,1-14.6-2.08c-.69-.19-1.36-.41-2-.62l-2-.72a47.67,47.67,0,0,1-5.69-2.55l-.13-.06-1.3-.72c-1.49-.84-3-1.77-4.37-2.75a48.18,48.18,0,0,1-4.56-3.61c-.52-.45-1-.93-1.54-1.41s-.93-.88-1.38-1.36c-.13-.13-.26-.26-.39-.41-.39-.39-.76-.8-1.13-1.21-.91-1-1.75-2-2.57-3.09-.65-.85-1.26-1.71-1.86-2.6-.48-.69-.93-1.38-1.34-2.1s-.78-1.27-1.15-1.94c-.5-.94-1-1.89-1.45-2.86-.3-.65-.61-1.32-.89-2s-.58-1.45-.86-2.18a3.64,3.64,0,0,1-.15-.42c-.22-.62-.46-1.25-.65-1.9a49.49,49.49,0,0,1-1.78-7.44c-.06-.32-.1-.65-.15-1-.08-.65-.17-1.28-.24-1.93a54.37,54.37,0,0,1-.3-5.6c0-1.06,0-2.12.11-3.16,0-.69.09-1.38.17-2.08s.11-1.23.22-1.84a11.37,11.37,0,0,1,.22-1.47,1.75,1.75,0,0,1,0-.32c.11-.61.21-1.23.34-1.84s.31-1.38.48-2.08c.11-.49.24-1,.39-1.47.09-.3.15-.58.26-.88s.22-.72.32-1.09a51.5,51.5,0,0,1,2.56-6.36c.17-.41.39-.8.58-1.19s.5-1,.76-1.44c.37-.68.76-1.35,1.17-2s.88-1.44,1.36-2.14.93-1.36,1.4-2h0l4.43.85a225.92,225.92,0,0,1,89.39,39.5Z"/><path class="cls-50" d="M793.14,267.74a52.49,52.49,0,0,1-95.68,19.7,47,47,0,0,0,55.81-43.13,226.35,226.35,0,0,1,39.87,23.43Z"/><path class="cls-51" d="M726.81,309.18c-.69-.19-1.36-.41-2-.62l-2-.72a51.08,51.08,0,0,1-5.69-2.55l-.13-.06-1.3-.72c-1.49-.84-3-1.77-4.37-2.75a51.63,51.63,0,0,1-4.56-3.61c-.52-.45-1-.93-1.54-1.41s-.93-.88-1.38-1.36c-.13-.13-.26-.26-.39-.41-.39-.39-.76-.8-1.13-1.21-.91-1-1.75-2-2.57-3.09-.65-.85-1.26-1.71-1.86-2.6-.48-.69-.93-1.38-1.34-2.1s-.78-1.27-1.15-1.94c-.5-.94-1-1.89-1.45-2.86-.3-.65-.61-1.32-.89-2s-.58-1.45-.86-2.18a3.64,3.64,0,0,1-.15-.42c-.22-.62-.46-1.25-.65-1.9a49.49,49.49,0,0,1-1.78-7.44c-.06-.32-.1-.65-.15-1-.08-.65-.17-1.28-.24-1.93a54.37,54.37,0,0,1-.3-5.6c0-1.06,0-2.12.11-3.16,0-.69.09-1.38.17-2.08s.11-1.23.22-1.84a11.37,11.37,0,0,1,.22-1.47,1.75,1.75,0,0,1,0-.32c.11-.61.21-1.23.34-1.84s.31-1.38.48-2.08c.11-.49.24-1,.39-1.47.09-.3.15-.58.26-.88s.22-.72.32-1.09a51.5,51.5,0,0,1,2.56-6.36c.17-.41.39-.8.58-1.19s.5-1,.76-1.44c.37-.68.76-1.35,1.17-2s.88-1.44,1.36-2.14.93-1.36,1.4-2h0l4.43.85a52.51,52.51,0,0,0,23.06,80.94Z"/><path class="cls-46" d="M502.79,538.9a45.87,45.87,0,0,1-29.59,42.87,225.64,225.64,0,0,1-36.61-83.93,45.82,45.82,0,0,1,66.2,41.06Z"/><path class="cls-50" d="M502.79,538.9a45.87,45.87,0,0,1-29.59,42.87,224.8,224.8,0,0,1-17.61-29.42A41.08,41.08,0,0,0,454,493.17c1-.07,2-.11,3-.11a45.85,45.85,0,0,1,45.84,45.84Z"/><path class="cls-51" d="M436.59,497.84v0A46,46,0,0,1,473.24,496a46,46,0,0,0-36,4.57l-.61-2.77Z"/><path class="cls-46" d="M744,609.2a41.52,41.52,0,1,1-41.51-41.51A41.51,41.51,0,0,1,744,609.2Z"/><path class="cls-50" d="M702.48,567.69c-.91,0-1.81,0-2.7.1a37.24,37.24,0,0,1-25.1,64.76,38,38,0,0,1-7-.66,41.51,41.51,0,1,0,34.76-64.2Z"/><path class="cls-51" d="M664.17,610.27a41.51,41.51,0,0,1,53.06-39.87,41.51,41.51,0,1,0-26.3,78.67,41.52,41.52,0,0,1-26.76-38.8Z"/><path class="cls-46" d="M885.27,432.88v0a43.74,43.74,0,1,1-16.36-68.51,225.47,225.47,0,0,1,16.36,68.49Z"/><path class="cls-50" d="M885.27,432.9a43.75,43.75,0,0,1-70.09-4.29,40.43,40.43,0,0,0,7.35.7A39.26,39.26,0,0,0,849,361c.93-.07,1.88-.11,2.83-.11a43.48,43.48,0,0,1,17.09,3.46,225.6,225.6,0,0,1,16.36,68.51Z"/><path class="cls-51" d="M811.44,405.82a43.76,43.76,0,0,1,55.94-42,43.76,43.76,0,1,0-27.73,82.94,43.77,43.77,0,0,1-28.21-40.9Z"/><path class="cls-50" d="M829.82,898.9a32.64,32.64,0,1,1-32.64-32.63,32.63,32.63,0,0,1,32.64,32.63Z"/><path class="cls-52" d="M800.62,866.45a32.59,32.59,0,0,1-28.85,52.91,32.63,32.63,0,1,0,28.85-52.91Z"/><path class="cls-50" d="M1424.13,419.9A52.15,52.15,0,1,1,1372,367.76a52.15,52.15,0,0,1,52.15,52.14Z"/><path class="cls-52" d="M1377.47,368.05a52.14,52.14,0,0,1-46.1,84.56,52.15,52.15,0,1,0,46.1-84.56Z"/><path class="cls-23" d="M1152.11,753.77q-8-4.51-15.81-9.83a163.72,163.72,0,0,1,13-35.14c5.22,2.59,10.57,5,16.1,7.14a146.62,146.62,0,0,0-13.34,37.83m283.72-18.28c-1-2.77-2-5.51-3.11-8.21a146.72,146.72,0,0,0-11.24-21.85q8.57-2.5,17.38-5.25a164.07,164.07,0,0,1,10.13,20.4q1.44,3.49,2.73,7.08-7.92,4-15.89,7.83"/><path class="cls-25" d="M1165.45,715.94c-5.53-2.17-10.88-4.55-16.1-7.14a165.26,165.26,0,0,1,176.48-87.7A164.55,164.55,0,0,1,1394,650.4a165.78,165.78,0,0,1,44.89,49.78q-8.8,2.75-17.38,5.25a148.41,148.41,0,0,0-37.91-40.85,146.73,146.73,0,0,0-60.87-26.17,147.59,147.59,0,0,0-157.25,77.53"/><path class="cls-24" d="M1296.45,948.33A165.08,165.08,0,0,1,1136.3,743.94q7.82,5.32,15.81,9.83a148.37,148.37,0,0,0-3,29.63,147.34,147.34,0,0,0,249.61,106.06c0,.15.08.3.11.45l4.08,16.3,4.09-16.3a12,12,0,0,1,8.75-8.75l16.3-4.08-16.3-4.08a11.63,11.63,0,0,1-1.86-.63,146.65,146.65,0,0,0,29.89-89c0-3.92-.15-7.83-.47-11.68v0a146.78,146.78,0,0,0-7.5-36.21q8-3.79,15.89-7.83a163.53,163.53,0,0,1,9.13,42.64v0c.36,4.32.53,8.69.53,13.08a164.93,164.93,0,0,1-164.93,164.93"/><path class="cls-30" d="M1402.93,906.21l-4.08-16.3c0-.15-.07-.3-.11-.45a148.35,148.35,0,0,0,15.17-17.09,11.63,11.63,0,0,0,1.86.63l16.3,4.08-16.3,4.08a12,12,0,0,0-8.75,8.75l-4.09,16.3"/><path class="cls-31" d="M1169.38,762.46q-8.73-3.9-17.27-8.69a146.62,146.62,0,0,1,13.34-37.83q8.63,3.39,17.79,6.07a127.82,127.82,0,0,0-13.86,40.45m249.49-19.17q-1.5-4.56-3.3-8.95a129.33,129.33,0,0,0-12.81-23.65c6.14-1.66,12.4-3.42,18.72-5.26a146.72,146.72,0,0,1,11.24,21.85c1.12,2.7,2.15,5.44,3.11,8.21q-8.44,4-17,7.8"/><path class="cls-33" d="M1183.24,722q-9.16-2.68-17.79-6.07a147.59,147.59,0,0,1,157.25-77.53,146.73,146.73,0,0,1,60.87,26.17,148.41,148.41,0,0,1,37.91,40.85c-6.32,1.84-12.58,3.6-18.72,5.26A129.09,129.09,0,0,0,1350,666.26a126.84,126.84,0,0,0-30.59-9.59A129,129,0,0,0,1183.24,722"/><path class="cls-32" d="M1296.45,930.74a147.47,147.47,0,0,1-144.34-177q8.52,4.79,17.27,8.69a128.85,128.85,0,0,0,11.83,78.46,128.81,128.81,0,0,0,201.27,38.33l7.62,1.91a12,12,0,0,1,8.64,8.3,146.87,146.87,0,0,1-102.29,41.28m92.16-57.36a130.6,130.6,0,0,0,11.27-13.22l-1,4.09a12,12,0,0,1-8.75,8.75l-1.49.38m25.3-1a12,12,0,0,1-6.89-8.12l-2.64-10.54a128.12,128.12,0,0,0,20.86-70.3q0-5.16-.4-10.22h0a127.39,127.39,0,0,0-6-29.89q8.51-3.76,17-7.8a146.78,146.78,0,0,1,7.5,36.21v0c.32,3.85.47,7.76.47,11.68a146.65,146.65,0,0,1-29.89,89"/><path class="cls-36" d="M1398.74,889.46a12,12,0,0,0-8.64-8.3l-7.62-1.91c2.11-1.89,4.14-3.85,6.13-5.87l1.49-.38a12,12,0,0,0,8.75-8.75l1-4.09c1.56-2.1,3.07-4.25,4.5-6.45l2.64,10.54a12,12,0,0,0,6.89,8.12,148.35,148.35,0,0,1-15.17,17.09"/><path class="cls-37" d="M1189.62,770.26a207.21,207.21,0,0,1-20.24-7.8A127.82,127.82,0,0,1,1183.24,722c6.89,2,14,3.76,21.42,5.19a106.88,106.88,0,0,0-15,43.06m209.67-18.75c-1-3.1-2.06-6.14-3.27-9.11a108.2,108.2,0,0,0-15.39-26.08q10.88-2.61,22.13-5.63a129.33,129.33,0,0,1,12.81,23.65q1.8,4.39,3.3,8.95-9.75,4.31-19.58,8.22"/><path class="cls-53" d="M1204.66,727.2c-7.37-1.43-14.53-3.16-21.42-5.19a129,129,0,0,1,136.16-65.34,126.84,126.84,0,0,1,30.59,9.59,129.09,129.09,0,0,1,52.77,44.43q-11.27,3-22.13,5.63a108.09,108.09,0,0,0-39.42-30.83,106,106,0,0,0-25.59-8,107.72,107.72,0,0,0-111,49.72"/><path class="cls-38" d="M1296.46,912.19a128.87,128.87,0,0,1-127.08-149.73,207.21,207.21,0,0,0,20.24,7.8,107.73,107.73,0,0,0-.79,13.15,107.72,107.72,0,0,0,11.3,48.07,107.66,107.66,0,0,0,204-48.07q0-4.3-.35-8.54h0a106,106,0,0,0-4.47-23.35q9.82-3.91,19.58-8.22a127.39,127.39,0,0,1,6,29.89h0q.4,5.05.4,10.22a128.12,128.12,0,0,1-20.86,70.3l-1.45-5.76-3,12.21a130.6,130.6,0,0,1-11.27,13.22l-14.79,3.7,8.66,2.17a128.26,128.26,0,0,1-86,32.94"/><path class="cls-41" d="M1382.48,879.25l-8.66-2.17,14.79-3.7c-2,2-4,4-6.13,5.87m17.4-19.09,3-12.21,1.45,5.76c-1.43,2.2-2.94,4.35-4.5,6.45"/><path class="cls-42" d="M1261.54,781.26a230.13,230.13,0,0,1-71.92-11,106.88,106.88,0,0,1,15-43.06,295.48,295.48,0,0,0,56.17,5.07c35.4,0,75.14-5.26,119.8-15.95A108.2,108.2,0,0,1,1396,742.4c1.21,3,2.31,6,3.27,9.11-45.89,18.28-92.66,29.75-137.75,29.75"/><path class="cls-54" d="M1260.83,732.27a295.48,295.48,0,0,1-56.17-5.07,107.72,107.72,0,0,1,111-49.72,106,106,0,0,1,25.59,8,108.09,108.09,0,0,1,39.42,30.83c-44.66,10.69-84.4,15.95-119.8,15.95"/><path class="cls-43" d="M1296.46,891.05a107.88,107.88,0,0,1-96.33-59.57,107.72,107.72,0,0,1-11.3-48.07,107.73,107.73,0,0,1,.79-13.15,230.13,230.13,0,0,0,71.92,11c45.09,0,91.86-11.47,137.75-29.75a106,106,0,0,1,4.47,23.35h0q.35,4.23.35,8.54a107.65,107.65,0,0,1-107.65,107.64"/><path class="cls-50" d="M1372.68,783.41a76.22,76.22,0,1,1-76.22-76.21,76.21,76.21,0,0,1,76.22,76.21Z"/><path class="cls-52" d="M1304.48,707.62a76.2,76.2,0,0,1-59.35,124,78.72,78.72,0,0,1-8-.42,76.21,76.21,0,1,0,67.37-123.59Z"/><path class="cls-24" d="M84.39,885.48A104.84,104.84,0,0,1,192,837.68a104.58,104.58,0,0,1,42.07,17.73l-15.48,3.43q-3.11-1.73-6.35-3.2a92.37,92.37,0,0,0-22.23-7A93.69,93.69,0,0,0,99.9,882.8c-5.13.9-10.27,1.79-15.51,2.68"/><path class="cls-55" d="M70,957.8a105.42,105.42,0,0,1-1.38-17.07,104.21,104.21,0,0,1,15.75-55.25c5.24-.89,10.38-1.78,15.51-2.68a93.71,93.71,0,0,0-19.07,71.85Q75.41,956.2,70,957.8M278,936.29c-3.66-1-7.45-1.9-11.34-2.65,0-.11,0-.22,0-.33h0a92.81,92.81,0,0,0-6.74-28.21,94,94,0,0,0-31.21-39.81,92.49,92.49,0,0,0-10.07-6.44l15.48-3.43,1.19.87a105.15,105.15,0,0,1,34.94,44.56,103.9,103.9,0,0,1,7.54,31.57h0c.1,1.28.18,2.57.23,3.87"/><path class="cls-23" d="M118.76,1030.1a105.06,105.06,0,0,1-31-29,102.38,102.38,0,0,1-8.12-13.56,103.94,103.94,0,0,1-8.76-25.13c-.32-1.51-.6-3-.86-4.56q5.4-1.6,10.81-3.15c.28,1.82.6,3.62,1,5.4a92.9,92.9,0,0,0,15.07,34.57,94,94,0,0,0,38,31.43c-5.39,1.33-10.8,2.69-16.16,4M244.89,1001a93.19,93.19,0,0,0,22-60.28c0-2.38-.09-4.75-.27-7.09,3.89.75,7.68,1.63,11.34,2.65.07,1.47.1,3,.1,4.44a104.18,104.18,0,0,1-16.85,57q-8.16,1.62-16.32,3.3"/><path class="cls-56" d="M173.34,1045.44a104.18,104.18,0,0,1-54.58-15.34c5.36-1.36,10.77-2.72,16.16-4a93.64,93.64,0,0,0,110-25q8.16-1.68,16.32-3.3a104.63,104.63,0,0,1-87.87,47.73"/><path class="cls-32" d="M99.9,882.8A93.69,93.69,0,0,1,190,848.67a92.37,92.37,0,0,1,22.23,7q3.24,1.47,6.35,3.2-9.59,2.1-19.51,4.26a81.42,81.42,0,0,0-11.16-2.84A82.33,82.33,0,0,0,173.34,859a81.46,81.46,0,0,0-53.9,20.28c-6.4,1.19-13,2.38-19.54,3.55"/><path class="cls-57" d="M80.83,954.65A93.71,93.71,0,0,1,99.9,882.8c6.59-1.17,13.14-2.36,19.54-3.55a81.55,81.55,0,0,0-27.86,61.48,82.68,82.68,0,0,0,.7,10.74c-3.82,1-7.64,2.1-11.45,3.18m185.79-21q-5.85-1.12-12-1.88a81.62,81.62,0,0,0-32.94-57,82.31,82.31,0,0,0-14.35-8.43,79.71,79.71,0,0,0-8.27-3.25q9.92-2.15,19.51-4.26a92.49,92.49,0,0,1,10.07,6.44,94,94,0,0,1,31.21,39.81,92.81,92.81,0,0,1,6.74,28.21h0c0,.11,0,.22,0,.33"/><path class="cls-31" d="M134.92,1026.05a94,94,0,0,1-38-31.43,92.9,92.9,0,0,1-15.07-34.57c-.38-1.78-.7-3.58-1-5.4,3.81-1.08,7.63-2.15,11.45-3.18q.41,3.12,1,6.15a81.85,81.85,0,0,0,63.19,63.15c-7.24,1.74-14.41,3.49-21.6,5.28m88.25-20.48a81.61,81.61,0,0,0,31.94-64.84c0-2.18-.08-4.35-.25-6.49h0c-.07-.83-.14-1.66-.23-2.48q6.15.75,12,1.88c.18,2.34.27,4.71.27,7.09a93.19,93.19,0,0,1-22,60.28q-10.86,2.22-21.72,4.56"/><path class="cls-58" d="M173.34,1034.28a93.32,93.32,0,0,1-38.42-8.23c7.19-1.79,14.36-3.54,21.6-5.28a82.45,82.45,0,0,0,16.82,1.73,81.38,81.38,0,0,0,49.83-16.93q10.86-2.34,21.72-4.56a93.37,93.37,0,0,1-71.55,33.27"/><path class="cls-38" d="M119.44,879.25A81.46,81.46,0,0,1,173.34,859a82.33,82.33,0,0,1,14.57,1.29,81.42,81.42,0,0,1,11.16,2.84c-24.85,5.37-51.31,10.87-79.63,16.15"/><path class="cls-59" d="M92.28,951.47a82.68,82.68,0,0,1-.7-10.74,81.55,81.55,0,0,1,27.86-61.48c28.32-5.28,54.78-10.78,79.63-16.15a79.71,79.71,0,0,1,8.27,3.25A82,82,0,0,1,249,909.58a81.35,81.35,0,0,1,5.66,22.18c-4.45-.55-9-1-13.7-1.23-.09-.6-.19-1.2-.29-1.8l1.05-.26-1.15-.29a67.47,67.47,0,0,0-4-13.49,68.59,68.59,0,0,0-34.79-36.13,67.78,67.78,0,0,0-16.24-5.09A68.4,68.4,0,0,0,105,940.73a67.65,67.65,0,0,0,.38,7.29q-6.56,1.66-13.11,3.45"/><path class="cls-37" d="M156.52,1020.77a81.77,81.77,0,0,1-63.19-63.15q-.64-3-1-6.15,6.56-1.79,13.11-3.45a67,67,0,0,0,1.08,6.83,68.35,68.35,0,0,0,135.22-14.12c0-1.82-.07-3.63-.22-5.42h0q-.18-2.4-.54-4.77c4.67.27,9.25.68,13.7,1.23.09.82.16,1.65.23,2.48h0c.17,2.14.25,4.31.25,6.49a81.61,81.61,0,0,1-31.94,64.84c-22.26,4.78-44.53,9.87-66.65,15.2"/><path class="cls-60" d="M173.34,1022.5a82.45,82.45,0,0,1-16.82-1.73c22.12-5.33,44.39-10.42,66.65-15.2a81.38,81.38,0,0,1-49.83,16.93"/><path class="cls-41" d="M240.64,928.73c0-.18-.07-.37-.1-.55l1.15.29-1.05.26"/><path class="cls-61" d="M105.39,948a67.65,67.65,0,0,1-.38-7.29,68.35,68.35,0,0,1,131.54-26,67.47,67.47,0,0,1,4,13.49l-10.87-2.72a8.88,8.88,0,0,1-6.46-6.46l-3-12-3,12a8.88,8.88,0,0,1-6.46,6.46l-12,3,8.85,2.21c-32,1.89-66.95,8.36-102.18,17.34m135.54-17.49q-3.13-.18-6.35-.28l6.06-1.52c.1.6.2,1.2.29,1.8"/><path class="cls-42" d="M173.34,1009.07a68.29,68.29,0,0,1-66.87-54.22,67,67,0,0,1-1.08-6.83c35.23-9,70.22-15.45,102.18-17.34l3.17.8a8.88,8.88,0,0,1,6.46,6.45l3,12,3-12a8.88,8.88,0,0,1,6.46-6.45l4.91-1.23q3.21.11,6.35.28.36,2.37.54,4.77h0c.15,1.79.22,3.6.22,5.42a68.34,68.34,0,0,1-68.35,68.34"/><path class="cls-62" d="M220.21,950l-3-12a8.88,8.88,0,0,0-6.46-6.45l-3.17-.8-8.85-2.21,12-3A8.88,8.88,0,0,0,217.2,919l3-12,3,12a8.88,8.88,0,0,0,6.46,6.46l10.87,2.72c0,.18.07.37.1.55l-6.06,1.52-4.91,1.23a8.88,8.88,0,0,0-6.46,6.45l-3,12"/><path class="cls-50" d="M221.74,940.73a48.39,48.39,0,1,1-48.39-48.39,48.39,48.39,0,0,1,48.39,48.39Z"/><path class="cls-52" d="M178.44,892.61a48.38,48.38,0,0,1-37.68,78.74,50.26,50.26,0,0,1-5.09-.27,48.39,48.39,0,1,0,42.77-78.47Z"/><path class="cls-50" d="M362.85,1016.08A27.08,27.08,0,1,1,335.77,989a27.07,27.07,0,0,1,27.08,27.08Z"/><path class="cls-52" d="M338.62,989.15a27.08,27.08,0,0,1-21.08,44.06c-1,0-1.91-.06-2.85-.15a27.08,27.08,0,1,0,23.93-43.91Z"/><path class="cls-50" d="M420,77.51a32.64,32.64,0,1,1-32.63-32.63A32.63,32.63,0,0,1,420,77.51Z"/><path class="cls-52" d="M390.81,45.06a32.63,32.63,0,0,1-25.41,53.1c-1.16,0-2.31-.07-3.44-.18a32.63,32.63,0,1,0,28.85-52.92Z"/><path class="cls-63" d="M1180.76,227.18a23.19,23.19,0,0,1-7.75-45.05c1.42-.51,6-2.93,12.91-6.8q6.11,22.14,13.45,44.08c-5.77,3.7-9.58,6-10.87,6.43a23,23,0,0,1-7.74,1.34"/><path class="cls-64" d="M1199.37,219.41q-7.36-21.93-13.45-44.08c18.49-10.29,53.88-30.82,92-52.54,3,11.7,6.36,23.55,10,35.46-37,26.43-71.46,50.13-88.6,61.16"/><path class="cls-65" d="M1288,158.25c-3.67-11.91-7-23.76-10-35.46,64.34-36.64,136.48-76.66,148.37-76.66.91,0,1.46.23,1.64.72,2.46,6.94-73,63.63-140,111.4"/><path class="cls-66" d="M1202.61,196.24a23.19,23.19,0,1,1-29.6-14.11,23.17,23.17,0,0,1,29.6,14.11Z"/><path class="cls-50" d="M1202.61,196.24a23.18,23.18,0,0,0-29.6-14.11,22,22,0,0,0-2,.84,23.19,23.19,0,0,1,3.83,43.42,23.18,23.18,0,0,0,27.82-30.15Z"/><path class="cls-67" d="M1338.58,1074.1a21.32,21.32,0,0,1-7.12-41.41c10.65-3.77,213-125,232.82-125,.84,0,1.34.22,1.51.66,3.93,11.1-209,160.59-220.09,164.52a21.09,21.09,0,0,1-7.12,1.23"/><path class="cls-66" d="M1358.68,1045.66a21.31,21.31,0,1,1-27.22-13,21.32,21.32,0,0,1,27.22,13Z"/><path class="cls-50" d="M1358.68,1045.66a21.34,21.34,0,0,0-27.22-13,19.53,19.53,0,0,0-1.88.78,21.3,21.3,0,0,1,3.51,39.91,21.33,21.33,0,0,0,25.59-27.72Z"/><path class="cls-67" d="M515,858.38a156.18,156.18,0,0,0-43.08-22.52l29.61-17a397.19,397.19,0,0,0,46,16.42c-11.12,8-22.06,15.73-32.52,23.08"/><path class="cls-57" d="M428.13,912.5a24.53,24.53,0,0,1-8.19-47.66c3.4-1.2,23.8-12.82,52-29A156.18,156.18,0,0,1,515,858.38c-41,28.8-74.19,51.11-78.68,52.7a24.48,24.48,0,0,1-8.19,1.42"/><path class="cls-68" d="M547.52,835.3a397.19,397.19,0,0,1-46-16.42c15.33-8.79,31.73-18.15,48.23-27.49A355.33,355.33,0,0,0,593,802.29c-14.86,11-30.33,22.16-45.49,33"/><path class="cls-38" d="M593,802.29a355.33,355.33,0,0,1-43.25-10.9c19.7-11.15,39.55-22.26,57.85-32.23A313.61,313.61,0,0,0,644.93,763c-15.16,11.88-33.06,25.36-51.92,39.26"/><path class="cls-69" d="M644.93,763a313.61,313.61,0,0,1-37.32-3.87C647.48,737.41,680,721,687.85,721c1,0,1.55.25,1.74.77,1.27,3.59-17.19,19.77-44.66,41.27"/><path class="cls-66" d="M451.25,879.77a24.53,24.53,0,1,1-31.31-14.93,24.52,24.52,0,0,1,31.31,14.93Z"/><path class="cls-50" d="M451.25,879.77a24.53,24.53,0,0,0-31.31-14.93c-.75.27-1.47.57-2.17.89a24.53,24.53,0,0,1,4.05,45.93,24.52,24.52,0,0,0,29.43-31.89Z"/><path class="cls-67" d="M886.06,1143q-11.31-7.08-22.31-14.28a13.11,13.11,0,0,1,7.62-7c6.57-2.33,131.42-77.14,143.66-77.14.52,0,.83.14.93.41,2.17,6.14-103,80.79-129.9,98"/><path class="cls-70" d="M875.76,1147.22a13.15,13.15,0,0,1-12-18.52q11,7.2,22.31,14.28a49.27,49.27,0,0,1-5.91,3.48,13,13,0,0,1-4.39.76"/><path class="cls-66" d="M888.16,1129.67a13.16,13.16,0,1,1-16.79-8,13.16,13.16,0,0,1,16.79,8Z"/><path class="cls-50" d="M888.16,1129.67a13.16,13.16,0,0,0-16.79-8,12,12,0,0,0-1.17.48,13.15,13.15,0,0,1,2.18,24.63,13.15,13.15,0,0,0,15.78-17.11Z"/><path class="cls-71" d="M267.19,368.93q-5.28-2.87-10.69-5.71,6.58-2.55,13.09-5.05c-.84,3.56-1.65,7.17-2.4,10.76"/><path class="cls-35" d="M72,493.32a28,28,0,0,1-20.69-46.88q13.23.31,26.16.33c40.81,0,79.06-2.55,112.29-8.62-57.57,29.65-106.32,53.42-112.16,54.6a28.31,28.31,0,0,1-5.6.57"/><path class="cls-72" d="M77.42,446.77q-12.92,0-26.16-.33a27.94,27.94,0,0,1,15.15-8.6c8.27-1.67,104.15-41.36,190.09-74.62q5.42,2.85,10.69,5.71Q264,384.38,262,400.23c-24,12.86-48.87,25.88-72.26,37.92-33.23,6.07-71.48,8.62-112.29,8.62"/><path class="cls-73" d="M299.11,380.06a73.34,73.34,0,0,0,7-16,109,109,0,0,0,4.17-21.2l8.88-3.25a354.13,354.13,0,0,0-9.42,34.6q-5.2,2.9-10.59,5.86"/><path class="cls-74" d="M293,383.43q-12.41-7.24-25.79-14.5c.75-3.59,1.56-7.2,2.4-10.76,14.12-5.42,27.82-10.59,40.65-15.32a109,109,0,0,1-4.17,21.2,73.34,73.34,0,0,1-7,16L293,383.43"/><path class="cls-75" d="M262,400.23q2-15.87,5.22-31.3,13.37,7.24,25.79,14.5c-10.05,5.51-20.45,11.14-31,16.8"/><path class="cls-39" d="M309.7,374.2a354.13,354.13,0,0,1,9.42-34.6c22.66-8.23,42.07-14.81,55.48-18.47q-4.53,9.89-8.37,20.15c-14.77,9.24-34.42,20.61-56.53,32.92"/><path class="cls-76" d="M366.23,341.28q3.84-10.25,8.37-20.15c7.54-2.07,13.18-3.21,16.43-3.21,1.92,0,3,.39,3.17,1.23.59,2.9-10.14,11-28,22.13"/><path class="cls-66" d="M99.43,459.73a28,28,0,1,1-33-21.89,28,28,0,0,1,33,21.89Z"/><path class="cls-50" d="M99.43,459.73a28,28,0,0,0-33-21.89c-.89.18-1.75.41-2.6.66a28,28,0,0,1-2.76,52.59,28,28,0,0,0,38.38-31.36Z"/><path class="cls-77" d="M293,759.41a22.85,22.85,0,1,1,22.85-22.84A22.85,22.85,0,0,1,293,759.41m0-34a11.15,11.15,0,1,0,11.15,11.15A11.15,11.15,0,0,0,293,725.42"/><path class="cls-78" d="M1336.14,612.75A22.85,22.85,0,1,1,1359,589.9a22.85,22.85,0,0,1-22.86,22.85m0-34a11.15,11.15,0,1,0,11.16,11.14,11.14,11.14,0,0,0-11.16-11.14"/><path class="cls-77" d="M1506.34,341.14a18.25,18.25,0,1,1,18.24-18.25,18.26,18.26,0,0,1-18.24,18.25m0-27.14a8.9,8.9,0,1,0,8.9,8.89,8.89,8.89,0,0,0-8.9-8.89"/><path class="cls-77" d="M930.83,1030.19a22.85,22.85,0,1,1,22.85-22.85,22.85,22.85,0,0,1-22.85,22.85m0-34A11.15,11.15,0,1,0,942,1007.34a11.15,11.15,0,0,0-11.15-11.15"/><path class="cls-78" d="M1078.3,213a22.85,22.85,0,1,1,22.85-22.85A22.85,22.85,0,0,1,1078.3,213m0-34a11.15,11.15,0,1,0,11.15,11.15A11.15,11.15,0,0,0,1078.3,179"/><path class="cls-22" d="M306.34,529.88a8.28,8.28,0,1,1-8.28-8.28,8.28,8.28,0,0,1,8.28,8.28Z"/><path class="cls-22" d="M391.49,639.88a4.73,4.73,0,1,1-4.73-4.74,4.73,4.73,0,0,1,4.73,4.74Z"/><path class="cls-22" d="M176.23,844.49a5.92,5.92,0,1,1-5.91-5.91,5.92,5.92,0,0,1,5.91,5.91Z"/><path class="cls-22" d="M351.28,1129.54a4.73,4.73,0,1,1-4.73-4.73,4.73,4.73,0,0,1,4.73,4.73Z"/><path class="cls-22" d="M493.21,1079.86a2.37,2.37,0,1,1-2.36-2.36,2.37,2.37,0,0,1,2.36,2.36Z"/><path class="cls-22" d="M98.17,1120.08a9.46,9.46,0,1,1-9.46-9.47,9.47,9.47,0,0,1,9.46,9.47Z"/><path class="cls-22" d="M136,681.27a5.92,5.92,0,1,1-5.92-5.91,5.92,5.92,0,0,1,5.92,5.91Z"/><path class="cls-22" d="M117.09,287.41a2.37,2.37,0,1,1-2.36-2.36,2.37,2.37,0,0,1,2.36,2.36Z"/><path class="cls-22" d="M282.68,113.55a5.92,5.92,0,1,1-5.91-5.92,5.92,5.92,0,0,1,5.91,5.92Z"/><path class="cls-22" d="M259,191.61a3.55,3.55,0,1,1-3.55-3.55,3.55,3.55,0,0,1,3.55,3.55Z"/><path class="cls-22" d="M1064,792a8.87,8.87,0,1,1-8.87-8.87A8.87,8.87,0,0,1,1064,792Z"/><path class="cls-22" d="M916.74,359.09a8.87,8.87,0,1,1-8.87-8.87,8.87,8.87,0,0,1,8.87,8.87Z"/><path class="cls-22" d="M582,1139a5.37,5.37,0,1,1-5.37-5.37A5.37,5.37,0,0,1,582,1139Z"/><path class="cls-22" d="M1166.89,729.87a5.33,5.33,0,1,1-5.33-5.33,5.33,5.33,0,0,1,5.33,5.33Z"/><path class="cls-22" d="M1053.35,657.13a5.33,5.33,0,1,1-5.33-5.32,5.33,5.33,0,0,1,5.33,5.32Z"/><path class="cls-22" d="M1010.77,553.35a4.44,4.44,0,1,1-4.44-4.44,4.43,4.43,0,0,1,4.44,4.44Z"/><path class="cls-22" d="M742.89,775.1a2.67,2.67,0,1,1-2.66-2.66,2.67,2.67,0,0,1,2.66,2.66Z"/><path class="cls-22" d="M634.67,924.12a2.66,2.66,0,1,1-2.66-2.66,2.67,2.67,0,0,1,2.66,2.66Z"/><path class="cls-22" d="M675.47,1061.61a3.55,3.55,0,1,1-3.55-3.55,3.55,3.55,0,0,1,3.55,3.55Z"/><path class="cls-22" d="M546.06,954.49a4.36,4.36,0,1,1-4.35-4.35,4.35,4.35,0,0,1,4.35,4.35Z"/><path class="cls-22" d="M780.2,1021.91a12.59,12.59,0,1,1-12.59-12.59,12.59,12.59,0,0,1,12.59,12.59Z"/><path class="cls-22" d="M858.2,1146.77a5.32,5.32,0,1,1-5.32-5.32,5.32,5.32,0,0,1,5.32,5.32Z"/><path class="cls-22" d="M1087.05,941.86a2.66,2.66,0,1,1-2.66-2.66,2.67,2.67,0,0,1,2.66,2.66Z"/><path class="cls-46" d="M1025.85,90a17.38,17.38,0,1,1,17.38-17.38A17.38,17.38,0,0,1,1025.85,90Zm0-39.56A22.18,22.18,0,1,0,1048,72.58a22.18,22.18,0,0,0-22.17-22.18Z"/><path class="cls-46" d="M158.34,770.57a13.21,13.21,0,1,1,13.2-13.21,13.2,13.2,0,0,1-13.2,13.21Zm0-30.06a16.86,16.86,0,1,0,16.85,16.85,16.86,16.86,0,0,0-16.85-16.85Z"/><path class="cls-46" d="M1520.9,1003.86a13.21,13.21,0,1,1,13.22-13.21,13.21,13.21,0,0,1-13.22,13.21Zm0-30.06a16.86,16.86,0,1,0,16.86,16.85,16.85,16.85,0,0,0-16.86-16.85Z"/><path class="cls-46" d="M937.24,858.39a13.21,13.21,0,1,1,13.21-13.21,13.22,13.22,0,0,1-13.21,13.21Zm0-30.07a16.86,16.86,0,1,0,16.86,16.86,16.85,16.85,0,0,0-16.86-16.86Z"/><path class="cls-46" d="M1430,285.11a3.81,3.81,0,1,1,3.81-3.81,3.82,3.82,0,0,1-3.81,3.81Zm0-8.67a4.86,4.86,0,1,0,4.86,4.86,4.87,4.87,0,0,0-4.86-4.86Z"/><path class="cls-46" d="M1178,378.52a5.24,5.24,0,1,1,5.23-5.24,5.25,5.25,0,0,1-5.23,5.24Zm0-11.92a6.68,6.68,0,1,0,6.69,6.68,6.68,6.68,0,0,0-6.69-6.68Z"/><path class="cls-46" d="M872.39,57.5a5.32,5.32,0,1,1-5.32-5.32,5.32,5.32,0,0,1,5.32,5.32Z"/><path class="cls-46" d="M1294.62,66.37a5.33,5.33,0,1,1-5.33-5.32,5.32,5.32,0,0,1,5.33,5.32Z"/><path class="cls-46" d="M989.48,260.63a2.66,2.66,0,1,1-2.66-2.66,2.66,2.66,0,0,1,2.66,2.66Z"/><path class="cls-46" d="M1202.36,105.4a1.77,1.77,0,1,1-1.77-1.78,1.77,1.77,0,0,1,1.77,1.78Z"/><path class="cls-46" d="M1369.13,93a1.78,1.78,0,1,1-1.77-1.77,1.77,1.77,0,0,1,1.77,1.77Z"/><path class="cls-46" d="M1417,216.28a2.66,2.66,0,1,1-2.66-2.67,2.66,2.66,0,0,1,2.66,2.67Z"/><path class="cls-46" d="M1358.49,296.11a2.67,2.67,0,1,1-2.66-2.66,2.67,2.67,0,0,1,2.66,2.66Z"/><path class="cls-46" d="M1255.59,424.73a7.1,7.1,0,1,1-7.1-7.1,7.09,7.09,0,0,1,7.1,7.1Z"/><path class="cls-46" d="M1200.59,233.13a1.77,1.77,0,1,1-1.76-1.78,1.76,1.76,0,0,1,1.76,1.78Z"/><path class="cls-46" d="M1166.89,281a7.1,7.1,0,1,1-7.1-7.1,7.09,7.09,0,0,1,7.1,7.1Z"/><path class="cls-46" d="M971.74,189.66a4.44,4.44,0,1,1-4.43-4.43,4.44,4.44,0,0,1,4.43,4.43Z"/><path class="cls-46" d="M661.49,34.43a3.76,3.76,0,1,1-3.76-3.75,3.76,3.76,0,0,1,3.76,3.75Z"/><path class="cls-22" d="M1293.94,791.86a4.14,4.14,0,1,1-4.14-4.14,4.14,4.14,0,0,1,4.14,4.14Z"/><path class="cls-22" d="M1569.53,721.49a4.73,4.73,0,1,1-4.73-4.74,4.73,4.73,0,0,1,4.73,4.74Z"/><path class="cls-22" d="M1561.25,575.41a4.14,4.14,0,1,1-4.14-4.14,4.14,4.14,0,0,1,4.14,4.14Z"/><path class="cls-22" d="M1555.33,471.33a3,3,0,1,1-2.95-3,3,3,0,0,1,2.95,3Z"/><path class="cls-22" d="M1571.89,306.93a4.14,4.14,0,1,1-4.14-4.14,4.14,4.14,0,0,1,4.14,4.14Z"/><path class="cls-22" d="M1560.07,140.75a4.74,4.74,0,1,1-4.74-4.73,4.74,4.74,0,0,1,4.74,4.73Z"/><path class="cls-22" d="M1532.86,89.3a3,3,0,1,1-3-3,3,3,0,0,1,3,3Z"/><path class="cls-22" d="M1264.37,1104.7a10.65,10.65,0,1,1-10.64-10.64,10.64,10.64,0,0,1,10.64,10.64Z"/><path class="cls-22" d="M1288,1011.26a7.1,7.1,0,1,1-7.1-7.09,7.1,7.1,0,0,1,7.1,7.09Z"/><path class="cls-22" d="M1219.43,901.27a3.55,3.55,0,1,1-3.55-3.55,3.54,3.54,0,0,1,3.55,3.55Z"/><path class="cls-22" d="M1032.55,1129.54a2.37,2.37,0,1,1-2.36-2.37,2.36,2.36,0,0,1,2.36,2.37Z"/><path class="cls-22" d="M1013.63,909.55a2.37,2.37,0,1,1-2.37-2.37,2.37,2.37,0,0,1,2.37,2.37Z"/><path class="cls-22" d="M793.63,656a2.76,2.76,0,1,1-2.76-2.76,2.76,2.76,0,0,1,2.76,2.76Z"/><path class="cls-22" d="M565.75,679.3a2.37,2.37,0,1,1-2.36-2.37,2.36,2.36,0,0,1,2.36,2.37Z"/><path class="cls-22" d="M1458.35,832.67a5.92,5.92,0,1,1-5.92-5.92,5.92,5.92,0,0,1,5.92,5.92Z"/><path class="cls-22" d="M1548.24,1058.57a4.73,4.73,0,1,1-4.73-4.73,4.73,4.73,0,0,1,4.73,4.73Z"/><path class="cls-22" d="M1571.89,893h0Z"/><path class="cls-22" d="M1451.25,635.14a7.1,7.1,0,1,1-7.1-7.09,7.1,7.1,0,0,1,7.1,7.09Z"/><path class="cls-22" d="M1456,449.45a15.38,15.38,0,1,0,15.38-15.38A15.39,15.39,0,0,0,1456,449.45Z"/><path class="cls-22" d="M1250.18,621a7.1,7.1,0,1,1-7.1-7.1,7.1,7.1,0,0,1,7.1,7.1Z"/><path class="cls-22" d="M1560.07,205.21a6.51,6.51,0,1,1-6.51-6.51,6.5,6.5,0,0,1,6.51,6.51Z"/><path class="cls-22" d="M1614.47,73.33a5.92,5.92,0,1,1-5.91-5.91,5.92,5.92,0,0,1,5.91,5.91Z"/><path class="cls-22" d="M1409.85,53.82a5.32,5.32,0,1,1-5.32-5.33,5.31,5.31,0,0,1,5.32,5.33Z"/><path class="cls-22" d="M1250.18,38.44a7.69,7.69,0,1,1-7.69-7.69,7.69,7.69,0,0,1,7.69,7.69Z"/><path class="cls-22" d="M1551.86,799.05a7.69,7.69,0,1,1-7.69-7.68,7.69,7.69,0,0,1,7.69,7.68Z"/><path class="cls-22" d="M783,66.23a2.37,2.37,0,1,1-2.37-2.36A2.37,2.37,0,0,1,783,66.23Z"/><path class="cls-22" d="M600.84,63.28a4.14,4.14,0,1,1-4.14-4.14,4.14,4.14,0,0,1,4.14,4.14Z"/><path class="cls-22" d="M524,72.74a7.69,7.69,0,1,1-7.68-7.69A7.68,7.68,0,0,1,524,72.74Z"/><path class="cls-22" d="M192.79,30.75a3.55,3.55,0,1,1-3.55-3.55,3.55,3.55,0,0,1,3.55,3.55Z"/><path class="cls-22" d="M59.14,47.9a5.33,5.33,0,1,1-5.32-5.32,5.32,5.32,0,0,1,5.32,5.32Z"/><path class="cls-22" d="M45,150.21a4.74,4.74,0,1,1-4.74-4.73A4.74,4.74,0,0,1,45,150.21Z"/><path class="cls-22" d="M197.52,74.51A3.55,3.55,0,1,1,194,71a3.55,3.55,0,0,1,3.55,3.54Z"/><path class="cls-22" d="M201.07,275a1.78,1.78,0,1,1-1.77-1.77,1.78,1.78,0,0,1,1.77,1.77Z"/><path class="cls-22" d="M126.56,375.53a4.14,4.14,0,1,1-4.14-4.14,4.15,4.15,0,0,1,4.14,4.14Z"/><path class="cls-22" d="M58,316.39a5.33,5.33,0,1,1-5.33-5.32A5.33,5.33,0,0,1,58,316.39Z"/><path class="cls-22" d="M171.5,665.9a2.37,2.37,0,1,1-2.36-2.37,2.36,2.36,0,0,1,2.36,2.37Z"/><path class="cls-22" d="M347.73,816.11c0,2-1.06,3.55-2.36,3.55s-2.37-1.59-2.37-3.55,1.06-3.55,2.37-3.55,2.36,1.59,2.36,3.55Z"/><path class="cls-22" d="M66.23,799.55a2.37,2.37,0,1,1-2.36-2.37,2.36,2.36,0,0,1,2.36,2.37Z"/><path class="cls-22" d="M53.22,560a3,3,0,1,1-2.95-3,3,3,0,0,1,2.95,3Z"/><path class="cls-22" d="M361.93,439.4a1.78,1.78,0,1,1-1.78-1.78,1.78,1.78,0,0,1,1.78,1.78Z"/><path class="cls-22" d="M207,542.3a4.14,4.14,0,1,1-4.14-4.14A4.14,4.14,0,0,1,207,542.3Z"/><path class="cls-22" d="M215.26,1056.8a4.14,4.14,0,1,1-4.14-4.14,4.14,4.14,0,0,1,4.14,4.14Z"/><path class="cls-22" d="M101.72,958.63a5.33,5.33,0,1,1-5.32-5.32,5.32,5.32,0,0,1,5.32,5.32Z"/><path class="cls-22" d="M622.13,877.61a3.55,3.55,0,1,1-3.54-3.55,3.54,3.54,0,0,1,3.54,3.55Z"/><path class="cls-22" d="M928.47,754a1.78,1.78,0,1,1-1.77-1.77,1.78,1.78,0,0,1,1.77,1.77Z"/><path class="cls-22" d="M1575.44,898.31a3,3,0,1,1-3-3,3,3,0,0,1,3,3Z"/><path class="cls-22" d="M1513.94,1130.72a4.73,4.73,0,1,1-4.73-4.73,4.73,4.73,0,0,1,4.73,4.73Z"/><path class="cls-22" d="M1602.64,1128.36a5.91,5.91,0,1,1-5.91-5.92,5.91,5.91,0,0,1,5.91,5.92Z"/><path class="cls-22" d="M1613.29,991.16a2.37,2.37,0,1,1-2.37-2.37,2.37,2.37,0,0,1,2.37,2.37Z"/><path class="cls-22" d="M1397.54,1132a10.68,10.68,0,1,1-10.67-10.67,10.68,10.68,0,0,1,10.67,10.67Z"/><path class="cls-22" d="M1629.85,380.26a6.51,6.51,0,1,1-6.51-6.51,6.5,6.5,0,0,1,6.51,6.51Z"/><path class="cls-22" d="M1556.52,51.45a4.14,4.14,0,1,1-4.14-4.14,4.14,4.14,0,0,1,4.14,4.14Z"/><path class="cls-22" d="M1301,147.85a3.55,3.55,0,1,1-3.55-3.55,3.54,3.54,0,0,1,3.55,3.55Z"/><path class="cls-22" d="M961.59,141.93a3.55,3.55,0,1,1-3.55-3.55,3.55,3.55,0,0,1,3.55,3.55Z"/><path class="cls-22" d="M806.64,177.41a3.55,3.55,0,1,1-3.54-3.54,3.54,3.54,0,0,1,3.54,3.54Z"/><path class="cls-22" d="M881.26,204.74a3.55,3.55,0,1,1-3.55-3.54,3.55,3.55,0,0,1,3.55,3.54Z"/><path class="cls-22" d="M1071.58,304a1.18,1.18,0,1,1-1.18-1.18,1.18,1.18,0,0,1,1.18,1.18Z"/><path class="cls-22" d="M1166.2,453.59a4.14,4.14,0,1,1-4.13-4.14,4.13,4.13,0,0,1,4.13,4.14Z"/><path class="cls-22" d="M921.37,560.63a4.73,4.73,0,1,1-4.73-4.73,4.73,4.73,0,0,1,4.73,4.73Z"/><path class="cls-22" d="M475.47,589.61a3,3,0,1,1-3-3,3,3,0,0,1,3,3Z"/></g></g></g></svg>