<?xml version="1.0" encoding="utf-8"?>
<!-- Generator: Adobe Illustrator 19.0.0, SVG Export Plug-In . SVG Version: 6.00 Build 0)  -->
<svg version="1.1" id="圖層_1" xmlns="http://www.w3.org/2000/svg" xmlns:xlink="http://www.w3.org/1999/xlink" x="0px" y="0px"
	 viewBox="513 -214.7 1637.4 1221.7" style="enable-background:new 513 -214.7 1637.4 1221.7;" xml:space="preserve">
<style type="text/css">
	.st0{filter:url(#Adobe_OpacityMaskFilter);}
	.st1{fill:url(#SVGID_1_);}
	.st2{mask:url(#Layer_2_1_);}
	.st3{display:none;fill:#3D404E;}
	.st4{fill:#C6D6DE;}
	.st5{fill:#013754;}
	.st6{fill:#01283D;}
	.st7{fill:#5F5C78;}
	.st8{fill:#767395;}
	.st9{fill:#6D6A8A;}
	.st10{fill:#B8D0DC;}
	.st11{fill:#D4EFFC;}
	.st12{fill:#F5917C;}
	.st13{fill:#85CEA8;}
	.st14{fill:#BDBCCC;}
	.st15{fill:#EFEEF2;}
	.st16{fill:#C7C8CA;}
	.st17{fill:#D1D3D4;}
	.st18{fill:#E6E7E8;}
	.st19{fill:#F26649;}
	.st20{fill:#F58466;}
	.st21{fill:#5F5654;}
	.st22{fill:#DCDDDE;}
	.st23{fill:#FDB913;}
	.st24{fill:#2FB56A;}
	.st25{fill:#258F54;}
	.st26{fill:#94CC79;}
	.st27{fill:#FFF33E;}
	.st28{fill:#E6A300;}
	.st29{fill:#D69D10;}
	.st30{fill:#F8D399;}
	.st31{fill:#F5C349;}
	.st32{fill:#64625E;}
	.st33{fill:#F7A58F;}
	.st34{fill:#B33E26;}
	.st35{fill:#5D5753;}
	.st36{fill:#E85E41;}
	.st37{fill:#4B485E;}
	.st38{fill:#696685;}
	.st39{fill:#5D5A75;}
	.st40{fill:#E85233;}
	.st41{fill:#FEE9B6;}
	.st42{fill:#FED779;}
	.st43{fill:url(#SVGID_2_);}
</style>
<title>Asset 20</title>
<defs>
	<filter id="Adobe_OpacityMaskFilter" filterUnits="userSpaceOnUse" x="513" y="-214.7" width="1637.3" height="1221.6">
		<feColorMatrix  type="matrix" values="1 0 0 0 0  0 1 0 0 0  0 0 1 0 0  0 0 0 1 0"/>
	</filter>
</defs>
<mask maskUnits="userSpaceOnUse" x="513" y="-214.7" width="1637.3" height="1221.6" id="Layer_2_1_">
	<g class="st0">
		<linearGradient id="SVGID_1_" gradientUnits="userSpaceOnUse" x1="597.35" y1="325.535" x2="1593.48" y2="325.535">
			<stop  offset="0.31" style="stop-color:#FFFFFF"/>
			<stop  offset="0.39" style="stop-color:#E7E7E7"/>
			<stop  offset="0.57" style="stop-color:#A9A9A9"/>
			<stop  offset="0.82" style="stop-color:#474747"/>
			<stop  offset="1" style="stop-color:#000000"/>
		</linearGradient>
		<rect x="513" y="-214.7" class="st1" width="1098.5" height="1080.5"/>
	</g>
</mask>
<g id="Layer_2" class="st2">
	<g id="Layer_3">
		<polygon class="st3" points="1611.5,311.9 1611.5,-214.2 946.9,-214.7 513,865.8 1388.9,865.8 		"/>
		<g>
			<polygon class="st4" points="1070.4,65.5 1070.4,360.1 1075.4,360.1 1075.4,365.1 1080.4,365.1 1080.4,370.1 1381.1,370.1 
				1381.1,65.5 			"/>
			<path class="st4" d="M744.6,379.1v124.1c84.6,29.8,169.2-29.8,253.8,0V379.1C913.8,349.3,829.2,408.8,744.6,379.1z"/>
			
				<ellipse transform="matrix(-1 -3.490598e-003 3.490598e-003 -1 3384 1105.2371)" class="st5" cx="1693" cy="549.7" rx="457.4" ry="457.3"/>
			<path class="st6" d="M1623.6,180.5V97.7c-72.5,11.1-141.2,39.4-200.3,82.8H1623.6z"/>
			<path class="st6" d="M1833.9,526.4v122.4c83.5,29.4,167-29.4,250.5,0V526.4C2000.9,497,1917.4,555.8,1833.9,526.4z"/>
			<path class="st6" d="M1802.2,223.8h-12.8c-3.1,0.1-5.6,2.7-5.5,5.8v19.1l0,0v201.6l7.2,16.3l0,0l4.7,10.5l11.9-26.7V229.6
				C1807.8,226.5,1805.3,223.9,1802.2,223.8z"/>
			<path class="st6" d="M1869,235.1c-1.1-1.6-2.3-3.5-3-4.9v-4.7h-2.3V217c0.1-2.6-2-4.8-4.6-4.9c0,0,0,0,0,0h-10.8
				c-2.6,0.1-4.7,2.3-4.6,4.9v8.6h-2.3v13.9h1.1v212.4l11.3,28.4l11.3-28.4V239.5h0.2c4,6.1,8.8,14.2,8.8,24.2
				c0,9.2-2.1,16.6-4.1,23.7c-1.8,6.2-3.4,12-3.4,18.3c0.1,1.6,1.4,2.7,3,2.6c1.4-0.1,2.6-1.2,2.6-2.6c0-5.5,1.5-10.7,3.2-16.8
				c2-7.1,4.3-15.2,4.3-25.2C1879.6,251.3,1873.3,241.6,1869,235.1z"/>
			<path class="st6" d="M1760.6,514.2V481c-5.4,0-10.8-0.8-15.9-2.4c0-0.8-0.1-1.5-0.1-2.3V226.6h-37.1v-7.1H1592v-13.5
				c0-7.8-3.6-16.8-13.5-16.8s-13.5,8.6-13.5,16v14.2h-132.8v474h365.5V529.3C1783.8,529.3,1770.5,523.9,1760.6,514.2z M1584,219.4
				h-8.7v-3.8c0-1.9,1.1-4.7,4-4.7c2.6,0,4.7,2,4.7,4.6c0,0,0,0.1,0,0.1L1584,219.4z M1568,205.2c0-3,0.8-13,10.4-13
				c7.7,0,10.4,7.4,10.4,13.7v13.5h-1.8v-3.8c0-4.3-3.4-7.8-7.7-7.8c-0.1,0-0.1,0-0.2,0c-4.6,0-7,4-7,7.8v3.8h-4.3V205.2z"/>
			<rect x="1408.5" y="-68.3" class="st7" width="202.6" height="237.5"/>
			<rect x="1408.5" y="-68.3" class="st8" width="192.5" height="224.8"/>
			<rect x="1408.5" y="-68.3" class="st9" width="192.5" height="78.2"/>
			<rect x="1425.4" y="-45.3" class="st10" width="162" height="37.7"/>
			<polygon class="st11" points="1509.4,-7.6 1547.4,-45.3 1498.8,-45.3 1460.7,-7.6 			"/>
			<polygon class="st11" points="1531.2,-7.6 1569.3,-45.3 1558.1,-45.3 1520,-7.6 			"/>
			<path class="st12" d="M1429.4,21.5h16.1c2.2,0,3.9,1.8,3.9,3.9V33c0,2.2-1.8,3.9-3.9,3.9h-16.1c-2.2,0-3.9-1.8-3.9-3.9v-7.6
				C1425.4,23.3,1427.2,21.5,1429.4,21.5z"/>
			<path class="st13" d="M1463.9,21.5h16.1c2.2,0,3.9,1.8,3.9,3.9V33c0,2.2-1.8,3.9-3.9,3.9h-16.1c-2.2,0-3.9-1.8-3.9-3.9v-7.6
				C1459.9,23.3,1461.7,21.5,1463.9,21.5z"/>
			<path class="st14" d="M1498.4,21.5h16.1c2.2,0,3.9,1.8,3.9,3.9V33c0,2.2-1.8,3.9-3.9,3.9h-16.1c-2.2,0-3.9-1.8-3.9-3.9v-7.6
				C1494.5,23.3,1496.2,21.5,1498.4,21.5z"/>
			<path class="st14" d="M1532.9,21.5h16.1c2.2,0,3.9,1.8,3.9,3.9V33c0,2.2-1.8,3.9-3.9,3.9h-16.1c-2.2,0-3.9-1.8-3.9-3.9v-7.6
				C1529,23.3,1530.7,21.5,1532.9,21.5z"/>
			<path class="st14" d="M1567.4,21.5h16.1c2.2,0,3.9,1.8,3.9,3.9V33c0,2.2-1.8,3.9-3.9,3.9h-16.1c-2.2,0-3.9-1.8-3.9-3.9v-7.6
				C1563.5,23.3,1565.2,21.5,1567.4,21.5z"/>
			<path class="st15" d="M1429.4,46.3h16.1c2.2,0,3.9,1.8,3.9,3.9v7.6c0,2.2-1.8,3.9-3.9,3.9h-16.1c-2.2,0-3.9-1.8-3.9-3.9v-7.6
				C1425.4,48,1427.2,46.3,1429.4,46.3z"/>
			<path class="st15" d="M1463.9,46.3h16.1c2.2,0,3.9,1.8,3.9,3.9v7.6c0,2.2-1.8,3.9-3.9,3.9h-16.1c-2.2,0-3.9-1.8-3.9-3.9v-7.6
				C1459.9,48,1461.7,46.3,1463.9,46.3z"/>
			<path class="st15" d="M1498.4,46.3h16.1c2.2,0,3.9,1.8,3.9,3.9v7.6c0,2.2-1.8,3.9-3.9,3.9h-16.1c-2.2,0-3.9-1.8-3.9-3.9v-7.6
				C1494.5,48,1496.2,46.3,1498.4,46.3z"/>
			<path class="st14" d="M1532.9,46.3h16.1c2.2,0,3.9,1.8,3.9,3.9v7.6c0,2.2-1.8,3.9-3.9,3.9h-16.1c-2.2,0-3.9-1.8-3.9-3.9v-7.6
				C1529,48,1530.7,46.3,1532.9,46.3z"/>
			<path class="st14" d="M1567.4,46.3h16.1c2.2,0,3.9,1.8,3.9,3.9v7.6c0,2.2-1.8,3.9-3.9,3.9h-16.1c-2.2,0-3.9-1.8-3.9-3.9v-7.6
				C1563.5,48,1565.2,46.3,1567.4,46.3z"/>
			<path class="st15" d="M1429.4,71h16.1c2.2,0,3.9,1.8,3.9,3.9v7.6c0,2.2-1.8,3.9-3.9,3.9h-16.1c-2.2,0-3.9-1.8-3.9-3.9V75
				C1425.4,72.8,1427.2,71,1429.4,71z"/>
			<path class="st15" d="M1463.9,71h16.1c2.2,0,3.9,1.8,3.9,3.9v7.6c0,2.2-1.8,3.9-3.9,3.9h-16.1c-2.2,0-3.9-1.8-3.9-3.9V75
				C1459.9,72.8,1461.7,71,1463.9,71z"/>
			<path class="st15" d="M1498.4,71h16.1c2.2,0,3.9,1.8,3.9,3.9v7.6c0,2.2-1.8,3.9-3.9,3.9h-16.1c-2.2,0-3.9-1.8-3.9-3.9V75
				C1494.5,72.8,1496.2,71,1498.4,71z"/>
			<path class="st14" d="M1532.9,71h16.1c2.2,0,3.9,1.8,3.9,3.9v7.6c0,2.2-1.8,3.9-3.9,3.9h-16.1c-2.2,0-3.9-1.8-3.9-3.9V75
				C1529,72.8,1530.7,71,1532.9,71z"/>
			<path class="st15" d="M1429.4,95.8h16.1c2.2,0,3.9,1.8,3.9,3.9v7.6c0,2.2-1.8,3.9-3.9,3.9h-16.1c-2.2,0-3.9-1.8-3.9-3.9v-7.6
				C1425.4,97.5,1427.2,95.8,1429.4,95.8z"/>
			<path class="st15" d="M1463.9,95.8h16.1c2.2,0,3.9,1.8,3.9,3.9v7.6c0,2.2-1.8,3.9-3.9,3.9h-16.1c-2.2,0-3.9-1.8-3.9-3.9v-7.6
				C1459.9,97.5,1461.7,95.8,1463.9,95.8z"/>
			<path class="st15" d="M1498.4,95.8h16.1c2.2,0,3.9,1.8,3.9,3.9v7.6c0,2.2-1.8,3.9-3.9,3.9h-16.1c-2.2,0-3.9-1.8-3.9-3.9v-7.6
				C1494.5,97.5,1496.2,95.8,1498.4,95.8z"/>
			<path class="st14" d="M1532.9,95.8h16.1c2.2,0,3.9,1.8,3.9,3.9v7.6c0,2.2-1.8,3.9-3.9,3.9h-16.1c-2.2,0-3.9-1.8-3.9-3.9v-7.6
				C1529,97.5,1530.7,95.8,1532.9,95.8z"/>
			<path class="st15" d="M1429.4,120.5h16.1c2.2,0,3.9,1.8,3.9,3.9l0,0v7.6c0,2.2-1.8,3.9-3.9,3.9l0,0h-16.1c-2.2,0-3.9-1.8-3.9-3.9
				l0,0v-7.5C1425.4,122.3,1427.2,120.5,1429.4,120.5z"/>
			<path class="st15" d="M1463.9,120.5h16.1c2.2,0,3.9,1.8,3.9,3.9l0,0v7.6c0,2.2-1.8,3.9-3.9,3.9l0,0h-16.1c-2.2,0-3.9-1.8-3.9-3.9
				l0,0v-7.6C1460,122.3,1461.7,120.5,1463.9,120.5z"/>
			<path class="st15" d="M1518.4,132c0,2.2-1.8,4-4,4h-16c-2.2,0-3.9-1.8-3.9-3.9c0,0,0,0,0-0.1v-7.6c0-2.2,1.8-3.9,3.9-3.9l0,0
				h16.1c2.2,0,4,1.8,4,3.9L1518.4,132z"/>
			<path class="st14" d="M1532.9,120.5h16.1c2.2,0,3.9,1.8,3.9,3.9v7.6c0,2.2-1.8,3.9-3.9,3.9h-16.1c-2.2,0-3.9-1.8-3.9-3.9l0,0
				v-7.6C1529,122.3,1530.7,120.5,1532.9,120.5z"/>
			<path class="st14" d="M1567.4,120.5h16.1c2.2,0,3.9,1.8,3.9,3.9v7.6c0,2.2-1.8,3.9-3.9,3.9h-16.1c-2.2,0-3.9-1.8-3.9-3.9v-7.6
				C1563.5,122.3,1565.3,120.5,1567.4,120.5z"/>
			<path class="st14" d="M1583.5,71h-16.1c-2.2,0-4,1.8-4,3.9v32.3c0,2.2,1.8,3.9,4,3.9h16.1c2.2,0,3.9-1.8,3.9-3.9V75
				C1587.5,72.8,1585.7,71,1583.5,71z"/>
			<polygon class="st16" points="1365.3,356.2 1064.6,356.2 1064.6,-25.8 1108.5,-70.5 1365.3,-70.5 			"/>
			<polygon class="st17" points="1360.3,351.2 1059.6,351.2 1059.6,-30.8 1103.5,-75.5 1360.3,-75.5 			"/>
			<polygon class="st18" points="1355.3,346.2 1054.6,346.2 1054.6,-35.8 1098.5,-80.5 1355.3,-80.5 			"/>
			<rect x="1160.9" y="-86.2" class="st19" width="88" height="35.8"/>
			<rect x="1160.9" y="-96" class="st20" width="88" height="9.8"/>
			<path class="st21" d="M1234.6-48.1c-1,0-1.8-0.6-2.1-1.5l-18-48.6c-0.1-0.4-0.2-0.8-0.1-1.1c0-0.2,2.2-14.5,2.5-19.3
				c0.2-2.9-0.9-5.7-2.9-7.8c-4.6-4.9-12.4-5.2-17.4-0.5c-0.2,0.2-0.4,0.4-0.5,0.5c-2,2.1-3.1,4.9-2.9,7.8
				c0.3,4.8,2.4,19.1,2.5,19.3c0.1,0.4,0,0.8-0.1,1.1l-18,48.6c-0.5,1.2-1.9,1.7-3,1.2c-1.1-0.5-1.6-1.6-1.3-2.8l17.8-48
				c-0.4-2.8-2.1-14.7-2.4-19.1c-0.2-4.2,1.3-8.2,4.1-11.3c6.4-6.8,17-7.1,23.8-0.7c0.3,0.2,0.5,0.5,0.7,0.7c2.9,3,4.4,7.1,4.2,11.3
				c-0.3,4.4-2,16.3-2.4,19.1l17.8,48c0.4,1.2-0.2,2.5-1.4,2.9C1235-48.2,1234.8-48.1,1234.6-48.1z"/>
			<polygon class="st22" points="1098.5,-80.5 1098.5,-35.8 1054.9,-35.8 			"/>
			<path class="st19" d="M1135.2-12v48.6h48.6C1183.8,9.7,1162-12,1135.2-12z"/>
			<path class="st20" d="M1135.2,81V36.6h44.5C1179.7,61.1,1159.8,81,1135.2,81z"/>
			<path class="st23" d="M1135.2,89.5V36.6h-53C1082.2,65.8,1106,89.5,1135.2,89.5z"/>
			<path class="st13" d="M1135.2,7.5v29.1h-29.1C1106.1,20.5,1119.1,7.5,1135.2,7.5z"/>
			<path class="st23" d="M1205.5,216H1090c-0.9,0-1.6-0.7-1.6-1.6v-79.9c0-0.9,0.7-1.6,1.6-1.6c0.9,0,1.6,0.7,1.6,1.6v78.3h114
				c0.9,0.1,1.6,0.9,1.5,1.7C1207,215.3,1206.4,215.9,1205.5,216L1205.5,216z"/>
			<path class="st19" d="M1198.8,205.5h-0.1c-0.5-0.1-0.9-0.5-0.9-1l-2-52.3l-17.8,27.3c-0.3,0.5-1,0.6-1.5,0.3c0,0,0,0,0,0
				l-15.9-10.8l-26.5,25.7c-0.3,0.3-0.8,0.4-1.2,0.2l-11.8-5.6l-21.8,16c-0.5,0.4-1.2,0.3-1.5-0.2c-0.4-0.5-0.3-1.2,0.2-1.5l0,0
				l22.3-16.4c0.3-0.2,0.7-0.3,1.1-0.1l11.7,5.6l26.6-25.8c0.4-0.3,0.9-0.4,1.3-0.1l15.8,10.7l19-29.2c0.3-0.4,0.7-0.6,1.2-0.5
				c0.5,0.1,0.8,0.5,0.8,1l1.9,49.2l13.2-43.8c0.2-0.6,0.8-0.8,1.4-0.6c0.5,0.2,0.8,0.7,0.7,1.2l-15.1,50
				C1199.7,205.2,1199.3,205.5,1198.8,205.5z"/>
			<rect x="1214.9" y="12.8" class="st19" width="109.4" height="6.5"/>
			<rect x="1214.9" y="30" class="st23" width="109.4" height="6.5"/>
			<rect x="1214.9" y="47.2" class="st20" width="109.4" height="6.5"/>
			<rect x="1214.9" y="64.4" class="st13" width="63.2" height="6.5"/>
			<rect x="1088.3" y="231.1" class="st16" width="222.9" height="7"/>
			<rect x="1088.3" y="251.3" class="st16" width="222.9" height="7"/>
			<rect x="1088.3" y="271.4" class="st16" width="222.9" height="7"/>
			<rect x="1088.3" y="291.6" class="st16" width="222.9" height="7"/>
			<path class="st6" d="M1381.1,370.1V215.4c-46.6,43.4-83.6,96.1-108.7,154.7H1381.1z"/>
			<path class="st24" d="M993,489.4c-84.6-29.8-169.2,29.8-253.8,0V365.3c84.6,29.8,169.2-29.8,253.8,0V489.4z"/>
			<path class="st25" d="M987.7,482.2c-81-25-162,28.5-243,3.6v-17.9c81,24.9,162-28.5,243-3.6V482.2z"/>
			<path class="st26" d="M819.5,416.2c0-18.1,10.4-34.5,26.8-42.2c-33.9,5.5-67.7,8.8-101.6-1.6v91.2c39,12,77.9,5.9,116.9-1
				C837.7,460.2,819.5,440.2,819.5,416.2z"/>
			<path class="st26" d="M870.8,369.8c25.6,2.5,44.4,25.4,41.8,51c-1.6,16.3-11.7,30.6-26.5,37.6c33.9-5.5,67.7-8.8,101.6,1.6v-91.2
				C948.7,356.8,909.7,363,870.8,369.8z"/>
			
				<ellipse transform="matrix(-2.094389e-003 -1 1 -2.094389e-003 451.806 1283.2416)" class="st27" cx="866.2" cy="416.2" rx="40.1" ry="40.1"/>
			<path class="st24" d="M882.5,419.2c-1.2-1.7-2.9-3.1-4.8-3.9c-3.6-1.4-7.2-2.5-10.9-3.4c-3.6-1-5.8-1.6-6.5-1.9
				c-1.1-0.4-2.1-1.1-2.8-2c-0.6-0.7-0.9-1.6-0.9-2.6c0-1.6,0.9-3.1,2.2-3.9c1.5-1,3.2-1.5,5-1.6v9.3l5.1,1.3v-10.4
				c1.4,0.2,2.7,0.8,3.8,1.6c1.6,1.3,2.6,3.2,2.8,5.3l7.2-1c-0.3-2.4-1.2-4.7-2.5-6.7c-1.5-1.9-3.5-3.3-5.7-4
				c-1.8-0.7-3.7-1.1-5.6-1.3v-7.3h-5.1v7.2c-1.6,0.1-3.1,0.4-4.6,0.8c-1.7,0.4-3.3,1.2-4.7,2.2c-1.5,1.1-2.8,2.5-3.6,4.1
				c-0.9,1.7-1.3,3.5-1.3,5.4c-0.1,4.3,2.4,8.3,6.4,10c3.6,1.5,7.4,2.7,11.3,3.5c4,1,6.5,1.8,7.5,2.5c1.4,0.8,2.2,2.3,2.2,3.9
				c0,1.9-0.9,3.7-2.5,4.8c-1.6,1.2-3.5,1.9-5.5,2v-10.5l-5.1-1.4V433c-4.5-0.6-7.9-4.3-8.2-8.8l-7.3,1.1c0.8,4.6,2.7,8.1,5.7,10.5
				c2.4,1.9,5.7,3,9.8,3.4v6.7h5.1v-6.6c2.5-0.2,4.9-0.7,7.2-1.7c2.5-1,4.7-2.8,6.2-5c1.4-2,2.2-4.5,2.2-6.9
				C884.3,423.3,883.7,421.1,882.5,419.2z"/>
			<path class="st24" d="M2075.1,637.6c-83.5-29.4-167,29.4-250.5,0V515.2c83.5,29.4,167-29.4,250.5,0V637.6z"/>
			<path class="st25" d="M2069.8,630.6c-79.9-24.6-159.8,28.1-239.8,3.5v-17.7c79.9,24.6,159.9-28.1,239.8-3.5L2069.8,630.6z"/>
			<path class="st26" d="M1903.9,565.4c0-17.8,10.3-34,26.4-41.6c-33.4,5.5-66.8,8.7-100.2-1.6v90c38.4,11.8,76.9,5.8,115.3-1
				C1921.8,608.8,1903.9,589,1903.9,565.4z"/>
			<path class="st26" d="M1954.5,519.6c25.3,2.4,43.8,24.9,41.4,50.2c-1.6,16.2-11.6,30.4-26.3,37.3c33.4-5.4,66.8-8.7,100.2,1.6
				v-90C2031.4,506.8,1992.9,512.9,1954.5,519.6z"/>
			<path class="st27" d="M1989.5,565.4c0,21.9-17.7,39.6-39.6,39.6c-21.9,0-39.6-17.7-39.6-39.6c0-21.9,17.7-39.6,39.6-39.6
				c0,0,0,0,0,0C1971.8,525.8,1989.5,543.5,1989.5,565.4C1989.5,565.4,1989.5,565.4,1989.5,565.4z"/>
			<path class="st24" d="M1966,568.3c-1.2-1.7-2.9-3-4.8-3.8c-3.5-1.3-7.1-2.5-10.8-3.4c-3.6-1-5.7-1.6-6.4-1.8
				c-1.1-0.4-2.1-1.1-2.8-2c-0.6-0.7-0.9-1.6-0.9-2.5c0-1.6,0.8-3,2.1-3.9c1.5-1,3.2-1.5,4.9-1.5v9.2l5.1,1.3v-10.3
				c1.4,0.2,2.7,0.8,3.8,1.6c1.6,1.3,2.6,3.2,2.8,5.2l7.1-1c-0.3-2.4-1.2-4.7-2.5-6.7c-1.5-1.8-3.4-3.2-5.6-3.9
				c-1.8-0.7-3.6-1.1-5.5-1.3v-7.2h-5.1v7.1c-1.5,0.1-3.1,0.4-4.6,0.8c-1.7,0.4-3.2,1.2-4.6,2.1c-1.5,1.1-2.7,2.5-3.6,4.1
				c-0.9,1.6-1.3,3.5-1.3,5.3c-0.1,4.3,2.4,8.1,6.3,9.8c3.6,1.5,7.3,2.7,11.1,3.5c4,1,6.4,1.8,7.4,2.5c1.4,0.8,2.2,2.3,2.2,3.9
				c0,1.9-0.9,3.7-2.4,4.8c-1.6,1.2-3.4,1.9-5.4,1.9v-10.3l-5.1-1.3v11.6c-4.4-0.6-7.8-4.2-8.1-8.7l-7.2,1.1c0.8,4.6,2.7,8,5.6,10.3
				c2.4,1.9,5.6,3,9.7,3.3v6.6h5.1v-6.5c2.4-0.2,4.8-0.7,7.1-1.7c2.5-1,4.6-2.8,6.1-5c1.4-2,2.1-4.4,2.1-6.8
				C1967.8,572.3,1967.2,570.1,1966,568.3z"/>
			<path class="st28" d="M1168.6,747.2c0,20.6-16.7,37.3-37.3,37.3c-20.6,0-37.3-16.7-37.3-37.3s16.7-37.3,37.3-37.3c0,0,0,0,0,0
				C1151.9,709.9,1168.6,726.6,1168.6,747.2z"/>
			<path class="st23" d="M1164.4,747.2c0,18.3-14.8,33.1-33.1,33.1c-18.3,0-33.1-14.8-33.1-33.1c0-18.3,14.8-33.1,33.1-33.1
				c0,0,0,0,0,0C1149.6,714.1,1164.4,728.9,1164.4,747.2L1164.4,747.2z"/>
			<path class="st29" d="M1144.8,749.6c-1-1.4-2.4-2.5-4-3.2c-2.9-1.1-5.9-2.1-9-2.8c-3-0.8-4.8-1.3-5.4-1.5
				c-0.9-0.3-1.7-0.9-2.3-1.6c-0.5-0.6-0.7-1.4-0.7-2.1c0-1.3,0.7-2.5,1.8-3.3c1.2-0.8,2.6-1.3,4.1-1.3v7.7l4.2,1.1v-8.7
				c1.1,0.2,2.2,0.6,3.1,1.3c1.3,1.1,2.2,2.6,2.4,4.3l6-0.8c-0.3-2-1-3.9-2.1-5.6c-1.2-1.5-2.9-2.7-4.7-3.3c-1.5-0.5-3-0.9-4.6-1.1
				v-6h-4.2v5.9c-1.3,0.1-2.6,0.3-3.8,0.7c-1.4,0.4-2.7,1-3.9,1.8c-1.2,0.9-2.3,2-3,3.4c-0.7,1.4-1.1,2.9-1.1,4.5
				c-0.1,3.5,2,6.8,5.3,8.2c3,1.2,6.1,2.2,9.3,2.9c2.2,0.4,4.2,1.1,6.2,2.1c1.1,0.7,1.8,1.9,1.8,3.2c0,1.6-0.8,3-2,4
				c-1.3,1-2.9,1.5-4.5,1.6v-8.7l-4.3-1.2v9.7c-1.5-0.2-2.8-0.8-4-1.7c-1.6-1.4-2.6-3.4-2.8-5.5l-6,0.9c0.7,3.8,2.2,6.7,4.7,8.6
				c2.4,1.7,5.2,2.7,8.1,2.8v5.5h4.2v-5.5c2-0.1,4-0.6,5.9-1.4c2.1-0.9,3.9-2.3,5.1-4.2c1.1-1.7,1.8-3.7,1.8-5.7
				C1146.3,753,1145.8,751.2,1144.8,749.6z"/>
			<path class="st28" d="M1306.9,749.1c0,20.6-16.7,37.3-37.3,37.3c-20.6,0-37.3-16.7-37.3-37.3s16.7-37.3,37.3-37.3c0,0,0,0,0,0
				C1290.2,711.9,1306.9,728.6,1306.9,749.1C1306.9,749.1,1306.9,749.1,1306.9,749.1z"/>
			<path class="st23" d="M1302.8,749.1c0,18.3-14.8,33.1-33.1,33.1c-18.3,0-33.1-14.8-33.1-33.1c0-18.3,14.8-33.1,33.1-33.1
				c0,0,0,0,0,0C1287.9,716.1,1302.8,730.9,1302.8,749.1z"/>
			<path class="st29" d="M1283.1,751.6c-1-1.4-2.4-2.5-4-3.2c-2.9-1.1-5.9-2.1-9-2.8c-3-0.8-4.8-1.3-5.4-1.5
				c-0.9-0.3-1.7-0.9-2.3-1.6c-0.5-0.6-0.8-1.4-0.8-2.1c0-1.3,0.7-2.5,1.8-3.2c1.2-0.8,2.6-1.3,4.1-1.3v7.7l4.2,1.1v-8.7
				c1.1,0.2,2.2,0.6,3.2,1.3c1.3,1.1,2.2,2.6,2.3,4.3l6-0.8c-0.3-2-1-3.9-2.1-5.6c-1.2-1.5-2.9-2.7-4.7-3.3c-1.5-0.5-3.1-0.9-4.6-1
				v-6h-4.2v5.9c-1.3,0.1-2.6,0.3-3.8,0.7c-1.4,0.4-2.7,1-3.9,1.8c-1.3,0.9-2.3,2-3,3.4c-0.7,1.4-1.1,2.9-1.1,4.4
				c0,3.5,2,6.7,5.2,8.2c3,1.2,6.1,2.2,9.3,2.9c2.1,0.4,4.2,1.1,6.2,2.1c1.1,0.7,1.8,1.9,1.8,3.3c0,1.6-0.8,3-2,4
				c-1.3,1-2.9,1.5-4.5,1.6v-8.7l-4.2-1.1v9.7c-3.7-0.5-6.6-3.5-6.8-7.3l-6,1c0.4,3.4,2.1,6.4,4.7,8.6c2.4,1.7,5.2,2.7,8.1,2.8v5.5
				h4.2v-5.5c2-0.1,4-0.6,5.9-1.4c2.1-0.9,3.9-2.3,5.1-4.2c1.1-1.7,1.8-3.7,1.8-5.7C1284.7,755,1284.2,753.1,1283.1,751.6z"/>
			<path class="st28" d="M2026.8,258c0,20.6-16.7,37.3-37.3,37.3c-20.6,0-37.3-16.7-37.3-37.3c0-20.6,16.7-37.3,37.3-37.3
				c0,0,0,0,0,0C2010.1,220.8,2026.8,237.4,2026.8,258z"/>
			<path class="st23" d="M2022.6,258c0,18.3-14.8,33.1-33.1,33.1s-33.1-14.8-33.1-33.1c0-18.3,14.8-33.1,33.1-33.1c0,0,0,0,0,0
				C2007.8,224.9,2022.6,239.7,2022.6,258C2022.6,258,2022.6,258,2022.6,258z"/>
			<path class="st29" d="M2003,260.5c-1-1.4-2.4-2.5-4-3.2c-2.9-1.1-5.9-2.1-9-2.8c-3-0.8-4.8-1.3-5.4-1.5c-0.9-0.3-1.7-0.9-2.3-1.6
				c-0.5-0.6-0.7-1.4-0.7-2.1c0-1.3,0.7-2.5,1.8-3.2c1.2-0.8,2.6-1.3,4.1-1.3v7.7l4.2,1.1v-8.7c1.1,0.2,2.2,0.6,3.1,1.4
				c1.3,1.1,2.2,2.6,2.3,4.3l6-0.8c-0.3-2-1-3.9-2.1-5.6c-1.2-1.5-2.9-2.7-4.7-3.3c-1.5-0.5-3.1-0.9-4.6-1v-6h-4.2v5.9
				c-1.3,0.1-2.6,0.3-3.8,0.7c-1.4,0.4-2.7,1-3.9,1.8c-1.3,0.9-2.3,2-3,3.4c-0.7,1.4-1.1,2.9-1.1,4.4c0,3.6,2,6.8,5.3,8.2
				c3,1.2,6.1,2.2,9.3,2.9c2.1,0.4,4.2,1.1,6.2,2.1c1.1,0.7,1.8,1.9,1.8,3.3c0,1.6-0.8,3-2,4c-1.3,1-2.9,1.5-4.5,1.6v-8.7l-4.2-1.1
				v9.7c-3.7-0.5-6.6-3.5-6.8-7.3l-6,1c0.4,3.4,2.1,6.4,4.7,8.6c2.4,1.7,5.2,2.7,8.1,2.8v5.5h4.2V277c2-0.1,4-0.6,5.9-1.4
				c2.1-0.9,3.9-2.3,5.1-4.2c1.2-1.7,1.8-3.7,1.8-5.7C2004.6,263.8,2004.1,262,2003,260.5z"/>
			<path class="st28" d="M2026.8,376.1c0,20.6-16.7,37.3-37.3,37.3c-20.6,0-37.3-16.7-37.3-37.3c0-20.6,16.7-37.3,37.3-37.3
				c0,0,0,0,0,0C2010.1,338.9,2026.8,355.5,2026.8,376.1z"/>
			<path class="st23" d="M2022.6,376.1c0,18.3-14.8,33.1-33.1,33.1c-18.3,0-33.1-14.8-33.1-33.1c0-18.3,14.8-33.1,33.1-33.1
				c0,0,0,0,0,0C2007.8,343,2022.6,357.8,2022.6,376.1C2022.6,376.1,2022.6,376.1,2022.6,376.1z"/>
			<path class="st29" d="M2003,378.6c-1-1.4-2.4-2.5-4-3.2c-2.9-1.1-5.9-2.1-9-2.8c-3-0.8-4.8-1.3-5.4-1.5c-0.9-0.3-1.7-0.9-2.3-1.6
				c-0.5-0.6-0.7-1.4-0.7-2.1c0-1.3,0.7-2.5,1.8-3.2c1.2-0.8,2.6-1.3,4.1-1.3v7.7l4.2,1.1v-8.6c1.1,0.2,2.2,0.6,3.1,1.3
				c1.3,1.1,2.2,2.6,2.3,4.3l6-0.8c-0.3-2-1-3.9-2.1-5.6c-1.2-1.5-2.9-2.7-4.7-3.3c-1.5-0.5-3.1-0.9-4.6-1v-6h-4.2v5.9
				c-1.3,0.1-2.6,0.3-3.8,0.7c-1.4,0.4-2.7,1-3.9,1.8c-1.3,0.9-2.3,2-3,3.4c-0.7,1.4-1.1,2.9-1.1,4.4c0,3.6,2,6.8,5.3,8.2
				c3,1.2,6.1,2.2,9.3,2.9c2.1,0.4,4.2,1.1,6.2,2.1c1.1,0.7,1.8,1.9,1.8,3.3c0,1.6-0.8,3-2,4c-1.3,1-2.9,1.5-4.5,1.6v-8.7l-4.2-1.1
				v9.7c-1.5-0.2-2.8-0.8-4-1.7c-1.6-1.4-2.6-3.4-2.8-5.5l-6,1c0.4,3.4,2.1,6.4,4.7,8.6c2.4,1.7,5.2,2.7,8.1,2.8v5.5h4.2v-5.5
				c2-0.1,4-0.6,5.9-1.4c2.1-0.9,3.9-2.3,5.1-4.2c1.2-1.7,1.8-3.7,1.8-5.7C2004.6,382,2004.1,380.1,2003,378.6z"/>
			<path class="st20" d="M1797.6,232.2v-9.9c0.1-3.1-2.4-5.7-5.5-5.8h-12.8c-3.1,0.1-5.6,2.7-5.5,5.8c0,0,0,0,0,0v9.9L1797.6,232.2z
				"/>
			<polygon class="st30" points="1785.7,436.2 1773.8,443 1785.7,469.7 1797.6,443 			"/>
			<polygon class="st28" points="1779.7,440.2 1773.8,443 1773.8,241.4 1779.7,241.4 			"/>
			<polygon class="st28" points="1791.6,440.2 1797.6,443 1797.6,241.4 1791.6,241.4 			"/>
			<rect x="1779.7" y="241.4" class="st31" width="11.9" height="198.8"/>
			<polygon class="st32" points="1781,459.3 1785.7,469.7 1790.3,459.3 			"/>
			<rect x="1773.8" y="226.8" class="st32" width="23.8" height="14.5"/>
			<polygon class="st19" points="1843.6,444.6 1832.3,444.6 1843.6,472.9 1854.8,444.6 			"/>
			<path class="st20" d="M1853.6,223.4v-13.7c0.1-2.6-2-4.8-4.6-4.9h-10.8c-2.6,0.1-4.7,2.3-4.6,4.9v13.7H1853.6z"/>
			<rect x="1832.3" y="218.2" class="st20" width="22.5" height="226.3"/>
			<rect x="1832.3" y="218.2" class="st33" width="11.3" height="226.3"/>
			<path class="st19" d="M1858.9,227.8c-1.1-1.6-2.3-3.5-3-4.9v-4.7h-24.7v13.9h23.8c4,6.1,8.8,14.2,8.8,24.2
				c0,9.2-2.1,16.6-4.1,23.6c-1.8,6.2-3.4,12-3.4,18.3c-0.1,1.6,1.1,2.9,2.6,3c1.6,0.1,2.9-1.1,3-2.6c0-0.1,0-0.2,0-0.3
				c0-5.5,1.5-10.7,3.2-16.8c2-7.1,4.3-15.2,4.3-25.2C1869.4,244,1863.1,234.2,1858.9,227.8z"/>
			<path class="st6" d="M1345.7,413.1c0-3.9-3.1-7-7-7s-7,3.1-7,7v7.8h-77.6c-22.5,76.9-24.5,158.4-5.8,236.3h123.8V502h5.2v-81.2
				h-31.7V413.1z"/>
			<path class="st34" d="M1730.7,461V211.2h-275.4v466.8h328.4V514C1754.4,514,1730.7,490.3,1730.7,461
				C1730.7,461,1730.7,461,1730.7,461z"/>
			<rect x="1484.7" y="218.5" class="st18" width="238.9" height="417.4"/>
			<path class="st19" d="M1693.6,412.7V204.1h-275.4v474h328.4V465.7C1717.4,465.7,1693.6,442,1693.6,412.7
				C1693.6,412.7,1693.6,412.7,1693.6,412.7z"/>
			<rect x="1527.8" y="227.2" class="st34" width="91.8" height="135"/>
			<rect x="1522.4" y="222" class="st18" width="91.8" height="135"/>
			<path class="st35" d="M1567.6,244.1c-6.1,0-9.3-5.5-9.3-10.9v-32.8c0-3.8,2.5-7.8,7-7.8c4.3,0,7.8,3.4,7.8,7.7c0,0.1,0,0.1,0,0.2
				v11.2h-3.1v-11.2c0-2.6-2-4.7-4.6-4.7c0,0-0.1,0-0.1,0c-2.9,0-4,2.8-4,4.7v32.9c0,3.8,1.9,7.8,6.2,7.8c4.6,0,7.3-2.8,7.3-7.4
				v-42.9c0-6.3-2.7-13.7-10.4-13.7c-9.7,0-10.4,9.9-10.4,13v14.2h-3v-14.2c0-7.4,3.6-16,13.5-16s13.5,9,13.5,16.8v42.9
				C1578,239.9,1573.9,244.1,1567.6,244.1z"/>
			<rect x="1530.1" y="258" class="st16" width="56.5" height="4.3"/>
			<rect x="1530.1" y="272.2" class="st16" width="29.6" height="4.3"/>
			<rect x="1530.1" y="286.4" class="st16" width="29.6" height="4.3"/>
			<rect x="1530.1" y="300.5" class="st16" width="67" height="4.3"/>
			<rect x="1530.1" y="314.7" class="st16" width="41.2" height="4.3"/>
			<rect x="1546.6" y="328.9" class="st16" width="56.4" height="4.3"/>
			<rect x="1418.2" y="204.1" class="st36" width="27.8" height="474"/>
			<path class="st4" d="M841.6-9.8c-4-6.1-10.8-9.8-18.1-9.8h-46.4c-7.3,0-14.1,3.7-18.1,9.8h-49v306.6h36l0,0h14
				c4.1,5.3,10.4,8.5,17.1,8.5h46.4c6.7,0,13.1-3.1,17.1-8.5h187V-9.8H841.6z"/>
			<rect x="1651.8" y="34.3" class="st8" width="243.9" height="138.3"/>
			<rect x="1688.9" y="44.9" class="st37" width="181.7" height="117.2"/>
			<rect x="1693.1" y="49.2" class="st10" width="173.5" height="108.6"/>
			<polygon class="st11" points="1693.1,49.2 1866.5,49.2 1866.5,157.8 			"/>
			<rect x="1880" y="75.1" class="st37" width="4.8" height="38.2"/>
			<circle class="st37" cx="1882.4" cy="128.2" r="3.6"/>
			<path class="st38" d="M1671,117.9c-8,0-14.4-6.5-14.4-14.4s6.5-14.4,14.4-14.4c8,0,14.4,6.5,14.4,14.4
				C1685.4,111.5,1679,117.9,1671,117.9L1671,117.9z"/>
			<path class="st39" d="M1671,115.7c-6.7,0-12.2-5.4-12.2-12.2s5.4-12.2,12.2-12.2s12.2,5.4,12.2,12.2c0,0,0,0,0,0
				C1683.2,110.2,1677.7,115.7,1671,115.7L1671,115.7z"/>
			<path class="st6" d="M1903,143.4c-64.9-33.6-136.9-51-209.9-50.9c-11.4,0-22.8,0.4-34,1.3v88.8H1903V143.4z"/>
			<polygon class="st10" points="933.9,624.1 902.2,624.1 902.2,592.4 891,592.4 891,624.1 859.3,624.1 859.3,635.4 891,635.4 
				891,667.1 902.2,667.1 902.2,635.4 933.9,635.4 			"/>
			<rect x="859.3" y="725.3" class="st10" width="74.7" height="11.3"/>
			<rect x="859.3" y="752.9" class="st10" width="74.7" height="11.3"/>
			<rect x="568.1" y="742.4" class="st10" width="74.7" height="11.3"/>
			<rect x="568.1" y="184.1" class="st10" width="74.7" height="11.3"/>
			<path class="st10" d="M606.1,169.9c5,0,9.1-4.1,9-9.1s-4.1-9.1-9.1-9c-5,0-9,4.1-9,9.1C597,165.9,601.1,169.9,606.1,169.9
				C606.1,169.9,606.1,169.9,606.1,169.9z"/>
			<path class="st10" d="M606.1,209.5c-5,0-9.1,4.1-9.1,9.1s4.1,9.1,9.1,9.1c5,0,9.1-4.1,9.1-9.1c0,0,0,0,0,0
				C615.2,213.5,611.1,209.5,606.1,209.5C606.1,209.5,606.1,209.5,606.1,209.5z"/>
			<rect x="1633.6" y="812.6" class="st10" width="74.7" height="11.3"/>
			<path class="st10" d="M1671.6,798.4c5,0,9.1-4.1,9.1-9.1s-4.1-9.1-9.1-9.1c-5,0-9.1,4.1-9.1,9.1c0,0,0,0,0,0
				C1662.5,794.3,1666.6,798.4,1671.6,798.4z"/>
			<path class="st10" d="M1671.6,838c-5,0-9.1,4.1-9.1,9.1s4.1,9.1,9.1,9.1c5,0,9.1-4.1,9.1-9.1v0C1680.6,842,1676.6,838,1671.6,838
				z"/>
			<rect x="700.9" y="-19.8" class="st8" width="317.6" height="306.6"/>
			<rect x="823.4" y="-19.8" class="st39" width="195.1" height="94.6"/>
			<rect x="736.9" y="-19.8" class="st37" width="76.9" height="306.7"/>
			<path class="st38" d="M836,274.1L836,274.1V-9.7h-0.1c-0.9-11.2-10.2-19.9-21.5-19.9H768c-11.9,0-21.6,9.7-21.6,21.6l0,0v65.2
				c0,11.1,8.5,20.5,19.6,21.5V187c-11.1,1.1-19.5,10.4-19.5,21.5v65.2c0,11.9,9.6,21.5,21.5,21.6h46.4
				C826.2,295.3,835.8,285.9,836,274.1z"/>
			<path class="st8" d="M796.4,260c-12,0-21.7-9.7-21.7-21.6c0,0,0,0,0,0V27.3c0-12,9.7-21.7,21.7-21.7h9.3c12,0,21.7,9.7,21.7,21.7
				v211.1c0,12-9.7,21.7-21.7,21.7c0,0,0,0,0,0H796.4z"/>
			<path class="st37" d="M896.6,110.3c0,6.9-5.7,12.6-12.6,12.5c-6.9,0-12.6-5.7-12.5-12.6c0-6.9,5.6-12.5,12.5-12.5
				C890.9,97.7,896.6,103.3,896.6,110.3C896.6,110.3,896.6,110.3,896.6,110.3z"/>
			<path class="st37" d="M935.8,110.3c0,6.9-5.7,12.6-12.6,12.5s-12.6-5.7-12.5-12.6c0-6.9,5.6-12.5,12.6-12.5
				C930.1,97.7,935.8,103.3,935.8,110.3C935.8,110.3,935.8,110.3,935.8,110.3z"/>
			<path class="st37" d="M974.9,110.3c0,6.9-5.6,12.6-12.6,12.6s-12.6-5.6-12.6-12.6c0-6.9,5.6-12.6,12.6-12.6c0,0,0,0,0,0
				C969.3,97.7,974.9,103.4,974.9,110.3z"/>
			<path class="st37" d="M896.6,150c0,6.9-5.6,12.6-12.6,12.6c-6.9,0-12.6-5.6-12.6-12.6c0-6.9,5.6-12.6,12.5-12.6
				C890.9,137.4,896.6,143,896.6,150C896.6,150,896.6,150,896.6,150z"/>
			<path class="st37" d="M935.8,150c0,6.9-5.6,12.6-12.6,12.6s-12.6-5.6-12.6-12.6c0-6.9,5.6-12.6,12.6-12.6c0,0,0,0,0,0
				C930.1,137.4,935.8,143,935.8,150z"/>
			<path class="st37" d="M974.9,150c0,6.9-5.6,12.6-12.6,12.6s-12.6-5.6-12.6-12.6c0-6.9,5.6-12.6,12.6-12.6c0,0,0,0,0,0
				C969.3,137.4,974.9,143,974.9,150z"/>
			<path class="st37" d="M896.6,189.7c0,6.9-5.6,12.6-12.6,12.6c-6.9,0-12.6-5.6-12.6-12.6c0-6.9,5.6-12.6,12.5-12.6
				C890.9,177.1,896.6,182.7,896.6,189.7C896.6,189.7,896.6,189.7,896.6,189.7z"/>
			<path class="st37" d="M935.8,189.7c0,6.9-5.6,12.6-12.6,12.6s-12.6-5.6-12.6-12.6c0-6.9,5.6-12.6,12.6-12.6c0,0,0,0,0,0
				C930.1,177.1,935.8,182.8,935.8,189.7z"/>
			<path class="st37" d="M974.9,189.7c0,6.9-5.6,12.6-12.6,12.6s-12.6-5.6-12.6-12.6c0-6.9,5.6-12.6,12.6-12.6c0,0,0,0,0,0
				C969.3,177.1,974.9,182.8,974.9,189.7z"/>
			<path class="st12" d="M896.6,229.4c0,6.9-5.6,12.6-12.6,12.6c-6.9,0-12.6-5.6-12.6-12.6c0-6.9,5.6-12.6,12.5-12.6
				C890.9,216.8,896.6,222.5,896.6,229.4C896.6,229.4,896.6,229.4,896.6,229.4z"/>
			<path class="st37" d="M935.8,229.4c0,6.9-5.6,12.6-12.6,12.6s-12.6-5.6-12.6-12.6c0-6.9,5.6-12.6,12.6-12.6c0,0,0,0,0,0
				C930.1,216.9,935.8,222.5,935.8,229.4z"/>
			<path class="st13" d="M974.9,229.4c0,6.9-5.6,12.6-12.6,12.6s-12.6-5.6-12.6-12.6c0-6.9,5.6-12.6,12.6-12.6c0,0,0,0,0,0
				C969.3,216.9,974.9,222.5,974.9,229.4z"/>
			<rect x="871.5" y="20.1" class="st10" width="106.4" height="31"/>
			<polygon class="st11" points="871.5,51.1 871.5,20.1 977.9,20.1 			"/>
			<rect x="1063.3" y="424.9" class="st19" width="303.3" height="68.2"/>
			<path class="st40" d="M1111.1,459c0,5.1-4.1,9.2-9.2,9.2c-5.1,0-9.2-4.1-9.2-9.2c0-5.1,4.1-9.2,9.1-9.2c0,0,0,0,0,0
				C1107,449.8,1111.1,453.9,1111.1,459C1111.1,459,1111.1,459,1111.1,459z"/>
			<path class="st40" d="M1337.1,459c0,5.1-4.1,9.2-9.2,9.2c-5.1,0-9.2-4.1-9.2-9.2c0-5.1,4.1-9.2,9.2-9.2c0,0,0,0,0,0
				C1333,449.8,1337.1,453.9,1337.1,459L1337.1,459z"/>
			<rect x="1068.5" y="493.1" class="st41" width="292.9" height="155.1"/>
			<rect x="1068.5" y="493.1" class="st42" width="292.9" height="6.6"/>
			<rect x="1063.3" y="411.9" class="st40" width="303.3" height="13"/>
			<path class="st23" d="M1101.9,464.4c-3.9,0-7-3.1-7-7v-53.3c0-3.9,3.1-7,7-7s7,3.1,7,7v53.3
				C1108.9,461.3,1105.8,464.4,1101.9,464.4z"/>
			<path class="st23" d="M1327.9,464.4c-3.9,0-7-3.1-7-7v-53.3c0-3.9,3.1-7,7-7s7,3.1,7,7v53.3
				C1334.9,461.3,1331.8,464.4,1327.9,464.4z"/>
			<rect x="1099.4" y="542.5" class="st19" width="27.6" height="14.5"/>
			<rect x="1133.3" y="542.5" class="st13" width="27.6" height="14.5"/>
			<rect x="1167.2" y="542.5" class="st13" width="27.6" height="14.5"/>
			<rect x="1201.1" y="542.5" class="st13" width="27.6" height="14.5"/>
			<rect x="1235" y="542.5" class="st13" width="27.6" height="14.5"/>
			<rect x="1268.9" y="542.5" class="st13" width="27.6" height="14.5"/>
			<rect x="1302.8" y="542.5" class="st13" width="27.6" height="14.5"/>
			<rect x="1099.4" y="563.9" class="st19" width="27.6" height="14.5"/>
			<rect x="1133.3" y="563.9" class="st13" width="27.6" height="14.5"/>
			<rect x="1167.2" y="563.9" class="st13" width="27.6" height="14.5"/>
			<rect x="1201.1" y="563.9" class="st19" width="27.6" height="14.5"/>
			<rect x="1235" y="563.9" class="st19" width="27.6" height="14.5"/>
			<rect x="1268.9" y="563.9" class="st13" width="27.6" height="14.5"/>
			<rect x="1302.8" y="563.9" class="st13" width="27.6" height="14.5"/>
			<rect x="1099.4" y="585.3" class="st19" width="27.6" height="14.5"/>
			<rect x="1133.3" y="585.3" class="st13" width="27.6" height="14.5"/>
			<rect x="1167.2" y="585.3" class="st13" width="27.6" height="14.5"/>
			<rect x="1201.1" y="585.3" class="st13" width="27.6" height="14.5"/>
			<rect x="1235" y="585.3" class="st13" width="27.6" height="14.5"/>
			<rect x="1268.9" y="585.3" class="st13" width="27.6" height="14.5"/>
			<rect x="1302.8" y="585.3" class="st13" width="27.6" height="14.5"/>
			<rect x="1099.4" y="606.6" class="st19" width="27.6" height="14.5"/>
			<rect x="1133.3" y="606.6" class="st13" width="27.6" height="14.5"/>
			<rect x="1167.2" y="606.6" class="st13" width="27.6" height="14.5"/>
			<rect x="1201.1" y="606.6" class="st13" width="27.6" height="14.5"/>
			<rect x="1235" y="606.6" class="st13" width="27.6" height="14.5"/>
			<rect x="1268.9" y="606.6" class="st42" width="27.6" height="14.5"/>
			<rect x="1302.8" y="606.6" class="st42" width="27.6" height="14.5"/>
			<rect x="1171.9" y="509.1" class="st13" width="86" height="16"/>
			<rect x="1651.8" y="34.3" class="st8" width="243.9" height="138.3"/>
			<rect x="1688.9" y="44.9" class="st37" width="181.7" height="117.2"/>
			<rect x="1693.1" y="49.2" class="st10" width="173.5" height="108.6"/>
			<polygon class="st11" points="1693.1,49.2 1866.5,49.2 1866.5,157.8 			"/>
			<rect x="1880" y="75.1" class="st37" width="4.8" height="38.2"/>
			<circle class="st37" cx="1882.4" cy="128.2" r="3.6"/>
			<path class="st38" d="M1671,117.9c-8,0-14.4-6.5-14.4-14.4s6.5-14.4,14.4-14.4c8,0,14.4,6.5,14.4,14.4
				C1685.4,111.5,1679,117.9,1671,117.9L1671,117.9z"/>
			<path class="st39" d="M1671,115.7c-6.7,0-12.2-5.4-12.2-12.2s5.4-12.2,12.2-12.2s12.2,5.4,12.2,12.2c0,0,0,0,0,0
				C1683.2,110.2,1677.7,115.7,1671,115.7L1671,115.7z"/>
			<polygon class="st16" points="1365.3,356.2 1064.6,356.2 1064.6,-25.8 1108.5,-70.5 1365.3,-70.5 			"/>
			<polygon class="st17" points="1360.3,351.2 1059.6,351.2 1059.6,-30.8 1103.5,-75.5 1360.3,-75.5 			"/>
			<polygon class="st18" points="1355.3,346.2 1054.6,346.2 1054.6,-35.8 1098.5,-80.5 1355.3,-80.5 			"/>
			<rect x="1160.9" y="-86.2" class="st19" width="88" height="35.8"/>
			<rect x="1160.9" y="-96" class="st20" width="88" height="9.8"/>
			<path class="st21" d="M1234.6-48.1c-1,0-1.8-0.6-2.1-1.5l-18-48.6c-0.1-0.4-0.2-0.8-0.1-1.1c0-0.2,2.2-14.5,2.5-19.3
				c0.2-2.9-0.9-5.7-2.9-7.8c-4.6-4.9-12.4-5.2-17.4-0.5c-0.2,0.2-0.4,0.4-0.5,0.5c-2,2.1-3.1,4.9-2.9,7.8
				c0.3,4.8,2.4,19.1,2.5,19.3c0.1,0.4,0,0.8-0.1,1.1l-18,48.6c-0.5,1.2-1.9,1.7-3,1.2c-1.1-0.5-1.6-1.6-1.3-2.8l17.8-48
				c-0.4-2.8-2.1-14.7-2.4-19.1c-0.2-4.2,1.3-8.2,4.1-11.3c6.4-6.8,17-7.1,23.8-0.7c0.3,0.2,0.5,0.5,0.7,0.7c2.9,3,4.4,7.1,4.2,11.3
				c-0.3,4.4-2,16.3-2.4,19.1l17.8,48c0.4,1.2-0.2,2.5-1.4,2.9C1235-48.2,1234.8-48.1,1234.6-48.1z"/>
			<polygon class="st22" points="1098.5,-80.5 1098.5,-35.8 1054.9,-35.8 			"/>
			<path class="st19" d="M1135.2-12v48.6h48.6C1183.8,9.7,1162-12,1135.2-12z"/>
			<path class="st20" d="M1135.2,81V36.6h44.5C1179.7,61.1,1159.8,81,1135.2,81z"/>
			<path class="st23" d="M1135.2,89.5V36.6h-53C1082.2,65.8,1106,89.5,1135.2,89.5z"/>
			<path class="st13" d="M1135.2,7.5v29.1h-29.1C1106.1,20.5,1119.1,7.5,1135.2,7.5z"/>
			<path class="st23" d="M1205.5,216H1090c-0.9,0-1.6-0.7-1.6-1.6v-79.9c0-0.9,0.7-1.6,1.6-1.6c0.9,0,1.6,0.7,1.6,1.6v78.3h114
				c0.9,0.1,1.6,0.9,1.5,1.7C1207,215.3,1206.4,215.9,1205.5,216L1205.5,216z"/>
			<path class="st19" d="M1198.8,205.5h-0.1c-0.5-0.1-0.9-0.5-0.9-1l-2-52.3l-17.8,27.3c-0.3,0.5-1,0.6-1.5,0.3c0,0,0,0,0,0
				l-15.9-10.8l-26.5,25.7c-0.3,0.3-0.8,0.4-1.2,0.2l-11.8-5.6l-21.8,16c-0.5,0.4-1.2,0.3-1.5-0.2c-0.4-0.5-0.3-1.2,0.2-1.5l0,0
				l22.3-16.4c0.3-0.2,0.7-0.3,1.1-0.1l11.7,5.6l26.6-25.8c0.4-0.3,0.9-0.4,1.3-0.1l15.8,10.7l19-29.2c0.3-0.4,0.7-0.6,1.2-0.5
				c0.5,0.1,0.8,0.5,0.8,1l1.9,49.2l13.2-43.8c0.2-0.6,0.8-0.8,1.4-0.6c0.5,0.2,0.8,0.7,0.7,1.2l-15.1,50
				C1199.7,205.2,1199.3,205.5,1198.8,205.5z"/>
			<rect x="1214.9" y="12.8" class="st19" width="109.4" height="6.5"/>
			<rect x="1214.9" y="30" class="st23" width="109.4" height="6.5"/>
			<rect x="1214.9" y="47.2" class="st20" width="109.4" height="6.5"/>
			<rect x="1214.9" y="64.4" class="st13" width="63.2" height="6.5"/>
			<rect x="1088.3" y="231.1" class="st16" width="222.9" height="7"/>
			<rect x="1088.3" y="251.3" class="st16" width="222.9" height="7"/>
			<rect x="1088.3" y="271.4" class="st16" width="222.9" height="7"/>
			<rect x="1088.3" y="291.6" class="st16" width="222.9" height="7"/>
		</g>
	</g>
</g>
<linearGradient id="SVGID_2_" gradientUnits="userSpaceOnUse" x1="597.35" y1="467.035" x2="1593.48" y2="467.035" gradientTransform="matrix(1 0 0 -1 0 792.6001)">
	<stop  offset="0.31" style="stop-color:#FFFFFF"/>
	<stop  offset="0.39" style="stop-color:#E7E7E7"/>
	<stop  offset="0.57" style="stop-color:#A9A9A9"/>
	<stop  offset="0.82" style="stop-color:#474747"/>
	<stop  offset="1" style="stop-color:#000000"/>
</linearGradient>
<polygon class="st43" points="513,865.8 1611.5,865.8 1611.5,-214.2 946.9,-214.7 "/>
</svg>
