<svg xmlns="http://www.w3.org/2000/svg" xmlns:xlink="http://www.w3.org/1999/xlink" viewBox="0 0 1582.29 1141.86"><defs><style>.cls-1{fill:url(#linear-gradient);}.cls-2{mask:url(#mask);}.cls-3{fill:#c6d6de;}.cls-4{fill:#013754;}.cls-5{fill:#01283d;}.cls-6{fill:#5f5c78;}.cls-7{fill:#767395;}.cls-8{fill:#6d6a8a;}.cls-9{fill:#b8d0dc;}.cls-10{fill:#d4effc;}.cls-11{fill:#f5917c;}.cls-12{fill:#85cea8;}.cls-13{fill:#bdbccc;}.cls-14{fill:#efeef2;}.cls-15{fill:#c7c8ca;}.cls-16{fill:#d1d3d4;}.cls-17{fill:#e6e7e8;}.cls-18{fill:#f26649;}.cls-19{fill:#f58466;}.cls-20{fill:#5f5654;}.cls-21{fill:#dcddde;}.cls-22{fill:#fdb913;}.cls-23{fill:#2fb56a;}.cls-24{fill:#258f54;}.cls-25{fill:#94cc79;}.cls-26{fill:#fff33e;}.cls-27{fill:#e6a300;}.cls-28{fill:#d69d10;}.cls-29{fill:#f8d399;}.cls-30{fill:#f5c349;}.cls-31{fill:#64625e;}.cls-32{fill:#f7a58f;}.cls-33{fill:#b33e26;}.cls-34{fill:#5d5753;}.cls-35{fill:#e85e41;}.cls-36{fill:#4b485e;}.cls-37{fill:#696685;}.cls-38{fill:#5d5a75;}.cls-39{fill:#e85233;}.cls-40{fill:#fee9b6;}.cls-41{fill:#fed779;}</style><linearGradient id="linear-gradient" x1="243.53" y1="460.43" x2="1029.15" y2="460.43" gradientUnits="userSpaceOnUse"><stop offset="0.13" stop-color="#fff"/><stop offset="0.24" stop-color="#e7e7e7"/><stop offset="0.46" stop-color="#a9a9a9"/><stop offset="0.78" stop-color="#474747"/><stop offset="1"/></linearGradient><mask id="mask" x="0" y="-79.83" width="1582.29" height="1221.7" maskUnits="userSpaceOnUse"><polygon class="cls-1" points="177.01 1000.69 1043.35 1000.63 1043.35 -79.31 610.92 -79.83 177.01 1000.69"/></mask></defs><title>bookkeeping</title><g id="Layer_2" data-name="Layer 2"><g id="Layer_3" data-name="Layer 3"><g class="cls-2"><polygon class="cls-3" points="502.26 200.33 502.26 494.94 507.26 494.94 507.26 499.94 512.27 499.94 512.27 504.94 812.94 504.94 812.94 200.33 502.26 200.33"/><path class="cls-3" d="M176.42,513.92V638c84.6,29.78,169.2-29.77,253.8,0V513.92C345.62,484.15,261,543.7,176.42,513.92Z"/><ellipse class="cls-4" cx="1124.91" cy="684.59" rx="457.27" ry="457.37" transform="translate(436.31 1807.06) rotate(-89.8)"/><path class="cls-5" d="M1055.51,315.32V232.56a454.92,454.92,0,0,0-200.35,82.76Z"/><path class="cls-5" d="M1265.81,661.29V783.71c83.48,29.38,167-29.38,250.45,0V661.29C1432.78,631.9,1349.29,690.67,1265.81,661.29Z"/><path class="cls-5" d="M1234.08,358.62h-12.79a5.67,5.67,0,0,0-5.48,5.84v19.13h0V585.21l7.23,16.26h0l4.66,10.47,11.87-26.73V364.46A5.67,5.67,0,0,0,1234.08,358.62Z"/><path class="cls-5" d="M1300.9,370c-1.06-1.63-2.29-3.52-3-4.87v-4.67h-2.35v-8.56A4.77,4.77,0,0,0,1291,347h-10.78a4.77,4.77,0,0,0-4.62,4.91v8.56h-2.34v13.91h1.09V586.78l11.26,28.36,11.25-28.36V374.36h.21c4,6.11,8.8,14.21,8.8,24.23,0,9.23-2.08,16.57-4.1,23.66-1.75,6.16-3.4,12-3.4,18.31a2.82,2.82,0,0,0,5.63,0c0-5.54,1.48-10.74,3.19-16.77,2-7.12,4.31-15.18,4.31-25.2C1311.47,386.17,1305.11,376.43,1300.9,370Z"/><path class="cls-5" d="M1192.43,649.06V615.89a53.07,53.07,0,0,1-15.89-2.42c0-.77-.06-1.53-.06-2.3V361.42h-37.07v-7.14h-115.6V340.81c0-7.76-3.54-16.82-13.53-16.82s-13.53,8.64-13.53,16v14.25H864v474H1229.5V664.18A52.85,52.85,0,0,1,1192.43,649.06ZM1015.88,354.28h-8.7v-3.81c0-1.9,1.06-4.74,4-4.74a4.69,4.69,0,0,1,4.74,4.74Zm-16-14.25c0-3,.75-12.95,10.44-12.95,7.7,0,10.44,7.4,10.44,13.73v13.47H1019v-3.81a7.76,7.76,0,0,0-7.84-7.83c-4.58,0-7,4-7,7.83v3.81h-4.25Z"/><rect class="cls-6" x="840.35" y="66.59" width="202.57" height="237.47"/><rect class="cls-7" x="840.35" y="66.59" width="192.48" height="224.78"/><rect class="cls-8" x="840.35" y="66.59" width="192.48" height="78.22"/><rect class="cls-9" x="857.29" y="89.61" width="162.04" height="37.69"/><polygon class="cls-10" points="941.24 127.3 979.31 89.61 930.63 89.61 892.56 127.3 941.24 127.3"/><polygon class="cls-10" points="963.09 127.3 1001.16 89.61 989.92 89.61 951.85 127.3 963.09 127.3"/><rect class="cls-11" x="857.29" y="156.4" width="23.99" height="15.44" rx="3.94"/><rect class="cls-12" x="891.81" y="156.4" width="23.99" height="15.44" rx="3.94"/><rect class="cls-13" x="926.32" y="156.4" width="23.99" height="15.44" rx="3.94"/><rect class="cls-13" x="960.83" y="156.4" width="23.99" height="15.44" rx="3.94"/><rect class="cls-13" x="995.35" y="156.4" width="23.99" height="15.44" rx="3.94"/><rect class="cls-14" x="857.29" y="181.14" width="23.99" height="15.44" rx="3.94"/><rect class="cls-14" x="891.81" y="181.14" width="23.99" height="15.44" rx="3.94"/><rect class="cls-14" x="926.32" y="181.14" width="23.99" height="15.44" rx="3.94"/><rect class="cls-13" x="960.83" y="181.14" width="23.99" height="15.44" rx="3.94"/><rect class="cls-13" x="995.35" y="181.14" width="23.99" height="15.44" rx="3.94"/><rect class="cls-14" x="857.29" y="205.89" width="23.99" height="15.44" rx="3.94"/><rect class="cls-14" x="891.81" y="205.89" width="23.99" height="15.44" rx="3.94"/><rect class="cls-14" x="926.32" y="205.89" width="23.99" height="15.44" rx="3.94"/><rect class="cls-13" x="960.83" y="205.89" width="23.99" height="15.44" rx="3.94"/><rect class="cls-14" x="857.29" y="230.63" width="23.99" height="15.44" rx="3.94"/><rect class="cls-14" x="891.81" y="230.63" width="23.99" height="15.44" rx="3.94"/><rect class="cls-14" x="926.32" y="230.63" width="23.99" height="15.44" rx="3.94"/><rect class="cls-13" x="960.83" y="230.63" width="23.99" height="15.44" rx="3.94"/><path class="cls-14" d="M861.24,255.38h16.1a3.94,3.94,0,0,1,3.94,3.94v7.56a3.94,3.94,0,0,1-3.94,3.94h-16.1a3.94,3.94,0,0,1-3.94-3.94v-7.55A3.95,3.95,0,0,1,861.24,255.38Z"/><path class="cls-14" d="M895.75,255.38h16.1a3.94,3.94,0,0,1,3.94,3.94v7.56a3.94,3.94,0,0,1-3.94,3.94h-16.1a3.94,3.94,0,0,1-3.94-3.94v-7.56A3.95,3.95,0,0,1,895.75,255.38Z"/><path class="cls-14" d="M950.31,266.88a3.94,3.94,0,0,1-3.94,3.94H930.26a3.94,3.94,0,0,1-3.94-3.94v-7.56a3.94,3.94,0,0,1,3.94-3.94h16.11a3.94,3.94,0,0,1,3.94,3.94Z"/><path class="cls-13" d="M964.78,255.38h16.1a3.94,3.94,0,0,1,3.94,3.94v7.56a3.94,3.94,0,0,1-3.94,3.94h-16.1a3.94,3.94,0,0,1-3.94-3.94v-7.56A3.95,3.95,0,0,1,964.78,255.38Z"/><path class="cls-13" d="M999.29,255.38h16.1a3.94,3.94,0,0,1,3.94,3.94v7.56a3.94,3.94,0,0,1-3.94,3.94h-16.1a3.94,3.94,0,0,1-3.94-3.94v-7.56A3.95,3.95,0,0,1,999.29,255.38Z"/><path class="cls-13" d="M1015.39,205.89h-16.1a3.93,3.93,0,0,0-3.94,3.94v32.3a3.94,3.94,0,0,0,3.94,4h16.1a3.94,3.94,0,0,0,3.94-4v-32.3A3.93,3.93,0,0,0,1015.39,205.89Z"/><polygon class="cls-15" points="797.14 491.06 496.46 491.06 496.46 109.09 540.39 64.37 797.14 64.37 797.14 491.06"/><polygon class="cls-16" points="792.14 486.06 491.46 486.06 491.46 104.09 535.39 59.37 792.14 59.37 792.14 486.06"/><polygon class="cls-17" points="787.13 481.06 486.46 481.06 486.46 99.09 530.38 54.37 787.13 54.37 787.13 481.06"/><rect class="cls-18" x="592.81" y="48.67" width="87.97" height="35.79"/><rect class="cls-19" x="592.81" y="38.89" width="87.97" height="9.78"/><path class="cls-20" d="M666.42,86.74a2.29,2.29,0,0,1-2.15-1.49l-18-48.56a2.29,2.29,0,0,1-.12-1.13c0-.14,2.17-14.53,2.47-19.28a10.47,10.47,0,0,0-2.92-7.85,12.29,12.29,0,0,0-17.89,0,10.43,10.43,0,0,0-2.92,7.85c.3,4.75,2.45,19.14,2.47,19.28a2.18,2.18,0,0,1-.12,1.13l-18,48.56A2.29,2.29,0,0,1,605,83.67l17.77-48c-.42-2.81-2.15-14.66-2.43-19.09a15,15,0,0,1,4.14-11.26,16.87,16.87,0,0,1,24.56,0,15,15,0,0,1,4.15,11.27c-.28,4.43-2,16.28-2.43,19.09l17.77,48a2.28,2.28,0,0,1-1.35,2.93A2.2,2.2,0,0,1,666.42,86.74Z"/><polygon class="cls-21" points="530.38 54.37 530.38 99.09 486.77 99.09 530.38 54.37"/><path class="cls-18" d="M567.07,122.87v48.55h48.57A48.56,48.56,0,0,0,567.07,122.87Z"/><path class="cls-19" d="M567.07,215.91V171.42h44.5A44.49,44.49,0,0,1,567.07,215.91Z"/><path class="cls-22" d="M567.07,224.37v-53h-53A53,53,0,0,0,567.07,224.37Z"/><path class="cls-12" d="M567.07,142.34v29.08H538A29.08,29.08,0,0,1,567.07,142.34Z"/><path class="cls-22" d="M637.4,350.81H521.81a1.61,1.61,0,0,1-1.61-1.61V269.33a1.61,1.61,0,1,1,3.22,0v78.26h114a1.61,1.61,0,0,1,0,3.22Z"/><path class="cls-18" d="M630.67,340.33h-.13a1.06,1.06,0,0,1-.94-1l-2-52.25L609.8,314.31a1.07,1.07,0,0,1-1.5.31l-15.94-10.8-26.52,25.73a1.1,1.1,0,0,1-1.22.2l-11.78-5.64-21.79,16a1.07,1.07,0,1,1-1.27-1.73L552.09,322a1.06,1.06,0,0,1,1.1-.1l11.69,5.59,26.61-25.82a1.07,1.07,0,0,1,1.35-.12l15.76,10.67,19-29.18a1.08,1.08,0,0,1,2,.55l1.9,49.2L644.7,289a1.08,1.08,0,0,1,2.06.62l-15.06,50A1.06,1.06,0,0,1,630.67,340.33Z"/><rect class="cls-18" x="646.8" y="147.67" width="109.43" height="6.53"/><rect class="cls-22" x="646.8" y="164.87" width="109.43" height="6.53"/><rect class="cls-19" x="646.8" y="182.06" width="109.43" height="6.53"/><rect class="cls-12" x="646.8" y="199.26" width="63.16" height="6.53"/><rect class="cls-15" x="520.2" y="365.98" width="222.88" height="7.03"/><rect class="cls-15" x="520.2" y="386.14" width="222.88" height="7.03"/><rect class="cls-15" x="520.2" y="406.3" width="222.88" height="7.03"/><rect class="cls-15" x="520.2" y="426.46" width="222.88" height="7.03"/><path class="cls-5" d="M812.94,504.94V350.25A458.27,458.27,0,0,0,704.21,504.94Z"/><path class="cls-23" d="M424.91,624.23c-84.6-29.78-169.2,29.77-253.8,0V500.17c84.6,29.77,169.2-29.78,253.8,0Z"/><path class="cls-24" d="M419.51,617.11c-81-25-162,28.5-243,3.56V602.78c81,25,162-28.51,243-3.56Z"/><path class="cls-25" d="M251.35,551.08a46.64,46.64,0,0,1,26.74-42.2c-33.86,5.52-67.72,8.79-101.58-1.64v91.23c39,12,77.91,5.86,116.87-1A46.65,46.65,0,0,1,251.35,551.08Z"/><path class="cls-25" d="M302.64,504.65a46.66,46.66,0,0,1,15.3,88.62c33.85-5.51,67.71-8.79,101.57,1.64V503.68C380.55,491.69,341.6,497.82,302.64,504.65Z"/><ellipse class="cls-26" cx="298.01" cy="551.08" rx="40.11" ry="40.1" transform="translate(-1.13 0.61) rotate(-0.12)"/><path class="cls-23" d="M314.32,554a11.09,11.09,0,0,0-4.85-3.87,92.29,92.29,0,0,0-10.93-3.42q-5.4-1.47-6.51-1.88a6.5,6.5,0,0,1-2.83-2,4.07,4.07,0,0,1-.9-2.58,4.9,4.9,0,0,1,2.17-3.94,9.62,9.62,0,0,1,5-1.58v9.32l5.13,1.31V534.94a8.61,8.61,0,0,1,3.81,1.64,7.85,7.85,0,0,1,2.84,5.24l7.22-1a15.69,15.69,0,0,0-2.54-6.74,12.31,12.31,0,0,0-5.72-4,22.72,22.72,0,0,0-5.61-1.27v-7.31h-5.13v7.17a21.66,21.66,0,0,0-4.63.82,15.34,15.34,0,0,0-4.69,2.15,12.07,12.07,0,0,0-3.63,4.12,11.18,11.18,0,0,0-1.33,5.39,10.75,10.75,0,0,0,6.37,10,70.07,70.07,0,0,0,11.25,3.54q6,1.51,7.54,2.5a4.49,4.49,0,0,1,2.18,3.93,6.19,6.19,0,0,1-2.46,4.86,9.86,9.86,0,0,1-5.47,2V557.45l-5.13-1.37v11.71a10,10,0,0,1-4.79-2.08,10.13,10.13,0,0,1-3.43-6.72l-7.29,1.15q1.23,6.93,5.67,10.45c2.4,1.9,5.69,3,9.84,3.38v6.67h5.13V574a21.55,21.55,0,0,0,7.15-1.7,14,14,0,0,0,6.21-5,12.42,12.42,0,0,0,2.15-6.95A10.79,10.79,0,0,0,314.32,554Z"/><path class="cls-23" d="M1507,772.46c-83.48-29.38-167,29.38-250.45,0V650c83.48,29.39,167-29.38,250.45,0Z"/><path class="cls-24" d="M1501.67,765.43c-79.93-24.62-159.86,28.13-239.79,3.52V751.3c79.93,24.61,159.86-28.14,239.79-3.52Z"/><path class="cls-25" d="M1335.72,700.27a46.07,46.07,0,0,1,26.39-41.64c-33.41,5.44-66.82,8.67-100.23-1.61v90c38.44,11.84,76.88,5.78,115.32-1A46,46,0,0,1,1335.72,700.27Z"/><path class="cls-25" d="M1386.34,654.46a46,46,0,0,1,15.1,87.45c33.41-5.44,66.82-8.67,100.23,1.62v-90C1463.23,641.66,1424.78,647.72,1386.34,654.46Z"/><path class="cls-26" d="M1421.36,700.27a39.59,39.59,0,1,1-39.59-39.57A39.58,39.58,0,0,1,1421.36,700.27Z"/><path class="cls-23" d="M1397.87,703.19a10.93,10.93,0,0,0-4.79-3.82A89.92,89.92,0,0,0,1382.3,696q-5.34-1.46-6.43-1.86a6.38,6.38,0,0,1-2.79-1.94,4,4,0,0,1-.89-2.55,4.83,4.83,0,0,1,2.14-3.88,9.55,9.55,0,0,1,4.92-1.56v9.2l5,1.29V684.35a8.34,8.34,0,0,1,3.76,1.61,7.8,7.8,0,0,1,2.81,5.18l7.12-1a15.45,15.45,0,0,0-2.5-6.65,12.1,12.1,0,0,0-5.65-3.94,22.05,22.05,0,0,0-5.54-1.26V671.1h-5v7.08a20.89,20.89,0,0,0-4.57.81,15.06,15.06,0,0,0-4.63,2.12,11.58,11.58,0,0,0-3.58,4.07,11,11,0,0,0-1.32,5.31,10.59,10.59,0,0,0,6.29,9.85,68.3,68.3,0,0,0,11.1,3.5c4,1,6.45,1.82,7.44,2.46a4.43,4.43,0,0,1,2.15,3.88,6.11,6.11,0,0,1-2.43,4.8,9.69,9.69,0,0,1-5.4,1.93V706.56l-5-1.35v11.55a9.3,9.3,0,0,1-8.11-8.68l-7.2,1.13q1.21,6.84,5.6,10.31c2.36,1.88,5.61,3,9.71,3.34v6.58h5v-6.51a21.2,21.2,0,0,0,7.06-1.69,13.75,13.75,0,0,0,6.13-5,12.25,12.25,0,0,0,2.12-6.85A10.67,10.67,0,0,0,1397.87,703.19Z"/><path class="cls-27" d="M600.44,882.05a37.28,37.28,0,1,1-37.27-37.26A37.27,37.27,0,0,1,600.44,882.05Z"/><path class="cls-22" d="M596.27,882.05A33.1,33.1,0,1,1,563.17,849,33.09,33.09,0,0,1,596.27,882.05Z"/><path class="cls-28" d="M576.63,884.49a9.19,9.19,0,0,0-4-3.19,73.43,73.43,0,0,0-9-2.83q-4.47-1.22-5.38-1.55a5.29,5.29,0,0,1-2.33-1.63,3.33,3.33,0,0,1-.75-2.12,4,4,0,0,1,1.79-3.25,7.94,7.94,0,0,1,4.11-1.31v7.69l4.23,1.08v-8.64a7,7,0,0,1,3.15,1.35,6.54,6.54,0,0,1,2.35,4.33l6-.82a12.79,12.79,0,0,0-2.1-5.56,10.16,10.16,0,0,0-4.71-3.3,18.67,18.67,0,0,0-4.64-1v-6h-4.23v5.92a17.54,17.54,0,0,0-3.82.68,12.49,12.49,0,0,0-3.87,1.77,9.78,9.78,0,0,0-3,3.4,9.17,9.17,0,0,0-1.1,4.45,8.85,8.85,0,0,0,5.26,8.23,56.39,56.39,0,0,0,9.28,2.92,26.57,26.57,0,0,1,6.22,2.06,3.72,3.72,0,0,1,1.8,3.25,5.13,5.13,0,0,1-2,4,8.12,8.12,0,0,1-4.52,1.62v-8.66l-4.23-1.13v9.66a8.21,8.21,0,0,1-3.95-1.71,8.38,8.38,0,0,1-2.83-5.55l-6,.95a13.52,13.52,0,0,0,4.69,8.62,14.87,14.87,0,0,0,8.11,2.79v5.51h4.23V901a17.92,17.92,0,0,0,5.9-1.41,11.5,11.5,0,0,0,5.13-4.16,10.23,10.23,0,0,0,1.77-5.73A8.91,8.91,0,0,0,576.63,884.49Z"/><path class="cls-27" d="M738.8,884a37.28,37.28,0,1,1-37.28-37.27A37.27,37.27,0,0,1,738.8,884Z"/><path class="cls-22" d="M734.62,884a33.1,33.1,0,1,1-33.1-33.09A33.1,33.1,0,0,1,734.62,884Z"/><path class="cls-28" d="M715,886.45a9.15,9.15,0,0,0-4-3.2,75.13,75.13,0,0,0-9-2.82q-4.47-1.21-5.38-1.56a5.36,5.36,0,0,1-2.33-1.62,3.33,3.33,0,0,1-.74-2.13,4,4,0,0,1,1.79-3.25,7.91,7.91,0,0,1,4.11-1.3v7.69l4.23,1.08v-8.65a7.09,7.09,0,0,1,3.14,1.35,6.5,6.5,0,0,1,2.35,4.33l6-.81A12.86,12.86,0,0,0,713,870a10.1,10.1,0,0,0-4.72-3.3,19,19,0,0,0-4.63-1.06v-6h-4.23v5.92a18.14,18.14,0,0,0-3.83.68,12.72,12.72,0,0,0-3.87,1.77,10,10,0,0,0-3,3.4,9,9,0,0,0,4.16,12.69,57.4,57.4,0,0,0,9.28,2.92,26.4,26.4,0,0,1,6.23,2.06,3.71,3.71,0,0,1,1.79,3.25,5.13,5.13,0,0,1-2,4,8.19,8.19,0,0,1-4.51,1.62v-8.66l-4.23-1.14v9.67a7.8,7.8,0,0,1-6.78-7.26l-6,1a13.52,13.52,0,0,0,4.69,8.62,15,15,0,0,0,8.12,2.79v5.5h4.23V903a17.91,17.91,0,0,0,5.9-1.4,11.47,11.47,0,0,0,5.12-4.16,10.24,10.24,0,0,0,1.78-5.73A8.92,8.92,0,0,0,715,886.45Z"/><path class="cls-27" d="M1458.63,392.88a37.28,37.28,0,1,1-37.27-37.27A37.27,37.27,0,0,1,1458.63,392.88Z"/><path class="cls-22" d="M1454.45,392.88a33.1,33.1,0,1,1-33.09-33.09A33.1,33.1,0,0,1,1454.45,392.88Z"/><path class="cls-28" d="M1434.82,395.32a9.21,9.21,0,0,0-4-3.2,75.75,75.75,0,0,0-9-2.82q-4.47-1.21-5.38-1.55a5.38,5.38,0,0,1-2.34-1.63,3.39,3.39,0,0,1-.74-2.13,4,4,0,0,1,1.79-3.24,7.85,7.85,0,0,1,4.11-1.31v7.69l4.23,1.08v-8.65a7,7,0,0,1,3.14,1.35,6.48,6.48,0,0,1,2.35,4.33l6-.81a12.92,12.92,0,0,0-2.1-5.56,10.05,10.05,0,0,0-4.72-3.3,18.48,18.48,0,0,0-4.63-1.05v-6h-4.23v5.93a17.43,17.43,0,0,0-3.82.67,12.49,12.49,0,0,0-3.87,1.78,9.81,9.81,0,0,0-3,3.4,9.24,9.24,0,0,0-1.09,4.44,8.86,8.86,0,0,0,5.25,8.24,57.61,57.61,0,0,0,9.29,2.92,26.26,26.26,0,0,1,6.22,2.06,3.69,3.69,0,0,1,1.79,3.25,5.1,5.1,0,0,1-2,4,8.12,8.12,0,0,1-4.51,1.62v-8.66l-4.23-1.13v9.66a8.26,8.26,0,0,1-4-1.71,8.43,8.43,0,0,1-2.83-5.55l-6,.95a13.56,13.56,0,0,0,4.68,8.62,14.91,14.91,0,0,0,8.12,2.79v5.51h4.23v-5.46a17.67,17.67,0,0,0,5.9-1.4,11.55,11.55,0,0,0,5.13-4.16,10.23,10.23,0,0,0,1.77-5.73A8.91,8.91,0,0,0,1434.82,395.32Z"/><path class="cls-27" d="M1458.63,511a37.28,37.28,0,1,1-37.27-37.27A37.27,37.27,0,0,1,1458.63,511Z"/><path class="cls-22" d="M1454.45,511a33.1,33.1,0,1,1-33.09-33.09A33.1,33.1,0,0,1,1454.45,511Z"/><path class="cls-28" d="M1434.82,513.42a9.21,9.21,0,0,0-4-3.2,75.75,75.75,0,0,0-9-2.82q-4.47-1.22-5.38-1.56a5.37,5.37,0,0,1-2.34-1.62,3.39,3.39,0,0,1-.74-2.13,4,4,0,0,1,1.79-3.24,7.85,7.85,0,0,1,4.11-1.31v7.69l4.23,1.08v-8.65a7,7,0,0,1,3.14,1.35,6.48,6.48,0,0,1,2.35,4.33l6-.81a12.86,12.86,0,0,0-2.1-5.56,10.05,10.05,0,0,0-4.72-3.3,18.48,18.48,0,0,0-4.63-1.05v-6h-4.23v5.93a17.43,17.43,0,0,0-3.82.67,12.49,12.49,0,0,0-3.87,1.78,9.87,9.87,0,0,0-3,3.39,9.3,9.3,0,0,0-1.09,4.45,8.86,8.86,0,0,0,5.25,8.24A57.61,57.61,0,0,0,1422,514a26.75,26.75,0,0,1,6.22,2.06,3.69,3.69,0,0,1,1.79,3.25,5.1,5.1,0,0,1-2,4,8.19,8.19,0,0,1-4.51,1.62v-8.66l-4.23-1.13v9.66a8.26,8.26,0,0,1-4-1.71,8.43,8.43,0,0,1-2.83-5.55l-6,1a13.56,13.56,0,0,0,4.68,8.62,14.91,14.91,0,0,0,8.12,2.79v5.51h4.23v-5.46a17.91,17.91,0,0,0,5.9-1.4,11.55,11.55,0,0,0,5.13-4.16,10.23,10.23,0,0,0,1.77-5.73A8.91,8.91,0,0,0,1434.82,513.42Z"/><path class="cls-19" d="M1229.41,367v-9.9a5.66,5.66,0,0,0-5.48-5.84h-12.8a5.66,5.66,0,0,0-5.48,5.84V367Z"/><polygon class="cls-29" points="1217.53 571.07 1205.65 577.87 1217.53 604.59 1229.41 577.87 1217.53 571.07"/><polygon class="cls-27" points="1211.59 575.05 1205.65 577.87 1205.65 376.24 1211.59 376.24 1211.59 575.05"/><polygon class="cls-27" points="1223.47 575.05 1229.41 577.87 1229.41 376.24 1223.47 376.24 1223.47 575.05"/><rect class="cls-30" x="1211.59" y="376.24" width="11.88" height="198.82"/><polygon class="cls-31" points="1212.87 594.12 1217.53 604.59 1222.18 594.12 1212.87 594.12"/><rect class="cls-31" x="1205.65" y="361.7" width="23.76" height="14.54"/><polygon class="cls-18" points="1275.42 579.43 1264.17 579.43 1275.42 607.8 1286.68 579.43 1275.42 579.43"/><path class="cls-19" d="M1285.43,358.22V344.55a4.78,4.78,0,0,0-4.62-4.92H1270a4.77,4.77,0,0,0-4.62,4.92v13.67Z"/><rect class="cls-19" x="1264.17" y="353.11" width="22.51" height="226.32"/><rect class="cls-32" x="1264.17" y="353.11" width="11.26" height="226.32"/><path class="cls-18" d="M1290.75,362.64c-1.07-1.63-2.3-3.52-3-4.87v-4.66h-24.7V367h23.81c4,6.1,8.81,14.2,8.81,24.22,0,9.24-2.09,16.57-4.1,23.66-1.75,6.17-3.41,12-3.41,18.31a2.82,2.82,0,0,0,5.63,0c0-5.54,1.48-10.74,3.19-16.77,2-7.11,4.32-15.18,4.32-25.2C1301.32,378.82,1295,369.08,1290.75,362.64Z"/><path class="cls-5" d="M777.58,547.92a7,7,0,0,0-14,0v7.76H686A459.58,459.58,0,0,0,680.25,792H804.06V636.85h5.17V555.68H777.58Z"/><path class="cls-33" d="M1162.56,595.86V346.11H887.16V812.93h328.42V648.87A53,53,0,0,1,1162.56,595.86Z"/><rect class="cls-17" x="916.59" y="353.32" width="238.93" height="417.44"/><path class="cls-18" d="M1125.49,547.58V339H850.09v474h328.42V600.59A53,53,0,0,1,1125.49,547.58Z"/><rect class="cls-33" x="959.62" y="362.06" width="91.75" height="135.05"/><rect class="cls-17" x="954.22" y="356.91" width="91.75" height="135.05"/><path class="cls-34" d="M999.45,378.94c-6.09,0-9.28-5.5-9.28-10.93V335.16c0-3.79,2.47-7.83,7.06-7.83a7.75,7.75,0,0,1,7.83,7.83v11.21H1002V335.16a4.69,4.69,0,0,0-4.74-4.73c-2.91,0-4,2.83-4,4.73V368c0,3.78,1.93,7.83,6.18,7.83,4.6,0,7.35-2.78,7.35-7.44V325.5c0-6.33-2.74-13.72-10.44-13.72-9.69,0-10.44,9.91-10.44,13V339h-3.09V324.73c0-7.4,3.54-16.05,13.53-16.05s13.53,9.06,13.53,16.82v42.9C1009.89,374.8,1005.79,378.94,999.45,378.94Z"/><rect class="cls-15" x="961.95" y="392.88" width="56.45" height="4.25"/><rect class="cls-15" x="961.95" y="407.05" width="29.64" height="4.25"/><rect class="cls-15" x="961.95" y="421.23" width="29.64" height="4.25"/><rect class="cls-15" x="961.95" y="435.4" width="67.01" height="4.25"/><rect class="cls-15" x="961.95" y="449.58" width="41.24" height="4.25"/><rect class="cls-15" x="978.44" y="463.75" width="56.45" height="4.25"/><rect class="cls-35" x="850.09" y="338.97" width="27.84" height="473.96"/><path class="cls-3" d="M273.5,125.07a21.53,21.53,0,0,0-18.07-9.83H209.07a21.59,21.59,0,0,0-18.1,9.83H142V431.7h36v0h14a21.55,21.55,0,0,0,17.12,8.47h46.36a21.54,21.54,0,0,0,17.13-8.49h187V125.07Z"/><rect class="cls-7" x="1083.7" y="169.18" width="243.89" height="138.34"/><rect class="cls-36" x="1120.79" y="179.77" width="181.69" height="117.17"/><rect class="cls-9" x="1124.91" y="184.08" width="173.46" height="108.55"/><polygon class="cls-10" points="1124.91 184.08 1298.37 184.08 1298.37 292.63 1124.91 184.08"/><rect class="cls-36" x="1311.86" y="210" width="4.78" height="38.21"/><circle class="cls-36" cx="1314.24" cy="263.06" r="3.65"/><path class="cls-37" d="M1102.81,252.78a14.42,14.42,0,1,1,14.42-14.42A14.42,14.42,0,0,1,1102.81,252.78Z"/><path class="cls-38" d="M1102.81,250.53A12.18,12.18,0,1,1,1115,238.36,12.17,12.17,0,0,1,1102.81,250.53Z"/><path class="cls-5" d="M1334.81,278.24a455.37,455.37,0,0,0-209.9-50.92c-11.43,0-22.76.44-34,1.26v88.79h243.88Z"/><polygon class="cls-9" points="365.79 759 334.08 759 334.08 727.29 322.82 727.29 322.82 759 291.11 759 291.11 770.25 322.82 770.25 322.82 801.96 334.08 801.96 334.08 770.25 365.79 770.25 365.79 759"/><rect class="cls-9" x="291.11" y="860.13" width="74.68" height="11.25"/><rect class="cls-9" x="291.11" y="887.75" width="74.68" height="11.25"/><rect class="cls-9" y="877.22" width="74.68" height="11.25"/><rect class="cls-9" y="318.94" width="74.68" height="11.25"/><path class="cls-9" d="M38,304.8a9.07,9.07,0,1,0-9.07-9.07A9.07,9.07,0,0,0,38,304.8Z"/><path class="cls-9" d="M38,344.34A9.07,9.07,0,1,0,47,353.41,9.07,9.07,0,0,0,38,344.34Z"/><rect class="cls-9" x="1065.47" y="947.42" width="74.68" height="11.25"/><path class="cls-9" d="M1103.44,933.27a9.07,9.07,0,1,0-9.07-9.06A9.06,9.06,0,0,0,1103.44,933.27Z"/><path class="cls-9" d="M1103.44,972.82a9.07,9.07,0,1,0,9.06,9.06A9.07,9.07,0,0,0,1103.44,972.82Z"/><rect class="cls-7" x="132.79" y="115.07" width="317.61" height="306.63"/><rect class="cls-38" x="255.28" y="115.07" width="195.12" height="94.58"/><rect class="cls-36" x="168.81" y="115.07" width="76.87" height="306.66"/><path class="cls-37" d="M267.84,409h0V125.17h-.08a21.59,21.59,0,0,0-21.52-19.93H199.9a21.6,21.6,0,0,0-21.6,21.6v65.24a21.59,21.59,0,0,0,19.53,21.49V321.85a21.61,21.61,0,0,0-19.53,21.5v65.24a21.6,21.6,0,0,0,21.6,21.6h46.36A21.59,21.59,0,0,0,267.84,409Z"/><path class="cls-7" d="M228.28,394.91a21.67,21.67,0,0,1-21.67-21.67V162.18a21.67,21.67,0,0,1,21.67-21.66h9.33a21.67,21.67,0,0,1,21.67,21.66V373.24a21.67,21.67,0,0,1-21.67,21.67Z"/><path class="cls-36" d="M328.45,245.13a12.57,12.57,0,1,1-12.56-12.56A12.57,12.57,0,0,1,328.45,245.13Z"/><path class="cls-36" d="M367.62,245.13a12.57,12.57,0,1,1-12.56-12.56A12.56,12.56,0,0,1,367.62,245.13Z"/><path class="cls-36" d="M406.79,245.13a12.57,12.57,0,1,1-12.56-12.56A12.56,12.56,0,0,1,406.79,245.13Z"/><path class="cls-36" d="M328.45,284.85a12.57,12.57,0,1,1-12.56-12.56A12.56,12.56,0,0,1,328.45,284.85Z"/><path class="cls-36" d="M367.62,284.85a12.57,12.57,0,1,1-12.56-12.56A12.56,12.56,0,0,1,367.62,284.85Z"/><path class="cls-36" d="M406.79,284.85a12.57,12.57,0,1,1-12.56-12.56A12.56,12.56,0,0,1,406.79,284.85Z"/><path class="cls-36" d="M328.45,324.57A12.57,12.57,0,1,1,315.89,312,12.56,12.56,0,0,1,328.45,324.57Z"/><path class="cls-36" d="M367.62,324.57A12.57,12.57,0,1,1,355.06,312,12.56,12.56,0,0,1,367.62,324.57Z"/><path class="cls-36" d="M406.79,324.57A12.57,12.57,0,1,1,394.23,312,12.56,12.56,0,0,1,406.79,324.57Z"/><path class="cls-11" d="M328.45,364.29a12.57,12.57,0,1,1-12.56-12.56A12.56,12.56,0,0,1,328.45,364.29Z"/><path class="cls-36" d="M367.62,364.29a12.57,12.57,0,1,1-12.56-12.56A12.56,12.56,0,0,1,367.62,364.29Z"/><path class="cls-12" d="M406.79,364.29a12.57,12.57,0,1,1-12.56-12.56A12.56,12.56,0,0,1,406.79,364.29Z"/><rect class="cls-9" x="303.32" y="154.96" width="106.43" height="31.04"/><polygon class="cls-10" points="303.32 186 303.32 154.96 409.75 154.96 303.32 186"/><rect class="cls-18" x="495.18" y="559.76" width="303.26" height="68.16"/><path class="cls-39" d="M543,593.84a9.16,9.16,0,1,1-9.16-9.16A9.16,9.16,0,0,1,543,593.84Z"/><path class="cls-39" d="M769,593.84a9.16,9.16,0,1,1-9.16-9.16A9.16,9.16,0,0,1,769,593.84Z"/><rect class="cls-40" x="500.35" y="627.92" width="292.92" height="155.11"/><rect class="cls-41" x="500.35" y="627.92" width="292.92" height="6.62"/><rect class="cls-39" x="495.18" y="546.75" width="303.26" height="13.01"/><path class="cls-22" d="M533.81,599.27a7,7,0,0,1-7-7V539a7,7,0,0,1,14,0v53.29A7,7,0,0,1,533.81,599.27Z"/><path class="cls-22" d="M759.8,599.27a7,7,0,0,1-7-7V539a7,7,0,1,1,14,0v53.29A7,7,0,0,1,759.8,599.27Z"/><rect class="cls-18" x="531.32" y="677.36" width="27.64" height="14.47"/><rect class="cls-12" x="565.2" y="677.36" width="27.64" height="14.47"/><rect class="cls-12" x="599.1" y="677.36" width="27.64" height="14.47"/><rect class="cls-12" x="632.98" y="677.36" width="27.64" height="14.47"/><rect class="cls-12" x="666.87" y="677.36" width="27.64" height="14.47"/><rect class="cls-12" x="700.76" y="677.36" width="27.64" height="14.47"/><rect class="cls-12" x="734.65" y="677.36" width="27.64" height="14.47"/><rect class="cls-18" x="531.32" y="698.74" width="27.64" height="14.47"/><rect class="cls-12" x="565.2" y="698.74" width="27.64" height="14.47"/><rect class="cls-12" x="599.1" y="698.74" width="27.64" height="14.47"/><rect class="cls-18" x="632.98" y="698.74" width="27.64" height="14.47"/><rect class="cls-18" x="666.87" y="698.74" width="27.64" height="14.47"/><rect class="cls-12" x="700.76" y="698.74" width="27.64" height="14.47"/><rect class="cls-12" x="734.65" y="698.74" width="27.64" height="14.47"/><rect class="cls-18" x="531.32" y="720.12" width="27.64" height="14.47"/><rect class="cls-12" x="565.2" y="720.12" width="27.64" height="14.47"/><rect class="cls-12" x="599.1" y="720.12" width="27.64" height="14.47"/><rect class="cls-12" x="632.98" y="720.12" width="27.64" height="14.47"/><rect class="cls-12" x="666.87" y="720.12" width="27.64" height="14.47"/><rect class="cls-12" x="700.76" y="720.12" width="27.64" height="14.47"/><rect class="cls-12" x="734.65" y="720.12" width="27.64" height="14.47"/><rect class="cls-18" x="531.32" y="741.5" width="27.64" height="14.47"/><rect class="cls-12" x="565.2" y="741.5" width="27.64" height="14.47"/><rect class="cls-12" x="599.1" y="741.5" width="27.64" height="14.47"/><rect class="cls-12" x="632.98" y="741.5" width="27.64" height="14.47"/><rect class="cls-12" x="666.87" y="741.5" width="27.64" height="14.47"/><rect class="cls-41" x="700.76" y="741.5" width="27.64" height="14.47"/><rect class="cls-41" x="734.65" y="741.5" width="27.64" height="14.47"/><rect class="cls-12" x="603.78" y="643.95" width="86.05" height="16.03"/><rect class="cls-7" x="1083.7" y="169.18" width="243.89" height="138.34"/><rect class="cls-36" x="1120.79" y="179.77" width="181.69" height="117.17"/><rect class="cls-9" x="1124.91" y="184.08" width="173.46" height="108.55"/><polygon class="cls-10" points="1124.91 184.08 1298.37 184.08 1298.37 292.63 1124.91 184.08"/><rect class="cls-36" x="1311.86" y="210" width="4.78" height="38.21"/><circle class="cls-36" cx="1314.24" cy="263.06" r="3.65"/><path class="cls-37" d="M1102.81,252.78a14.42,14.42,0,1,1,14.42-14.42A14.42,14.42,0,0,1,1102.81,252.78Z"/><path class="cls-38" d="M1102.81,250.53A12.18,12.18,0,1,1,1115,238.36,12.17,12.17,0,0,1,1102.81,250.53Z"/><polygon class="cls-15" points="797.14 491.06 496.46 491.06 496.46 109.09 540.39 64.37 797.14 64.37 797.14 491.06"/><polygon class="cls-16" points="792.14 486.06 491.46 486.06 491.46 104.09 535.39 59.37 792.14 59.37 792.14 486.06"/><polygon class="cls-17" points="787.13 481.06 486.46 481.06 486.46 99.09 530.38 54.37 787.13 54.37 787.13 481.06"/><rect class="cls-18" x="592.81" y="48.67" width="87.97" height="35.79"/><rect class="cls-19" x="592.81" y="38.89" width="87.97" height="9.78"/><path class="cls-20" d="M666.42,86.74a2.29,2.29,0,0,1-2.15-1.49l-18-48.56a2.29,2.29,0,0,1-.12-1.13c0-.14,2.17-14.53,2.47-19.28a10.47,10.47,0,0,0-2.92-7.85,12.29,12.29,0,0,0-17.89,0,10.43,10.43,0,0,0-2.92,7.85c.3,4.75,2.45,19.14,2.47,19.28a2.18,2.18,0,0,1-.12,1.13l-18,48.56A2.29,2.29,0,0,1,605,83.67l17.77-48c-.42-2.81-2.15-14.66-2.43-19.09a15,15,0,0,1,4.14-11.26,16.87,16.87,0,0,1,24.56,0,15,15,0,0,1,4.15,11.27c-.28,4.43-2,16.28-2.43,19.09l17.77,48a2.28,2.28,0,0,1-1.35,2.93A2.2,2.2,0,0,1,666.42,86.74Z"/><polygon class="cls-21" points="530.38 54.37 530.38 99.09 486.77 99.09 530.38 54.37"/><path class="cls-18" d="M567.07,122.87v48.55h48.57A48.56,48.56,0,0,0,567.07,122.87Z"/><path class="cls-19" d="M567.07,215.91V171.42h44.5A44.49,44.49,0,0,1,567.07,215.91Z"/><path class="cls-22" d="M567.07,224.37v-53h-53A53,53,0,0,0,567.07,224.37Z"/><path class="cls-12" d="M567.07,142.34v29.08H538A29.08,29.08,0,0,1,567.07,142.34Z"/><path class="cls-22" d="M637.4,350.81H521.81a1.61,1.61,0,0,1-1.61-1.61V269.33a1.61,1.61,0,1,1,3.22,0v78.26h114a1.61,1.61,0,0,1,0,3.22Z"/><path class="cls-18" d="M630.67,340.33h-.13a1.06,1.06,0,0,1-.94-1l-2-52.25L609.8,314.31a1.07,1.07,0,0,1-1.5.31l-15.94-10.8-26.52,25.73a1.1,1.1,0,0,1-1.22.2l-11.78-5.64-21.79,16a1.07,1.07,0,1,1-1.27-1.73L552.09,322a1.06,1.06,0,0,1,1.1-.1l11.69,5.59,26.61-25.82a1.07,1.07,0,0,1,1.35-.12l15.76,10.67,19-29.18a1.08,1.08,0,0,1,2,.55l1.9,49.2L644.7,289a1.08,1.08,0,0,1,2.06.62l-15.06,50A1.06,1.06,0,0,1,630.67,340.33Z"/><rect class="cls-18" x="646.8" y="147.67" width="109.43" height="6.53"/><rect class="cls-22" x="646.8" y="164.87" width="109.43" height="6.53"/><rect class="cls-19" x="646.8" y="182.06" width="109.43" height="6.53"/><rect class="cls-12" x="646.8" y="199.26" width="63.16" height="6.53"/><rect class="cls-15" x="520.2" y="365.98" width="222.88" height="7.03"/><rect class="cls-15" x="520.2" y="386.14" width="222.88" height="7.03"/><rect class="cls-15" x="520.2" y="406.3" width="222.88" height="7.03"/><rect class="cls-15" x="520.2" y="426.46" width="222.88" height="7.03"/></g></g></g></svg>