<svg xmlns="http://www.w3.org/2000/svg" xmlns:xlink="http://www.w3.org/1999/xlink" viewBox="0 0 1988.72 1424.79"><defs><style>.cls-1{fill:url(#linear-gradient);}.cls-2{fill:url(#linear-gradient-2);}.cls-3{fill:url(#linear-gradient-3);}.cls-4{mask:url(#mask);}.cls-5{fill:#c6d6de;}.cls-6{fill:#013754;}.cls-7{fill:#01283d;}.cls-8{fill:#5f5c78;}.cls-9{fill:#767395;}.cls-10{fill:#6d6a8a;}.cls-11{fill:#b8d0dc;}.cls-12{fill:#d4effc;}.cls-13{fill:#f5917c;}.cls-14{fill:#85cea8;}.cls-15{fill:#bdbccc;}.cls-16{fill:#efeef2;}.cls-17{fill:#c7c8ca;}.cls-18{fill:#d1d3d4;}.cls-19{fill:#e6e7e8;}.cls-20{fill:#f26649;}.cls-21,.cls-58{fill:#f58466;}.cls-22{fill:#5f5654;}.cls-23{fill:#dcddde;}.cls-24{fill:#fdb913;}.cls-25{fill:#2fb56a;}.cls-26{fill:#258f54;}.cls-27{fill:#94cc79;}.cls-28{fill:#fff33e;}.cls-29{fill:#e6a300;}.cls-30{fill:#d69d10;}.cls-31{fill:#f8d399;}.cls-32{fill:#f5c349;}.cls-33{fill:#64625e;}.cls-34{fill:#f7a58f;}.cls-35{fill:#b33e26;}.cls-36{fill:#5d5753;}.cls-37{fill:#e85e41;}.cls-38{fill:#4b485e;}.cls-39{fill:#696685;}.cls-40{fill:#5d5a75;}.cls-41{fill:#e85233;}.cls-42{fill:#fee9b6;}.cls-43{fill:#fed779;}.cls-44{mask:url(#mask-2);}.cls-45{fill:#1b3b49;}.cls-46{fill:#fff;}.cls-47{fill:#54c3f0;}.cls-48{fill:#27aae1;}.cls-49{fill:#375e70;}.cls-50{fill:#305460;}.cls-51{fill:#193544;}.cls-52{fill:#245666;}.cls-53{fill:#4d8daf;}.cls-54{fill:#88bdd4;}.cls-55{fill:#132b35;}.cls-56{fill:#6fb0b5;}.cls-57{fill:#88d3e3;}.cls-58,.cls-59,.cls-60,.cls-61{fill-rule:evenodd;}.cls-59{fill:#fdd1b3;}.cls-60{fill:#9b4021;}.cls-61{fill:#f26722;}.cls-62{mask:url(#mask-3);}.cls-63{fill:#7795c2;}.cls-64{fill:#eaf1f6;}.cls-65{fill:#3f618f;}.cls-66{fill:#355989;}.cls-67{fill:#355a89;}.cls-68{fill:#e2f0f5;}.cls-69{fill:#336092;}.cls-70{fill:#eff6f7;}.cls-71{fill:#cde2ee;}.cls-72{fill:#e6f2f6;}.cls-73{fill:#c0dcec;}.cls-74{fill:#2f5988;}</style><linearGradient id="linear-gradient" x1="649.96" y1="743.36" x2="1435.58" y2="743.36" gradientUnits="userSpaceOnUse"><stop offset="0.13" stop-color="#fff"/><stop offset="0.24" stop-color="#e7e7e7"/><stop offset="0.46" stop-color="#a9a9a9"/><stop offset="0.78" stop-color="#474747"/><stop offset="1"/></linearGradient><linearGradient id="linear-gradient-2" x1="961.28" y1="743.62" x2="-13.26" y2="743.62" gradientUnits="userSpaceOnUse"><stop offset="0.01" stop-color="#fff"/><stop offset="0.11" stop-color="#c9c9c9"/><stop offset="0.23" stop-color="#828282"/><stop offset="0.35" stop-color="#4a4a4a"/><stop offset="0.45" stop-color="#222"/><stop offset="0.53" stop-color="#090909"/><stop offset="0.57"/></linearGradient><linearGradient id="linear-gradient-3" x1="509.62" y1="367.79" x2="509.62" y2="1284.15" gradientUnits="userSpaceOnUse"><stop offset="0.05" stop-color="#fff"/><stop offset="0.26" stop-color="#aeaeae"/><stop offset="0.52" stop-color="#515151"/><stop offset="0.71" stop-color="#171717"/><stop offset="0.79"/></linearGradient><mask id="mask" x="406.43" y="203.1" width="1582.29" height="1221.7" maskUnits="userSpaceOnUse"><polygon class="cls-1" points="583.44 1283.62 1449.78 1283.56 1449.78 203.62 1017.35 203.1 583.44 1283.62"/></mask><mask id="mask-2" x="59.08" y="0" width="1231.52" height="1283.62" maskUnits="userSpaceOnUse"><polygon class="cls-2" points="582.26 1283.62 59.08 1283.62 59.08 203.68 1017.58 203.62 582.26 1283.62"/></mask><mask id="mask-3" x="-234.74" y="204.16" width="1488.73" height="1080" maskUnits="userSpaceOnUse"><polygon class="cls-3" points="818.66 1284.16 -234.74 1284.16 -234.74 204.16 1253.98 204.16 818.66 1284.16"/></mask></defs><title>main</title><g id="Layer_2" data-name="Layer 2"><g id="Layer_3" data-name="Layer 3"><g class="cls-4"><polygon class="cls-5" points="908.69 483.26 908.69 777.87 913.69 777.87 913.69 782.87 918.7 782.87 918.7 787.87 1219.37 787.87 1219.37 483.26 908.69 483.26"/><path class="cls-5" d="M582.85,796.85V920.91c84.6,29.77,169.2-29.77,253.8,0V796.85C752.05,767.07,667.45,826.62,582.85,796.85Z"/><ellipse class="cls-6" cx="1531.34" cy="967.52" rx="457.27" ry="457.37" transform="translate(558.36 2495.4) rotate(-89.8)"/><path class="cls-7" d="M1461.94,598.25V515.49a454.92,454.92,0,0,0-200.35,82.76Z"/><path class="cls-7" d="M1672.24,944.21v122.43c83.48,29.38,167-29.38,250.45,0V944.21C1839.21,914.83,1755.72,973.6,1672.24,944.21Z"/><path class="cls-7" d="M1640.51,641.55h-12.79a5.67,5.67,0,0,0-5.48,5.84v19.13h0V868.14l7.23,16.26h0l4.66,10.47L1646,868.14V647.39A5.67,5.67,0,0,0,1640.51,641.55Z"/><path class="cls-7" d="M1707.33,652.92c-1.06-1.63-2.29-3.52-3-4.87v-4.67H1702v-8.56a4.77,4.77,0,0,0-4.61-4.92h-10.78a4.78,4.78,0,0,0-4.62,4.92v8.56h-2.34v13.91h1.09V869.71L1692,898.07l11.25-28.36V657.29h.21c4,6.11,8.8,14.21,8.8,24.23,0,9.23-2.08,16.57-4.1,23.66-1.75,6.16-3.4,12-3.4,18.31a2.81,2.81,0,1,0,5.62,0c0-5.54,1.48-10.75,3.2-16.78,2-7.11,4.31-15.17,4.31-25.19C1717.9,669.1,1711.54,659.36,1707.33,652.92Z"/><path class="cls-7" d="M1598.86,932V898.82A53.07,53.07,0,0,1,1583,896.4c0-.77-.06-1.53-.06-2.3V644.35h-37.07v-7.14h-115.6V623.74c0-7.76-3.55-16.82-13.53-16.82s-13.53,8.64-13.53,16v14.25H1270.44v474h365.49V947.11A52.85,52.85,0,0,1,1598.86,932ZM1422.31,637.21h-8.7V633.4c0-1.91,1.06-4.74,4-4.74a4.69,4.69,0,0,1,4.74,4.74Zm-16-14.25c0-3,.75-13,10.44-13,7.7,0,10.44,7.39,10.44,13.73v13.47h-1.74V633.4a7.76,7.76,0,0,0-7.84-7.83c-4.58,0-7,4-7,7.83v3.81h-4.25Z"/><rect class="cls-8" x="1246.78" y="349.52" width="202.57" height="237.47"/><rect class="cls-9" x="1246.78" y="349.52" width="192.48" height="224.78"/><rect class="cls-10" x="1246.78" y="349.52" width="192.48" height="78.22"/><rect class="cls-11" x="1263.72" y="372.54" width="162.04" height="37.69"/><polygon class="cls-12" points="1347.67 410.23 1385.74 372.54 1337.06 372.54 1298.99 410.23 1347.67 410.23"/><polygon class="cls-12" points="1369.51 410.23 1407.59 372.54 1396.35 372.54 1358.28 410.23 1369.51 410.23"/><rect class="cls-13" x="1263.72" y="439.33" width="23.99" height="15.44" rx="3.94"/><rect class="cls-14" x="1298.24" y="439.33" width="23.99" height="15.44" rx="3.94"/><rect class="cls-15" x="1332.75" y="439.33" width="23.99" height="15.44" rx="3.94"/><rect class="cls-15" x="1367.26" y="439.33" width="23.99" height="15.44" rx="3.94"/><rect class="cls-15" x="1401.78" y="439.33" width="23.99" height="15.44" rx="3.94"/><rect class="cls-16" x="1263.72" y="464.07" width="23.99" height="15.44" rx="3.94"/><rect class="cls-16" x="1298.24" y="464.07" width="23.99" height="15.44" rx="3.94"/><rect class="cls-16" x="1332.75" y="464.07" width="23.99" height="15.44" rx="3.94"/><rect class="cls-15" x="1367.26" y="464.07" width="23.99" height="15.44" rx="3.94"/><rect class="cls-15" x="1401.78" y="464.07" width="23.99" height="15.44" rx="3.94"/><rect class="cls-16" x="1263.72" y="488.82" width="23.99" height="15.44" rx="3.94"/><rect class="cls-16" x="1298.24" y="488.82" width="23.99" height="15.44" rx="3.94"/><rect class="cls-16" x="1332.75" y="488.82" width="23.99" height="15.44" rx="3.94"/><rect class="cls-15" x="1367.26" y="488.82" width="23.99" height="15.44" rx="3.94"/><rect class="cls-16" x="1263.72" y="513.56" width="23.99" height="15.44" rx="3.94"/><rect class="cls-16" x="1298.24" y="513.56" width="23.99" height="15.44" rx="3.94"/><rect class="cls-16" x="1332.75" y="513.56" width="23.99" height="15.44" rx="3.94"/><rect class="cls-15" x="1367.26" y="513.56" width="23.99" height="15.44" rx="3.94"/><path class="cls-16" d="M1267.67,538.31h16.1a3.94,3.94,0,0,1,3.94,3.94v7.56a3.94,3.94,0,0,1-3.94,3.94h-16.1a3.94,3.94,0,0,1-3.94-3.94v-7.55A3.95,3.95,0,0,1,1267.67,538.31Z"/><path class="cls-16" d="M1302.18,538.31h16.1a3.94,3.94,0,0,1,3.94,3.94v7.56a3.94,3.94,0,0,1-3.94,3.94h-16.1a3.94,3.94,0,0,1-3.94-3.94v-7.56A3.95,3.95,0,0,1,1302.18,538.31Z"/><path class="cls-16" d="M1356.74,549.81a3.94,3.94,0,0,1-3.94,3.94h-16.11a3.94,3.94,0,0,1-3.94-3.94v-7.56a3.94,3.94,0,0,1,3.94-3.94h16.11a3.94,3.94,0,0,1,3.94,3.94Z"/><path class="cls-15" d="M1371.21,538.31h16.1a3.94,3.94,0,0,1,3.94,3.94v7.56a3.94,3.94,0,0,1-3.94,3.94h-16.1a3.94,3.94,0,0,1-3.94-3.94v-7.56A3.95,3.95,0,0,1,1371.21,538.31Z"/><path class="cls-15" d="M1405.72,538.31h16.1a3.94,3.94,0,0,1,3.94,3.94v7.56a3.94,3.94,0,0,1-3.94,3.94h-16.1a3.94,3.94,0,0,1-3.94-3.94v-7.56A3.95,3.95,0,0,1,1405.72,538.31Z"/><path class="cls-15" d="M1421.82,488.82h-16.1a3.93,3.93,0,0,0-3.94,3.94v32.3a3.94,3.94,0,0,0,3.94,4h16.1a3.94,3.94,0,0,0,3.94-4v-32.3A3.93,3.93,0,0,0,1421.82,488.82Z"/><polygon class="cls-17" points="1203.57 773.99 902.89 773.99 902.89 392.02 946.82 347.3 1203.57 347.3 1203.57 773.99"/><polygon class="cls-18" points="1198.57 768.99 897.89 768.99 897.89 387.02 941.82 342.3 1198.57 342.3 1198.57 768.99"/><polygon class="cls-19" points="1193.56 763.99 892.89 763.99 892.89 382.02 936.81 337.3 1193.56 337.3 1193.56 763.99"/><rect class="cls-20" x="999.24" y="331.6" width="87.97" height="35.79"/><rect class="cls-21" x="999.24" y="321.82" width="87.97" height="9.78"/><path class="cls-22" d="M1072.85,369.67a2.29,2.29,0,0,1-2.15-1.49l-18-48.56a2.18,2.18,0,0,1-.12-1.13c0-.14,2.17-14.53,2.47-19.28a10.47,10.47,0,0,0-2.92-7.85,12.31,12.31,0,0,0-17.9,0,10.46,10.46,0,0,0-2.91,7.85c.3,4.75,2.45,19.14,2.47,19.28a2.18,2.18,0,0,1-.12,1.13l-18,48.56a2.29,2.29,0,0,1-4.29-1.59l17.76-48c-.41-2.81-2.14-14.66-2.42-19.09a15,15,0,0,1,4.14-11.27,16.88,16.88,0,0,1,24.56,0,15,15,0,0,1,4.15,11.27c-.28,4.43-2,16.28-2.43,19.09l17.77,48a2.29,2.29,0,0,1-1.35,2.94A2.2,2.2,0,0,1,1072.85,369.67Z"/><polygon class="cls-23" points="936.81 337.3 936.81 382.02 893.2 382.02 936.81 337.3"/><path class="cls-20" d="M973.5,405.8v48.55h48.57A48.56,48.56,0,0,0,973.5,405.8Z"/><path class="cls-21" d="M973.5,498.84V454.35H1018A44.49,44.49,0,0,1,973.5,498.84Z"/><path class="cls-24" d="M973.5,507.3V454.35h-53A53,53,0,0,0,973.5,507.3Z"/><path class="cls-14" d="M973.5,425.27v29.08H944.41A29.09,29.09,0,0,1,973.5,425.27Z"/><path class="cls-24" d="M1043.82,633.74H928.24a1.61,1.61,0,0,1-1.61-1.61V552.26a1.61,1.61,0,1,1,3.22,0v78.26h114a1.61,1.61,0,1,1,0,3.22Z"/><path class="cls-20" d="M1037.1,623.26H1037a1.06,1.06,0,0,1-.94-1L1034,570l-17.78,27.26a1.07,1.07,0,0,1-1.5.31l-15.94-10.8-26.52,25.73a1.1,1.1,0,0,1-1.22.2L959.27,607l-21.79,16a1.07,1.07,0,1,1-1.27-1.73l22.31-16.39a1.09,1.09,0,0,1,1.1-.11l11.69,5.59,26.61-25.81a1.07,1.07,0,0,1,1.35-.12L1015,595.15l19-29.18a1.08,1.08,0,0,1,2,.55l1.9,49.2,13.2-43.83a1.08,1.08,0,1,1,2.06.62l-15.06,50A1.06,1.06,0,0,1,1037.1,623.26Z"/><rect class="cls-20" x="1053.23" y="430.6" width="109.43" height="6.53"/><rect class="cls-24" x="1053.23" y="447.8" width="109.43" height="6.53"/><rect class="cls-21" x="1053.23" y="464.99" width="109.43" height="6.53"/><rect class="cls-14" x="1053.23" y="482.18" width="63.16" height="6.53"/><rect class="cls-17" x="926.63" y="648.9" width="222.88" height="7.03"/><rect class="cls-17" x="926.63" y="669.07" width="222.88" height="7.03"/><rect class="cls-17" x="926.63" y="689.23" width="222.88" height="7.03"/><rect class="cls-17" x="926.63" y="709.39" width="222.88" height="7.03"/><path class="cls-7" d="M1219.37,787.87V633.18a458.27,458.27,0,0,0-108.73,154.69Z"/><path class="cls-25" d="M831.34,907.16c-84.6-29.78-169.2,29.77-253.8,0V783.1c84.6,29.77,169.2-29.78,253.8,0Z"/><path class="cls-26" d="M825.94,900c-81-24.95-162,28.5-243,3.56V885.71c81,24.95,162-28.51,243-3.56Z"/><path class="cls-27" d="M657.78,834a46.64,46.64,0,0,1,26.74-42.2c-33.86,5.52-67.72,8.79-101.58-1.64V881.4c39,12,77.91,5.86,116.87-1A46.65,46.65,0,0,1,657.78,834Z"/><path class="cls-27" d="M709.07,787.58a46.66,46.66,0,0,1,15.3,88.62c33.85-5.51,67.71-8.79,101.57,1.64V786.61C787,774.61,748,780.75,709.07,787.58Z"/><ellipse class="cls-28" cx="704.44" cy="834.01" rx="40.11" ry="40.1" transform="translate(-1.7 1.44) rotate(-0.12)"/><path class="cls-25" d="M720.75,837a11.09,11.09,0,0,0-4.85-3.87A90.4,90.4,0,0,0,705,829.67q-5.4-1.47-6.51-1.88a6.5,6.5,0,0,1-2.83-2,4.09,4.09,0,0,1-.9-2.58,4.9,4.9,0,0,1,2.17-3.94,9.62,9.62,0,0,1,5-1.58V827l5.13,1.31V817.87a8.61,8.61,0,0,1,3.81,1.64,7.82,7.82,0,0,1,2.84,5.24l7.22-1a15.69,15.69,0,0,0-2.54-6.74,12.31,12.31,0,0,0-5.72-4,22.72,22.72,0,0,0-5.61-1.27v-7.32h-5.13v7.18a21.54,21.54,0,0,0-4.63.82,15.34,15.34,0,0,0-4.69,2.15,12,12,0,0,0-3.63,4.12,11.18,11.18,0,0,0-1.33,5.39,11,11,0,0,0,1.62,5.84,10.87,10.87,0,0,0,4.75,4.14,70.07,70.07,0,0,0,11.25,3.54q6,1.51,7.54,2.5a4.49,4.49,0,0,1,2.18,3.93,6.17,6.17,0,0,1-2.47,4.86,9.8,9.8,0,0,1-5.46,2V840.38L701.88,839v11.71a10,10,0,0,1-4.79-2.08,10.13,10.13,0,0,1-3.43-6.72l-7.29,1.15Q687.6,850,692,853.52c2.4,1.9,5.69,3,9.84,3.38v6.67H707V857a21.55,21.55,0,0,0,7.15-1.7,13.91,13.91,0,0,0,6.2-5,12.35,12.35,0,0,0,2.16-7A10.79,10.79,0,0,0,720.75,837Z"/><path class="cls-25" d="M1913.43,1055.39c-83.48-29.38-167,29.38-250.45,0V933c83.48,29.38,167-29.38,250.45,0Z"/><path class="cls-26" d="M1908.1,1048.36c-79.93-24.62-159.86,28.13-239.79,3.51v-17.65c79.93,24.62,159.86-28.13,239.79-3.51Z"/><path class="cls-27" d="M1742.15,983.2a46.05,46.05,0,0,1,26.39-41.64c-33.41,5.44-66.82,8.67-100.23-1.61v90c38.44,11.84,76.88,5.78,115.32-1A46,46,0,0,1,1742.15,983.2Z"/><path class="cls-27" d="M1792.77,937.39a46,46,0,0,1,15.1,87.45c33.41-5.45,66.82-8.67,100.23,1.61v-90C1869.66,924.59,1831.21,930.65,1792.77,937.39Z"/><path class="cls-28" d="M1827.78,983.2a39.58,39.58,0,1,1-39.58-39.57A39.58,39.58,0,0,1,1827.78,983.2Z"/><path class="cls-25" d="M1804.3,986.12a10.93,10.93,0,0,0-4.79-3.82,89.92,89.92,0,0,0-10.78-3.38q-5.34-1.45-6.43-1.86a6.38,6.38,0,0,1-2.79-1.94,4,4,0,0,1-.89-2.55,4.81,4.81,0,0,1,2.14-3.88,9.46,9.46,0,0,1,4.92-1.56v9.2l5,1.29V967.28a8.34,8.34,0,0,1,3.76,1.61,7.78,7.78,0,0,1,2.81,5.18l7.12-1a15.5,15.5,0,0,0-2.5-6.66,12.25,12.25,0,0,0-5.65-3.94,22.06,22.06,0,0,0-5.54-1.25V954h-5v7.08a20.89,20.89,0,0,0-4.57.81,15.06,15.06,0,0,0-4.63,2.12,11.63,11.63,0,0,0-3.58,4.06,11.07,11.07,0,0,0-1.32,5.32,10.62,10.62,0,0,0,6.29,9.85,68.3,68.3,0,0,0,11.1,3.5c4,1,6.45,1.81,7.44,2.46a4.43,4.43,0,0,1,2.15,3.88,6.11,6.11,0,0,1-2.43,4.8,9.76,9.76,0,0,1-5.4,1.93V989.49l-5-1.35v11.55a9.3,9.3,0,0,1-8.11-8.68l-7.2,1.13q1.22,6.84,5.6,10.31c2.36,1.88,5.61,3,9.71,3.34v6.58h5v-6.51a21.45,21.45,0,0,0,7.06-1.69,13.75,13.75,0,0,0,6.13-5,12.25,12.25,0,0,0,2.12-6.85A10.65,10.65,0,0,0,1804.3,986.12Z"/><path class="cls-29" d="M1006.87,1165a37.28,37.28,0,1,1-37.27-37.27A37.27,37.27,0,0,1,1006.87,1165Z"/><path class="cls-24" d="M1002.7,1165a33.1,33.1,0,1,1-33.1-33.09A33.09,33.09,0,0,1,1002.7,1165Z"/><path class="cls-30" d="M983.06,1167.42a9.28,9.28,0,0,0-4-3.2,75.75,75.75,0,0,0-9-2.82q-4.47-1.22-5.38-1.55a5.29,5.29,0,0,1-2.33-1.63,3.34,3.34,0,0,1-.75-2.13,4,4,0,0,1,1.79-3.24,7.94,7.94,0,0,1,4.11-1.31v7.69l4.23,1.08v-8.65a7.2,7.2,0,0,1,3.15,1.35,6.56,6.56,0,0,1,2.35,4.34l5.95-.82a12.79,12.79,0,0,0-2.1-5.56,10.07,10.07,0,0,0-4.72-3.3,18.48,18.48,0,0,0-4.63-1.05v-6h-4.23v5.93a17.44,17.44,0,0,0-3.82.68,12.49,12.49,0,0,0-3.87,1.77,9.78,9.78,0,0,0-3,3.4,9.13,9.13,0,0,0-1.1,4.44A8.85,8.85,0,0,0,961,1165a57.4,57.4,0,0,0,9.28,2.92,26.57,26.57,0,0,1,6.22,2.06,3.71,3.71,0,0,1,1.8,3.25,5.13,5.13,0,0,1-2,4,8.12,8.12,0,0,1-4.52,1.62v-8.66l-4.23-1.13v9.66a8.3,8.3,0,0,1-4-1.71,8.41,8.41,0,0,1-2.83-5.55l-6,1a13.52,13.52,0,0,0,4.69,8.62,14.87,14.87,0,0,0,8.11,2.79v5.51h4.23v-5.45a17.92,17.92,0,0,0,5.9-1.41,11.5,11.5,0,0,0,5.13-4.16,10.23,10.23,0,0,0,1.77-5.73A8.91,8.91,0,0,0,983.06,1167.42Z"/><path class="cls-29" d="M1145.22,1166.94a37.27,37.27,0,1,1-37.27-37.27A37.27,37.27,0,0,1,1145.22,1166.94Z"/><path class="cls-24" d="M1141.05,1166.94a33.1,33.1,0,1,1-33.1-33.09A33.1,33.1,0,0,1,1141.05,1166.94Z"/><path class="cls-30" d="M1121.41,1169.38a9.14,9.14,0,0,0-4-3.2,75.13,75.13,0,0,0-9-2.82q-4.47-1.21-5.38-1.56a5.36,5.36,0,0,1-2.33-1.62,3.34,3.34,0,0,1-.75-2.13,4,4,0,0,1,1.8-3.25,7.88,7.88,0,0,1,4.11-1.3v7.69l4.23,1.08v-8.65a7.09,7.09,0,0,1,3.14,1.35,6.5,6.5,0,0,1,2.35,4.33l6-.81a13,13,0,0,0-2.09-5.57,10.16,10.16,0,0,0-4.72-3.29,19.15,19.15,0,0,0-4.63-1.06v-6h-4.23v5.92a17.53,17.53,0,0,0-3.83.68,12.72,12.72,0,0,0-3.87,1.77,10,10,0,0,0-3,3.4,9.2,9.2,0,0,0-1.1,4.45,8.82,8.82,0,0,0,5.26,8.23,56.15,56.15,0,0,0,9.28,2.93,26.4,26.4,0,0,1,6.23,2.06,3.71,3.71,0,0,1,1.79,3.25,5.13,5.13,0,0,1-2,4,8.19,8.19,0,0,1-4.51,1.62v-8.66l-4.23-1.14v9.67a7.8,7.8,0,0,1-6.78-7.26l-6,.94q1,5.71,4.69,8.63a15,15,0,0,0,8.12,2.79v5.5h4.23v-5.45a17.91,17.91,0,0,0,5.9-1.4,11.47,11.47,0,0,0,5.12-4.16,10.25,10.25,0,0,0,1.77-5.73A8.91,8.91,0,0,0,1121.41,1169.38Z"/><path class="cls-29" d="M1865.06,675.81a37.28,37.28,0,1,1-37.28-37.27A37.27,37.27,0,0,1,1865.06,675.81Z"/><path class="cls-24" d="M1860.88,675.81a33.1,33.1,0,1,1-33.1-33.09A33.1,33.1,0,0,1,1860.88,675.81Z"/><path class="cls-30" d="M1841.25,678.25a9.21,9.21,0,0,0-4-3.2,75.45,75.45,0,0,0-9-2.82c-3-.81-4.77-1.33-5.37-1.55a5.47,5.47,0,0,1-2.34-1.63,3.39,3.39,0,0,1-.74-2.13,4,4,0,0,1,1.79-3.24,7.85,7.85,0,0,1,4.11-1.31v7.69l4.23,1.08v-8.65a7,7,0,0,1,3.14,1.35,6.52,6.52,0,0,1,2.35,4.33l6-.81a12.86,12.86,0,0,0-2.1-5.56,10.05,10.05,0,0,0-4.72-3.3,18.48,18.48,0,0,0-4.63-1v-6h-4.23v5.93a17.43,17.43,0,0,0-3.82.67,12.49,12.49,0,0,0-3.87,1.78,9.87,9.87,0,0,0-3,3.39,9.31,9.31,0,0,0-1.1,4.45,8.89,8.89,0,0,0,5.26,8.24,57.61,57.61,0,0,0,9.29,2.92,26.26,26.26,0,0,1,6.22,2.06,3.71,3.71,0,0,1,1.79,3.25,5.1,5.1,0,0,1-2,4,8.19,8.19,0,0,1-4.51,1.62v-8.66l-4.23-1.13v9.66a8.34,8.34,0,0,1-4-1.71,8.46,8.46,0,0,1-2.82-5.55l-6,.95a13.51,13.51,0,0,0,4.68,8.62,14.91,14.91,0,0,0,8.12,2.79v5.51h4.23v-5.46a17.67,17.67,0,0,0,5.9-1.4,11.55,11.55,0,0,0,5.13-4.16,10.23,10.23,0,0,0,1.77-5.73A8.91,8.91,0,0,0,1841.25,678.25Z"/><path class="cls-29" d="M1865.06,793.91a37.28,37.28,0,1,1-37.28-37.27A37.27,37.27,0,0,1,1865.06,793.91Z"/><path class="cls-24" d="M1860.88,793.91a33.1,33.1,0,1,1-33.1-33.09A33.1,33.1,0,0,1,1860.88,793.91Z"/><path class="cls-30" d="M1841.25,796.35a9.21,9.21,0,0,0-4-3.2,75.45,75.45,0,0,0-9-2.82c-3-.81-4.77-1.33-5.37-1.56a5.37,5.37,0,0,1-2.34-1.62,3.39,3.39,0,0,1-.74-2.13,4.06,4.06,0,0,1,1.79-3.25,7.94,7.94,0,0,1,4.11-1.3v7.69l4.23,1.08v-8.65a7,7,0,0,1,3.14,1.35,6.5,6.5,0,0,1,2.35,4.33l6-.81a12.86,12.86,0,0,0-2.1-5.56,10.05,10.05,0,0,0-4.72-3.3,18.48,18.48,0,0,0-4.63-1.05v-6h-4.23v5.93a17.43,17.43,0,0,0-3.82.67,12.5,12.5,0,0,0-3.87,1.77,10,10,0,0,0-3,3.4,9.31,9.31,0,0,0-1.1,4.45,8.89,8.89,0,0,0,5.26,8.24,57.61,57.61,0,0,0,9.29,2.92,26.26,26.26,0,0,1,6.22,2.06,3.71,3.71,0,0,1,1.79,3.25,5.1,5.1,0,0,1-2,4,8.19,8.19,0,0,1-4.51,1.62v-8.66l-4.23-1.13v9.66a8.25,8.25,0,0,1-4-1.72,8.42,8.42,0,0,1-2.82-5.54l-6,.95a13.51,13.51,0,0,0,4.68,8.62,15,15,0,0,0,8.12,2.79v5.5h4.23v-5.45a17.91,17.91,0,0,0,5.9-1.4,11.55,11.55,0,0,0,5.13-4.16,10.26,10.26,0,0,0,1.77-5.74A8.9,8.9,0,0,0,1841.25,796.35Z"/><path class="cls-21" d="M1635.84,650v-9.9a5.66,5.66,0,0,0-5.48-5.84h-12.8a5.66,5.66,0,0,0-5.48,5.84V650Z"/><polygon class="cls-31" points="1623.96 854 1612.08 860.79 1623.96 887.52 1635.84 860.79 1623.96 854"/><polygon class="cls-29" points="1618.02 857.98 1612.08 860.79 1612.08 659.17 1618.02 659.17 1618.02 857.98"/><polygon class="cls-29" points="1629.9 857.98 1635.84 860.79 1635.84 659.17 1629.9 659.17 1629.9 857.98"/><rect class="cls-32" x="1618.02" y="659.17" width="11.88" height="198.82"/><polygon class="cls-33" points="1619.3 877.05 1623.96 887.52 1628.61 877.05 1619.3 877.05"/><rect class="cls-33" x="1612.08" y="644.63" width="23.76" height="14.54"/><polygon class="cls-20" points="1681.85 862.36 1670.6 862.36 1681.85 890.73 1693.11 862.36 1681.85 862.36"/><path class="cls-21" d="M1691.86,641.15V627.48a4.78,4.78,0,0,0-4.62-4.92h-10.77a4.77,4.77,0,0,0-4.62,4.92v13.67Z"/><rect class="cls-21" x="1670.6" y="636.04" width="22.51" height="226.32"/><rect class="cls-34" x="1670.6" y="636.04" width="11.26" height="226.32"/><path class="cls-20" d="M1697.18,645.57c-1.07-1.63-2.3-3.52-3-4.87V636h-24.7V650h23.81c4,6.1,8.81,14.2,8.81,24.22,0,9.24-2.09,16.57-4.1,23.66-1.75,6.17-3.41,12-3.41,18.31a2.82,2.82,0,0,0,5.63,0c0-5.54,1.48-10.74,3.19-16.77,2-7.12,4.32-15.18,4.32-25.2C1707.75,661.75,1701.39,652,1697.18,645.57Z"/><path class="cls-7" d="M1184,830.85a7,7,0,0,0-14,0v7.76h-77.62a459.58,459.58,0,0,0-5.75,236.28h123.81V919.78h5.17V838.61H1184Z"/><path class="cls-35" d="M1569,878.79V629h-275.4v466.82H1622V931.8A53,53,0,0,1,1569,878.79Z"/><rect class="cls-19" x="1323.02" y="636.25" width="238.93" height="417.44"/><path class="cls-20" d="M1531.92,830.5V621.9h-275.4v474h328.42V883.51A53,53,0,0,1,1531.92,830.5Z"/><rect class="cls-35" x="1366.05" y="644.99" width="91.75" height="135.05"/><rect class="cls-19" x="1360.65" y="639.84" width="91.75" height="135.05"/><path class="cls-36" d="M1405.88,661.86c-6.09,0-9.28-5.49-9.28-10.92V618.09c0-3.8,2.47-7.83,7.06-7.83a7.75,7.75,0,0,1,7.83,7.83V629.3h-3.1V618.09a4.68,4.68,0,0,0-4.73-4.73c-2.91,0-4,2.83-4,4.73v32.85c0,3.77,1.93,7.83,6.18,7.83,4.6,0,7.35-2.78,7.35-7.44v-42.9c0-6.33-2.74-13.72-10.44-13.72-9.69,0-10.44,9.91-10.44,12.94V621.9h-3.09V607.65c0-7.4,3.54-16,13.53-16s13.53,9.06,13.53,16.82v42.9C1416.32,657.73,1412.22,661.86,1405.88,661.86Z"/><rect class="cls-17" x="1368.38" y="675.81" width="56.45" height="4.25"/><rect class="cls-17" x="1368.38" y="689.98" width="29.64" height="4.25"/><rect class="cls-17" x="1368.38" y="704.16" width="29.64" height="4.25"/><rect class="cls-17" x="1368.38" y="718.33" width="67.01" height="4.25"/><rect class="cls-17" x="1368.38" y="732.51" width="41.24" height="4.25"/><rect class="cls-17" x="1384.87" y="746.68" width="56.45" height="4.25"/><rect class="cls-37" x="1256.52" y="621.9" width="27.84" height="473.96"/><path class="cls-5" d="M679.93,408a21.53,21.53,0,0,0-18.07-9.83H615.5A21.59,21.59,0,0,0,597.4,408h-49V714.63h36v0h14a21.55,21.55,0,0,0,17.12,8.47h46.36A21.54,21.54,0,0,0,679,714.63H866V408Z"/><rect class="cls-9" x="1490.13" y="452.11" width="243.89" height="138.34"/><rect class="cls-38" x="1527.22" y="462.7" width="181.69" height="117.17"/><rect class="cls-11" x="1531.34" y="467.01" width="173.46" height="108.55"/><polygon class="cls-12" points="1531.34 467.01 1704.8 467.01 1704.8 575.56 1531.34 467.01"/><rect class="cls-38" x="1718.28" y="492.93" width="4.78" height="38.21"/><circle class="cls-38" cx="1720.67" cy="545.99" r="3.65"/><path class="cls-39" d="M1509.24,535.71a14.42,14.42,0,1,1,14.42-14.42A14.42,14.42,0,0,1,1509.24,535.71Z"/><path class="cls-40" d="M1509.24,533.46a12.18,12.18,0,1,1,12.18-12.17A12.17,12.17,0,0,1,1509.24,533.46Z"/><path class="cls-7" d="M1741.24,561.17a455.37,455.37,0,0,0-209.9-50.92c-11.43,0-22.76.44-34,1.26V600.3h243.88Z"/><polygon class="cls-11" points="772.22 1041.92 740.51 1041.92 740.51 1010.22 729.25 1010.22 729.25 1041.92 697.54 1041.92 697.54 1053.18 729.25 1053.18 729.25 1084.89 740.51 1084.89 740.51 1053.18 772.22 1053.18 772.22 1041.92"/><rect class="cls-11" x="697.54" y="1143.06" width="74.68" height="11.25"/><rect class="cls-11" x="697.54" y="1170.67" width="74.68" height="11.25"/><rect class="cls-11" x="406.43" y="1160.15" width="74.68" height="11.25"/><rect class="cls-11" x="406.43" y="601.87" width="74.68" height="11.25"/><path class="cls-11" d="M444.4,587.73a9.07,9.07,0,1,0-9.07-9.07A9.07,9.07,0,0,0,444.4,587.73Z"/><path class="cls-11" d="M444.4,627.27a9.07,9.07,0,1,0,9.06,9.07A9.07,9.07,0,0,0,444.4,627.27Z"/><rect class="cls-11" x="1471.9" y="1230.35" width="74.68" height="11.25"/><path class="cls-11" d="M1509.86,1216.2a9.07,9.07,0,1,0-9.06-9.06A9.07,9.07,0,0,0,1509.86,1216.2Z"/><path class="cls-11" d="M1509.86,1255.75a9.07,9.07,0,1,0,9.07,9.06A9.06,9.06,0,0,0,1509.86,1255.75Z"/><rect class="cls-9" x="539.22" y="397.99" width="317.61" height="306.63"/><rect class="cls-40" x="661.71" y="397.99" width="195.12" height="94.58"/><rect class="cls-38" x="575.23" y="397.99" width="76.87" height="306.66"/><path class="cls-39" d="M674.27,691.91h0V408.1h-.08a21.59,21.59,0,0,0-21.52-19.93H606.33a21.6,21.6,0,0,0-21.6,21.6V475a21.59,21.59,0,0,0,19.53,21.49V604.78a21.6,21.6,0,0,0-19.53,21.5v65.24a21.6,21.6,0,0,0,21.6,21.6h46.36A21.59,21.59,0,0,0,674.27,691.91Z"/><path class="cls-9" d="M634.71,677.84A21.67,21.67,0,0,1,613,656.17V445.11a21.66,21.66,0,0,1,21.67-21.66H644a21.66,21.66,0,0,1,21.67,21.66V656.17A21.67,21.67,0,0,1,644,677.84Z"/><path class="cls-38" d="M734.88,528.06a12.57,12.57,0,1,1-12.56-12.56A12.56,12.56,0,0,1,734.88,528.06Z"/><path class="cls-38" d="M774.05,528.06a12.57,12.57,0,1,1-12.56-12.56A12.56,12.56,0,0,1,774.05,528.06Z"/><path class="cls-38" d="M813.22,528.06a12.57,12.57,0,1,1-12.56-12.56A12.56,12.56,0,0,1,813.22,528.06Z"/><path class="cls-38" d="M734.88,567.78a12.57,12.57,0,1,1-12.56-12.56A12.56,12.56,0,0,1,734.88,567.78Z"/><path class="cls-38" d="M774.05,567.78a12.57,12.57,0,1,1-12.56-12.56A12.56,12.56,0,0,1,774.05,567.78Z"/><path class="cls-38" d="M813.22,567.78a12.57,12.57,0,1,1-12.56-12.56A12.56,12.56,0,0,1,813.22,567.78Z"/><path class="cls-38" d="M734.88,607.5a12.57,12.57,0,1,1-12.56-12.56A12.56,12.56,0,0,1,734.88,607.5Z"/><path class="cls-38" d="M774.05,607.5a12.57,12.57,0,1,1-12.56-12.56A12.56,12.56,0,0,1,774.05,607.5Z"/><path class="cls-38" d="M813.22,607.5a12.57,12.57,0,1,1-12.56-12.56A12.56,12.56,0,0,1,813.22,607.5Z"/><path class="cls-13" d="M734.88,647.22a12.57,12.57,0,1,1-12.56-12.56A12.57,12.57,0,0,1,734.88,647.22Z"/><path class="cls-38" d="M774.05,647.22a12.57,12.57,0,1,1-12.56-12.56A12.56,12.56,0,0,1,774.05,647.22Z"/><path class="cls-14" d="M813.22,647.22a12.57,12.57,0,1,1-12.56-12.56A12.56,12.56,0,0,1,813.22,647.22Z"/><rect class="cls-11" x="709.75" y="437.89" width="106.43" height="31.04"/><polygon class="cls-12" points="709.75 468.93 709.75 437.89 816.18 437.89 709.75 468.93"/><rect class="cls-20" x="901.61" y="842.69" width="303.26" height="68.16"/><path class="cls-41" d="M949.39,876.77a9.16,9.16,0,1,1-9.16-9.16A9.16,9.16,0,0,1,949.39,876.77Z"/><path class="cls-41" d="M1175.39,876.77a9.16,9.16,0,1,1-9.16-9.16A9.16,9.16,0,0,1,1175.39,876.77Z"/><rect class="cls-42" x="906.78" y="910.85" width="292.92" height="155.11"/><rect class="cls-43" x="906.78" y="910.85" width="292.92" height="6.62"/><rect class="cls-41" x="901.61" y="829.67" width="303.26" height="13.01"/><path class="cls-24" d="M940.24,882.2a7,7,0,0,1-7-7V821.92a7,7,0,0,1,14,0v53.29A7,7,0,0,1,940.24,882.2Z"/><path class="cls-24" d="M1166.23,882.2a7,7,0,0,1-7-7V821.92a7,7,0,0,1,14,0v53.29A7,7,0,0,1,1166.23,882.2Z"/><rect class="cls-20" x="937.75" y="960.29" width="27.64" height="14.47"/><rect class="cls-14" x="971.63" y="960.29" width="27.64" height="14.47"/><rect class="cls-14" x="1005.52" y="960.29" width="27.64" height="14.47"/><rect class="cls-14" x="1039.41" y="960.29" width="27.64" height="14.47"/><rect class="cls-14" x="1073.3" y="960.29" width="27.64" height="14.47"/><rect class="cls-14" x="1107.19" y="960.29" width="27.64" height="14.47"/><rect class="cls-14" x="1141.08" y="960.29" width="27.64" height="14.47"/><rect class="cls-20" x="937.75" y="981.67" width="27.64" height="14.47"/><rect class="cls-14" x="971.63" y="981.67" width="27.64" height="14.47"/><rect class="cls-14" x="1005.52" y="981.67" width="27.64" height="14.47"/><rect class="cls-20" x="1039.41" y="981.67" width="27.64" height="14.47"/><rect class="cls-20" x="1073.3" y="981.67" width="27.64" height="14.47"/><rect class="cls-14" x="1107.19" y="981.67" width="27.64" height="14.47"/><rect class="cls-14" x="1141.08" y="981.67" width="27.64" height="14.47"/><rect class="cls-20" x="937.75" y="1003.05" width="27.64" height="14.47"/><rect class="cls-14" x="971.63" y="1003.05" width="27.64" height="14.47"/><rect class="cls-14" x="1005.52" y="1003.05" width="27.64" height="14.47"/><rect class="cls-14" x="1039.41" y="1003.05" width="27.64" height="14.47"/><rect class="cls-14" x="1073.3" y="1003.05" width="27.64" height="14.47"/><rect class="cls-14" x="1107.19" y="1003.05" width="27.64" height="14.47"/><rect class="cls-14" x="1141.08" y="1003.05" width="27.64" height="14.47"/><rect class="cls-20" x="937.75" y="1024.43" width="27.64" height="14.47"/><rect class="cls-14" x="971.63" y="1024.43" width="27.64" height="14.47"/><rect class="cls-14" x="1005.52" y="1024.43" width="27.64" height="14.47"/><rect class="cls-14" x="1039.41" y="1024.43" width="27.64" height="14.47"/><rect class="cls-14" x="1073.3" y="1024.43" width="27.64" height="14.47"/><rect class="cls-43" x="1107.19" y="1024.43" width="27.64" height="14.47"/><rect class="cls-43" x="1141.08" y="1024.43" width="27.64" height="14.47"/><rect class="cls-14" x="1010.21" y="926.88" width="86.05" height="16.03"/><rect class="cls-9" x="1490.13" y="452.11" width="243.89" height="138.34"/><rect class="cls-38" x="1527.22" y="462.7" width="181.69" height="117.17"/><rect class="cls-11" x="1531.34" y="467.01" width="173.46" height="108.55"/><polygon class="cls-12" points="1531.34 467.01 1704.8 467.01 1704.8 575.56 1531.34 467.01"/><rect class="cls-38" x="1718.28" y="492.93" width="4.78" height="38.21"/><circle class="cls-38" cx="1720.67" cy="545.99" r="3.65"/><path class="cls-39" d="M1509.24,535.71a14.42,14.42,0,1,1,14.42-14.42A14.42,14.42,0,0,1,1509.24,535.71Z"/><path class="cls-40" d="M1509.24,533.46a12.18,12.18,0,1,1,12.18-12.17A12.17,12.17,0,0,1,1509.24,533.46Z"/><polygon class="cls-17" points="1203.57 773.99 902.89 773.99 902.89 392.02 946.82 347.3 1203.57 347.3 1203.57 773.99"/><polygon class="cls-18" points="1198.57 768.99 897.89 768.99 897.89 387.02 941.82 342.3 1198.57 342.3 1198.57 768.99"/><polygon class="cls-19" points="1193.56 763.99 892.89 763.99 892.89 382.02 936.81 337.3 1193.56 337.3 1193.56 763.99"/><rect class="cls-20" x="999.24" y="331.6" width="87.97" height="35.79"/><rect class="cls-21" x="999.24" y="321.82" width="87.97" height="9.78"/><path class="cls-22" d="M1072.85,369.67a2.29,2.29,0,0,1-2.15-1.49l-18-48.56a2.18,2.18,0,0,1-.12-1.13c0-.14,2.17-14.53,2.47-19.28a10.47,10.47,0,0,0-2.92-7.85,12.31,12.31,0,0,0-17.9,0,10.46,10.46,0,0,0-2.91,7.85c.3,4.75,2.45,19.14,2.47,19.28a2.18,2.18,0,0,1-.12,1.13l-18,48.56a2.29,2.29,0,0,1-4.29-1.59l17.76-48c-.41-2.81-2.14-14.66-2.42-19.09a15,15,0,0,1,4.14-11.27,16.88,16.88,0,0,1,24.56,0,15,15,0,0,1,4.15,11.27c-.28,4.43-2,16.28-2.43,19.09l17.77,48a2.29,2.29,0,0,1-1.35,2.94A2.2,2.2,0,0,1,1072.85,369.67Z"/><polygon class="cls-23" points="936.81 337.3 936.81 382.02 893.2 382.02 936.81 337.3"/><path class="cls-20" d="M973.5,405.8v48.55h48.57A48.56,48.56,0,0,0,973.5,405.8Z"/><path class="cls-21" d="M973.5,498.84V454.35H1018A44.49,44.49,0,0,1,973.5,498.84Z"/><path class="cls-24" d="M973.5,507.3V454.35h-53A53,53,0,0,0,973.5,507.3Z"/><path class="cls-14" d="M973.5,425.27v29.08H944.41A29.09,29.09,0,0,1,973.5,425.27Z"/><path class="cls-24" d="M1043.82,633.74H928.24a1.61,1.61,0,0,1-1.61-1.61V552.26a1.61,1.61,0,1,1,3.22,0v78.26h114a1.61,1.61,0,1,1,0,3.22Z"/><path class="cls-20" d="M1037.1,623.26H1037a1.06,1.06,0,0,1-.94-1L1034,570l-17.78,27.26a1.07,1.07,0,0,1-1.5.31l-15.94-10.8-26.52,25.73a1.1,1.1,0,0,1-1.22.2L959.27,607l-21.79,16a1.07,1.07,0,1,1-1.27-1.73l22.31-16.39a1.09,1.09,0,0,1,1.1-.11l11.69,5.59,26.61-25.81a1.07,1.07,0,0,1,1.35-.12L1015,595.15l19-29.18a1.08,1.08,0,0,1,2,.55l1.9,49.2,13.2-43.83a1.08,1.08,0,1,1,2.06.62l-15.06,50A1.06,1.06,0,0,1,1037.1,623.26Z"/><rect class="cls-20" x="1053.23" y="430.6" width="109.43" height="6.53"/><rect class="cls-24" x="1053.23" y="447.8" width="109.43" height="6.53"/><rect class="cls-21" x="1053.23" y="464.99" width="109.43" height="6.53"/><rect class="cls-14" x="1053.23" y="482.18" width="63.16" height="6.53"/><rect class="cls-17" x="926.63" y="648.9" width="222.88" height="7.03"/><rect class="cls-17" x="926.63" y="669.07" width="222.88" height="7.03"/><rect class="cls-17" x="926.63" y="689.23" width="222.88" height="7.03"/><rect class="cls-17" x="926.63" y="709.39" width="222.88" height="7.03"/></g><g class="cls-44"><path class="cls-45" d="M216.34,359.09h84c13.68,0,25.28-10.74,25.63-24.42a25.08,25.08,0,0,0-25.07-25.74H266.36c-13.69,0-25.28-10.73-25.64-24.42a25.08,25.08,0,0,1,25.07-25.74H400.93c13.69,0,25.28-10.73,25.63-24.41a25.07,25.07,0,0,0-25.07-25.74H147.91c-13.69,0-25.28-10.74-25.63-24.42a25.07,25.07,0,0,1,25.07-25.74H644.13c13.69,0,25.28,10.73,25.64,24.41a25.09,25.09,0,0,1-25.07,25.75H540.45c-13.69,0-25.28,10.73-25.63,24.41a25.07,25.07,0,0,0,25.07,25.74h69.87c13.69,0,25.28,10.73,25.64,24.42a25.08,25.08,0,0,1-25.07,25.74H497.56c-13.69,0-25.28,10.73-25.63,24.42A25.07,25.07,0,0,0,497,359.09H652.71c13.69,0,25.28,10.73,25.63,24.41a25.08,25.08,0,0,1-25.07,25.74H216.91c-13.69,0-25.28-10.73-25.64-24.41A25.08,25.08,0,0,1,216.34,359.09Z"/><path class="cls-45" d="M688.52,1016.28h84c13.69,0,25.28-10.73,25.63-24.41a25.08,25.08,0,0,0-25.07-25.74H738.54c-13.69,0-25.28-10.73-25.64-24.42A25.08,25.08,0,0,1,738,916H873.11c13.69,0,25.28-10.73,25.63-24.42a25.08,25.08,0,0,0-25.07-25.74H620.09c-13.69,0-25.28-10.73-25.63-24.41a25.08,25.08,0,0,1,25.07-25.74h625.23c13.68,0,25.28,10.73,25.63,24.41a25.07,25.07,0,0,1-25.07,25.74H1064.66c-13.69,0-25.28,10.74-25.64,24.42A25.08,25.08,0,0,0,1064.09,916H1134c13.69,0,25.28,10.73,25.63,24.42a25.08,25.08,0,0,1-25.07,25.74H964.06c-13.69,0-25.29,10.73-25.64,24.41a25.08,25.08,0,0,0,25.07,25.74h213.42c13.69,0,25.28,10.74,25.64,24.42a25.08,25.08,0,0,1-25.07,25.74H689.09c-13.69,0-25.28-10.73-25.63-24.41A25.07,25.07,0,0,1,688.52,1016.28Z"/><path class="cls-46" d="M489.31,183a4.21,4.21,0,1,1-4.21-4.21A4.22,4.22,0,0,1,489.31,183Z"/><path class="cls-46" d="M219.63,67.07a4.21,4.21,0,1,1-4.21-4.21A4.21,4.21,0,0,1,219.63,67.07Z"/><path class="cls-46" d="M440.11,521.43a4.21,4.21,0,1,1-4.21-4.21A4.21,4.21,0,0,1,440.11,521.43Z"/><path class="cls-46" d="M228.05,568a4.21,4.21,0,1,1-4.21-4.2A4.2,4.2,0,0,1,228.05,568Z"/><path class="cls-46" d="M1133.91,974.37a4.21,4.21,0,1,1-4.2-4.21A4.2,4.2,0,0,1,1133.91,974.37Z"/><path class="cls-46" d="M1290.59,525.64a4.21,4.21,0,1,1-4.21-4.21A4.2,4.2,0,0,1,1290.59,525.64Z"/><path class="cls-46" d="M986.62,54.33a4.21,4.21,0,1,1-4.21-4.21A4.21,4.21,0,0,1,986.62,54.33Z"/><path class="cls-46" d="M715.9,1136.24a4.21,4.21,0,1,1-4.21-4.21A4.22,4.22,0,0,1,715.9,1136.24Z"/><path class="cls-46" d="M435.9,845.91q-.66,9.55-10.21,10.22,9.54.66,10.21,10.21.66-9.55,10.21-10.21Q436.56,855.46,435.9,845.91Z"/><circle class="cls-47" cx="607.67" cy="18.26" r="18.26" transform="translate(165.07 435.04) rotate(-45)"/><circle class="cls-48" cx="230.9" cy="287.36" r="18.26" transform="translate(-60.32 61.34) rotate(-13.4)"/><circle class="cls-48" cx="958.82" cy="1099.09" r="18.26"/><circle class="cls-46" cx="1070.83" cy="284.26" r="15.69" transform="translate(112.64 840.45) rotate(-45)"/><circle class="cls-46" cx="332.85" cy="956.74" r="15.69" transform="translate(-149.75 66.1) rotate(-9.27)"/><circle class="cls-49" cx="357.29" cy="165.47" r="65.22"/><path class="cls-50" d="M350.74,106.81a65,65,0,0,0-42.72,16,65.2,65.2,0,0,0,92,92,65.19,65.19,0,0,0-49.26-107.93Z"/><circle class="cls-51" cx="331.23" cy="184.82" r="26.07" transform="translate(-33.67 288.35) rotate(-45)"/><circle class="cls-51" cx="363.24" cy="125.51" r="9.22"/><circle class="cls-51" cx="371.28" cy="205.21" r="13.24" transform="translate(-36.36 322.64) rotate(-45)"/><circle class="cls-49" cx="1240.56" cy="609.24" r="27.33" transform="translate(362.59 1676.64) rotate(-76.72)"/><path class="cls-50" d="M1237.81,584.66A27.33,27.33,0,1,0,1265.14,612,27.18,27.18,0,0,0,1237.81,584.66Z"/><path class="cls-51" d="M1238.73,628.28a3.53,3.53,0,1,1-3.53-3.53A3.52,3.52,0,0,1,1238.73,628.28Z"/><circle class="cls-51" cx="1233.77" cy="600.23" r="3.86"/><circle class="cls-51" cx="1248.1" cy="623.93" r="8.44"/><path class="cls-52" d="M711.69,178.21C472.16,178.21,278,372.39,278,611.92s194.17,433.7,433.7,433.7,433.7-194.17,433.7-433.7S951.22,178.21,711.69,178.21Zm0,863.47c-237.35,0-429.76-192.41-429.76-429.76S474.34,182.16,711.69,182.16s429.76,192.41,429.76,429.76S949,1041.68,711.69,1041.68Z"/><circle class="cls-49" cx="711.69" cy="611.92" r="318.66" transform="translate(-224.24 682.47) rotate(-45)"/><path class="cls-53" d="M764.9,872.06,673.3,905.4a25.45,25.45,0,0,0-16.52,20.46,317.17,317.17,0,0,0,163.9-14.5c165.37-60.19,250.64-243.05,190.45-408.43s-243-250.65-408.43-190.45a319,319,0,0,0-69.52,35.39l95-34.59a5.66,5.66,0,0,1,7.25,3.39h0a5.66,5.66,0,0,1-3.38,7.26L560.48,350a25.48,25.48,0,0,0-15.23,32.66h0a25.48,25.48,0,0,0,32.65,15.23l24.18-8.8a5.65,5.65,0,0,1,7.25,3.38h0a5.66,5.66,0,0,1-3.38,7.26l-111,40.41a25.48,25.48,0,0,0-15.23,32.66h0A25.46,25.46,0,0,0,512.34,488l112.42-40.91a5.66,5.66,0,0,1,7.26,3.38h0a5.66,5.66,0,0,1-3.38,7.26l-46.5,16.92a25.46,25.46,0,0,0-15.22,32.65h0a25.47,25.47,0,0,0,32.65,15.23l92.53-33.68a5.66,5.66,0,0,1,7.25,3.39h0A5.66,5.66,0,0,1,696,499.5l-34.12,12.41a25.49,25.49,0,0,0-15.23,32.66h0a25.49,25.49,0,0,0,32.66,15.23l66.5-24.21A5.67,5.67,0,0,1,753,539h0a5.67,5.67,0,0,1-3.38,7.26L628.91,590.18a25.48,25.48,0,0,0-15.23,32.66h0a25.47,25.47,0,0,0,32.66,15.22L723,610.15a5.65,5.65,0,0,1,7.25,3.39h0a5.65,5.65,0,0,1-3.38,7.25l-13.76,5a25.48,25.48,0,0,0-15.23,32.66h0a25.48,25.48,0,0,0,32.66,15.23l29-10.57a5.66,5.66,0,0,1,7.25,3.38h0a5.66,5.66,0,0,1-3.38,7.26L695.22,698.6A25.48,25.48,0,0,0,680,731.25h0a25.49,25.49,0,0,0,32.66,15.23l3.93-1.43a5.66,5.66,0,0,1,7.26,3.38h0a5.67,5.67,0,0,1-3.39,7.26l-70.84,25.78A25.48,25.48,0,0,0,667,829.36l72.69-26.46a5.66,5.66,0,0,1,7.26,3.38h0a5.67,5.67,0,0,1-3.39,7.26L713.76,824.4a25.48,25.48,0,0,0,17.43,47.88L761,861.42a5.67,5.67,0,0,1,7.26,3.39h0A5.66,5.66,0,0,1,764.9,872.06Z"/><path class="cls-54" d="M1011.13,502.93c-40-109.88-134.14-184.4-241.34-204.38l-41.22,15a25.48,25.48,0,0,0-15.22,32.66h0A25.48,25.48,0,0,0,746,361.44l24.17-8.8a5.66,5.66,0,0,1,7.26,3.38h0a5.66,5.66,0,0,1-3.38,7.26L663,403.69a25.47,25.47,0,0,0-15.22,32.66h0a25.46,25.46,0,0,0,32.65,15.22l112.42-40.91a5.66,5.66,0,0,1,7.26,3.38h0a5.67,5.67,0,0,1-3.38,7.26l-46.5,16.92A25.48,25.48,0,0,0,735,470.88h0a25.48,25.48,0,0,0,32.66,15.22l92.53-33.67a5.65,5.65,0,0,1,7.25,3.38h0a5.66,5.66,0,0,1-3.38,7.26L830,475.49a25.48,25.48,0,0,0-15.23,32.65h0a25.48,25.48,0,0,0,32.66,15.23l66.5-24.21a5.67,5.67,0,0,1,7.26,3.39h0a5.66,5.66,0,0,1-3.39,7.25L797,553.75a25.48,25.48,0,0,0-15.23,32.66h0a25.46,25.46,0,0,0,32.65,15.22l76.69-27.91a5.66,5.66,0,0,1,7.25,3.39h0a5.66,5.66,0,0,1-3.38,7.26l-13.76,5A25.48,25.48,0,0,0,866,622h0a25.48,25.48,0,0,0,32.65,15.23l29-10.57a5.67,5.67,0,0,1,7.26,3.38h0a5.67,5.67,0,0,1-3.38,7.26l-68.24,24.84a25.48,25.48,0,0,0-15.23,32.65h0a25.48,25.48,0,0,0,32.66,15.23l3.93-1.43a5.65,5.65,0,0,1,7.25,3.38h0a5.66,5.66,0,0,1-3.38,7.26L817.71,745a25.48,25.48,0,0,0,17.43,47.89l72.69-26.46a5.67,5.67,0,0,1,7.26,3.38h0a5.67,5.67,0,0,1-3.39,7.26L881.86,788a25.48,25.48,0,1,0,17.43,47.88l58.34-21.23C1026.9,730.41,1051.12,612.81,1011.13,502.93Z"/><path class="cls-54" d="M618.74,672.86l82.93-30.18A25.47,25.47,0,0,0,716.89,610h0a25.46,25.46,0,0,0-32.65-15.22L601.31,625a25.48,25.48,0,0,0-15.23,32.65h0A25.48,25.48,0,0,0,618.74,672.86Z"/><path class="cls-53" d="M591.39,790.61l45-16.37a25.48,25.48,0,0,0,15.23-32.65h0a25.48,25.48,0,0,0-32.66-15.23l-45,16.37a25.46,25.46,0,0,0-15.22,32.65h0A25.46,25.46,0,0,0,591.39,790.61Z"/><path class="cls-53" d="M573.92,598.14l20.47-7.45A25.46,25.46,0,0,0,609.61,558h0A25.48,25.48,0,0,0,577,542.81l-20.47,7.45a25.48,25.48,0,0,0-15.23,32.66h0A25.48,25.48,0,0,0,573.92,598.14Z"/><path class="cls-54" d="M557.38,496.37l30.54-11.12a25.46,25.46,0,0,0,15.22-32.65h0a25.47,25.47,0,0,0-32.65-15.23L540,448.48a25.48,25.48,0,0,0-15.22,32.66h0A25.48,25.48,0,0,0,557.38,496.37Z"/><path class="cls-54" d="M736.8,828.83l14.92-5.43A25.48,25.48,0,0,0,767,790.74h0a25.48,25.48,0,0,0-32.65-15.23l-14.92,5.43a25.48,25.48,0,0,0-15.23,32.66h0A25.48,25.48,0,0,0,736.8,828.83Z"/><path class="cls-54" d="M673.07,520.58l22.61-8.23a25.48,25.48,0,0,0,15.23-32.66h0a25.48,25.48,0,0,0-32.65-15.23l-22.61,8.23a25.48,25.48,0,0,0-15.23,32.66h0A25.48,25.48,0,0,0,673.07,520.58Z"/><path class="cls-54" d="M775.46,682l55.74-20.29a25.47,25.47,0,0,0,15.23-32.65h0a25.47,25.47,0,0,0-32.65-15.23L758,634.15A25.47,25.47,0,0,0,742.8,666.8h0A25.48,25.48,0,0,0,775.46,682Z"/><path class="cls-50" d="M369.07,493.79h0A81.61,81.61,0,1,0,424.9,647.17h0Z"/><path class="cls-49" d="M364.17,504.3a81.32,81.32,0,0,0-43.4,37,81.59,81.59,0,0,0,147.52,68.79A81.59,81.59,0,0,0,364.17,504.3Z"/><circle class="cls-51" cx="391.3" cy="612.78" r="32.62" transform="matrix(1, -0.04, 0.04, 1, -22.31, 14.83)"/><circle class="cls-51" cx="343.69" cy="595.17" r="10.83" transform="translate(-341.23 652.14) rotate(-64.75)"/><circle class="cls-51" cx="378.3" cy="534.15" r="14.25" transform="translate(-266.07 649.09) rotate(-64.81)"/><path class="cls-55" d="M473.68,542.56a81.62,81.62,0,0,0-104.61-48.77L424.9,647.17A81.62,81.62,0,0,0,473.68,542.56Z"/><path class="cls-51" d="M372,501.88,424.9,647.17a81.3,81.3,0,0,0,43.39-37A81.59,81.59,0,0,0,372,501.88Z"/><path class="cls-49" d="M387.67,544.87a14.23,14.23,0,0,0-9.09-25Z"/><path class="cls-49" d="M418.78,630.35a32.59,32.59,0,0,0-17.72-48.68Z"/><circle class="cls-55" cx="443.63" cy="576.11" r="16.56" transform="matrix(0.26, -0.96, 0.96, 0.26, -229.31, 851.54)"/><circle class="cls-56" cx="864.6" cy="209.77" r="35.04" transform="translate(477.71 1010.93) rotate(-77.86)"/><path class="cls-57" d="M864.6,174.73a35,35,0,0,0-28.41,14.55A35,35,0,0,0,897.79,221a35,35,0,0,0-33.19-46.3Z"/></g><path class="cls-58" d="M103.23,227.75c-5.89-3.74-12-.91-17.23,2.41-7.89,5-10.9,7.66-17.66,14.31-3.35,3.31-2.41,5.53.13,8.44C74.67,260,75,258.66,82.32,262c8.34,3.8,28.08-29.7,20.91-34.24Z"/><path class="cls-59" d="M197.17,423.44c-6.59-15.67-16.87-50.16-14.62-64.77,1.46-9.47-13.57-20.06-20.62-1.55-11.66,30.63,46.64,94.09,35.24,66.32Z"/><path class="cls-60" d="M197.17,423.44c-.73-1.74-1.51-3.71-2.31-5.86a51.5,51.5,0,0,0-8.19,3.72c8.63,9.84,15,13.11,10.5,2.14Z"/><path class="cls-60" d="M175.62,317.5c-18.65.42-35.86,29.11-17.6,36.74-4.38,12.77-.32,27.88,6.75,42.48,7.95-2,17.71-4.88,20.48-6.31,1.27-.66,2.32-1.24,3.19-1.78h0c-2.88-13.17-4.47-25.48-3.25-33.35a10.71,10.71,0,0,0,.11-1.26"/><path class="cls-59" d="M105,337.9c.82-18.62-14.31-14.51-20.13-4.46-9,15.55-35.56,44.87-53.76,27.64-4.87-4.61-12.89-6.56-12.23,1.88,1.19,15.16,84,23.63,86.12-25.06Z"/><path class="cls-58" d="M106,337.31c.9-20.18-15.49-15.73-21.8-4.84a100.71,100.71,0,0,1-14.09,18.42c6.84,4.67,13.2,11,16.94,17.54,10.65-6.25,18.29-16.21,19-31.12Z"/><path class="cls-61" d="M200.17,426.66l-.28-.17c-3.89.64-20.48,10.92-7.78,8.37,3.32-.67,11.77-3.78,8.06-8.2Z"/><path class="cls-58" d="M185.43,324.11c2.48-10.06,1.76-8.07-7-12.71-10.16-5.38-62.67-20.06-71.58-18.92-27.21,3.49-29.27,30.77-11,52.14,8.4,9.84,61,41.43,71.26,27.09,8.29-11.63,15-33.67,18.39-47.6Z"/><path class="cls-59" d="M107,307.62c7.82-31.78-24.9-70.2-53-60.25-18.4,6.5-26.63,35-27.31,53.21-.68,18.47,18.21,6.95,30.25,25.81,19.85,31.11,43.63,7.47,50.09-18.77Z"/><path class="cls-60" d="M89.72,257.45C79.44,247.91,66.27,243,54,247.37A24.63,24.63,0,0,0,48,250.44a16.89,16.89,0,0,0-.94,5.92,48.11,48.11,0,0,0,.81,5.9c10.56,4,32.05,4.41,42.85,2.29,1.31-.25.36-3.65-1-7.1Z"/><path class="cls-59" d="M100.6,263.23c1.43-4.93-4.42-12-9.44-12-13.28-.2-5.07,13.3,3.62,15.76,5.39,1.52,5.07-1.19,5.82-3.74Z"/><path class="cls-58" d="M71.2,246.8c-44.42-38.6-82.48,39.17-49.52,60,3.05,1.93,7.17,5.12,11.54,5.25,10.32-24.78,13.11-46.87,38-65.28Z"/><path class="cls-60" d="M41.84,273.86c-4.4-2.33-11.05-4.64-15.59-3.74-13.09,2.61-14.41,16.47-7.1,21.72,8.13,5.83,14.69,10.7,17.72,2.74,1.31-3.42,8.76-18.72,5-20.72Z"/><path class="cls-60" d="M7.68,314.24c4.27,1.63,10.27-2,12.87-5.21,1.78-2.21,4.44-4.47,5.64-7.08,1.94-4.24,3.69-6.61,5.6-11.63,1-2.69,3.57-7.28,1.14-9.5-5.39-4.91-11.88-2.85-16,1.28-5.32,5.31-5.66,5.26-9.92,9.27-2.15,2-11.46,9.61-4.39,11.05,2.79.57,12.71-4.32,12.69-4.27-1.52,3.56-4.14,8.35-7,10.88-.18.16-3,4.28-.59,5.21Z"/><path class="cls-60" d="M53.41,305.3c-6.89-3.64-9.34,2.51-3.29,4.81,6.2,2.36,11.27-.61,3.29-4.81Z"/><path class="cls-60" d="M61.1,285.1c-6.89-3.63-9.35,2.52-3.29,4.82s11.27-.61,3.29-4.82Z"/><path class="cls-60" d="M77.55,279.94c-7,5-.58,12.63-1.33,19.25-.77,6.87-5,14.74-4.25,16,2.07,3.47,8.16,3.36,11.55,2.09,27.63-10.41,4.94-45.13-6-37.36Z"/><path class="cls-59" d="M44.43,275.7c-1-4-6-4.88-5.85-5.81-.52,2.59-10.57,26.61-10.24,27.89.52,2,.63,3.2,4,2.87,4.48-.43,12.28-24.1,12-24.95Z"/><path class="cls-58" d="M67,304.14c1.81-.27,2.54-1.81,2.67-3.49.27-3.94-1.52-4.65-4.94-5.11-5.39-.73-3.16,4.6-2,4.49a5.92,5.92,0,0,1,1.63.68c1.46.93-.21,3.86,2.65,3.43Z"/><g class="cls-62"><path class="cls-46" d="M697.82,998.7c-17.69,0-36.5,9.42-44.89,23.63a45.33,45.33,0,0,0-54.1-24.76c-6.11-11.93-10.5-23.73-9.19-34.68h0c35.57-166.65,70.17-388.8-6.29-451.13-51.93-42.33-85.05-41.09-85.05-41.09l0,16.52S524,477,574,524.4c72.8,69.17,31.49,279.15,1.23,410.38-.41,1-.83,2.09-1.23,3.3-5.47,16.11-14.81,38.29-28.74,39.06-32,1.76-59.66,19.82-72.44,46.47a87.82,87.82,0,0,0-33.62-6.54A77.15,77.15,0,0,0,387,1037.23a53,53,0,0,0-76.35,32.11c-6-7.48-12.7-13.59-26.2-8.25C219,1087,242.12,1282.72,242.12,1282.72l341.27.9Z"/><polygon class="cls-63" points="361.31 415.94 358.76 414.18 318.99 412.42 309.17 425.8 327.35 431.01 349.79 432.92 371.76 428.06 361.31 415.94"/><polygon class="cls-64" points="348.02 393.29 345.47 391.54 255.49 375.18 255.32 401.16 314.06 408.37 336.49 410.28 358.47 405.41 348.02 393.29"/><path class="cls-65" d="M430.14,421.5c4.76-2.95,1.33-8.74,4.34-12.64,5.12,6.48-3,16.43,6,21.5,4-5.71,2.61-12,1.71-19.48,18,12.29,37.63,19.16,56.88,26.77-.05.91-.57.36-1.94,0-5.24-1.29-12.16-9.3-15-3.72-4,8,6.31,10,11.77,13.09,5.88,3.33,12.94,4.65,17.37,10.44a3.75,3.75,0,0,0,3.86,1.76q11.75-9.51.76-19.87c-23.19-12.4-46.25-25.07-69.63-37.12-21.08-10.86-24.79-10.07-41.5,7.15-3.66,3.77-6.58,1.51-9.92.43-2.64,2.83-2.53,5.95-.95,9.21a21.38,21.38,0,0,0,5.81,5c4.49,2.63,6.46,11.11,13.43,7.5,5.89-3.05.05-9.55,2.13-14.13.62-3,1.05-7,4.52-7.38C428,409.1,425,419.11,430.14,421.5Z"/><path class="cls-65" d="M58.59,385.13l.09,6.34c26.89,65.93,79.26,94.62,147.07,102.27,58.69,6.61,117.45,11,176.5,11.55,7.1,4.82,16.08,1.6,23.39,5.53a33.05,33.05,0,0,0,7,2.8,37.61,37.61,0,0,0,7.69,1c17.28.43,34.39,4.33,51.77,2.53A47.29,47.29,0,0,0,482.18,516c3-1,2.57-3.73,2.89-6.06,12.07-6.51,3.86-9.24-2.26-12.41-12.42-7.86-.95-17.92-4-27.81,9.7,1.12,17.43,6.79,26,3.1,5.74-2.94,8.74-7.21,6.74-13.9-3.12-6.1-9.14-8-14.9-10.37-17.74-7.23-35.5-14.42-52.66-22.92-2.71-2-3.33-4.87-3.77-8-.6-4.4.23-10.75-5.2-11.63-5.74-.93-4.61,7-8.26,9.54-2.24,1.74-4.91,2.7-7.38,4.06-5.78,5.47-3.14,12.5-3.52,19,7.35,10.3,20.47,8.61,30,14.44,4.84,3.83,11.17,5.34,15.48,10,5.78,18,3.81,23.13-11.34,29.3-8-.36-10.53-9.79-18-10.95-48.58-10.17-97.83-16.38-146.63-25.19-17.6-3.18-24.09-17.65-14.35-32.39,2.63-4,6.36-4.22,9.8-3.1,7.72,2.5,12,2.45,18.93.82,11.72-2.75,36.58-3.06,50.52-2.49.64.2,1.28.4,1.9.64a48.29,48.29,0,0,1,8.59,2.68c9.54,2.67,18,9.23,28.57,8.24,5.09-2.31,7.71-5.88,5.95-11.67q-.15-4.51-.31-9c-6.93-4.2-14.44-6.94-22.05-9.43h0C343.41,389,261.67,357,232.54,344.89,171.1,319.44,117.39,332.4,69.35,376.1,65.89,379.25,62.18,382.13,58.59,385.13Zm207.52,6.79c.05-5.43,6.12-4.66,10-4.92,10.45-.71,20.38-2,31.4-.92,3.46.33,41.22,7.3,42.92,12.85,1.46,4.72-8,2-8.28,2h0c-14.9-3.18-54.91-3.23-66.14-4.27C272.2,396.28,266.05,397.7,266.11,391.92Z"/><path class="cls-66" d="M418.94,510.64l-7-.09c-3.89,1.17-7.4,3.82-11.87,3.05,1-4.9,6.89-2.17,8.66-5.71-8.2-7.14-17.58-2.4-26.47-2.61,8.59,22.53,10.48,23.88,34.58,23,17.34-.65,34.66-1.68,52-2.33,6.91-.25,12.61-1.61,13.36-9.91-1.77-2.86-4.51-3.11-7.46-2.8-19.33,7.84-40,3.65-59.94,6.58C419.48,518.13,421.28,515.3,418.94,510.64Z"/><path class="cls-67" d="M513.48,509.87c10-.23,21.1,1.92,26-10.8,1.74-19.81,1.16-21.57-16.53-26.28-8.45-2.25-5.15-10.82-10.14-14.38l-.31-.43a1.89,1.89,0,0,0-2.75.36c1.43,6.24-3.59,9.48-6.39,13.75,1.27,6.48,7.18,6.81,11.79,8.6,2.66,1,5.43.23,4.7,5.24-.68,4.69,11.2,5,6.43,11.71-4.4,6.17-11.6,1.38-17.58,1.46-9,.11-18.18-6.44-26.93.87,1.46,3.21,10.71,3.82,3.34,10C494.53,508.23,504,508.75,513.48,509.87Z"/><path class="cls-64" d="M388.63,428.56,360.25,419c-7.27,5.12,13,14.37,4,12-17.23-2.67-33.77-8.31-50.87-11.56-4.66-.88-9.24-2.53-13.8.24-9.16-1.77-18.34-3.47-27.48-5.31-4.72-.95-6.79.74-6.72,5.62a83.48,83.48,0,0,1-.55,14.15c-3.57,22.74-3.64,22.57,19.6,26.29Q359,472.32,433.51,484.53c6.6-11.07,8.38-17,16.12-34.67L417.11,438C409.07,430.41,399.05,428.9,388.63,428.56Z"/><path class="cls-64" d="M178.41,427.44c15.25,3.76,30.66,7,45.69,11.46,11.67,3.49,15.35-2.33,16.93-11.93s4.19-19.26-10.48-21.34c-18.11-2.57-36.1-6-54.15-9.07l.09-4.72c15.73-.21,31.48-1,47.18-.45,13.43.47,12.69-5.64,7.69-14.14-3.86-6.53-9.33-11.67-17.21-12.85-8.85-1.33-17.77-2.8-26.68-2.92-10-.14-22.08-2.08-29.37,2.69-8.81,5.78,2.08,16.33,2,25.28-.16,14.08-2.46,27.37-9.05,39.61-3.85,7.16-2.39,9.46,5.15,12.05,19.1,6.56,38.92,8.16,62.23,12.13L176.86,430.1Z"/><path class="cls-64" d="M141.27,395.33c-.38-6.56-.47-9.7-.75-12.83-1.15-12.84-6.69-17.59-19.35-11.22-10.72,5.4-21.86,10-32.75,15-7.7,3.58-8,8.09-2.21,14.26,10.93,11.63,24.06,20,37.76,27.85,6.48,3.71,8.25,0,10.05-4.6C138,413.55,142.1,403.3,141.27,395.33Z"/><path class="cls-64" d="M481.73,500c11.33,1.5,22.72,2.63,33.95,4.65,7.29,1.31,13.33,1.76,16.89-6.44,3.71-8.51-5.48-8-7.36-11.7-5-9.64-14.81-9.46-21.89-14.39l-27.07-7.75c-.57,7.57,1.05,16-2.14,21.79C468.23,496.79,473.33,498.61,481.73,500Z"/><path class="cls-68" d="M509.71,458.34a3.06,3.06,0,0,1,2.75-.36c.31-9.6-8.81-9-13.89-12.56-5.32-3.79-12.31-5.05-18.57-12.85l24.57,9.81c.28-.72.57-1.44.86-2.16l-65.79-33.88c1,9.18-1.95,16.49.84,24Z"/><path class="cls-69" d="M449.63,449.86c-10.05,15.82-23.76,14.6-39.95,10.86-23.65-5.46-47.91-8.27-72.36-10.15q42.39,11.34,84.78,22.63c6.1,1.61,12.89,2.22,11.41,11.33,5.86,4,7.56,14.16,17.64,12a7,7,0,0,0-.35-3.12c-9.27-22.62-8.11-25.4,13.94-33.13C461.78,453.75,452.21,456.9,449.63,449.86Z"/><path class="cls-70" d="M464.74,460.23c-8.72-3.61-16.66-3.55-21.24,6.14-5.62,11.91-3.71,22.31,7.65,30.11C469.34,490.13,472.86,480.74,464.74,460.23Z"/><path class="cls-71" d="M418.94,510.64,413.23,523c19.49-.27,38.16.85,56.66-3.75,3.72-.93,5.8-1.89,4.83-6Z"/><path class="cls-63" d="M388.63,428.56c8.76,5.36,19,6.12,28.48,9.38,4.45-4.93,1.35-11.56,3.82-16.94-1.26-5.67-4.67-7.44-10.09-5.57l2.39,15.35c-7.11-3.9-8.13-15.61-18-11.92Z"/><path class="cls-72" d="M410.84,415.43,420.93,421l9.21.5c0-1.53.14-3.07.11-4.6-.1-6,1.68-13.56-7.26-14.23C414.77,402.06,411.71,408.12,410.84,415.43Z"/><path class="cls-73" d="M408.71,507.89l-17.07.23c6.6,14.86,9.34,15.15,20.28,2.43Z"/><path class="cls-64" d="M310.36,403.4c10.85,4.64,21.68,9.35,32.58,13.9,3.69,1.54,7.69,4,10.81-1.08l-13.1-6C330.16,409.69,322,398.9,310.36,403.4Z"/><path class="cls-74" d="M363.74,425c-5.92,3.25.74,6.56-.06,9.84l27.73,7c3.08.18,7.21,2.27,6.87-3.77Z"/><path class="cls-64" d="M398.28,438.08c-1.21,3.23-4.41,2.82-6.87,3.77A47.13,47.13,0,0,0,416.73,447C411,440.88,404.12,440.59,398.28,438.08Z"/></g><path class="cls-58" d="M91.31,338.56s35.08-12.27,50.81-12.67,37.43,9.53,40.79,6.13c1-2.88,2.05-6.15,2.05-6.15L178,316.1l-47.7-7-22.27,13.42Z"/><path class="cls-59" d="M168.36,350.6c-2.82,6.08-2.13,14.31,5.67,11,14-5.94-4.29-87.11-51.13-73.68-17.92,5.14-9.22,18.18,2.17,20.5,17.59,3.59,53.84,19.46,43.29,42.19Z"/><path class="cls-58" d="M142.07,314.83c1.94-5.87,8.8-17.37,13.46-21.38-9-7-20.24-10.34-33.62-6.5-19.42,5.57-10,19.7,2.35,22.22a98.66,98.66,0,0,1,17.81,5.66Z"/><path class="cls-59" d="M217.61,412.68c3.48,6.5,10.35,6.5,7.88-1.2-7.8-16.57-12.78-53.12-12.36-66.84.64-21-43.45-42.8-20.24,26.1,3.74,11.09,21,36.32,24.72,41.94Z"/><path class="cls-60" d="M225.49,411.48a76.22,76.22,0,0,1-3.64-9.71c-3.15,1.09-6.75,2.6-9.21,3.45,2.23,3.38,4,6,5,7.46,3.48,6.5,10.35,6.5,7.88-1.2Z"/><path class="cls-58" d="M217.69,415c-2.67.35-3.45-.73-4.18-.65-.9.09-.33,1.72.58,2.33,1.9,1.3,5,3.47,7.42,3.44,1.72,0,7.29-3.6,5.23-6.85a1.87,1.87,0,0,0-1-.85c.52.29.13,0-.93.47a29.81,29.81,0,0,1-7.12,2.11Z"/><path class="cls-60" d="M209.87,321.94c-12.94-8-18.17-9.93-25.55-7.62,0,0,2.73,3.28,1.08,10-.59,2.43-1.7,4.89-2.49,7.72,1.62,10.63,3.85,21.68,3.85,21.68,7.91.33,27.34-8.44,27.34-8.44C216.43,337.51,213.21,324,209.87,321.94Z"/></g></g></svg>