<svg xmlns="http://www.w3.org/2000/svg" xmlns:xlink="http://www.w3.org/1999/xlink" viewBox="0 0 1760.55 1283.64"><defs><style>.cls-1{fill:url(#linear-gradient);}.cls-2{fill:url(#linear-gradient-2);}.cls-3{fill:#26282d;}.cls-4{mask:url(#mask);}.cls-5{fill:#1b3b49;}.cls-6{fill:#fff;}.cls-7{fill:#54c3f0;}.cls-8{fill:#27aae1;}.cls-9{fill:#375e70;}.cls-10{fill:#305460;}.cls-11{fill:#193544;}.cls-12{fill:#245666;}.cls-13{fill:#4d8daf;}.cls-14{fill:#88bdd4;}.cls-15{fill:#132b35;}.cls-16{fill:#6fb0b5;}.cls-17{fill:#88d3e3;}.cls-18{fill:#f58466;}.cls-18,.cls-19,.cls-20,.cls-21{fill-rule:evenodd;}.cls-19{fill:#fdd1b3;}.cls-20{fill:#9b4021;}.cls-21{fill:#f26722;}.cls-22{mask:url(#mask-2);}.cls-23{fill:#7795c2;}.cls-24{fill:#eaf1f6;}.cls-25{fill:#3f618f;}.cls-26{fill:#355989;}.cls-27{fill:#355a89;}.cls-28{fill:#e2f0f5;}.cls-29{fill:#336092;}.cls-30{fill:#eff6f7;}.cls-31{fill:#cde2ee;}.cls-32{fill:#e6f2f6;}.cls-33{fill:#c0dcec;}.cls-34{fill:#2f5988;}</style><linearGradient id="linear-gradient" x1="1431.24" y1="743.62" x2="456.7" y2="743.62" gradientUnits="userSpaceOnUse"><stop offset="0.01" stop-color="#fff"/><stop offset="0.11" stop-color="#c9c9c9"/><stop offset="0.23" stop-color="#828282"/><stop offset="0.35" stop-color="#4a4a4a"/><stop offset="0.45" stop-color="#222"/><stop offset="0.53" stop-color="#090909"/><stop offset="0.57"/></linearGradient><linearGradient id="linear-gradient-2" x1="979.58" y1="367.79" x2="979.58" y2="1284.15" gradientUnits="userSpaceOnUse"><stop offset="0.05" stop-color="#fff"/><stop offset="0.26" stop-color="#aeaeae"/><stop offset="0.52" stop-color="#515151"/><stop offset="0.71" stop-color="#171717"/><stop offset="0.79"/></linearGradient><mask id="mask" x="529.04" y="0" width="1231.52" height="1283.62" maskUnits="userSpaceOnUse"><polygon class="cls-1" points="1052.22 1283.62 529.04 1283.62 529.04 203.68 1487.54 203.62 1052.22 1283.62"/></mask><mask id="mask-2" x="235.22" y="204.16" width="1488.73" height="1080" maskUnits="userSpaceOnUse"><polygon class="cls-2" points="1288.62 1284.16 235.22 1284.16 235.22 204.16 1723.94 204.16 1288.62 1284.16"/></mask></defs><title>Asset 27</title><g id="Layer_2" data-name="Layer 2"><g id="Layer_3" data-name="Layer 3"><polygon class="cls-3" points="1487.11 203.64 434.37 203.62 0 1283.64 1053.36 1283.64 1487.11 203.64"/><g class="cls-4"><path class="cls-5" d="M686.3,359.09h84c13.69,0,25.28-10.74,25.63-24.42a25.08,25.08,0,0,0-25.07-25.74H736.32c-13.69,0-25.28-10.73-25.64-24.42a25.08,25.08,0,0,1,25.07-25.74H870.89c13.69,0,25.28-10.73,25.63-24.41a25.07,25.07,0,0,0-25.07-25.74H617.87c-13.69,0-25.28-10.74-25.63-24.42a25.08,25.08,0,0,1,25.07-25.74h496.78c13.69,0,25.28,10.73,25.64,24.41a25.09,25.09,0,0,1-25.07,25.75H1010.41c-13.69,0-25.28,10.73-25.63,24.41a25.07,25.07,0,0,0,25.07,25.74h69.87c13.69,0,25.28,10.73,25.64,24.42a25.08,25.08,0,0,1-25.07,25.74H967.52c-13.69,0-25.28,10.73-25.63,24.42A25.07,25.07,0,0,0,967,359.09h155.71c13.69,0,25.28,10.73,25.63,24.41a25.08,25.08,0,0,1-25.07,25.74H686.87c-13.69,0-25.28-10.73-25.64-24.41A25.08,25.08,0,0,1,686.3,359.09Z"/><path class="cls-5" d="M1158.49,1016.28h84c13.69,0,25.28-10.73,25.63-24.41A25.08,25.08,0,0,0,1243,966.13H1208.5c-13.69,0-25.28-10.73-25.64-24.42A25.08,25.08,0,0,1,1207.93,916h135.14c13.69,0,25.28-10.73,25.63-24.42a25.08,25.08,0,0,0-25.07-25.74H1090.05c-13.69,0-25.28-10.73-25.63-24.41a25.08,25.08,0,0,1,25.07-25.74h625.23c13.68,0,25.28,10.73,25.63,24.41a25.07,25.07,0,0,1-25.07,25.74H1534.62c-13.69,0-25.28,10.74-25.64,24.42A25.08,25.08,0,0,0,1534.05,916h69.88c13.69,0,25.28,10.73,25.63,24.42a25.08,25.08,0,0,1-25.07,25.74H1434c-13.69,0-25.29,10.73-25.64,24.41a25.08,25.08,0,0,0,25.07,25.74h213.42c13.69,0,25.28,10.74,25.64,24.42a25.08,25.08,0,0,1-25.07,25.74H1159.05c-13.69,0-25.28-10.73-25.63-24.41A25.07,25.07,0,0,1,1158.49,1016.28Z"/><path class="cls-6" d="M959.27,183a4.21,4.21,0,1,1-4.21-4.21A4.22,4.22,0,0,1,959.27,183Z"/><path class="cls-6" d="M689.59,67.07a4.21,4.21,0,1,1-4.21-4.21A4.21,4.21,0,0,1,689.59,67.07Z"/><path class="cls-6" d="M910.07,521.43a4.21,4.21,0,1,1-4.21-4.21A4.21,4.21,0,0,1,910.07,521.43Z"/><path class="cls-6" d="M698,568a4.21,4.21,0,1,1-4.21-4.2A4.2,4.2,0,0,1,698,568Z"/><path class="cls-6" d="M1603.88,974.37a4.21,4.21,0,1,1-4.21-4.21A4.21,4.21,0,0,1,1603.88,974.37Z"/><path class="cls-6" d="M1760.55,525.64a4.21,4.21,0,1,1-4.21-4.21A4.2,4.2,0,0,1,1760.55,525.64Z"/><path class="cls-6" d="M1456.58,54.33a4.21,4.21,0,1,1-4.21-4.21A4.21,4.21,0,0,1,1456.58,54.33Z"/><path class="cls-6" d="M1185.86,1136.24a4.21,4.21,0,1,1-4.21-4.21A4.22,4.22,0,0,1,1185.86,1136.24Z"/><path class="cls-6" d="M905.86,845.91q-.66,9.55-10.21,10.22,9.54.66,10.21,10.21.66-9.55,10.21-10.21Q906.52,855.46,905.86,845.91Z"/><circle class="cls-7" cx="1077.63" cy="18.26" r="18.26" transform="translate(302.72 767.35) rotate(-45)"/><circle class="cls-8" cx="700.86" cy="287.36" r="18.26" transform="translate(-47.52 170.27) rotate(-13.4)"/><circle class="cls-8" cx="1428.78" cy="1099.09" r="18.26"/><circle class="cls-6" cx="1540.79" cy="284.26" r="15.69" transform="translate(250.29 1172.76) rotate(-45)"/><circle class="cls-6" cx="802.81" cy="956.74" r="15.69" transform="translate(-143.61 141.79) rotate(-9.27)"/><circle class="cls-9" cx="827.25" cy="165.47" r="65.22"/><path class="cls-10" d="M820.7,106.81a64.92,64.92,0,0,0-42.71,16,65.2,65.2,0,0,0,92,92A65.19,65.19,0,0,0,820.7,106.81Z"/><circle class="cls-11" cx="801.19" cy="184.82" r="26.07" transform="translate(103.97 620.66) rotate(-45)"/><circle class="cls-11" cx="833.2" cy="125.51" r="9.22"/><circle class="cls-11" cx="841.24" cy="205.21" r="13.24" transform="translate(101.29 654.95) rotate(-45)"/><circle class="cls-9" cx="1710.52" cy="609.24" r="27.33" transform="translate(724.58 2134.03) rotate(-76.72)"/><path class="cls-10" d="M1707.77,584.66A27.33,27.33,0,1,0,1735.1,612,27.18,27.18,0,0,0,1707.77,584.66Z"/><path class="cls-11" d="M1708.69,628.28a3.53,3.53,0,1,1-3.52-3.53A3.52,3.52,0,0,1,1708.69,628.28Z"/><circle class="cls-11" cx="1703.73" cy="600.23" r="3.86"/><circle class="cls-11" cx="1718.06" cy="623.93" r="8.44"/><path class="cls-12" d="M1181.65,178.21C942.12,178.21,748,372.39,748,611.92s194.17,433.7,433.7,433.7,433.7-194.17,433.7-433.7S1421.18,178.21,1181.65,178.21Zm0,863.47c-237.35,0-429.76-192.41-429.76-429.76S944.3,182.16,1181.65,182.16s429.76,192.41,429.76,429.76S1419,1041.68,1181.65,1041.68Z"/><circle class="cls-9" cx="1181.65" cy="611.92" r="318.66" transform="translate(-86.59 1014.78) rotate(-45)"/><path class="cls-13" d="M1234.87,872.06l-91.61,33.34a25.47,25.47,0,0,0-16.52,20.46,317.17,317.17,0,0,0,163.9-14.5c165.37-60.19,250.64-243.05,190.45-408.43s-243-250.65-408.43-190.45a319,319,0,0,0-69.52,35.39l95-34.59a5.66,5.66,0,0,1,7.25,3.39h0a5.66,5.66,0,0,1-3.38,7.26L1030.44,350a25.48,25.48,0,0,0-15.23,32.66h0a25.48,25.48,0,0,0,32.65,15.23l24.18-8.8a5.65,5.65,0,0,1,7.25,3.38h0a5.66,5.66,0,0,1-3.38,7.26l-111,40.41a25.48,25.48,0,0,0-15.23,32.66h0A25.46,25.46,0,0,0,982.3,488l112.43-40.91a5.65,5.65,0,0,1,7.25,3.38h0a5.66,5.66,0,0,1-3.38,7.26l-46.5,16.92a25.46,25.46,0,0,0-15.22,32.65h0a25.47,25.47,0,0,0,32.65,15.23l92.53-33.68a5.67,5.67,0,0,1,7.26,3.39h0a5.67,5.67,0,0,1-3.39,7.26l-34.12,12.41a25.49,25.49,0,0,0-15.23,32.66h0a25.49,25.49,0,0,0,32.66,15.23l66.5-24.21A5.67,5.67,0,0,1,1223,539h0a5.67,5.67,0,0,1-3.38,7.26l-120.75,43.95a25.48,25.48,0,0,0-15.23,32.66h0a25.47,25.47,0,0,0,32.66,15.22L1193,610.15a5.67,5.67,0,0,1,7.26,3.39h0a5.66,5.66,0,0,1-3.39,7.25l-13.76,5a25.49,25.49,0,0,0-15.23,32.66h0a25.48,25.48,0,0,0,32.66,15.23l29-10.57a5.66,5.66,0,0,1,7.25,3.38h0a5.66,5.66,0,0,1-3.38,7.26l-68.24,24.84A25.48,25.48,0,0,0,1150,731.25h0a25.49,25.49,0,0,0,32.66,15.23l3.93-1.43a5.66,5.66,0,0,1,7.26,3.38h0a5.67,5.67,0,0,1-3.39,7.26l-70.84,25.78A25.48,25.48,0,0,0,1137,829.36l72.69-26.46a5.66,5.66,0,0,1,7.26,3.38h0a5.67,5.67,0,0,1-3.39,7.26l-29.84,10.86a25.48,25.48,0,0,0,17.43,47.88L1231,861.42a5.67,5.67,0,0,1,7.26,3.39h0A5.66,5.66,0,0,1,1234.87,872.06Z"/><path class="cls-14" d="M1481.09,502.93c-40-109.88-134.14-184.4-241.34-204.38l-41.22,15a25.48,25.48,0,0,0-15.22,32.66h0A25.48,25.48,0,0,0,1216,361.44l24.17-8.8a5.66,5.66,0,0,1,7.26,3.38h0a5.66,5.66,0,0,1-3.38,7.26l-111,40.41a25.47,25.47,0,0,0-15.22,32.66h0a25.46,25.46,0,0,0,32.65,15.22l112.42-40.91a5.66,5.66,0,0,1,7.26,3.38h0a5.67,5.67,0,0,1-3.38,7.26l-46.5,16.92A25.48,25.48,0,0,0,1205,470.88h0a25.48,25.48,0,0,0,32.66,15.22l92.53-33.67a5.65,5.65,0,0,1,7.25,3.38h0a5.66,5.66,0,0,1-3.38,7.26l-34.12,12.42a25.48,25.48,0,0,0-15.23,32.65h0a25.49,25.49,0,0,0,32.66,15.23l66.5-24.21a5.67,5.67,0,0,1,7.26,3.39h0a5.66,5.66,0,0,1-3.39,7.25L1267,553.75a25.48,25.48,0,0,0-15.23,32.66h0a25.46,25.46,0,0,0,32.65,15.22l76.69-27.91a5.66,5.66,0,0,1,7.25,3.39h0a5.66,5.66,0,0,1-3.38,7.26l-13.76,5A25.48,25.48,0,0,0,1336,622h0a25.48,25.48,0,0,0,32.65,15.23l29-10.57a5.67,5.67,0,0,1,7.26,3.38h0a5.67,5.67,0,0,1-3.38,7.26l-68.24,24.84a25.48,25.48,0,0,0-15.23,32.65h0a25.48,25.48,0,0,0,32.66,15.23l3.93-1.43a5.67,5.67,0,0,1,7.26,3.38h0a5.67,5.67,0,0,1-3.39,7.26L1287.67,745a25.48,25.48,0,0,0,17.43,47.89l72.69-26.46a5.67,5.67,0,0,1,7.26,3.38h0a5.67,5.67,0,0,1-3.39,7.26L1351.82,788a25.48,25.48,0,0,0,17.43,47.88l58.34-21.23C1496.86,730.41,1521.08,612.81,1481.09,502.93Z"/><path class="cls-14" d="M1088.7,672.86l82.93-30.18A25.47,25.47,0,0,0,1186.85,610h0a25.46,25.46,0,0,0-32.65-15.22L1071.27,625A25.48,25.48,0,0,0,1056,657.63h0A25.48,25.48,0,0,0,1088.7,672.86Z"/><path class="cls-13" d="M1061.35,790.61l45-16.37a25.48,25.48,0,0,0,15.23-32.65h0a25.48,25.48,0,0,0-32.66-15.23l-45,16.37a25.46,25.46,0,0,0-15.22,32.65h0A25.46,25.46,0,0,0,1061.35,790.61Z"/><path class="cls-13" d="M1043.88,598.14l20.47-7.45A25.46,25.46,0,0,0,1079.57,558h0a25.48,25.48,0,0,0-32.65-15.23l-20.47,7.45a25.48,25.48,0,0,0-15.23,32.66h0A25.48,25.48,0,0,0,1043.88,598.14Z"/><path class="cls-14" d="M1027.34,496.37l30.54-11.12a25.46,25.46,0,0,0,15.22-32.65h0a25.47,25.47,0,0,0-32.65-15.23l-30.54,11.11a25.48,25.48,0,0,0-15.22,32.66h0A25.48,25.48,0,0,0,1027.34,496.37Z"/><path class="cls-14" d="M1206.76,828.83l14.92-5.43a25.48,25.48,0,0,0,15.23-32.66h0a25.48,25.48,0,0,0-32.65-15.23l-14.92,5.43a25.48,25.48,0,0,0-15.23,32.66h0A25.48,25.48,0,0,0,1206.76,828.83Z"/><path class="cls-14" d="M1143,520.58l22.62-8.23a25.48,25.48,0,0,0,15.22-32.66h0a25.48,25.48,0,0,0-32.65-15.23l-22.61,8.23a25.48,25.48,0,0,0-15.23,32.66h0A25.48,25.48,0,0,0,1143,520.58Z"/><path class="cls-14" d="M1245.42,682l55.74-20.29a25.47,25.47,0,0,0,15.23-32.65h0a25.47,25.47,0,0,0-32.65-15.23L1228,634.15a25.48,25.48,0,0,0-15.23,32.65h0A25.48,25.48,0,0,0,1245.42,682Z"/><path class="cls-10" d="M839,493.79h0a81.61,81.61,0,0,0,55.83,153.38h0Z"/><path class="cls-9" d="M834.13,504.3a81.32,81.32,0,0,0-43.4,37,81.59,81.59,0,0,0,147.52,68.79A81.59,81.59,0,0,0,834.13,504.3Z"/><circle class="cls-11" cx="861.26" cy="612.78" r="32.62" transform="matrix(1, -0.04, 0.04, 1, -21.99, 32.15)"/><circle class="cls-11" cx="813.65" cy="595.17" r="10.83" transform="translate(-71.74 1077.2) rotate(-64.75)"/><circle class="cls-11" cx="848.26" cy="534.15" r="14.25" transform="translate(3.84 1074.35) rotate(-64.81)"/><path class="cls-15" d="M943.64,542.56A81.62,81.62,0,0,0,839,493.79l55.83,153.38A81.62,81.62,0,0,0,943.64,542.56Z"/><path class="cls-11" d="M842,501.88l52.88,145.29a81.3,81.3,0,0,0,43.39-37A81.59,81.59,0,0,0,842,501.88Z"/><path class="cls-9" d="M857.63,544.87a14.23,14.23,0,0,0-9.09-25Z"/><path class="cls-9" d="M888.74,630.35A32.59,32.59,0,0,0,871,581.67Z"/><circle class="cls-15" cx="913.59" cy="576.11" r="16.56" transform="matrix(0.26, -0.96, 0.96, 0.26, 116.33, 1304.76)"/><circle class="cls-16" cx="1334.56" cy="209.77" r="35.04" transform="translate(848.85 1470.39) rotate(-77.86)"/><path class="cls-17" d="M1334.56,174.73a35,35,0,0,0-28.41,14.55,35,35,0,0,0,61.6,31.75,35,35,0,0,0-33.19-46.3Z"/></g><path class="cls-18" d="M573.2,227.75c-5.9-3.74-12-.91-17.24,2.41-7.89,5-10.9,7.66-17.66,14.31-3.35,3.31-2.41,5.53.13,8.44,6.2,7.13,6.51,5.75,13.85,9.08,8.34,3.8,28.08-29.7,20.92-34.24Z"/><path class="cls-19" d="M667.13,423.44c-6.59-15.67-16.87-50.16-14.62-64.77,1.46-9.47-13.57-20.06-20.62-1.55-11.66,30.63,46.64,94.09,35.24,66.32Z"/><path class="cls-20" d="M667.13,423.44c-.73-1.74-1.51-3.71-2.31-5.86a51.5,51.5,0,0,0-8.19,3.72c8.63,9.84,15,13.11,10.5,2.14Z"/><path class="cls-20" d="M645.58,317.5c-18.65.42-35.86,29.11-17.6,36.74-4.38,12.77-.32,27.88,6.75,42.48,7.95-2,17.71-4.88,20.48-6.31,1.27-.66,2.32-1.24,3.19-1.78h0c-2.88-13.17-4.47-25.48-3.25-33.35a10.71,10.71,0,0,0,.11-1.26"/><path class="cls-19" d="M574.91,337.9c.82-18.62-14.31-14.51-20.13-4.46-9,15.55-35.56,44.87-53.76,27.64-4.87-4.61-12.89-6.56-12.23,1.88,1.19,15.16,84,23.63,86.12-25.06Z"/><path class="cls-18" d="M576,337.31c.9-20.18-15.49-15.73-21.8-4.84a100.71,100.71,0,0,1-14.09,18.42c6.84,4.67,13.2,11,16.94,17.54,10.65-6.25,18.29-16.21,19-31.12Z"/><path class="cls-21" d="M670.13,426.66l-.28-.17c-3.89.64-20.48,10.92-7.78,8.37,3.32-.67,11.77-3.78,8.06-8.2Z"/><path class="cls-18" d="M655.39,324.11c2.48-10.06,1.76-8.07-7-12.71-10.16-5.38-62.66-20.06-71.58-18.92-27.21,3.49-29.27,30.77-11,52.14,8.4,9.84,61,41.43,71.26,27.09,8.29-11.63,15-33.67,18.39-47.6Z"/><path class="cls-19" d="M577,307.62c7.82-31.78-24.9-70.2-53-60.25-18.4,6.5-26.63,35-27.31,53.21-.68,18.47,18.21,6.95,30.25,25.81,19.85,31.11,43.63,7.47,50.09-18.77Z"/><path class="cls-20" d="M559.68,257.45c-10.28-9.54-23.45-14.43-35.75-10.08a24.63,24.63,0,0,0-5.94,3.07,16.89,16.89,0,0,0-.94,5.92,48.11,48.11,0,0,0,.81,5.9c10.57,4,32,4.41,42.85,2.29,1.31-.25.36-3.65-1-7.1Z"/><path class="cls-19" d="M570.56,263.23c1.43-4.93-4.42-12-9.44-12-13.28-.2-5.07,13.3,3.62,15.76,5.39,1.52,5.07-1.19,5.82-3.74Z"/><path class="cls-18" d="M541.16,246.8c-44.42-38.6-82.48,39.17-49.52,60,3.05,1.93,7.17,5.12,11.54,5.25,10.32-24.78,13.11-46.87,38-65.28Z"/><path class="cls-20" d="M511.81,273.86c-4.41-2.33-11.06-4.64-15.59-3.74-13.1,2.61-14.42,16.47-7.11,21.72,8.13,5.83,14.7,10.7,17.72,2.74,1.31-3.42,8.76-18.72,5-20.72Z"/><path class="cls-20" d="M477.64,314.24c4.27,1.63,10.27-2,12.87-5.21,1.78-2.21,4.44-4.47,5.64-7.08,1.94-4.24,3.69-6.61,5.6-11.63,1-2.69,3.57-7.28,1.14-9.5-5.39-4.91-11.88-2.85-16,1.28-5.32,5.31-5.66,5.26-9.92,9.27-2.15,2-11.46,9.61-4.39,11.05,2.79.57,12.71-4.32,12.69-4.27-1.52,3.56-4.14,8.35-7,10.88-.18.16-3,4.28-.59,5.21Z"/><path class="cls-20" d="M523.37,305.3c-6.89-3.64-9.34,2.51-3.28,4.81s11.26-.61,3.28-4.81Z"/><path class="cls-20" d="M531.06,285.1c-6.89-3.63-9.35,2.52-3.29,4.82s11.27-.61,3.29-4.82Z"/><path class="cls-20" d="M547.51,279.94c-7,5-.58,12.63-1.33,19.25-.77,6.87-5,14.74-4.25,16,2.07,3.47,8.16,3.36,11.55,2.09,27.63-10.41,4.94-45.13-6-37.36Z"/><path class="cls-19" d="M514.39,275.7c-1-4-6-4.88-5.85-5.81C508,272.48,498,296.5,498.3,297.78c.52,2,.63,3.2,4,2.87,4.48-.43,12.28-24.1,12.05-24.95Z"/><path class="cls-18" d="M536.93,304.14c1.81-.27,2.54-1.81,2.67-3.49.28-3.94-1.52-4.65-4.94-5.11-5.39-.73-3.16,4.6-2,4.49a5.92,5.92,0,0,1,1.63.68c1.46.93-.21,3.86,2.65,3.43Z"/><g class="cls-22"><path class="cls-6" d="M1167.78,998.7c-17.69,0-36.5,9.42-44.89,23.63a45.33,45.33,0,0,0-54.1-24.76c-6.11-11.93-10.5-23.73-9.18-34.68h0c35.57-166.65,70.17-388.8-6.29-451.13-51.93-42.33-85-41.09-85-41.09l0,16.52S994,477,1043.91,524.4c72.8,69.17,31.49,279.15,1.23,410.38-.41,1-.83,2.09-1.23,3.3-5.47,16.11-14.81,38.29-28.74,39.06-32,1.76-59.66,19.82-72.44,46.47a87.82,87.82,0,0,0-33.62-6.54A77.15,77.15,0,0,0,857,1037.23a53,53,0,0,0-76.35,32.11c-6-7.48-12.7-13.59-26.2-8.25C689,1087,712.08,1282.72,712.08,1282.72l341.27.9Z"/><polygon class="cls-23" points="831.27 415.94 828.72 414.18 788.95 412.42 779.13 425.8 797.31 431.01 819.75 432.92 841.72 428.06 831.27 415.94"/><polygon class="cls-24" points="817.98 393.29 815.43 391.54 725.45 375.18 725.28 401.16 784.02 408.37 806.46 410.28 828.43 405.41 817.98 393.29"/><path class="cls-25" d="M900.1,421.5c4.76-2.95,1.33-8.74,4.34-12.64,5.12,6.48-3,16.43,6,21.5,4-5.71,2.61-12,1.71-19.48,18,12.29,37.63,19.16,56.88,26.77,0,.91-.57.36-1.93,0-5.25-1.29-12.17-9.3-15-3.72-4,8,6.31,10,11.77,13.09,5.88,3.33,12.94,4.65,17.37,10.44a3.75,3.75,0,0,0,3.86,1.76q11.75-9.51.76-19.87c-23.19-12.4-46.25-25.07-69.63-37.12-21.08-10.86-24.79-10.07-41.5,7.15-3.66,3.77-6.58,1.51-9.92.43-2.64,2.83-2.53,5.95-1,9.21a21.38,21.38,0,0,0,5.81,5c4.49,2.63,6.46,11.11,13.43,7.5,5.89-3.05,0-9.55,2.13-14.13.62-3,1-7,4.52-7.38C898,409.1,895,419.11,900.1,421.5Z"/><path class="cls-25" d="M528.55,385.13l.09,6.34c26.89,65.93,79.26,94.62,147.08,102.27,58.68,6.61,117.44,11,176.49,11.55,7.1,4.82,16.08,1.6,23.39,5.53a33.05,33.05,0,0,0,7,2.8,37.61,37.61,0,0,0,7.69,1c17.28.43,34.39,4.33,51.77,2.53a47.29,47.29,0,0,0,10-1.15c3-1,2.57-3.73,2.89-6.06,12.07-6.51,3.86-9.24-2.26-12.41-12.42-7.86-.95-17.92-4-27.81,9.7,1.12,17.43,6.79,26,3.1,5.74-2.94,8.74-7.21,6.74-13.9-3.12-6.1-9.14-8-14.9-10.37-17.74-7.23-35.5-14.42-52.65-22.92-2.72-2-3.34-4.87-3.78-8-.6-4.4.23-10.75-5.2-11.63-5.74-.93-4.61,7-8.26,9.54-2.24,1.74-4.91,2.7-7.38,4.06-5.78,5.47-3.14,12.5-3.52,19,7.35,10.3,20.47,8.61,30,14.44,4.84,3.83,11.17,5.34,15.48,10,5.78,18,3.81,23.13-11.34,29.3-8-.36-10.53-9.79-18-10.95-48.58-10.17-97.83-16.38-146.63-25.19-17.6-3.18-24.09-17.65-14.35-32.39,2.63-4,6.36-4.22,9.8-3.1,7.72,2.5,12,2.45,18.93.82,11.72-2.75,36.58-3.06,50.52-2.49.64.2,1.28.4,1.9.64a48.29,48.29,0,0,1,8.59,2.68c9.54,2.67,18,9.23,28.57,8.24,5.09-2.31,7.71-5.88,5.95-11.67q-.15-4.51-.31-9c-6.93-4.2-14.44-6.94-22.05-9.43h0C813.37,389,731.63,357,702.5,344.89c-61.44-25.45-115.15-12.49-163.19,31.21C535.85,379.25,532.14,382.13,528.55,385.13Zm207.52,6.79c0-5.43,6.12-4.66,10-4.92,10.44-.71,20.37-2,31.39-.92,3.46.33,41.22,7.3,42.93,12.85,1.45,4.72-8,2-8.29,2h0c-14.9-3.18-54.91-3.23-66.14-4.27C742.16,396.28,736,397.7,736.07,391.92Z"/><path class="cls-26" d="M888.9,510.64l-7-.09c-3.9,1.17-7.41,3.82-11.88,3.05,1-4.9,6.89-2.17,8.67-5.71-8.21-7.14-17.59-2.4-26.48-2.61,8.59,22.53,10.48,23.88,34.58,23,17.34-.65,34.66-1.68,52-2.33,6.91-.25,12.61-1.61,13.36-9.91-1.77-2.86-4.51-3.11-7.46-2.8-19.33,7.84-39.95,3.65-59.94,6.58C889.44,518.13,891.24,515.3,888.9,510.64Z"/><path class="cls-27" d="M983.44,509.87c10-.23,21.1,1.92,26-10.8,1.74-19.81,1.16-21.57-16.53-26.28-8.45-2.25-5.14-10.82-10.14-14.38l-.31-.43a1.89,1.89,0,0,0-2.75.36c1.43,6.24-3.59,9.48-6.39,13.75,1.27,6.48,7.18,6.81,11.79,8.6,2.66,1,5.43.23,4.7,5.24-.68,4.69,11.2,5,6.44,11.71-4.41,6.17-11.61,1.38-17.59,1.46-9,.11-18.18-6.44-26.93.87,1.47,3.21,10.71,3.82,3.34,10C964.49,508.23,974,508.75,983.44,509.87Z"/><path class="cls-24" d="M858.59,428.56,830.21,419c-7.27,5.12,13,14.37,4,12-17.23-2.67-33.77-8.31-50.87-11.56-4.66-.88-9.24-2.53-13.8.24-9.16-1.77-18.34-3.47-27.48-5.31-4.72-.95-6.79.74-6.71,5.62a84.53,84.53,0,0,1-.56,14.15c-3.57,22.74-3.64,22.57,19.6,26.29Q829,472.32,903.47,484.53c6.6-11.07,8.38-17,16.12-34.67L887.07,438C879,430.41,869,428.9,858.59,428.56Z"/><path class="cls-24" d="M648.37,427.44c15.25,3.76,30.66,7,45.69,11.46,11.67,3.49,15.35-2.33,16.93-11.93s4.19-19.26-10.48-21.34c-18.11-2.57-36.1-6-54.15-9.07l.09-4.72c15.73-.21,31.48-1,47.18-.45,13.43.47,12.69-5.64,7.69-14.14-3.86-6.53-9.33-11.67-17.21-12.85-8.85-1.33-17.77-2.8-26.68-2.92-10-.14-22.08-2.08-29.37,2.69-8.81,5.78,2.08,16.33,2,25.28-.16,14.08-2.46,27.37-9,39.61-3.85,7.16-2.39,9.46,5.15,12.05,19.1,6.56,38.92,8.16,62.23,12.13L646.83,430.1Z"/><path class="cls-24" d="M611.23,395.33c-.37-6.56-.47-9.7-.75-12.83-1.15-12.84-6.69-17.59-19.35-11.22-10.72,5.4-21.86,10-32.75,15-7.7,3.58-8,8.09-2.21,14.26,10.93,11.63,24.06,20,37.76,27.85,6.48,3.71,8.25,0,10.05-4.6C608,413.55,612.06,403.3,611.23,395.33Z"/><path class="cls-24" d="M951.69,500c11.33,1.5,22.72,2.63,33.95,4.65,7.29,1.31,13.33,1.76,16.9-6.44,3.7-8.51-5.49-8-7.37-11.7-4.95-9.64-14.81-9.46-21.89-14.39l-27.07-7.75c-.57,7.57,1,16-2.14,21.79C938.19,496.79,943.29,498.61,951.69,500Z"/><path class="cls-28" d="M979.67,458.34a3.06,3.06,0,0,1,2.75-.36c.31-9.6-8.81-9-13.89-12.56-5.32-3.79-12.31-5.05-18.57-12.85l24.57,9.81c.28-.72.57-1.44.86-2.16L909.6,406.34c1,9.18-2,16.49.84,24Z"/><path class="cls-29" d="M919.59,449.86c-10.05,15.82-23.76,14.6-40,10.86-23.65-5.46-47.91-8.27-72.36-10.15q42.39,11.34,84.78,22.63c6.1,1.61,12.9,2.22,11.41,11.33,5.86,4,7.57,14.16,17.64,12a7,7,0,0,0-.35-3.12c-9.27-22.62-8.11-25.4,13.94-33.13C931.74,453.75,922.17,456.9,919.59,449.86Z"/><path class="cls-30" d="M934.7,460.23c-8.72-3.61-16.66-3.55-21.24,6.14-5.62,11.91-3.71,22.31,7.65,30.11C939.3,490.13,942.82,480.74,934.7,460.23Z"/><path class="cls-31" d="M888.9,510.64,883.19,523c19.49-.27,38.16.85,56.66-3.75,3.72-.93,5.8-1.89,4.83-6Z"/><path class="cls-23" d="M858.59,428.56c8.76,5.36,19,6.12,28.48,9.38,4.45-4.93,1.35-11.56,3.82-16.94-1.26-5.67-4.67-7.44-10.09-5.57l2.39,15.35c-7.11-3.9-8.13-15.61-18-11.92Z"/><path class="cls-32" d="M880.8,415.43,890.89,421l9.21.5c0-1.53.14-3.07.11-4.6-.1-6,1.68-13.56-7.26-14.23C884.73,402.06,881.67,408.12,880.8,415.43Z"/><path class="cls-33" d="M878.68,507.89l-17.08.23c6.6,14.86,9.34,15.15,20.29,2.43Z"/><path class="cls-24" d="M780.32,403.4c10.85,4.64,21.68,9.35,32.58,13.9,3.69,1.54,7.69,4,10.81-1.08l-13.1-6C800.12,409.69,791.94,398.9,780.32,403.4Z"/><path class="cls-34" d="M833.7,425c-5.92,3.25.74,6.56-.06,9.84l27.73,7c3.08.18,7.21,2.27,6.87-3.77Z"/><path class="cls-24" d="M868.24,438.08c-1.21,3.23-4.41,2.82-6.87,3.77A47.13,47.13,0,0,0,886.69,447C881,440.88,874.08,440.59,868.24,438.08Z"/></g><path class="cls-18" d="M561.27,338.56s35.08-12.27,50.81-12.67,37.43,9.53,40.79,6.13c1-2.88,2-6.15,2-6.15L648,316.1l-47.7-7L578,322.49Z"/><path class="cls-19" d="M638.32,350.6c-2.82,6.08-2.13,14.31,5.67,11,14-5.94-4.29-87.11-51.13-73.68-17.92,5.14-9.22,18.18,2.17,20.5,17.6,3.59,53.84,19.46,43.29,42.19Z"/><path class="cls-18" d="M612,314.83c1.94-5.87,8.8-17.37,13.46-21.38-9-7-20.24-10.34-33.62-6.5-19.42,5.57-10,19.7,2.35,22.22A98.41,98.41,0,0,1,612,314.83Z"/><path class="cls-19" d="M687.57,412.68c3.48,6.5,10.35,6.5,7.88-1.2-7.8-16.57-12.78-53.12-12.36-66.84.64-21-43.45-42.8-20.23,26.1,3.73,11.09,21,36.32,24.71,41.94Z"/><path class="cls-20" d="M695.45,411.48a76.22,76.22,0,0,1-3.64-9.71c-3.15,1.09-6.75,2.6-9.21,3.45,2.23,3.38,4,6,5,7.46,3.48,6.5,10.35,6.5,7.88-1.2Z"/><path class="cls-18" d="M687.65,415c-2.67.35-3.45-.73-4.18-.65-.9.09-.33,1.72.58,2.33,1.91,1.3,5.05,3.47,7.42,3.44,1.72,0,7.29-3.6,5.23-6.85a1.87,1.87,0,0,0-1-.85c.52.29.13,0-.93.47a29.81,29.81,0,0,1-7.12,2.11Z"/><path class="cls-20" d="M679.83,321.94c-12.94-8-18.17-9.93-25.55-7.62,0,0,2.74,3.28,1.08,10-.59,2.43-1.7,4.89-2.49,7.72,1.63,10.63,3.85,21.68,3.85,21.68,7.91.33,27.34-8.44,27.34-8.44C686.39,337.51,683.17,324,679.83,321.94Z"/></g></g></svg>