<svg xmlns="http://www.w3.org/2000/svg" viewBox="0 0 413 753.14"><defs><style>.cls-1{fill:#fdd1b3;}.cls-1,.cls-2,.cls-3,.cls-4{fill-rule:evenodd;}.cls-2{fill:#f58466;}.cls-3{fill:#7d381a;}.cls-4{fill:#9b4021;}</style></defs><title>parents</title><g id="Layer_2" data-name="Layer 2"><g id="Layer_3" data-name="Layer 3"><path class="cls-1" d="M391.13,80c4.68-6.22,12.79-15.71,20.39-5,5,7-4.24,13.12-4.24,25.65,0,24.78.43,23.46-2.58,47.84-6.07,49.4-30.95,101.75-70.91,131.78-49.62,37.31-63.59-34.39-33.53-36.72,20.74-2.08,59.35-45.86,69.66-64.27,13.75-24.53,22.5-53.09,16.64-81.83-2.31-11.33-2.55-8,4.57-17.41Z"/><path class="cls-2" d="M300.26,243.51c20.74-2.08,59.35-45.86,69.66-64.27A163.07,163.07,0,0,0,381,155.42a209.47,209.47,0,0,0,20.95,9.92c-9.13,44.1-32.71,88.26-68.13,114.89-49.62,37.31-63.59-34.39-33.53-36.72Z"/><path class="cls-1" d="M268.53,243.85c.05,0,9.06,31.5-6.23,40-41.51,23.23-88.72-17.3-114.33-47.46C130.63,216,122.9,195,111.82,170.83c-11.47-25-20.88-68.16-16.1-96.34,3.22-19,18.91-6.79,19.53-4.69,1.83,6,9.55,3.49,5,12.19-7.46,14.1-11.46,11.23-8.23,31,16.47,100.69,114.15,125.3,156.56,130.85Z"/><path class="cls-2" d="M148,236.44c-15.38-18.13-23.2-36.76-32.51-57.59A71.78,71.78,0,0,0,130.09,164c34.66,58.61,104.37,75.37,138.44,79.83.05,0,9.06,31.5-6.23,40-41.51,23.23-88.72-17.3-114.33-47.46Z"/><path class="cls-3" d="M277.12,438.66c-8.82-23.8-5.61-67.35,49.26-48.47,10.07,36.87,50.9,103.69-26.49,200.81-17.15,21.53-65,68.18-85.78,83.56-9.49,7.05-27.79,26.17-9-7.33,21-37.46,88.23-126.64,87-166.19-1-31.84-4.16-33.33-14.95-62.38Z"/><path class="cls-4" d="M347.87,673.78C321,531.93,290,492.82,224.55,436.46c-22.28-19.2-12-51.33,28.49-46.95,59.09,6.39,123,198.74,112,284.27-5.28,41.5-13.14,21.47-17.21,0Z"/><path class="cls-2" d="M233,237.55c12.43-11,55.11-25.39,66.81-14.8,15.25,13.81,24.67,29.76,33.6,46.82,5.67,10.85,13.41,27.2,6.61,39.19-9.32,16.45-11.75,33.75-5.33,52.4,7.25,21,17.51,41.06-11.21,48.64-20.37,5.38-47.73,3.68-70.1,4.67-24.23,1.07-55,2.63-40.84-31.42,10.66-25.67,22.34-73.91,15.43-100.23-2.57-9.76-2.57-38.53,5-45.27Z"/><path class="cls-2" d="M367.31,696.36c-7.06,5.52-15.47,2.42-12.65-12,.31-1.59,48.46-26.77,28.54-3.77-6.32,7.29-10.23,11.35-15.89,15.77Z"/><path class="cls-2" d="M208.09,678.41c13.08,0,34.32,5.53,34.43,14.76h-47.6c.12-9.23.1-14.76,13.17-14.76Z"/><path class="cls-2" d="M191.92,165.64c-6.41-1.19-12.59-18-13.93-24.63C156.91,36.25,267.71-5.87,317.9,73.57c7.41,11.72,13.26,26.15,13,35.33-.24,7.35-5.2,9.37-10.55,18.65-13.3,23-104.15,42.56-128.4,38.09Z"/><path class="cls-1" d="M209.15,102.7c-7.49,4.13-21,13.36-33.32,23.46a115.89,115.89,0,0,1-.12-19.06,245.17,245.17,0,0,1,26.18-17.61c25.48-14,53.71-21.06,80.26-23.52a246.94,246.94,0,0,1,29.74-1c2.08,2.68,4.1,5.51,6,8.55,1.44,2.26,2.81,4.62,4.09,7A231.55,231.55,0,0,0,283.5,81c-24.64,2.28-50.8,8.78-74.35,21.74Z"/><path class="cls-2" d="M192,183.84c-25.58,3.53-28.17-8.13-12.43-29.54,34.71-47.18,185-70.82,177.81-35.62-5.28,26-117.06,58.48-165.38,65.16Z"/><path class="cls-4" d="M189.39,200c-2.6-8.18.78-21.73,9.9-24.13,4.48-1.18,5.77-.89,10.29.34,9.46,2.93,21.84,7.35,22.82,19.07,2.68,31.95-35,29.74-43,4.72Z"/><path class="cls-1" d="M200.68,174.34c-5.28-8.73-11.33-18.87-12.8-29.09,28.91-26,92-42.93,132.57-43.44a34.65,34.65,0,0,1,4.76,8.82c4.9,17.71,14.38,98.6-18.18,121.45-33.55,23.55-90.15-30.93-106.35-57.74Z"/><path class="cls-4" d="M256.35,174.64c10.4-6.94,17.35,5.7,26.67,8.1,9.67,2.49,22.49.81,23.82,2.5,3.63,4.57.35,12.74-3.12,16.66-28.26,32-63.48-16.51-47.37-27.26Z"/><path class="cls-4" d="M227.5,89.38c9.6-.38,3.22,9.7-.47,9.6-9.44-.24-2.34.32-5.71,5.35-5.56,8.29-13.67-3-13.7-3-1.82,5.13-4,4-7.57,3.93C193,105.16,192,98,195.86,94.42c2.35-2.16-6.43-.37-7.39-4.24-3-12.07,14.34-8,12.55-10.51-2.23-3.15,2-10.5,5.15-9.13,7.08,3,2.75,7,5.53,3.06,4.25-6.06,12.55-2,9.66,5.08,11.88-3.06,4.06,10.79,6.14,10.7Z"/><path class="cls-1" d="M205.82,92.54c-2.73-3,0-6.85,2.55-8.84,7-5.49,12.48,5.45,7.62,9.54-3.71,3.13-7,2.7-10.17-.7Z"/><path class="cls-4" d="M304.37,154.91c-1.36-11.18,8.2-11.33,8.2-2,0,9.57-6.61,14.89-8.2,2Z"/><path class="cls-4" d="M270.7,156.17c-1.37-11.18,8.2-11.33,8.2-2,0,9.57-6.62,14.89-8.2,2Z"/><path class="cls-4" d="M200.68,174.34c-5.28-8.73-11.33-18.87-12.8-29.09,17.63-15.86,48-28.34,78.16-35.78-1,31.1-19.35,81.28-48,87a142.22,142.22,0,0,1-17.32-22.14Z"/><path class="cls-4" d="M287.32,114.53c-1.77-2.59-3.65-5.47-5.38-8.52a227.85,227.85,0,0,1,38.51-4.2,34.65,34.65,0,0,1,4.76,8.82c1.56,5.62,3.56,17.59,4.56,32.05l-.45-.05c-16.93-1.58-32.74-14.52-42-28.1Z"/><path class="cls-1" d="M290.69,222.38c2.55.43,5.82,3.21,5.82,5,0,51.73-51.77-12.7-5.82-5Z"/><path class="cls-2" d="M298.18,168.71c.79.27.25,3.64-2.39,3.64-12.15,0-1.91-21.82.32-10.62.45,1.85-1.84,5.87,2.07,7Z"/><path class="cls-4" d="M320.59,700.13C244,548.15,167,520.37,161,505.36c-14.11-35.22,10.14-61.53,46.71-37.91,9.74,6.28,60.54,89.7,65.7,101.44,5.71,13,48.83,94.69,56.71,129.53,4.65,20.52-1.75,17.19-9.55,1.71Z"/><path class="cls-4" d="M190.32,480.85c-26.18,88.4-62,177.14-117.63,251.49-12.9,17.25-13.6,19.92-13.6,2.72,0-20.45,32.07-57.62,45.13-126.62,5.55-29.29-.07-88.05-.43-115.11-.64-47.83,90.69-29.15,86.53-12.48Z"/><path class="cls-1" d="M298.69,415.83c-67-24.86-148.75-65.59-148.75-148.61,0-52.78,30.13-18.58,35.17-3.9C219.25,337.6,220.3,367.75,310,401c13.57,5,30.71,3.25,27.59,18.6-1.4,6.91-31.77-1.17-38.88-3.8Z"/><path class="cls-2" d="M189.16,264c10.59,23,18.35,42.29,26.15,58.91A122.14,122.14,0,0,1,173.69,344a127.11,127.11,0,0,1-24.26-75.59c0-59.64,34-21,39.73-4.4Z"/><path class="cls-2" d="M103,241.92c11.08-.59,65.24,2.71,69.71,8.76,41.47,56,54.77,129.9,54.77,198.92,0,30,8,35.15-25.18,45.49-93.54,29.17-100.66,2.35-115.2-5.2,56-55.15-16-246.28,15.9-248Z"/><path class="cls-2" d="M334,714.47c-7.06,5.52-15.48,2.42-12.66-12,.31-1.59,48.47-26.77,28.55-3.77C343.52,706,339.61,710,334,714.47Z"/><path class="cls-2" d="M63.68,738.39c12,0,31.59,5.52,31.7,14.75H51.56c.11-9.23.09-14.75,12.12-14.75Z"/><path class="cls-1" d="M157.57,283.14c-5.87-1.94-27.85-19-27.85-26,0-5.79,3.72-3.93,11-3.93,6.14,0,21.37.48,21.22,4.4-.17,4.21,13,17.44,7.84,25.77-1.49,2.39-10.14.46-12.25-.23Z"/><path class="cls-4" d="M83.13,50.39C87.72,18.23,116.94,86,107.35,97.05c10-10.71,15.28-17.67,19.56-8.14,8.76,19.52-56.12,88-70.54,100.76,11.57,13.06,26.08,33.12,25.9,51.09-.15,15.11-5,16.16-16.57,19.75-10.31,3.19-29.2-1.21-39.24-4.31-14.08-4.36-31.22-21.44-25.23-36.7,2-5,8.64-5,7.24-8.44-5.89-14.22-10.5-27-7.32-42.57,3.25-16,34.75-53.16,46.29-69,5.88-8.07,17.47-33.38,18.84-43,2.08-14.64,8.74-11.93,9.5-4.77,1.7,16.16,6.73,3,7.35-1.32Z"/><path class="cls-1" d="M48.62,194.21c.39-.34,54.41-92,66.69-84.7,14,8.32,26.95,20.48,38.33,33.32,22.68,25.62,46.87,65.34,18.7,92.33-13.06,12.52-46.27,18.89-64,22.75-3.07.67-25.1.58-24.76,1.6,6.25,18.87-37.45,7.06-28.13-8.79,7.66-13,16.22.24,19.62-6.69C81.5,231,66.4,202.55,57.17,200.41c-2.3-.53-12.44-2.76-8.55-6.2Z"/><path class="cls-4" d="M133.29,147.81c-11.17-1.42-9-10.73.11-8.43,9.29,2.35,12.82,10.07-.11,8.43Z"/><path class="cls-4" d="M99.84,182.83c-11.22-1-9.37-10.38-.21-8.43,9.37,2,13.19,9.58.21,8.43Z"/><path class="cls-2" d="M134.81,185.11c-5.06,2.7-11.72-3.82-12.57-7.78-1.92-9,8.68.08,11.3-.19,2.83-.28,4.19-4.72,7.51-.24,2.13,2.88-4.17,7.1-6.24,8.21Z"/><path class="cls-4" d="M113.42,221.07c3.18-12.09,16.77-7.23,25.34-11.62,8.89-4.55,17.36-14.3,19.49-13.92,5.74,1,8.71,9.31,8.71,14.55,0,42.66-58.48,29.71-53.54,11Z"/><path class="cls-4" d="M137.73,133.53c.08,0,0-.13.07-.09.86.86,1.94,2.08,2.8,3.14a16.59,16.59,0,0,1,1.07,1.39c1.29,5.78-5.48,12.11-10.63,16.91-1.14,1.06-2.21,2.06-3,2.83a5.91,5.91,0,0,1-1.84,1.33,2.45,2.45,0,0,1-1.75.12,4.52,4.52,0,0,1-1.8-1.17,14.8,14.8,0,0,1-2.88-4.64c-.21-.49,3.18-5.16,7.15-10a69.48,69.48,0,0,1,6.22-6.7c1.87-1.72,3.51-2.93,4.56-3.15Zm-34.08,34.72c4.27,3,5.68,5.39,5.31,7.58-.41,2.38-2.78,5-5.92,8.14-2.17,2.18-3.93,4.18-5.4,5.83A34.22,34.22,0,0,1,94,193.63c-1.63,1.3-3,.51-6.4-3.75-1.27-1.61.35-5.26,3-9.09a50.16,50.16,0,0,1,4.52-5.58,46.23,46.23,0,0,1,4.84-4.54c2-1.56,3.44-2.55,3.75-2.42Zm29.51-11.11c5.7-5.32,13.21-12.33,11.53-19.85a8.94,8.94,0,0,0-1.68-2.67c-.89-1.1-2.06-2.41-3-3.37a3,3,0,0,0-2.9-.76c-1.65.35-3.78,1.83-6,3.91a75.8,75.8,0,0,0-6.51,7c-4.59,5.58-8.24,11.68-7.62,13.16.3.71.64,1.43,1,2.11a17.64,17.64,0,0,0-4.47,2,11.37,11.37,0,0,0-4.46,5.15l-.76,1.73c-.29.63-.52,1.15-.75,1.74-.61-.52-1.3-1.05-2.05-1.59h0c-1.56-1.07-4.39.09-7.47,2.54a48,48,0,0,0-5.16,4.85A52.85,52.85,0,0,0,88,179c-3.36,4.89-5.17,9.87-2.85,12.79,4.9,6.16,7.23,7.05,10.76,4.24a36.3,36.3,0,0,0,4.06-4.2c1.4-1.58,3.08-3.48,5.28-5.69,3.54-3.56,6.23-6.55,6.78-9.81a7.38,7.38,0,0,0-.92-5l.09,0a15.81,15.81,0,0,1,1.3-3.93l.82-1.87a6.81,6.81,0,0,1,2.7-3,13.57,13.57,0,0,1,5.07-1.86,7.11,7.11,0,0,0,2.5,1.39,5.53,5.53,0,0,0,3.86-.23,8.89,8.89,0,0,0,2.84-2c.95-1,1.89-1.83,2.88-2.76Z"/><path class="cls-1" d="M129.79,257.88c-.07-5.75-3.88-7.09-3.88-7.09l35.35-11.92s-.53,16.86,3.35,24.63S129.79,257.88,129.79,257.88Z"/><path class="cls-1" d="M172.7,38.8c21.22,78.55,37.52,181.32-39.49,236.22-48.95,34.9-37.14-15.66-26.86-30,46.32-80.77,73.58-101.68,45.16-206.87-4.3-15.91-17.3-30.63-1-37.89C157.86-3,170.44,30.46,172.7,38.8Z"/><path class="cls-2" d="M105.63,241.15c14.35-25,27.08-45,37.35-63.2A139.3,139.3,0,0,1,190,202.62,144.75,144.75,0,0,1,136,275.09c-55.31,39.44-42-17.69-30.35-33.94Z"/></g></g></svg>