<svg xmlns="http://www.w3.org/2000/svg" xmlns:xlink="http://www.w3.org/1999/xlink" viewBox="0 0 1168.33 1140.45"><defs><style>.cls-1{fill:url(#linear-gradient);}.cls-2{mask:url(#mask);}.cls-3{fill:#1b3b49;}.cls-4{fill:#fff;}.cls-5{fill:#54c3f0;}.cls-6{fill:#27aae1;}.cls-7{fill:#375e70;}.cls-8{fill:#305460;}.cls-9{fill:#193544;}.cls-10{fill:#245666;}.cls-11{fill:#4d8daf;}.cls-12{fill:#88bdd4;}.cls-13{fill:#132b35;}.cls-14{fill:#6fb0b5;}.cls-15{fill:#88d3e3;}</style><linearGradient id="linear-gradient" x1="839.02" y1="743.62" x2="-135.53" y2="743.62" gradientUnits="userSpaceOnUse"><stop offset="0.01" stop-color="#fff"/><stop offset="0.11" stop-color="#c9c9c9"/><stop offset="0.23" stop-color="#828282"/><stop offset="0.35" stop-color="#4a4a4a"/><stop offset="0.45" stop-color="#222"/><stop offset="0.53" stop-color="#090909"/><stop offset="0.57"/></linearGradient><mask id="mask" x="-63.19" y="0" width="1231.52" height="1283.62" maskUnits="userSpaceOnUse"><polygon class="cls-1" points="459.99 1283.62 -63.19 1283.62 -63.19 203.68 895.31 203.62 459.99 1283.62"/></mask></defs><title>planet</title><g id="Layer_2" data-name="Layer 2"><g id="Layer_3" data-name="Layer 3"><g class="cls-2"><path class="cls-3" d="M94.08,359.09h84c13.69,0,25.28-10.74,25.63-24.42a25.08,25.08,0,0,0-25.07-25.74H144.09c-13.69,0-25.28-10.73-25.63-24.42a25.07,25.07,0,0,1,25.06-25.74H278.66c13.69,0,25.28-10.73,25.63-24.41a25.07,25.07,0,0,0-25.07-25.74H25.64C12,208.62.36,197.88,0,184.2a25.08,25.08,0,0,1,25.07-25.74H521.86c13.69,0,25.29,10.73,25.64,24.41a25.09,25.09,0,0,1-25.07,25.75H418.19c-13.69,0-25.29,10.73-25.64,24.41a25.08,25.08,0,0,0,25.07,25.74h69.87c13.69,0,25.29,10.73,25.64,24.42a25.08,25.08,0,0,1-25.07,25.74H375.29c-13.69,0-25.28,10.73-25.63,24.42a25.08,25.08,0,0,0,25.07,25.74H530.44c13.69,0,25.28,10.73,25.63,24.41A25.08,25.08,0,0,1,531,409.24H94.64C81,409.24,69.36,398.51,69,384.83A25.07,25.07,0,0,1,94.08,359.09Z"/><path class="cls-3" d="M566.26,1016.28h84c13.69,0,25.28-10.73,25.63-24.41a25.08,25.08,0,0,0-25.07-25.74H616.27c-13.69,0-25.28-10.73-25.63-24.42A25.08,25.08,0,0,1,615.71,916H750.84c13.69,0,25.28-10.73,25.64-24.42a25.08,25.08,0,0,0-25.07-25.74H497.82c-13.68,0-25.28-10.73-25.63-24.41a25.08,25.08,0,0,1,25.07-25.74h625.23c13.69,0,25.28,10.73,25.63,24.41a25.07,25.07,0,0,1-25.07,25.74H942.39c-13.69,0-25.28,10.74-25.63,24.42A25.08,25.08,0,0,0,941.83,916h69.87c13.69,0,25.28,10.73,25.63,24.42a25.08,25.08,0,0,1-25.06,25.74H841.79c-13.69,0-25.28,10.73-25.64,24.41a25.08,25.08,0,0,0,25.07,25.74h213.42c13.69,0,25.29,10.74,25.64,24.42a25.08,25.08,0,0,1-25.07,25.74H566.82c-13.69,0-25.28-10.73-25.63-24.41A25.08,25.08,0,0,1,566.26,1016.28Z"/><path class="cls-4" d="M367,183a4.21,4.21,0,1,1-4.21-4.21A4.21,4.21,0,0,1,367,183Z"/><path class="cls-4" d="M97.36,67.07a4.21,4.21,0,1,1-4.2-4.21A4.21,4.21,0,0,1,97.36,67.07Z"/><path class="cls-4" d="M317.84,521.43a4.21,4.21,0,1,1-4.21-4.21A4.2,4.2,0,0,1,317.84,521.43Z"/><path class="cls-4" d="M105.78,568a4.21,4.21,0,1,1-4.21-4.2A4.2,4.2,0,0,1,105.78,568Z"/><path class="cls-4" d="M1011.65,974.37a4.21,4.21,0,1,1-4.21-4.21A4.21,4.21,0,0,1,1011.65,974.37Z"/><path class="cls-4" d="M1168.33,525.64a4.21,4.21,0,1,1-4.21-4.21A4.21,4.21,0,0,1,1168.33,525.64Z"/><path class="cls-4" d="M864.35,54.33a4.21,4.21,0,1,1-4.21-4.21A4.2,4.2,0,0,1,864.35,54.33Z"/><path class="cls-4" d="M593.63,1136.24a4.21,4.21,0,1,1-4.21-4.21A4.21,4.21,0,0,1,593.63,1136.24Z"/><path class="cls-4" d="M313.63,845.91q-.66,9.55-10.21,10.22,9.56.66,10.21,10.21.66-9.55,10.21-10.21Q314.3,855.46,313.63,845.91Z"/><circle class="cls-5" cx="485.4" cy="18.26" r="18.26" transform="translate(129.26 348.58) rotate(-45)"/><circle class="cls-6" cx="108.63" cy="287.36" r="18.26" transform="translate(-63.65 33) rotate(-13.4)"/><circle class="cls-6" cx="836.55" cy="1099.09" r="18.26"/><circle class="cls-4" cx="948.57" cy="284.26" r="15.69" transform="translate(76.83 754) rotate(-45)"/><circle class="cls-4" cx="210.58" cy="956.74" r="15.69" transform="translate(-151.34 46.41) rotate(-9.27)"/><circle class="cls-7" cx="235.03" cy="165.47" r="65.22"/><path class="cls-8" d="M228.47,106.81a64.94,64.94,0,0,0-42.71,16,65.2,65.2,0,0,0,92,92,65.2,65.2,0,0,0-49.27-107.93Z"/><circle class="cls-9" cx="208.96" cy="184.82" r="26.07" transform="translate(-69.48 201.89) rotate(-45)"/><circle class="cls-9" cx="240.97" cy="125.51" r="9.22"/><circle class="cls-9" cx="249.01" cy="205.21" r="13.24" transform="translate(-72.17 236.18) rotate(-45)"/><circle class="cls-7" cx="1118.29" cy="609.24" r="27.33" transform="translate(268.41 1557.64) rotate(-76.72)"/><path class="cls-8" d="M1115.54,584.66A27.32,27.32,0,1,0,1142.88,612,27.18,27.18,0,0,0,1115.54,584.66Z"/><path class="cls-9" d="M1116.47,628.28a3.53,3.53,0,1,1-3.53-3.53A3.52,3.52,0,0,1,1116.47,628.28Z"/><circle class="cls-9" cx="1111.5" cy="600.23" r="3.86"/><circle class="cls-9" cx="1125.83" cy="623.93" r="8.44"/><path class="cls-10" d="M589.42,178.21c-239.53,0-433.7,194.18-433.7,433.71s194.17,433.7,433.7,433.7,433.71-194.17,433.71-433.7S829,178.21,589.42,178.21Zm0,863.47c-237.35,0-429.76-192.41-429.76-429.76S352.07,182.16,589.42,182.16s429.76,192.41,429.76,429.76S826.77,1041.68,589.42,1041.68Z"/><circle class="cls-7" cx="589.42" cy="611.92" r="318.66" transform="translate(-260.05 596.01) rotate(-45)"/><path class="cls-11" d="M642.64,872.06,551,905.4a25.48,25.48,0,0,0-16.53,20.46,317.16,317.16,0,0,0,163.9-14.5c165.38-60.19,250.65-243.05,190.45-408.43S645.81,252.28,480.43,312.48a318.74,318.74,0,0,0-69.51,35.39l95-34.59a5.67,5.67,0,0,1,7.26,3.39h0a5.67,5.67,0,0,1-3.39,7.26L438.21,350A25.49,25.49,0,0,0,423,382.64h0a25.48,25.48,0,0,0,32.66,15.23l24.17-8.8a5.66,5.66,0,0,1,7.26,3.38h0a5.67,5.67,0,0,1-3.39,7.26l-111,40.41a25.48,25.48,0,0,0-15.23,32.66h0A25.47,25.47,0,0,0,390.08,488L502.5,447.09a5.65,5.65,0,0,1,7.25,3.38h0a5.66,5.66,0,0,1-3.38,7.26l-46.49,16.92a25.47,25.47,0,0,0-15.23,32.65h0a25.47,25.47,0,0,0,32.65,15.23l92.53-33.68a5.67,5.67,0,0,1,7.26,3.39h0a5.67,5.67,0,0,1-3.39,7.26l-34.12,12.41a25.48,25.48,0,0,0-15.22,32.66h0A25.48,25.48,0,0,0,557,559.8l66.51-24.21a5.66,5.66,0,0,1,7.25,3.38h0a5.66,5.66,0,0,1-3.38,7.26L506.64,590.18a25.48,25.48,0,0,0-15.23,32.66h0a25.48,25.48,0,0,0,32.66,15.22l76.68-27.91a5.67,5.67,0,0,1,7.26,3.39h0a5.66,5.66,0,0,1-3.39,7.25l-13.76,5a25.49,25.49,0,0,0-15.23,32.66h0a25.49,25.49,0,0,0,32.66,15.23l29-10.57a5.67,5.67,0,0,1,7.26,3.38h0a5.67,5.67,0,0,1-3.39,7.26L573,698.6a25.46,25.46,0,0,0-15.22,32.65h0a25.48,25.48,0,0,0,32.65,15.23l3.93-1.43a5.66,5.66,0,0,1,7.26,3.38h0a5.67,5.67,0,0,1-3.38,7.26l-70.85,25.78a25.48,25.48,0,0,0,17.43,47.89l72.69-26.46a5.66,5.66,0,0,1,7.26,3.38h0a5.66,5.66,0,0,1-3.38,7.26L591.5,824.4a25.48,25.48,0,1,0,17.42,47.88l29.84-10.86a5.67,5.67,0,0,1,7.26,3.39h0A5.65,5.65,0,0,1,642.64,872.06Z"/><path class="cls-12" d="M888.86,502.93c-40-109.88-134.14-184.4-241.33-204.38l-41.22,15a25.48,25.48,0,0,0-15.23,32.66h0a25.48,25.48,0,0,0,32.65,15.23l24.18-8.8a5.65,5.65,0,0,1,7.25,3.38h0a5.66,5.66,0,0,1-3.38,7.26l-111,40.41a25.48,25.48,0,0,0-15.23,32.66h0a25.47,25.47,0,0,0,32.66,15.22L670.6,410.66a5.65,5.65,0,0,1,7.25,3.38h0a5.66,5.66,0,0,1-3.38,7.26L628,438.22a25.47,25.47,0,0,0-15.22,32.66h0A25.46,25.46,0,0,0,645.4,486.1l92.53-33.67a5.66,5.66,0,0,1,7.26,3.38h0a5.67,5.67,0,0,1-3.39,7.26l-34.12,12.42a25.48,25.48,0,0,0-15.23,32.65h0a25.49,25.49,0,0,0,32.66,15.23l66.5-24.21a5.67,5.67,0,0,1,7.26,3.39h0a5.66,5.66,0,0,1-3.38,7.25L674.74,553.75a25.48,25.48,0,0,0-15.23,32.66h0a25.47,25.47,0,0,0,32.66,15.22l76.68-27.91a5.67,5.67,0,0,1,7.26,3.39h0a5.67,5.67,0,0,1-3.39,7.26l-13.76,5A25.49,25.49,0,0,0,743.73,622h0a25.48,25.48,0,0,0,32.66,15.23l29-10.57a5.66,5.66,0,0,1,7.25,3.38h0a5.66,5.66,0,0,1-3.38,7.26l-68.24,24.84a25.48,25.48,0,0,0-15.23,32.65h0a25.48,25.48,0,0,0,32.66,15.23l3.93-1.43a5.67,5.67,0,0,1,7.26,3.38h0a5.67,5.67,0,0,1-3.39,7.26L695.44,745a25.48,25.48,0,0,0,17.43,47.89l72.69-26.46a5.67,5.67,0,0,1,7.26,3.38h0a5.67,5.67,0,0,1-3.39,7.26L759.59,788A25.48,25.48,0,0,0,777,835.85l58.34-21.23C904.63,730.41,928.86,612.81,888.86,502.93Z"/><path class="cls-12" d="M496.47,672.86l82.93-30.18A25.48,25.48,0,0,0,594.63,610h0A25.48,25.48,0,0,0,562,594.8L479,625a25.46,25.46,0,0,0-15.22,32.65h0A25.47,25.47,0,0,0,496.47,672.86Z"/><path class="cls-11" d="M469.12,790.61l45-16.37a25.47,25.47,0,0,0,15.23-32.65h0a25.48,25.48,0,0,0-32.66-15.23l-45,16.37a25.47,25.47,0,0,0-15.23,32.65h0A25.46,25.46,0,0,0,469.12,790.61Z"/><path class="cls-11" d="M451.65,598.14l20.47-7.45A25.48,25.48,0,0,0,487.35,558h0a25.49,25.49,0,0,0-32.66-15.23l-20.47,7.45A25.47,25.47,0,0,0,419,582.92h0A25.46,25.46,0,0,0,451.65,598.14Z"/><path class="cls-12" d="M435.11,496.37l30.54-11.12a25.48,25.48,0,0,0,15.23-32.65h0a25.48,25.48,0,0,0-32.66-15.23l-30.53,11.11a25.48,25.48,0,0,0-15.23,32.66h0A25.48,25.48,0,0,0,435.11,496.37Z"/><path class="cls-12" d="M614.54,828.83l14.92-5.43a25.48,25.48,0,0,0,15.22-32.66h0A25.48,25.48,0,0,0,612,775.51l-14.92,5.43a25.49,25.49,0,0,0-15.23,32.66h0A25.48,25.48,0,0,0,614.54,828.83Z"/><path class="cls-12" d="M550.81,520.58l22.61-8.23a25.49,25.49,0,0,0,15.23-32.66h0A25.49,25.49,0,0,0,556,464.46l-22.61,8.23a25.49,25.49,0,0,0-15.23,32.66h0A25.48,25.48,0,0,0,550.81,520.58Z"/><path class="cls-12" d="M653.19,682l55.75-20.29a25.46,25.46,0,0,0,15.22-32.65h0a25.47,25.47,0,0,0-32.65-15.23l-55.75,20.29a25.48,25.48,0,0,0-15.23,32.65h0A25.48,25.48,0,0,0,653.19,682Z"/><path class="cls-8" d="M246.81,493.79h0a81.61,81.61,0,1,0,55.82,153.38h0Z"/><path class="cls-7" d="M241.9,504.3a81.3,81.3,0,0,0-43.39,37A81.59,81.59,0,0,0,346,610.13,81.59,81.59,0,0,0,241.9,504.3Z"/><circle class="cls-9" cx="269.04" cy="612.78" r="32.62" transform="matrix(1, -0.04, 0.04, 1, -22.39, 10.33)"/><circle class="cls-9" cx="221.42" cy="595.17" r="10.83" transform="translate(-411.34 541.55) rotate(-64.75)"/><circle class="cls-9" cx="256.03" cy="534.15" r="14.25" transform="translate(-336.29 538.46) rotate(-64.81)"/><path class="cls-13" d="M351.41,542.56a81.61,81.61,0,0,0-104.6-48.77l55.82,153.38A81.61,81.61,0,0,0,351.41,542.56Z"/><path class="cls-9" d="M249.75,501.88l52.88,145.29a81.32,81.32,0,0,0,43.4-37,81.59,81.59,0,0,0-96.28-108.25Z"/><path class="cls-7" d="M265.4,544.87a14.23,14.23,0,0,0-9.09-25Z"/><path class="cls-7" d="M296.51,630.35a32.59,32.59,0,0,0-17.72-48.68Z"/><circle class="cls-13" cx="321.36" cy="576.11" r="16.56" transform="matrix(0.26, -0.96, 0.96, 0.26, -319.24, 733.63)"/><circle class="cls-14" cx="742.34" cy="209.77" r="35.04" transform="translate(381.16 891.4) rotate(-77.86)"/><path class="cls-15" d="M742.34,174.73a35,35,0,0,0-28.42,14.55A35,35,0,0,0,775.52,221a35,35,0,0,0-33.18-46.3Z"/></g></g></g></svg>