<?xml version="1.0" encoding="utf-8"?>
<!-- Generator: Adobe Illustrator 19.0.0, SVG Export Plug-In . SVG Version: 6.00 Build 0)  -->
<svg version="1.1" id="圖層_1" xmlns="http://www.w3.org/2000/svg" xmlns:xlink="http://www.w3.org/1999/xlink" x="0px" y="0px"
	 viewBox="764 -246.2 2139.4 1284.2" style="enable-background:new 764 -246.2 2139.4 1284.2;" xml:space="preserve">
<style type="text/css">
	.st0{fill:#26282D;}
	.st1{filter:url(#Adobe_OpacityMaskFilter);}
	.st2{fill:url(#SVGID_2_);}
	.st3{mask:url(#SVGID_1_);}
	.st4{fill:#1B3B49;}
	.st5{fill:#FFFFFF;}
	.st6{fill:#54C3F0;}
	.st7{fill:#27AAE1;}
	.st8{fill:#375E70;}
	.st9{fill:#305460;}
	.st10{fill:#193544;}
	.st11{fill:#245666;}
	.st12{fill:#4D8DAF;}
	.st13{fill:#88BDD4;}
	.st14{fill:#132B35;}
	.st15{fill:#6FB0B5;}
	.st16{fill:#88D3E3;}
</style>
<title>Asset 19</title>
<g id="Layer_2">
	<g id="Layer_3">
		<polygon class="st0" points="2630.1,-43.1 1144,-42 1144,917.2 1144,1038 2196.2,1037.5 		"/>
		<rect x="764" y="-43.1" class="st0" width="412" height="1081.1"/>
		<defs>
			<filter id="Adobe_OpacityMaskFilter" filterUnits="userSpaceOnUse" x="1735" y="-246.2" width="1168.4" height="1140.5">
				<feColorMatrix  type="matrix" values="1 0 0 0 0  0 1 0 0 0  0 0 1 0 0  0 0 0 1 0"/>
			</filter>
		</defs>
		<mask maskUnits="userSpaceOnUse" x="1735" y="-246.2" width="1168.4" height="1140.5" id="SVGID_1_">
			<g class="st1">
				
					<linearGradient id="SVGID_2_" gradientUnits="userSpaceOnUse" x1="2574.0901" y1="497.8" x2="1599.54" y2="497.8" gradientTransform="matrix(1 0 0 1 0 -0.2999)">
					<stop  offset="1.000000e-002" style="stop-color:#FFFFFF"/>
					<stop  offset="0.11" style="stop-color:#C9C9C9"/>
					<stop  offset="0.23" style="stop-color:#828282"/>
					<stop  offset="0.35" style="stop-color:#4A4A4A"/>
					<stop  offset="0.45" style="stop-color:#222222"/>
					<stop  offset="0.53" style="stop-color:#090909"/>
					<stop  offset="0.57" style="stop-color:#000000"/>
				</linearGradient>
				<polygon class="st2" points="2195.1,1037.5 1671.9,1037.5 1671.9,-42.5 2630.4,-42.5 				"/>
			</g>
		</mask>
		<g class="st3">
			<path class="st4" d="M1829.2,112.9h84c13.7,0,25.3-10.7,25.6-24.4c0.4-13.8-10.6-25.4-24.4-25.7c-0.2,0-0.4,0-0.7,0h-34.6
				c-13.7,0-25.3-10.7-25.6-24.4c-0.4-13.8,10.6-25.4,24.4-25.7c0.2,0,0.5,0,0.7,0h135.1c13.7,0,25.3-10.7,25.6-24.4
				c0.4-13.8-10.6-25.4-24.4-25.7c-0.2,0-0.4,0-0.7,0h-253.6c-13.7,0-25.3-10.7-25.6-24.4c-0.4-13.8,10.6-25.4,24.4-25.7
				c0.2,0,0.4,0,0.7,0h496.8c13.7,0,25.3,10.7,25.6,24.4c0.4,13.9-10.6,25.4-24.4,25.7c-0.2,0-0.4,0-0.6,0h-104.2
				c-13.7,0-25.3,10.7-25.6,24.4c-0.4,13.8,10.6,25.4,24.4,25.7c0.2,0,0.4,0,0.7,0h69.9c13.7,0,25.3,10.7,25.6,24.4
				c0.4,13.8-10.6,25.4-24.4,25.7c-0.2,0-0.4,0-0.7,0h-112.8c-13.7,0-25.3,10.7-25.6,24.4c-0.4,13.8,10.6,25.4,24.4,25.7
				c0.2,0,0.4,0,0.7,0h155.7c13.7,0,25.3,10.7,25.6,24.4c0.4,13.8-10.6,25.4-24.4,25.7c-0.2,0-0.4,0-0.7,0h-436.4
				c-13.7,0-25.3-10.7-25.6-24.4c-0.4-13.8,10.6-25.4,24.4-25.7C1828.7,112.9,1828.9,112.9,1829.2,112.9z"/>
			<path class="st4" d="M2301.3,770.1h84c13.7,0,25.3-10.7,25.6-24.4c0.4-13.8-10.6-25.4-24.4-25.7c-0.2,0-0.4,0-0.7,0h-34.5
				c-13.7,0-25.3-10.7-25.6-24.4c-0.3-13.8,10.6-25.4,24.4-25.7c0.2,0,0.4,0,0.6,0h135.1c13.7,0,25.3-10.7,25.6-24.4
				c0.4-13.8-10.6-25.4-24.4-25.7c-0.2,0-0.4,0-0.7,0h-253.6c-13.7,0-25.3-10.7-25.6-24.4c-0.4-13.8,10.6-25.4,24.4-25.7
				c0.2,0,0.4,0,0.7,0h625.2c13.7,0,25.3,10.7,25.6,24.4c0.4,13.8-10.6,25.4-24.4,25.7c-0.2,0-0.5,0-0.7,0h-180.7
				c-13.7,0-25.3,10.7-25.6,24.4c-0.4,13.8,10.6,25.4,24.4,25.7c0.2,0,0.4,0,0.7,0h69.9c13.7,0,25.3,10.7,25.6,24.4
				c0.4,13.8-10.6,25.4-24.4,25.7c-0.2,0-0.4,0-0.7,0h-170.5c-13.7,0-25.3,10.7-25.6,24.4c-0.4,13.8,10.5,25.4,24.4,25.7
				c0.2,0,0.5,0,0.7,0h213.4c13.7,0,25.3,10.7,25.6,24.4c0.4,13.8-10.6,25.4-24.4,25.7c-0.2,0-0.4,0-0.7,0h-488.4
				c-13.7,0-25.3-10.7-25.6-24.4c-0.4-13.8,10.5-25.4,24.4-25.8C2300.9,770.1,2301.1,770.1,2301.3,770.1z"/>
			<path class="st5" d="M2102.1-63.2c0,2.3-1.9,4.2-4.2,4.2c-2.3,0-4.2-1.9-4.2-4.2s1.9-4.2,4.2-4.2
				C2100.2-67.4,2102.1-65.5,2102.1-63.2L2102.1-63.2z"/>
			<path class="st5" d="M1832.4-179.1c0,2.3-1.9,4.2-4.2,4.2c-2.3,0-4.2-1.9-4.2-4.2s1.9-4.2,4.2-4.2
				C1830.6-183.3,1832.4-181.4,1832.4-179.1z"/>
			<path class="st5" d="M2052.9,275.3c0,2.3-1.9,4.2-4.2,4.2c-2.3,0-4.2-1.9-4.2-4.2c0-2.3,1.9-4.2,4.2-4.2
				C2051,271.1,2052.9,272.9,2052.9,275.3L2052.9,275.3z"/>
			<path class="st5" d="M1840.8,321.8c0,2.3-1.9,4.2-4.2,4.2c-2.3,0-4.2-1.9-4.2-4.2c0-2.3,1.9-4.2,4.2-4.2l0,0
				C1839,317.6,1840.8,319.5,1840.8,321.8L1840.8,321.8z"/>
			<path class="st5" d="M2746.7,728.2c0,2.3-1.9,4.2-4.2,4.2s-4.2-1.9-4.2-4.2s1.9-4.2,4.2-4.2l0,0
				C2744.8,724,2746.7,725.9,2746.7,728.2z"/>
			<path class="st5" d="M2903.4,279.5c0,2.3-1.9,4.2-4.2,4.2s-4.2-1.9-4.2-4.2c0-2.3,1.9-4.2,4.2-4.2l0,0
				C2901.5,275.3,2903.4,277.2,2903.4,279.5z"/>
			<path class="st5" d="M2599.4-191.8c0,2.3-1.9,4.2-4.2,4.2c-2.3,0-4.2-1.9-4.2-4.2s1.9-4.2,4.2-4.2l0,0
				C2597.5-196,2599.4-194.2,2599.4-191.8L2599.4-191.8z"/>
			<path class="st5" d="M2328.7,890.1c0,2.3-1.9,4.2-4.2,4.2c-2.3,0-4.2-1.9-4.2-4.2s1.9-4.2,4.2-4.2l0,0
				C2326.8,885.9,2328.7,887.8,2328.7,890.1z"/>
			<path class="st5" d="M2048.7,599.8c-0.4,6.4-3.8,9.8-10.2,10.2c6.4,0.4,9.8,3.8,10.2,10.2c0.4-6.4,3.8-9.8,10.2-10.2
				C2052.6,609.5,2049.1,606.1,2048.7,599.8z"/>
			<circle class="st6" cx="2220.5" cy="-227.9" r="18.3"/>
			<circle class="st7" cx="1843.7" cy="41.2" r="18.3"/>
			<circle class="st7" cx="2571.6" cy="852.9" r="18.3"/>
			<circle class="st5" cx="2683.6" cy="38.1" r="15.7"/>
			<circle class="st5" cx="1945.7" cy="710.6" r="15.7"/>
			<circle class="st8" cx="1970.1" cy="-80.7" r="65.2"/>
			<path class="st9" d="M1963.5-139.3c-15.7,0-30.9,5.7-42.7,16c-23.7,27.1-20.9,68.3,6.2,92c24.6,21.5,61.3,21.5,85.8,0
				c23.6-27.2,20.7-68.4-6.5-92C1994.4-133.6,1979.3-139.3,1963.5-139.3L1963.5-139.3z"/>
			<circle class="st10" cx="1944" cy="-61.3" r="26.1"/>
			<circle class="st10" cx="1976" cy="-120.6" r="9.2"/>
			<circle class="st10" cx="1984.1" cy="-40.9" r="13.2"/>
			<circle class="st8" cx="2853.3" cy="363" r="27.3"/>
			<path class="st9" d="M2850.6,338.5c-15.1,0-27.3,12.3-27.2,27.4c0,15.1,12.3,27.3,27.4,27.2c15.1,0,27.2-12.2,27.3-27.3
				c0.1-15-12-27.3-27.1-27.3C2850.8,338.5,2850.7,338.5,2850.6,338.5z"/>
			<path class="st10" d="M2851.5,382.1c0,1.9-1.6,3.5-3.5,3.5s-3.5-1.6-3.5-3.5c0-1.9,1.6-3.5,3.5-3.5
				C2850,378.6,2851.5,380.2,2851.5,382.1L2851.5,382.1z"/>
			<circle class="st10" cx="2846.6" cy="354.1" r="3.9"/>
			<circle class="st10" cx="2860.9" cy="377.8" r="8.4"/>
			<path class="st11" d="M2324.5-67.9c-239.5,0-433.7,194.2-433.7,433.7s194.2,433.7,433.7,433.7s433.7-194.2,433.7-433.7
				S2564-67.9,2324.5-67.9z M2324.5,795.5c-237.3,0-429.8-192.4-429.8-429.8S2087.1-64,2324.5-64s429.8,192.4,429.8,429.8
				S2561.8,795.5,2324.5,795.5L2324.5,795.5z"/>
			<circle class="st8" cx="2324.5" cy="365.8" r="318.7"/>
			<path class="st12" d="M2377.7,625.9l-91.6,33.3c-8.9,3.2-15.2,11.1-16.5,20.5c55,9.7,111.5,4.7,163.9-14.5
				c165.4-60.2,250.6-243,190.4-408.4c-60.2-165.4-243-250.6-408.4-190.5c-24.5,8.9-47.9,20.8-69.5,35.4l95-34.6
				c2.9-1.1,6.2,0.5,7.3,3.4l0,0c1.1,2.9-0.5,6.2-3.4,7.3l-71.6,26.1c-13.2,4.8-20,19.4-15.2,32.7l0,0c4.8,13.2,19.4,20,32.7,15.2
				l0,0l24.2-8.8c2.9-1.1,6.2,0.4,7.3,3.4l0,0l0,0c1.1,2.9-0.5,6.2-3.4,7.3l-111,40.4c-13.2,4.8-20,19.4-15.2,32.7l0,0l0,0
				c4.8,13.2,19.4,20,32.6,15.2l112.4-40.9c2.9-1.1,6.2,0.4,7.3,3.4l0,0l0,0c1.1,2.9-0.5,6.2-3.4,7.3l-46.4,16.9
				c-13.2,4.8-20,19.4-15.2,32.6l0,0l0,0c4.8,13.2,19.4,20,32.6,15.2l0,0l92.5-33.7c2.9-1.1,6.2,0.5,7.3,3.4l0,0
				c1.1,2.9-0.5,6.2-3.4,7.3l-34.1,12.4c-13.2,4.8-20,19.4-15.2,32.7l0,0c4.8,13.2,19.4,20,32.7,15.2l66.5-24.2
				c2.9-1.1,6.2,0.4,7.3,3.4l0,0c1.1,2.9-0.4,6.2-3.4,7.3l0,0l-120.8,44c-13.2,4.8-20,19.4-15.2,32.7l0,0l0,0
				c4.8,13.2,19.4,20,32.7,15.2l76.7-27.9c2.9-1.1,6.2,0.5,7.3,3.4l0,0c1.1,2.9-0.5,6.2-3.4,7.3l-13.8,5
				c-13.2,4.8-20,19.4-15.2,32.7l0,0c4.8,13.2,19.4,20,32.7,15.2l29-10.6c2.9-1.1,6.2,0.4,7.3,3.4l0,0c1.1,2.9-0.5,6.2-3.4,7.3
				l-68.3,24.9c-13.2,4.8-20,19.4-15.2,32.6l0,0l0,0c4.8,13.2,19.4,20,32.7,15.2l3.9-1.4c2.9-1.1,6.2,0.4,7.3,3.4l0,0l0,0
				c1.1,2.9-0.4,6.2-3.4,7.3l-70.8,25.8c-13.2,4.8-20,19.5-15.2,32.7s19.4,20,32.6,15.2l72.7-26.5c2.9-1.1,6.2,0.4,7.3,3.4l0,0l0,0
				c1.1,2.9-0.4,6.2-3.4,7.3l0,0l-29.8,10.9c-13.2,4.8-20,19.4-15.2,32.7c4.8,13.2,19.4,20,32.7,15.2l29.8-10.9
				c2.9-1.1,6.2,0.5,7.3,3.4l0,0C2382.2,621.6,2380.7,624.8,2377.7,625.9L2377.7,625.9z"/>
			<path class="st13" d="M2623.9,256.8c-40-109.9-134.1-184.4-241.3-204.4l-41.2,15c-13.2,4.8-20,19.4-15.2,32.7l0,0l0,0
				c4.8,13.2,19.4,20,32.7,15.2l24.2-8.8c2.9-1.1,6.2,0.4,7.2,3.4l0,0l0,0c1.1,2.9-0.4,6.2-3.4,7.3l0,0l-111,40.4
				c-13.2,4.8-20,19.4-15.2,32.7l0,0l0,0c4.8,13.2,19.4,20,32.6,15.2l0,0l112.4-40.9c2.9-1.1,6.2,0.4,7.2,3.4l0,0l0,0
				c1.1,2.9-0.4,6.2-3.4,7.3l0,0l-46.6,16.9c-13.2,4.8-20,19.4-15.2,32.6l0,0l0,0c4.8,13.2,19.4,20,32.6,15.2l0,0l92.6-33.7
				c2.9-1.1,6.2,0.4,7.3,3.4l0,0l0,0c1.1,2.9-0.5,6.2-3.4,7.3l-34.1,12.4c-13.2,4.8-20,19.4-15.2,32.6l0,0l0,0
				c4.8,13.2,19.4,20,32.7,15.2l66.5-24.2c2.9-1.1,6.2,0.5,7.3,3.4l0,0c1.1,2.9-0.4,6.2-3.4,7.2l0,0l-120.8,43.9
				c-13.2,4.8-20,19.4-15.2,32.7l0,0l0,0c4.8,13.2,19.4,20,32.7,15.2l76.7-27.9c2.9-1.1,6.2,0.5,7.3,3.4l0,0
				c1.1,2.9-0.5,6.2-3.4,7.3l-13.8,5c-13.2,4.8-20,19.4-15.2,32.6l0,0c4.8,13.2,19.4,20,32.7,15.2l0,0l29-10.6
				c2.9-1.1,6.2,0.4,7.3,3.4l0,0c1.1,2.9-0.4,6.2-3.4,7.3l0,0l-68.2,24.8c-13.2,4.8-20,19.4-15.2,32.7l0,0
				c4.8,13.2,19.4,20,32.7,15.2l0,0l3.9-1.4c2.9-1.1,6.2,0.4,7.3,3.4l0,0c1.1,2.9-0.5,6.2-3.4,7.3l-70.8,25.8
				c-13.2,4.8-20,19.4-15.2,32.7s19.4,20,32.7,15.2l0,0l72.7-26.5c2.9-1.1,6.2,0.4,7.3,3.4l0,0c1.1,2.9-0.4,6.2-3.4,7.3l-29.8,10.9
				c-13.3,4.6-20.4,19-15.9,32.4c4.6,13.3,19,20.4,32.4,15.9c0.3-0.1,0.6-0.2,0.9-0.3l58.3-21.2
				C2639.7,484.3,2663.9,366.7,2623.9,256.8z"/>
			<path class="st13" d="M2231.5,426.7l82.9-30.2c13.2-4.8,20-19.4,15.2-32.7l0,0l0,0c-4.8-13.2-19.4-20-32.7-15.2l0,0l-82.9,30.2
				c-13.2,4.8-20,19.4-15.2,32.6l0,0l0,0C2203.7,424.7,2218.3,431.5,2231.5,426.7z"/>
			<path class="st12" d="M2204.2,544.5l45-16.4c13.2-4.8,20-19.4,15.2-32.6l0,0l0,0c-4.8-13.2-19.4-20-32.6-15.2l0,0l-45,16.4
				c-13.2,4.8-20,19.4-15.2,32.6l0,0l0,0C2176.3,542.4,2190.9,549.3,2204.2,544.5L2204.2,544.5z"/>
			<path class="st12" d="M2186.7,352l20.5-7.5c13.2-4.8,20.1-19.4,15.2-32.7l0,0l0,0c-4.8-13.2-19.4-20-32.7-15.2l-20.5,7.5
				c-13.2,4.8-20,19.4-15.2,32.7l0,0l0,0C2158.9,350,2173.5,356.8,2186.7,352L2186.7,352z"/>
			<path class="st13" d="M2170.2,250.2l30.5-11.1c13.2-4.8,20.1-19.4,15.3-32.6l0,0l0,0c-4.8-13.2-19.4-20-32.7-15.2l0,0l-30.5,11.1
				c-13.2,4.8-20,19.4-15.2,32.7l0,0l0,0C2142.4,248.2,2157,255,2170.2,250.2z"/>
			<path class="st13" d="M2349.6,582.7l14.9-5.4c13.2-4.8,20-19.4,15.2-32.7l0,0c-4.8-13.2-19.4-20-32.7-15.2l-14.9,5.4
				c-13.2,4.8-20,19.4-15.2,32.7l0,0C2321.8,580.6,2336.4,587.5,2349.6,582.7z"/>
			<path class="st13" d="M2285.9,274.4l22.6-8.2c13.2-4.8,20-19.4,15.2-32.7l0,0c-4.8-13.2-19.4-20-32.7-15.2l-22.6,8.2
				c-13.2,4.8-20,19.4-15.2,32.7l0,0C2258,272.4,2272.7,279.2,2285.9,274.4L2285.9,274.4z"/>
			<path class="st13" d="M2388.3,435.8l55.7-20.3c13.2-4.8,20-19.4,15.2-32.6l0,0l0,0c-4.8-13.2-19.4-20-32.6-15.2l0,0l-55.8,20.3
				c-13.2,4.8-20,19.4-15.2,32.7l0,0C2360.4,433.9,2375,440.7,2388.3,435.8z"/>
			<path class="st9" d="M1981.9,247.6L1981.9,247.6c-42.4,15.4-64.2,62.2-48.8,104.6c15.4,42.4,62.2,64.2,104.6,48.8l0,0
				L1981.9,247.6z"/>
			<path class="st8" d="M1977,258.1c-18.5,6.7-33.9,19.8-43.4,37c-16.1,42.1,5,89.3,47.1,105.3c37.9,14.5,80.6-1.1,100.4-36.5
				c16.1-42.1-5-89.3-47-105.4C2015.7,251.6,1995.5,251.4,1977,258.1z"/>
			<circle class="st10" cx="2006.6" cy="364.3" r="32.6"/>
			<circle class="st10" cx="1956.5" cy="349" r="10.8"/>
			<circle class="st10" cx="1991.1" cy="288" r="14.3"/>
			<path class="st14" d="M2086.5,296.4c-15.4-42.4-62.2-64.2-104.6-48.8l55.8,153.4C2080.1,385.6,2101.9,338.8,2086.5,296.4
				L2086.5,296.4z"/>
			<path class="st10" d="M1984.8,255.7l52.9,145.3c18.5-6.7,33.9-19.8,43.4-37c16.1-42.1-4.9-89.3-47-105.4
				C2018.3,252.6,2001.1,251.6,1984.8,255.7L1984.8,255.7z"/>
			<path class="st8" d="M2000.5,298.7c5.9-5.1,6.6-14.1,1.5-20.1c-2.7-3.1-6.5-4.9-10.6-4.9L2000.5,298.7z"/>
			<path class="st8" d="M2031.6,384.2c9.7-15.2,5.3-35.3-9.9-45c-2.4-1.6-5.1-2.8-7.8-3.7L2031.6,384.2z"/>
			<circle class="st14" cx="2049.8" cy="331.3" r="16.5"/>
			<circle class="st15" cx="2477.4" cy="-36.4" r="35"/>
			<path class="st16" d="M2477.4-71.4c-11.3,0-21.8,5.4-28.4,14.6c-6.3,18.3,3.3,38.2,21.6,44.5c14.7,5.1,31-0.1,40-12.8
				c6.2-18.3-3.5-38.2-21.8-44.4C2485.1-70.8,2481.3-71.4,2477.4-71.4L2477.4-71.4z"/>
		</g>
	</g>
</g>
</svg>
