<svg xmlns="http://www.w3.org/2000/svg" xmlns:xlink="http://www.w3.org/1999/xlink" viewBox="0 0 697.82 1057.65"><defs><style>.cls-1{fill:url(#linear-gradient);}.cls-2{fill:#f58466;}.cls-2,.cls-3,.cls-4,.cls-5{fill-rule:evenodd;}.cls-3{fill:#fdd1b3;}.cls-4{fill:#9b4021;}.cls-5{fill:#f26722;}.cls-6{mask:url(#mask);}.cls-7{fill:#fff;}.cls-8{fill:#7795c2;}.cls-9{fill:#eaf1f6;}.cls-10{fill:#3f618f;}.cls-11{fill:#355989;}.cls-12{fill:#355a89;}.cls-13{fill:#e2f0f5;}.cls-14{fill:#336092;}.cls-15{fill:#eff6f7;}.cls-16{fill:#cde2ee;}.cls-17{fill:#e6f2f6;}.cls-18{fill:#c0dcec;}.cls-19{fill:#2f5988;}</style><linearGradient id="linear-gradient" x1="509.62" y1="141.81" x2="509.62" y2="1058.18" gradientUnits="userSpaceOnUse"><stop offset="0.05" stop-color="#fff"/><stop offset="0.26" stop-color="#aeaeae"/><stop offset="0.52" stop-color="#515151"/><stop offset="0.71" stop-color="#171717"/><stop offset="0.79"/></linearGradient><mask id="mask" x="-234.74" y="-21.81" width="1488.73" height="1080" maskUnits="userSpaceOnUse"><polygon class="cls-1" points="818.66 1058.19 -234.74 1058.19 -234.74 -21.81 1253.98 -21.81 818.66 1058.19"/></mask></defs><title>rocket with kid</title><g id="Layer_2" data-name="Layer 2"><g id="Layer_3" data-name="Layer 3"><path class="cls-2" d="M103.23,1.77C97.34-2,91.28.87,86,4.19c-7.89,5-10.9,7.66-17.66,14.31-3.35,3.3-2.41,5.53.13,8.43C74.67,34.07,75,32.68,82.32,36c8.34,3.79,28.08-29.7,20.91-34.25Z"/><path class="cls-3" d="M197.17,197.47c-6.59-15.67-16.87-50.16-14.62-64.77,1.46-9.48-13.57-20.07-20.62-1.56-11.66,30.64,46.64,94.1,35.24,66.33Z"/><path class="cls-4" d="M197.17,197.47c-.73-1.74-1.51-3.71-2.31-5.86a50.58,50.58,0,0,0-8.19,3.71c8.63,9.85,15,13.11,10.5,2.15Z"/><path class="cls-4" d="M175.62,91.53C157,92,139.76,120.63,158,128.27c-4.38,12.77-.32,27.87,6.75,42.47,7.95-2,17.71-4.88,20.48-6.31,1.27-.65,2.32-1.23,3.19-1.78h0c-2.88-13.17-4.47-25.47-3.25-33.35a10.71,10.71,0,0,0,.11-1.26"/><path class="cls-3" d="M105,111.93c.82-18.63-14.31-14.52-20.13-4.46-9,15.54-35.56,44.87-53.76,27.64-4.87-4.61-12.89-6.57-12.23,1.88,1.19,15.16,84,23.62,86.12-25.06Z"/><path class="cls-2" d="M106,111.33c.9-20.17-15.49-15.72-21.8-4.83a101.39,101.39,0,0,1-14.09,18.42c6.84,4.67,13.2,11,16.94,17.53,10.65-6.25,18.29-16.21,19-31.12Z"/><path class="cls-5" d="M200.17,200.69l-.28-.17c-3.89.63-20.48,10.92-7.78,8.36,3.32-.67,11.77-3.77,8.06-8.19Z"/><path class="cls-2" d="M185.43,98.14c2.48-10.06,1.76-8.08-7-12.72C168.24,80,115.73,65.36,106.82,66.51c-27.21,3.49-29.27,30.76-11,52.13,8.4,9.85,61,41.43,71.26,27.09,8.29-11.62,15-33.67,18.39-47.59Z"/><path class="cls-3" d="M107,81.64c7.82-31.77-24.9-70.2-53-60.25C35.57,27.9,27.34,56.44,26.66,74.6c-.68,18.47,18.21,7,30.25,25.81,19.85,31.11,43.63,7.48,50.09-18.77Z"/><path class="cls-4" d="M89.72,31.47C79.44,21.93,66.27,17,54,21.39A25.36,25.36,0,0,0,48,24.46a16.9,16.9,0,0,0-.94,5.93,48.39,48.39,0,0,0,.81,5.9c10.56,4,32.05,4.4,42.85,2.29,1.31-.26.36-3.65-1-7.11Z"/><path class="cls-3" d="M100.6,37.26c1.43-4.94-4.42-11.95-9.44-12C77.88,25,86.09,38.54,94.78,41c5.39,1.52,5.07-1.2,5.82-3.74Z"/><path class="cls-2" d="M71.2,20.83C26.78-17.78-11.28,60,21.68,80.86c3.05,1.93,7.17,5.11,11.54,5.25,10.32-24.79,13.11-46.87,38-65.28Z"/><path class="cls-4" d="M41.84,47.89c-4.4-2.33-11.05-4.65-15.59-3.75-13.09,2.61-14.41,16.48-7.1,21.72,8.13,5.83,14.69,10.7,17.72,2.75,1.31-3.43,8.76-18.73,5-20.72Z"/><path class="cls-4" d="M7.68,88.27c4.27,1.62,10.27-2,12.87-5.21C22.33,80.85,25,78.59,26.19,76c1.94-4.23,3.69-6.61,5.6-11.62,1-2.69,3.57-7.29,1.14-9.5-5.39-4.91-11.88-2.86-16,1.28C11.6,61.44,11.26,61.39,7,65.4c-2.15,2-11.46,9.6-4.39,11C5.4,77,15.32,72.12,15.3,72.17c-1.52,3.57-4.14,8.35-7,10.89-.18.16-3,4.28-.59,5.21Z"/><path class="cls-4" d="M53.41,79.32c-6.89-3.63-9.34,2.51-3.29,4.82,6.2,2.36,11.27-.61,3.29-4.82Z"/><path class="cls-4" d="M61.1,59.13c-6.89-3.64-9.35,2.51-3.29,4.82s11.27-.61,3.29-4.82Z"/><path class="cls-4" d="M77.55,54c-7,5-.58,12.62-1.33,19.25-.77,6.86-5,14.73-4.25,16,2.07,3.48,8.16,3.37,11.55,2.09,27.63-10.41,4.94-45.12-6-37.35Z"/><path class="cls-3" d="M44.43,49.73c-1-4-6-4.89-5.85-5.81C38.06,46.51,28,70.53,28.34,71.8c.52,2,.63,3.21,4,2.88,4.48-.44,12.28-24.1,12-25Z"/><path class="cls-2" d="M67,78.17c1.81-.27,2.54-1.82,2.67-3.49.27-4-1.52-4.66-4.94-5.12-5.39-.73-3.16,4.6-2,4.49a6.25,6.25,0,0,1,1.63.68c1.46.93-.21,3.86,2.65,3.44Z"/><g class="cls-6"><path class="cls-7" d="M697.82,772.73c-17.69,0-36.5,9.41-44.89,23.62a45.28,45.28,0,0,0-54.1-24.75c-6.11-11.93-10.5-23.74-9.19-34.68h0c35.57-166.66,70.17-388.81-6.29-451.13-51.93-42.33-85.05-41.1-85.05-41.1l0,16.53S524,251,574,298.43c72.8,69.16,31.49,279.15,1.23,410.38-.41,1-.83,2.09-1.23,3.29-5.47,16.11-14.81,38.29-28.74,39.06-32,1.77-59.66,19.83-72.44,46.48a87.64,87.64,0,0,0-33.62-6.55A77.2,77.2,0,0,0,387,811.25a53.06,53.06,0,0,0-76.35,32.11c-6-7.48-12.7-13.58-26.2-8.24C219,861,242.12,1056.75,242.12,1056.75l341.27.9Z"/><polygon class="cls-8" points="361.31 189.96 358.76 188.21 318.99 186.44 309.17 199.82 327.35 205.04 349.79 206.95 371.76 202.08 361.31 189.96"/><polygon class="cls-9" points="348.02 167.32 345.47 165.56 255.49 149.2 255.32 175.19 314.06 182.39 336.49 184.3 358.47 179.44 348.02 167.32"/><path class="cls-10" d="M430.14,195.53c4.76-2.95,1.33-8.74,4.34-12.65,5.12,6.48-3,16.43,6,21.5,4-5.7,2.61-12,1.71-19.47,18,12.28,37.63,19.16,56.88,26.76-.05.92-.57.36-1.94,0-5.24-1.3-12.16-9.31-15-3.72-4,8,6.31,10,11.77,13.08,5.88,3.34,12.94,4.65,17.37,10.44a3.73,3.73,0,0,0,3.86,1.76q11.75-9.49.76-19.86c-23.19-12.4-46.25-25.07-69.63-37.12-21.08-10.86-24.79-10.08-41.5,7.15-3.66,3.77-6.58,1.5-9.92.43-2.64,2.83-2.53,5.94-.95,9.21a21.34,21.34,0,0,0,5.81,5c4.49,2.63,6.46,11.12,13.43,7.5,5.89-3.05.05-9.55,2.13-14.13.62-3,1.05-7,4.52-7.38C428,183.12,425,193.13,430.14,195.53Z"/><path class="cls-10" d="M58.59,159.16l.09,6.34c26.89,65.92,79.26,94.61,147.07,102.26,58.69,6.62,117.45,11,176.5,11.55,7.1,4.83,16.08,1.61,23.39,5.53a33.62,33.62,0,0,0,7,2.81,37.6,37.6,0,0,0,7.69,1c17.28.44,34.39,4.34,51.77,2.53A47.28,47.28,0,0,0,482.18,290c3-1,2.57-3.74,2.89-6.07,12.07-6.5,3.86-9.24-2.26-12.4-12.42-7.86-.95-17.92-4-27.82,9.7,1.13,17.43,6.79,26,3.1,5.74-2.94,8.74-7.21,6.74-13.89-3.12-6.11-9.14-8-14.9-10.37-17.74-7.23-35.5-14.43-52.66-22.92-2.71-2-3.33-4.88-3.77-8-.6-4.4.23-10.74-5.2-11.62-5.74-.93-4.61,7-8.26,9.53-2.24,1.75-4.91,2.71-7.38,4.06-5.78,5.48-3.14,12.5-3.52,19,7.35,10.3,20.47,8.6,30,14.43,4.84,3.83,11.17,5.34,15.48,10,5.78,18,3.81,23.13-11.34,29.29-8-.36-10.53-9.79-18-10.94-48.58-10.18-97.83-16.38-146.63-25.19-17.6-3.18-24.09-17.66-14.35-32.39,2.63-4,6.36-4.22,9.8-3.11,7.72,2.5,12,2.45,18.93.83,11.72-2.76,36.58-3.07,50.52-2.49.64.19,1.28.4,1.9.63a48.32,48.32,0,0,1,8.59,2.69c9.54,2.66,18,9.23,28.57,8.23,5.09-2.31,7.71-5.87,5.95-11.67q-.15-4.51-.31-9c-6.93-4.2-14.44-6.94-22.05-9.44h0C343.41,163.06,261.67,131,232.54,118.91,171.1,93.47,117.39,106.43,69.35,150.13,65.89,153.27,62.18,156.15,58.59,159.16Zm207.52,6.78c.05-5.43,6.12-4.65,10-4.92,10.45-.71,20.38-2,31.4-.92,3.46.34,41.22,7.31,42.92,12.86,1.46,4.72-8,1.95-8.28,2h0c-14.9-3.19-54.91-3.23-66.14-4.28C272.2,170.31,266.05,171.73,266.11,165.94Z"/><path class="cls-11" d="M418.94,284.66l-7-.09c-3.89,1.18-7.4,3.83-11.87,3.05,1-4.9,6.89-2.16,8.66-5.7-8.2-7.14-17.58-2.41-26.47-2.61,8.59,22.53,10.48,23.87,34.58,23,17.34-.65,34.66-1.69,52-2.33,6.91-.26,12.61-1.61,13.36-9.92-1.77-2.85-4.51-3.1-7.46-2.8-19.33,7.84-40,3.66-59.94,6.59C419.48,292.15,421.28,289.33,418.94,284.66Z"/><path class="cls-12" d="M513.48,283.89c10-.23,21.1,1.93,26-10.79,1.74-19.81,1.16-21.58-16.53-26.29-8.45-2.25-5.15-10.82-10.14-14.37l-.31-.44a1.89,1.89,0,0,0-2.75.36c1.43,6.24-3.59,9.48-6.39,13.75,1.27,6.48,7.18,6.81,11.79,8.61,2.66,1,5.43.22,4.7,5.23-.68,4.7,11.2,5,6.43,11.72-4.4,6.17-11.6,1.37-17.58,1.45-9,.12-18.18-6.44-26.93.87,1.46,3.21,10.71,3.82,3.34,10C494.53,282.26,504,282.78,513.48,283.89Z"/><path class="cls-9" d="M388.63,202.59,360.25,193c-7.27,5.12,13,14.38,4,12-17.23-2.66-33.77-8.31-50.87-11.55-4.66-.88-9.24-2.54-13.8.23-9.16-1.76-18.34-3.47-27.48-5.31-4.72-.94-6.79.75-6.72,5.62a83.4,83.4,0,0,1-.55,14.15c-3.57,22.74-3.64,22.57,19.6,26.3Q359,246.35,433.51,258.56c6.6-11.07,8.38-17,16.12-34.67L417.11,212C409.07,204.44,399.05,202.92,388.63,202.59Z"/><path class="cls-9" d="M178.41,201.46c15.25,3.76,30.66,7,45.69,11.46,11.67,3.49,15.35-2.32,16.93-11.93s4.19-19.25-10.48-21.33c-18.11-2.58-36.1-6-54.15-9.07l.09-4.73c15.73-.2,31.48-1,47.18-.44,13.43.47,12.69-5.65,7.69-14.14-3.86-6.54-9.33-11.68-17.21-12.86-8.85-1.32-17.77-2.8-26.68-2.92-10-.13-22.08-2.08-29.37,2.7-8.81,5.77,2.08,16.32,2,25.27-.16,14.09-2.46,27.38-9.05,39.62-3.85,7.16-2.39,9.45,5.15,12,19.1,6.57,38.92,8.16,62.23,12.14l-41.55-23.15Z"/><path class="cls-9" d="M141.27,169.35c-.38-6.55-.47-9.69-.75-12.82-1.15-12.85-6.69-17.6-19.35-11.23-10.72,5.4-21.86,10-32.75,15-7.7,3.58-8,8.08-2.21,14.26,10.93,11.62,24.06,20,37.76,27.85,6.48,3.7,8.25,0,10.05-4.6C138,187.58,142.1,177.32,141.27,169.35Z"/><path class="cls-9" d="M481.73,274c11.33,1.51,22.72,2.63,33.95,4.65C523,280,529,280.4,532.57,272.21c3.71-8.51-5.48-8-7.36-11.7-5-9.65-14.81-9.47-21.89-14.4l-27.07-7.74c-.57,7.56,1.05,16-2.14,21.79C468.23,270.82,473.33,272.64,481.73,274Z"/><path class="cls-13" d="M509.71,232.36a3.09,3.09,0,0,1,2.75-.35c.31-9.6-8.81-8.95-13.89-12.57-5.32-3.79-12.31-5-18.57-12.85l24.57,9.81c.28-.72.57-1.43.86-2.15l-65.79-33.89c1,9.19-1.95,16.5.84,24Z"/><path class="cls-14" d="M449.63,223.89c-10.05,15.82-23.76,14.6-39.95,10.85-23.65-5.46-47.91-8.27-72.36-10.14,28.26,7.55,56.5,15.15,84.78,22.62,6.1,1.62,12.89,2.23,11.41,11.34,5.86,4,7.56,14.16,17.64,11.94a7,7,0,0,0-.35-3.12c-9.27-22.62-8.11-25.39,13.94-33.12C461.78,227.77,452.21,230.93,449.63,223.89Z"/><path class="cls-15" d="M464.74,234.26c-8.72-3.62-16.66-3.55-21.24,6.14-5.62,11.91-3.71,22.31,7.65,30.1C469.34,264.15,472.86,254.76,464.74,234.26Z"/><path class="cls-16" d="M418.94,284.66c-1.68,3.64-3.37,7.27-5.71,12.32,19.49-.27,38.16.85,56.66-3.75,3.72-.92,5.8-1.88,4.83-6Z"/><path class="cls-8" d="M388.63,202.59c8.76,5.36,19,6.12,28.48,9.38,4.45-4.93,1.35-11.57,3.82-16.94-1.26-5.67-4.67-7.44-10.09-5.58l2.39,15.35c-7.11-3.9-8.13-15.61-18-11.92Q391.92,197.74,388.63,202.59Z"/><path class="cls-17" d="M410.84,189.45,420.93,195l9.21.5c0-1.54.14-3.07.11-4.61-.1-6,1.68-13.55-7.26-14.22C414.77,176.08,411.71,182.14,410.84,189.45Z"/><path class="cls-18" d="M408.71,281.92l-17.07.22c6.6,14.86,9.34,15.15,20.28,2.43Z"/><path class="cls-9" d="M310.36,177.42c10.85,4.65,21.68,9.35,32.58,13.9,3.69,1.55,7.69,4,10.81-1.07l-13.1-6C330.16,183.72,322,172.92,310.36,177.42Z"/><path class="cls-19" d="M363.74,199.05c-5.92,3.24.74,6.56-.06,9.83l27.73,7c3.08.17,7.21,2.27,6.87-3.77Z"/><path class="cls-9" d="M398.28,212.11c-1.21,3.22-4.41,2.81-6.87,3.77A47.13,47.13,0,0,0,416.73,221C411,214.91,404.12,214.61,398.28,212.11Z"/></g><path class="cls-2" d="M91.31,112.59s35.08-12.27,50.81-12.67,37.43,9.53,40.79,6.12c1-2.87,2.05-6.15,2.05-6.15L178,90.13l-47.7-7L108.06,96.52Z"/><path class="cls-3" d="M168.36,124.63c-2.82,6.08-2.13,14.3,5.67,11,14-5.94-4.29-87.11-51.13-73.68-17.92,5.13-9.22,18.17,2.17,20.5,17.59,3.58,53.84,19.45,43.29,42.19Z"/><path class="cls-2" d="M142.07,88.86c1.94-5.87,8.8-17.38,13.46-21.39-9-7-20.24-10.33-33.62-6.49-19.42,5.57-10,19.69,2.35,22.21a98.77,98.77,0,0,1,17.81,5.67Z"/><path class="cls-3" d="M217.61,186.71c3.48,6.5,10.35,6.49,7.88-1.2-7.8-16.57-12.78-53.12-12.36-66.84.64-21-43.45-42.81-20.24,26.09,3.74,11.1,21,36.32,24.72,42Z"/><path class="cls-4" d="M225.49,185.51a76.4,76.4,0,0,1-3.64-9.72c-3.15,1.09-6.75,2.61-9.21,3.46,2.23,3.37,4,6,5,7.46,3.48,6.5,10.35,6.49,7.88-1.2Z"/><path class="cls-2" d="M217.69,189c-2.67.34-3.45-.74-4.18-.66-.9.1-.33,1.72.58,2.34,1.9,1.3,5,3.47,7.42,3.43,1.72,0,7.29-3.6,5.23-6.84a1.9,1.9,0,0,0-1-.86c.52.29.13,0-.93.48a29.81,29.81,0,0,1-7.12,2.11Z"/><path class="cls-4" d="M209.87,96c-12.94-8-18.17-9.92-25.55-7.62,0,0,2.73,3.28,1.08,10-.59,2.44-1.7,4.89-2.49,7.72,1.62,10.64,3.85,21.68,3.85,21.68,7.91.33,27.34-8.44,27.34-8.44C216.43,111.53,213.21,98,209.87,96Z"/></g></g></svg>